<svg xmlns="http://www.w3.org/2000/svg" preserveAspectRatio="xMidYMid" width="90" height="3801" viewBox="0 0 90 3801"><defs><style>.cls-1,.cls-2,.cls-3,.cls-4{fill:#707070}.cls-1,.cls-2,.cls-3{fill-rule:evenodd}.cls-2{opacity:.55}.cls-3{fill-opacity:.85}.cls-4{opacity:0}</style></defs><path d="M68.81 3732.9l-2.84 2.83-18.88-18.91a3.012 3.012 0 0 0-4.25 0l-18.98 18.97-2.87-2.87 20.41-20.39a4.994 4.994 0 0 1 7.07.01l6.53 6.53V3712c0-.55.45-1 1-1h6c.55 0 1 .45 1 1v15.08l5.81 5.82zm-21.69-12.51L63 3736.27V3756c0 1.66-1.34 3-3 3H30c-1.66 0-3-1.34-3-3v-19.73l15.88-15.88a3 3 0 0 1 4.24 0zM39 3759h12v-18H39v18zM52.73 3669h-8.95c0-12.58-10.2-22.78-22.78-22.78v-8.95c17.52 0 31.73 14.21 31.73 31.73zM21 3662.49a6.51 6.51 0 0 1 6.51-6.51c3.59 0 6.51 2.92 6.51 6.51 0 3.6-2.92 6.51-6.51 6.51-3.6 0-6.51-2.91-6.51-6.51zm48 6.51h-8.95c0-21.57-17.48-39.05-39.05-39.05V3621c26.51 0 48 21.49 48 48zM21 3532.01c2.99-.03 6.57-.02 8.6.46 9.02 2.13 15.48 8.53 17.6 17.65.7 3.02.7 7.27-.06 10.27-.57 2.25-1.44 4.39-2.5 6.19-3.37 5.7-9.08 9.86-16.11 11.09-2.1.37-5 .33-7.53.33v-10c1.95.02 4.63-.04 6.07-.29 6.08-1.02 10.59-6.51 10.68-12.2.08-4.58-1.51-7.02-2.41-8.12-3.76-4.53-6.52-5.73-14.34-5.39v-9.99zM51 3550c3.85.06 6.62.47 7.72-2.72.26-.74.38-1.99 0-2.72-1.77-3.44-3.76-2.18-10.4-2.44-1.58-3.28-4.2-6.24-6.97-8.35-.82-.57-1.65-1.13-2.47-1.7v-.06h12.14c2.78 0 5.72-.13 7.87.51 6.52 1.95 12.29 9.15 9.15 18.56-.32.97-1.5 2.99-2.29 3.86.07.08.15.15.22.23.38.55.75 1.1 1.13 1.65.69 1.17 1.2 2.61 1.57 4.08.88 3.52-.15 7.48-1.46 9.71-1.96 3.33-4.5 5.57-8.49 6.78-2.04.61-4.86.57-7.48.58-4.08.01-8.15.03-12.24.03.04-.06.06-.24.1-.3 2.41-1.13 6.27-5.24 7.76-7.38.52-.85 1.05-1.7 1.57-2.55 6.46-.24 8.46 1.01 10.29-2.44.39-.72.29-1.99 0-2.73-1.22-3.12-3.53-2.6-7.72-2.6.27-1.8.62-2.8.62-4.82 0-2.01-.47-3.97-.62-5.18zM68.77 3468.17c-.07.47-.13.95-.22 1.41-.07.35-.15.69-.24 1.03-.09.38-.18.76-.29 1.13-.11.38-.24.76-.37 1.13-.1.31-.21.62-.33.92-.16.41-.34.81-.52 1.2-.11.25-.23.5-.36.74-.21.43-.43.85-.67 1.26-.11.18-.22.37-.33.55-.28.44-.56.88-.86 1.31-.08.11-.17.22-.25.34-.35.47-.7.93-1.08 1.38-.42.49-.85.97-1.3 1.42a24.078 24.078 0 0 1-7.62 5.13c-.06.03-.13.04-.2.07-.65.27-1.32.52-2 .73-.18.06-.37.09-.55.14-.58.17-1.15.33-1.75.45-.36.08-.72.11-1.09.17-.43.07-.85.15-1.29.2-.8.08-1.62.12-2.45.12-.83 0-1.65-.04-2.45-.12-.44-.05-.86-.13-1.29-.2-.36-.06-.73-.09-1.09-.17-.6-.12-1.17-.28-1.75-.45-.18-.05-.37-.08-.55-.14-.68-.21-1.35-.46-2-.73-.07-.03-.13-.04-.2-.07a24.078 24.078 0 0 1-7.62-5.13c-.45-.45-.88-.93-1.3-1.42-.37-.45-.73-.91-1.07-1.38-.09-.12-.18-.23-.26-.34-.3-.43-.58-.87-.86-1.31-.11-.18-.22-.37-.33-.55-.24-.41-.46-.83-.67-1.26a10.1 10.1 0 0 1-.36-.74c-.18-.39-.35-.79-.52-1.2-.11-.3-.22-.61-.33-.92-.13-.37-.26-.75-.37-1.13-.11-.37-.2-.75-.29-1.13-.09-.34-.17-.68-.24-1.03-.09-.46-.15-.94-.22-1.41-.03-.28-.08-.56-.11-.84-.08-.77-.12-1.54-.12-2.33s.04-1.56.12-2.33c.03-.28.08-.56.11-.84.07-.47.13-.94.22-1.41.07-.35.15-.69.24-1.03.09-.38.18-.76.29-1.13.11-.38.24-.75.37-1.13.11-.31.22-.62.33-.92.17-.41.34-.81.52-1.2.11-.25.23-.5.36-.74.21-.42.43-.85.67-1.26.11-.18.22-.36.33-.55.28-.44.56-.88.86-1.31.08-.11.17-.22.26-.34.34-.47.7-.93 1.07-1.38.42-.48.85-.97 1.3-1.42 2.17-2.16 4.75-3.92 7.62-5.13.07-.03.13-.04.2-.07.65-.27 1.32-.52 2-.73.18-.06.37-.09.55-.14.58-.17 1.15-.33 1.75-.45.36-.08.73-.11 1.09-.17.43-.07.85-.15 1.29-.2.8-.08 1.62-.12 2.45-.12.83 0 1.65.04 2.45.12.44.05.86.13 1.29.2.37.06.73.09 1.09.17.6.12 1.17.28 1.75.45.18.05.37.08.55.14.68.21 1.35.46 2 .73.07.03.14.04.2.07 2.87 1.21 5.45 2.97 7.62 5.13.45.45.88.94 1.3 1.42.38.45.73.91 1.08 1.38.08.12.17.23.25.34.3.43.58.87.86 1.31.11.19.22.37.33.55.24.41.46.84.67 1.26.13.24.25.49.36.74.18.39.36.79.52 1.2.12.3.23.61.33.92.13.38.26.75.37 1.13.11.37.2.75.29 1.13.09.34.17.68.24 1.03.09.47.15.94.22 1.41.03.28.09.56.11.84.08.77.12 1.54.12 2.33s-.04 1.56-.12 2.33c-.02.28-.08.56-.11.84zM38.8 3486.1c-1.66-1.67-3.08-4.01-4.2-6.79a28.03 28.03 0 0 0-4.67 1.69 21.99 21.99 0 0 0 8.87 5.1zm-10.26-6.54c1.6-.82 3.4-1.53 5.37-2.08-1.11-3.37-1.8-7.28-1.89-11.48h-8.98c.24 5.2 2.28 9.91 5.5 13.56zm-5.5-15.56h8.98c.09-4.2.78-8.1 1.89-11.48-1.97-.55-3.77-1.26-5.37-2.08a21.99 21.99 0 0 0-5.5 13.56zm6.89-15c1.4.66 2.96 1.23 4.67 1.69 1.12-2.78 2.54-5.12 4.2-6.79a21.99 21.99 0 0 0-8.87 5.1zm14.07-5.9c-3.04.55-5.71 3.57-7.53 8.04 2.33.49 4.87.78 7.53.84v-8.88zm0 10.87c-2.89-.06-5.66-.39-8.2-.96-1.04 3.19-1.68 6.94-1.77 10.99H44v-10.03zm0 12.03h-9.97c.09 4.05.73 7.81 1.77 10.99 2.54-.57 5.31-.9 8.2-.96V3466zm0 12.03c-2.66.06-5.2.34-7.53.83 1.82 4.47 4.49 7.49 7.53 8.04v-8.87zM66.96 3466h-8.98c-.09 4.2-.78 8.11-1.89 11.48 1.97.55 3.77 1.26 5.37 2.08 3.22-3.65 5.26-8.36 5.5-13.56zm-6.89 15a28.03 28.03 0 0 0-4.67-1.69c-1.12 2.78-2.54 5.12-4.2 6.79a21.99 21.99 0 0 0 8.87-5.1zM46 3486.9c3.04-.55 5.71-3.57 7.53-8.04-2.33-.49-4.87-.77-7.53-.83v8.87zm0-10.87c2.9.06 5.66.39 8.2.96 1.04-3.18 1.68-6.94 1.78-10.99H46v10.03zm0-12.03h9.98c-.1-4.05-.74-7.8-1.78-10.99-2.54.57-5.3.9-8.2.96V3464zm0-12.02c2.66-.06 5.2-.35 7.53-.84-1.82-4.47-4.49-7.49-7.53-8.04v8.88zm5.2-8.08c1.66 1.67 3.08 4.01 4.2 6.79a28.03 28.03 0 0 0 4.67-1.69 21.99 21.99 0 0 0-8.87-5.1zm10.26 6.54c-1.6.82-3.4 1.53-5.37 2.08 1.11 3.38 1.8 7.28 1.89 11.48h8.98a21.99 21.99 0 0 0-5.5-13.56zM57 3387c-6.63 0-12-5.37-12-12s5.37-12 12-12 12 5.37 12 12-5.37 12-12 12zm0-21a9 9 0 1 0 0 18 9 9 0 0 0 0-18zm-24 21c-6.63 0-12-5.37-12-12s5.37-12 12-12 12 5.37 12 12-5.37 12-12 12zM63.82 3309H61v-2h2a4 4 0 0 0 4-4v-2h2v2.86c0 2.84-2.32 5.14-5.18 5.14zm3.18-14h2v4h-2v-4zm0-6h2v4h-2v-4zm0-6h2v4h-2v-4zm0-6h2v4h-2v-4zm0-6h2v4h-2v-4zm0-4a4 4 0 0 0-4-4h-2v-2h2.82c2.86 0 5.18 2.3 5.18 5.14v2.86h-2v-2zm-8-6v2h-4v-2h4zm0 48h-4v-2h4v2zm-6-46h-4v-2h4v2zm0 46h-4v-2h4v2zm-6-46h-4v-2h4v2zm-10 44h4v2h-4v-2zm0-46h4v2h-4v-2zm-6 46h4v2h-4v-2zm0-46h4v2h-4v-2zm-10 42.86V3301h2v2a4 4 0 0 0 4 4h2v2h-2.82c-2.86 0-5.18-2.3-5.18-5.14zm2-36.86v2h-2v-2.86c0-2.84 2.32-5.14 5.18-5.14H29v2h-2a4 4 0 0 0-4 4zm-2 4h2v4h-2v-4zm2 10h-2v-4h2v4zm0 6h-2v-4h2v4zm0 6h-2v-4h2v4zm-2 2h2v4h-2v-4zm26 14h-4v-2h4v2z" class="cls-1"/><path d="M56.25 3285.75v-1.5h3v1.5h-3zm-3.82 7.73l1.07-1.06 2.12 2.11-1.06 1.07-2.13-2.12zm-.01-16.97l2.12-2.12 1.06 1.06-2.12 2.12-1.06-1.06zm-8.17 19.74h1.5v3h-1.5v-3zm0-25.5h1.5v3h-1.5v-3zm-9.85 23.8l2.12-2.12 1.06 1.06-2.12 2.12-1.06-1.06zm-.02-19.08l1.06-1.07 2.13 2.12-1.06 1.07-2.13-2.12zm-3.63 8.78h3v1.5h-3v-1.5z" class="cls-2"/><path d="M45 3303c-9.94 0-18-8.06-18-18s8.06-18 18-18 18 8.06 18 18-8.06 18-18 18zm0-33c-8.28 0-15 6.72-15 15 0 8.28 6.72 15 15 15 8.28 0 15-6.72 15-15 0-8.28-6.72-15-15-15zm2.89 14.23c.06.25.11.5.11.77 0 1.66-1.34 3-3 3-1.3 0-2.4-.84-2.82-2H33c-.55 0-1-.45-1-1s.45-1 1-1h9.18c.42-1.16 1.52-2 2.82-2 .27 0 .52.05.77.11l4.35-4.35a1.49 1.49 0 0 1 2.12 0c.59.58.59 1.53 0 2.12l-4.35 4.35zM67 3185a4 4 0 0 0-4-4H27a4 4 0 0 0-4 4v28a4 4 0 0 0 4 4h20.21c.78.77 1.66 1.43 2.61 2H26c-2.76 0-5-2.24-5-5v-38c0-2.76 2.24-5 5-5h2v6a2 2 0 0 0 4 0v-6h6v6a2 2 0 0 0 4 0v-6h6v6a2 2 0 0 0 4 0v-6h6v6a2 2 0 0 0 4 0v-6h2c2.76 0 5 2.24 5 5v23.82c-.57-.95-1.23-1.83-2-2.61V3185zm-7-7c-.55 0-1-.45-1-1v-7c0-.55.45-1 1-1s1 .45 1 1v7c0 .55-.45 1-1 1zm-10 0c-.55 0-1-.45-1-1v-7c0-.55.45-1 1-1s1 .45 1 1v7c0 .55-.45 1-1 1zm-10 0c-.55 0-1-.45-1-1v-7c0-.55.45-1 1-1s1 .45 1 1v7c0 .55-.45 1-1 1zm-10 0c-.55 0-1-.45-1-1v-7c0-.55.45-1 1-1s1 .45 1 1v7c0 .55-.45 1-1 1z" class="cls-1"/><path d="M64 3193h-2c-.55 0-1-.45-1-1v-1c0-.55.45-1 1-1h2c.55 0 1 .45 1 1v1c0 .55-.45 1-1 1zm0-5h-2c-.55 0-1-.45-1-1v-1c0-.55.45-1 1-1h2c.55 0 1 .45 1 1v1c0 .55-.45 1-1 1zm-6 5h-2c-.55 0-1-.45-1-1v-1c0-.55.45-1 1-1h2c.55 0 1 .45 1 1v1c0 .55-.45 1-1 1zm-6 0h-2c-.55 0-1-.45-1-1v-1c0-.55.45-1 1-1h2c.55 0 1 .45 1 1v1c0 .55-.45 1-1 1zm-5.65 4.93c-.11.04-.23.07-.35.07h-2c-.55 0-1-.45-1-1v-1c0-.55.45-1 1-1h2c.55 0 1 .45 1 1v1c0 .1-.03.18-.05.27-.21.22-.41.43-.6.66zM46 3193h-2c-.55 0-1-.45-1-1v-1c0-.55.45-1 1-1h2c.55 0 1 .45 1 1v1c0 .55-.45 1-1 1zm-6 15h-2c-.55 0-1-.45-1-1v-1c0-.55.45-1 1-1h2c.55 0 1 .45 1 1v1c0 .55-.45 1-1 1zm0-5h-2c-.55 0-1-.45-1-1v-1c0-.55.45-1 1-1h2c.55 0 1 .45 1 1v1c0 .55-.45 1-1 1zm0-5h-2c-.55 0-1-.45-1-1v-1c0-.55.45-1 1-1h2c.55 0 1 .45 1 1v1c0 .55-.45 1-1 1zm0-5h-2c-.55 0-1-.45-1-1v-1c0-.55.45-1 1-1h2c.55 0 1 .45 1 1v1c0 .55-.45 1-1 1zm-6 20h-2c-.55 0-1-.45-1-1v-1c0-.55.45-1 1-1h2c.55 0 1 .45 1 1v1c0 .55-.45 1-1 1zm0-5h-2c-.55 0-1-.45-1-1v-1c0-.55.45-1 1-1h2c.55 0 1 .45 1 1v1c0 .55-.45 1-1 1zm0-5h-2c-.55 0-1-.45-1-1v-1c0-.55.45-1 1-1h2c.55 0 1 .45 1 1v1c0 .55-.45 1-1 1zm0-5h-2c-.55 0-1-.45-1-1v-1c0-.55.45-1 1-1h2c.55 0 1 .45 1 1v1c0 .55-.45 1-1 1zm0-5h-2c-.55 0-1-.45-1-1v-1c0-.55.45-1 1-1h2c.55 0 1 .45 1 1v1c0 .55-.45 1-1 1zm-6 20h-2c-.55 0-1-.45-1-1v-1c0-.55.45-1 1-1h2c.55 0 1 .45 1 1v1c0 .55-.45 1-1 1zm0-5h-2c-.55 0-1-.45-1-1v-1c0-.55.45-1 1-1h2c.55 0 1 .45 1 1v1c0 .55-.45 1-1 1zm0-5h-2c-.55 0-1-.45-1-1v-1c0-.55.45-1 1-1h2c.55 0 1 .45 1 1v1c0 .55-.45 1-1 1zm0-5h-2c-.55 0-1-.45-1-1v-1c0-.55.45-1 1-1h2c.55 0 1 .45 1 1v1c0 .55-.45 1-1 1zm0-5h-2c-.55 0-1-.45-1-1v-1c0-.55.45-1 1-1h2c.55 0 1 .45 1 1v1c0 .55-.45 1-1 1zm16 7h.89c-.53.92-.97 1.89-1.28 2.92a.998.998 0 0 1-.61-.92v-1c0-.55.45-1 1-1zm-1 7v-1c0-.12.03-.23.07-.33-.04.44-.07.88-.07 1.33zm21.74-11.66c-.15-.1-.31-.19-.46-.28.18.05.33.14.46.28zm-15.01-.28c-.16.09-.32.18-.47.28a.99.99 0 0 1 .47-.28z" class="cls-1"/><path d="M58 3188h-2c-.55 0-1-.45-1-1v-1c0-.55.45-1 1-1h2c.55 0 1 .45 1 1v1c0 .55-.45 1-1 1zm-6 0h-2c-.55 0-1-.45-1-1v-1c0-.55.45-1 1-1h2c.55 0 1 .45 1 1v1c0 .55-.45 1-1 1zm-6 0h-2c-.55 0-1-.45-1-1v-1c0-.55.45-1 1-1h2c.55 0 1 .45 1 1v1c0 .55-.45 1-1 1zm-6 25h-2c-.55 0-1-.45-1-1v-1c0-.55.45-1 1-1h2c.55 0 1 .45 1 1v1c0 .55-.45 1-1 1zm0-25h-2c-.55 0-1-.45-1-1v-1c0-.55.45-1 1-1h2c.55 0 1 .45 1 1v1c0 .55-.45 1-1 1zm-6 0h-2c-.55 0-1-.45-1-1v-1c0-.55.45-1 1-1h2c.55 0 1 .45 1 1v1c0 .55-.45 1-1 1zm-6 0h-2c-.55 0-1-.45-1-1v-1c0-.55.45-1 1-1h2c.55 0 1 .45 1 1v1c0 .55-.45 1-1 1zm15.39 22.23c.23.97.56 1.89.98 2.77H44c-.55 0-1-.45-1-1v-1c0-.32.16-.59.39-.77zM64.5 3207.5v-1h2v1h-2zm-2.54 5.15l.7-.71 1.42 1.42-.71.71-1.41-1.42zm-.01-11.31l1.41-1.41.71.7-1.42 1.42-.7-.71zm-5.45 13.16h1v2h-1v-2zm0-17h1v2h-1v-2zm-6.57 15.87l1.42-1.42.7.71-1.41 1.42-.71-.71zm-.01-12.73l.71-.7 1.41 1.41-.7.71-1.42-1.42zm-2.42 5.86h2v1h-2v-1z" class="cls-2"/><path d="M57 3219c-6.63 0-12-5.37-12-12s5.37-12 12-12 12 5.37 12 12-5.37 12-12 12zm0-22c-5.52 0-10 4.48-10 10s4.48 10 10 10 10-4.48 10-10-4.48-10-10-10zm1.93 9.49c.04.16.07.33.07.51 0 1.11-.89 2-2 2-.74 0-1.38-.4-1.72-1H49.5c-.55 0-1-.45-1-1s.45-1 1-1h5.78c.34-.59.98-1 1.72-1 .18 0 .35.03.51.07l2.9-2.9c.39-.39 1.03-.39 1.42 0 .39.39.39 1.02 0 1.41l-2.9 2.91z" class="cls-1"/><path d="M60 3105.99v-2h4v2h-4zm-5.09 10.31l1.42-1.41 2.83 2.82-1.42 1.42-2.83-2.83zm-.02-22.62l2.83-2.83 1.42 1.41-2.83 2.83-1.42-1.41zM44 3120h2v4h-2v-4zm0-34h2v4h-2v-4zm-13.13 31.74l2.82-2.83 1.42 1.41-2.83 2.83-1.41-1.41zm-.03-25.45l1.42-1.42 2.83 2.83-1.42 1.41-2.83-2.82zM26 3104.01h4v2h-4v-2z" class="cls-2"/><path d="M45 3129c-13.25 0-24-10.74-24-24 0-13.25 10.75-24 24-24 13.26 0 24 10.75 24 24 0 13.26-10.74 24-24 24zm0-44c-11.05 0-20 8.95-20 20s8.95 20 20 20 20-8.95 20-20-8.95-20-20-20zm3.85 18.98c.09.33.15.66.15 1.02a4 4 0 0 1-4 4c-1.48 0-2.75-.81-3.44-2H30a2 2 0 0 1 0-4h11.56c.69-1.19 1.96-2 3.44-2 .36 0 .7.06 1.03.15l5.8-5.81c.78-.78 2.04-.78 2.82 0 .79.78.79 2.05.01 2.83l-5.81 5.81z" class="cls-1"/><path d="M80 3091c-2.65.53-7.02.72-7 4 .03 3.8 5.17 2.25 6 2 1.79-.54 3.62-2.44 4.97-4.12A22.72 22.72 0 0 1 83 3096c-2.17 5.41-8.31 12.81-13.96 18.9A25.86 25.86 0 0 0 71 3105c0-14.36-11.64-26-26-26-.47 0-.94.05-1.4.07 3.98-1.52 7.67-2.8 9.4-3.07 3.22-.5 6.54-.45 9.5-.29-1.01.54-2.2 1.36-2.5 2.29-.88 2.73 1.46 3.45 4 2 2.3-1.31 2.49-2.86 2.14-4.06 2.08.15 3.79.25 4.86.06 7.14-1.24 12-9 12-9s.02.07.04.18c-.23 3.28-1.03 8.38-3.04 11.82-2.83 4.84-9 7-9 7s7.11 2.68 13-6c.31-.46.51-1.04.63-1.7.15 1.83.24 3.77.24 5.72-.32 2.44-1.37 6.28-4.87 6.98zM47.1 3038.91c-13.2 1.16-24.85-8.6-26.01-21.81-1.16-13.2 8.6-24.85 21.81-26.01 13.2-1.16 24.85 8.6 26.01 21.81 1.16 13.2-8.6 24.85-21.81 26.01zm5.84-43.35c-10.74-4.39-23 .76-27.38 11.5-4.39 10.74.76 23 11.5 27.38 10.74 4.39 23-.76 27.38-11.5 4.39-10.74-.76-23-11.5-27.38z" class="cls-1"/><path d="M47.1 3038.91c-13.2 1.16-24.85-8.6-26.01-21.81-1.16-13.2 8.6-24.85 21.81-26.01 13.2-1.16 24.85 8.6 26.01 21.81 1.16 13.2-8.6 24.85-21.81 26.01zm5.42-44.97c-5.74-3.31-20.16-3.06-27.45 9.57-7.3 12.66-.26 25.24 5.48 28.55 5.74 3.31 15.31-2.54 21.38-13.06 6.07-10.53 6.33-21.75.59-25.06zM63.82 2949H61v-2h2a4 4 0 0 0 4-4v-2h2v2.86c0 2.84-2.32 5.14-5.18 5.14zm3.18-14h2v4h-2v-4zm0-6h2v4h-2v-4zm0-6h2v4h-2v-4zm0-6h2v4h-2v-4zm0-6h2v4h-2v-4zm0-4a4 4 0 0 0-4-4h-2v-2h2.82c2.86 0 5.18 2.3 5.18 5.14v2.86h-2v-2zm-8-6v2h-4v-2h4zm0 48h-4v-2h4v2zm-6-46h-4v-2h4v2zm0 46h-4v-2h4v2zm-6-46h-4v-2h4v2zm-10 44h4v2h-4v-2zm0-46h4v2h-4v-2zm-6 46h4v2h-4v-2zm0-46h4v2h-4v-2zm-10 42.86V2941h2v2a4 4 0 0 0 4 4h2v2h-2.82c-2.86 0-5.18-2.3-5.18-5.14zm2-36.86v2h-2v-2.86c0-2.84 2.32-5.14 5.18-5.14H29v2h-2a4 4 0 0 0-4 4zm-2 4h2v4h-2v-4zm2 10h-2v-4h2v4zm0 6h-2v-4h2v4zm0 6h-2v-4h2v4zm-2 2h2v4h-2v-4zm26 14h-4v-2h4v2zM51 2941l10-10v10H51zm-16.82 0c-2.86 0-5.18-2.3-5.18-5.14v-21.72c0-2.84 2.32-5.14 5.18-5.14h21.64c2.86 0 5.18 2.3 5.18 5.14V2927l-14 14H34.18zM59 2914c0-1.66-1.34-3-3-3H34c-1.66 0-3 1.34-3 3v22c0 1.66 1.34 3 3 3h11l14-14v-11zM54 2859l10-10v10H54zm-22.82 0c-2.86 0-5.18-2.3-5.18-5.14v-37.72c0-2.84 2.32-5.14 5.18-5.14h27.64c2.86 0 5.18 2.3 5.18 5.14V2845l-14 14H31.18zM62 2816c0-1.66-1.34-3-3-3H31c-1.66 0-3 1.34-3 3v38c0 1.66 1.34 3 3 3h17l14-14v-27zM63.82 2769H61v-2h2a4 4 0 0 0 4-4v-2h2v2.86c0 2.84-2.32 5.14-5.18 5.14zm3.18-14h2v4h-2v-4zm0-6h2v4h-2v-4zm0-6h2v4h-2v-4zm0-6h2v4h-2v-4zm0-6h2v4h-2v-4zm0-4a4 4 0 0 0-4-4h-2v-2h2.82c2.86 0 5.18 2.3 5.18 5.14v2.86h-2v-2zm-8-6v2h-4v-2h4zm0 48h-4v-2h4v2zm-6-46h-4v-2h4v2zm0 46h-4v-2h4v2zm-6-46h-4v-2h4v2zm-10 44h4v2h-4v-2zm0-46h4v2h-4v-2zm-6 46h4v2h-4v-2zm0-46h4v2h-4v-2zm-10 42.86V2761h2v2a4 4 0 0 0 4 4h2v2h-2.82c-2.86 0-5.18-2.3-5.18-5.14zm2-36.86v2h-2v-2.86c0-2.84 2.32-5.14 5.18-5.14H29v2h-2a4 4 0 0 0-4 4zm-2 4h2v4h-2v-4zm2 10h-2v-4h2v4zm0 6h-2v-4h2v4zm0 6h-2v-4h2v4zm-2 2h2v4h-2v-4zm26 14h-4v-2h4v2zM60 2763H30s-.22-14.72 2.25-18c2.09-2.77 3.74-3.02 5.25-3 1.54.02 2.07 1.47 3.75 2.25 1.83.86 3.75.75 3.75.75s1.92.11 3.75-.75c1.68-.78 2.21-2.23 3.75-2.25 1.51-.02 3.17.23 5.25 3 2.47 3.28 2.25 18 2.25 18zm-15-20.25c-4.14 0-7.5-3.53-7.5-7.87 0-4.35 3.36-7.88 7.5-7.88 4.14 0 7.5 3.53 7.5 7.88 0 4.34-3.36 7.87-7.5 7.87zM65 2679H25s-.3-19.62 3-24c2.78-3.69 4.99-4.03 7-4 2.05.03 2.76 1.96 5 3 2.45 1.14 5 1 5 1s2.56.14 5-1c2.24-1.04 2.95-2.97 5-3 2.01-.03 4.22.31 7 4 3.3 4.38 3 24 3 24zm-20-27c-5.52 0-10-4.7-10-10.5s4.48-10.5 10-10.5 10 4.7 10 10.5-4.48 10.5-10 10.5zM60 2589H30c-2.76 0-5-2.24-5-5v-20c0-2.76 2.24-5 5-5h30c2.76 0 5 2.24 5 5v20c0 2.76-2.24 5-5 5zm-15-23c-2.76 0-5 2.24-5 5 0 2.05 1.24 3.81 3 4.58v4.42a2 2 0 0 0 2 2c1.11 0 2-.89 2-2v-4.42c1.76-.77 3-2.53 3-4.58 0-2.76-2.24-5-5-5zm10.95-9c.03-.33.05-.66.05-1 0-6.07-4.92-11-11-11s-11 4.93-11 11c0 .34.02.67.05 1h-4c-.02-.33-.05-.66-.05-1 0-8.28 6.72-15 15-15 8.28 0 15 6.72 15 15 0 .34-.03.67-.05 1h-4zM58.82 2499H31.18c-2.86 0-5.18-2.3-5.18-5.14V2477h-2v-4h2v-16.86c0-2.84 2.32-5.14 5.18-5.14h27.64c2.86 0 5.18 2.3 5.18 5.14v37.72c0 2.84-2.32 5.14-5.18 5.14zm3.18-43c0-1.66-1.34-3-3-3H31c-1.66 0-3 1.34-3 3v12h-2v5h19l-10-10h7l12 12-12 12h-7l10-10H26v5h2v12c0 1.66 1.34 3 3 3h28c1.66 0 3-1.34 3-3v-38zM58 2383c-6.07 0-11-4.93-11-11s4.93-11 11-11c6.08 0 11 4.93 11 11s-4.92 11-11 11zm6.61-15.8c-.55.32-1.17.55-1.82.68a2.91 2.91 0 0 0-2.1-.88c-1.58 0-2.87 1.24-2.87 2.78 0 .21.03.43.08.63-2.39-.12-4.51-1.22-5.92-2.9-.25.41-.39.89-.39 1.39 0 .97.5 1.82 1.27 2.32-.47-.02-.91-.14-1.3-.35v.03c0 1.35.99 2.47 2.31 2.73-.24.06-.5.09-.76.09-.19 0-.36-.01-.54-.05.37 1.11 1.43 1.91 2.68 1.93-.98.75-2.22 1.19-3.56 1.19-.24 0-.46-.01-.69-.04a8.31 8.31 0 0 0 4.4 1.25c5.29 0 8.18-4.23 8.18-7.9 0-.12-.01-.24-.01-.36.56-.39 1.04-.88 1.43-1.44-.51.22-1.07.37-1.65.44.59-.34 1.05-.89 1.26-1.54zM45 2409c-6.08 0-11-4.93-11-11s4.92-11 11-11 11 4.93 11 11-4.92 11-11 11zm-.64-18c-.5 0-1.03.06-1.6.17-.58.13-1.13.41-1.66.84-.78.74-1.17 1.56-1.17 2.46 0 .75.28 1.4.83 1.97.52.6 1.28.91 2.28.92.19 0 .39-.01.6-.04-.04.1-.07.2-.12.32a1.305 1.305 0 0 0 .12 1.1c.1.2.22.38.36.56-.44.01-.99.06-1.65.16-.67.11-1.3.34-1.91.68-.54.32-.91.68-1.12 1.1-.21.42-.32.8-.32 1.14 0 .69.33 1.3.98 1.8.65.53 1.63.81 2.94.82 1.57-.02 2.77-.39 3.6-1.1.8-.69 1.2-1.48 1.2-2.37-.01-.63-.15-1.14-.44-1.53-.29-.38-.64-.73-1.03-1.04l-.64-.52c-.09-.09-.19-.19-.28-.31a.665.665 0 0 1-.18-.48c0-.19.06-.37.17-.52.1-.14.2-.27.31-.38.2-.17.38-.33.55-.49.16-.17.31-.34.45-.53.28-.4.43-.93.44-1.58 0-.36-.04-.67-.12-.94-.1-.27-.22-.51-.35-.7a2.95 2.95 0 0 0-.41-.53c-.15-.14-.28-.25-.4-.32h1.16l1.16-.66h-3.75zm7.62 5.73v-1.97h-1.15v1.97h-1.97v1.13h1.97v1.93h1.15v-1.93H54v-1.13h-2.02zm-6.84-.39c-.33.33-.74.5-1.24.52-.39 0-.73-.12-1.04-.35-.3-.24-.55-.52-.74-.86-.4-.72-.6-1.41-.6-2.07-.01-.51.13-.96.41-1.37.34-.39.76-.59 1.27-.6.38.01.72.12 1.02.33.29.22.52.51.7.86.37.74.56 1.47.56 2.2 0 .17-.01.37-.04.62-.04.24-.14.48-.3.72zm-.63 3.48c.7.48 1.21.88 1.54 1.21.31.35.47.75.47 1.22 0 .57-.23 1.04-.68 1.41-.47.37-1.14.56-2.03.57-.98-.01-1.76-.23-2.32-.64-.6-.42-.9-.96-.9-1.6 0-.33.07-.61.21-.84.12-.23.26-.41.44-.56.17-.14.35-.26.52-.33.18-.08.31-.13.41-.17.4-.11.8-.2 1.19-.25.39-.04.64-.05.73-.04.16 0 .3 0 .42.02zM32 2383c-6.07 0-11-4.93-11-11s4.93-11 11-11c6.08 0 11 4.93 11 11s-4.92 11-11 11zm3-17.9c-.25-.03-1.11-.1-2.11-.1-2.09 0-3.52 1.24-3.52 3.52v1.97H27v2.66h2.37v6.85h2.83v-6.85h2.35l.35-2.66h-2.7v-1.71c0-.77.22-1.29 1.35-1.29H35v-2.39zM69 2279.62c-1.77.78-3.66 1.31-5.66 1.55a9.832 9.832 0 0 0 4.33-5.45c-1.9 1.13-4.01 1.95-6.25 2.39a9.848 9.848 0 0 0-7.19-3.11c-5.44 0-9.85 4.41-9.85 9.84 0 .78.09 1.53.26 2.25-8.18-.41-15.44-4.33-20.3-10.29a9.8 9.8 0 0 0-1.33 4.95c0 3.42 1.74 6.43 4.38 8.2a9.91 9.91 0 0 1-4.46-1.23v.12a9.84 9.84 0 0 0 7.9 9.65 9.712 9.712 0 0 1-4.45.17 9.86 9.86 0 0 0 9.2 6.84 19.768 19.768 0 0 1-12.23 4.21c-.8 0-1.58-.04-2.35-.13 4.36 2.79 9.53 4.42 15.1 4.42 18.11 0 28.01-15 28.01-28.01 0-.43 0-.85-.02-1.28 1.92-1.39 3.59-3.12 4.91-5.09zM61 2207c5.01-.09 8.15 5.3 8 8-.17 3.08-3 8-8 8-7.5 0-15.18-7-15-16 .25-12.58 16-20 16-20s-12.96 10.08-13 20c-.04 8.53 6.17.11 12 0zm-25 16c-7.5 0-15.18-7-15-16 .25-12.58 16-20 16-20s-12.96 10.08-13 20c-.04 8.53 6.17.11 12 0 5.01-.09 8.15 5.3 8 8-.17 3.08-3 8-8 8zM63.82 2139H61v-2h2a4 4 0 0 0 4-4v-2h2v2.86c0 2.84-2.32 5.14-5.18 5.14zm3.18-14h2v4h-2v-4zm0-6h2v4h-2v-4zm0-6h2v4h-2v-4zm0-6h2v4h-2v-4zm0-6h2v4h-2v-4zm0-4a4 4 0 0 0-4-4h-2v-2h2.82c2.86 0 5.18 2.3 5.18 5.14v2.86h-2v-2zm-8-6v2h-4v-2h4zm0 48h-4v-2h4v2zm-6-46h-4v-2h4v2zm0 46h-4v-2h4v2zm-6-46h-4v-2h4v2zm-10 44h4v2h-4v-2zm0-46h4v2h-4v-2zm-6 46h4v2h-4v-2zm0-46h4v2h-4v-2zm-10 42.86V2131h2v2a4 4 0 0 0 4 4h2v2h-2.82c-2.86 0-5.18-2.3-5.18-5.14zm2-36.86v2h-2v-2.86c0-2.84 2.32-5.14 5.18-5.14H29v2h-2a4 4 0 0 0-4 4zm-2 4h2v4h-2v-4zm2 10h-2v-4h2v4zm0 6h-2v-4h2v4zm0 6h-2v-4h2v4zm-2 2h2v4h-2v-4zm26 14h-4v-2h4v2zM60 2121v-2.28c.6-.34 1-.98 1-1.72v-12a2 2 0 0 0-2-2H35c-.74 0-1.38.41-1.72 1H31v1h25c1.66 0 3 1.34 3 3v14c0 1.66-1.34 3-3 3h-3v5l-5-5H30c-1.66 0-3-1.34-3-3v-14c0-1.66 1.34-3 3-3h1v-1c0-1.66 1.34-3 3-3h26c1.66 0 3 1.34 3 3v14c0 1.66-1.34 3-3 3zM66 2032h-1v-2a2 2 0 0 0 2-2v-20a2 2 0 0 0-2-2H31c-1.1 0-2 .9-2 2h-2v-1c0-1.66 1.34-3 3-3h36c1.66 0 3 1.34 3 3v22c0 1.66-1.34 3-3 3zm-3-19v22c0 1.66-1.34 3-3 3h-3v8l-7-8H24c-1.66 0-3-1.34-3-3v-22c0-1.66 1.34-3 3-3h36c1.66 0 3 1.34 3 3zM67 1951v-38H29v-2h40v40h-2zm-2-34v38h-2v-38H25v-2h40v2zm-4 42H21v-40h40v40zm-2-38H23v36h36v-36zm-24 26v-16l12 8-12 8zM74 1853h-3l7-8-7-8h3l7 8-7 8zm-49-28h40v40H25v-40zm2 38h36v-36H27v36zm13.06-20.01l10.56 17.19 4.93-8.04 5.45 8.87H29l11.06-18.02zm14.95-3.99c-2.21 0-4-1.8-4-4.01a4 4 0 0 1 4-4 4 4 0 0 1 4 4c0 2.21-1.79 4.01-4 4.01zM16 1853l-7-8 7-8h3l-7 8 7 8h-3zM67 1771v-38H29v-2h40v40h-2zm-2-34v38h-2v-38H25v-2h40v2zm-4 42H21v-40h40v40zm-2-38H23v36h36v-36zm-12.38 33.17l4.93-8.03 5.45 8.87H25l11.06-18.02 10.56 17.18zm4.39-21.17c-2.21 0-4-1.8-4-4.01a4 4 0 0 1 4-4 4 4 0 0 1 4 4c0 2.21-1.79 4.01-4 4.01zM21 1689v-48h48v48H21zm46-46H23v44h44v-44zm-14.98 40.99l6.17-9.82 6.81 10.84H25l13.83-22.02 13.19 21zm5.99-27c-2.76 0-5-2.24-5-5s2.24-5 5-5 5 2.24 5 5-2.24 5-5 5zM67 1565.39v-.39a4 4 0 0 0-4-4H27a4 4 0 0 0-4 4v28a4 4 0 0 0 4 4h36a4 4 0 0 0 4-4v-9.67l2-1.33v12c0 2.76-2.24 5-5 5H26c-2.76 0-5-2.24-5-5v-38c0-2.76 2.24-5 5-5h2v6a2 2 0 0 0 2 2c1.11 0 2-.89 2-2v-6h6v6a2 2 0 0 0 2 2c1.11 0 2-.89 2-2v-6h6v6a2 2 0 0 0 2 2c1.11 0 2-.89 2-2v-6h6v6a2 2 0 0 0 2 2c1.11 0 2-.89 2-2v-6h2c2.76 0 5 2.24 5 5v8l-2 1.39zm-7-7.39c-.55 0-1-.45-1-1v-7c0-.55.45-1 1-1s1 .45 1 1v7c0 .55-.45 1-1 1zm-10 0c-.55 0-1-.45-1-1v-7c0-.55.45-1 1-1s1 .45 1 1v7c0 .55-.45 1-1 1zm-10 0c-.55 0-1-.45-1-1v-7c0-.55.45-1 1-1s1 .45 1 1v7c0 .55-.45 1-1 1zm-10 0c-.55 0-1-.45-1-1v-7c0-.55.45-1 1-1s1 .45 1 1v7c0 .55-.45 1-1 1z" class="cls-1"/><path d="M63.25 1568H62c-.55 0-1-.45-1-1v-1c0-.55.45-1 1-1h2c.55 0 1 .45 1 1v.78l-1.75 1.22zm-7.19 5H56c-.55 0-1-.45-1-1v-1c0-.55.45-1 1-1h2c.54 0 .97.43.99.96l-2.93 2.04zm-4.06 0h-2c-.55 0-1-.45-1-1v-1c0-.55.45-1 1-1h2c.55 0 1 .45 1 1v1c0 .55-.45 1-1 1zm-6 5h-2c-.55 0-1-.45-1-1v-1c0-.55.45-1 1-1h2c.55 0 1 .45 1 1v1c0 .55-.45 1-1 1zm0-5h-2c-.55 0-1-.45-1-1v-1c0-.55.45-1 1-1h2c.55 0 1 .45 1 1v1c0 .55-.45 1-1 1zm-6 15h-2c-.55 0-1-.45-1-1v-1c0-.55.45-1 1-1h2c.55 0 1 .45 1 1v1c0 .55-.45 1-1 1zm0-5h-2c-.55 0-1-.45-1-1v-1c0-.55.45-1 1-1h2c.55 0 1 .45 1 1v1c0 .55-.45 1-1 1zm0-5h-2c-.55 0-1-.45-1-1v-1c0-.55.45-1 1-1h2c.55 0 1 .45 1 1v1c0 .55-.45 1-1 1zm0-5h-2c-.55 0-1-.45-1-1v-1c0-.55.45-1 1-1h2c.55 0 1 .45 1 1v1c0 .55-.45 1-1 1zm-6 20h-2c-.55 0-1-.45-1-1v-1c0-.55.45-1 1-1h2c.55 0 1 .45 1 1v1c0 .55-.45 1-1 1zm0-5h-2c-.55 0-1-.45-1-1v-1c0-.55.45-1 1-1h2c.55 0 1 .45 1 1v1c0 .55-.45 1-1 1zm0-5h-2c-.55 0-1-.45-1-1v-1c0-.55.45-1 1-1h2c.55 0 1 .45 1 1v1c0 .55-.45 1-1 1zm0-5h-2c-.55 0-1-.45-1-1v-1c0-.55.45-1 1-1h2c.55 0 1 .45 1 1v1c0 .55-.45 1-1 1zm0-5h-2c-.55 0-1-.45-1-1v-1c0-.55.45-1 1-1h2c.55 0 1 .45 1 1v1c0 .55-.45 1-1 1zm-6 20h-2c-.55 0-1-.45-1-1v-1c0-.55.45-1 1-1h2c.55 0 1 .45 1 1v1c0 .55-.45 1-1 1zm0-5h-2c-.55 0-1-.45-1-1v-1c0-.55.45-1 1-1h2c.55 0 1 .45 1 1v1c0 .55-.45 1-1 1zm0-5h-2c-.55 0-1-.45-1-1v-1c0-.55.45-1 1-1h2c.55 0 1 .45 1 1v1c0 .55-.45 1-1 1zm0-5h-2c-.55 0-1-.45-1-1v-1c0-.55.45-1 1-1h2c.55 0 1 .45 1 1v1c0 .55-.45 1-1 1zm0-5h-2c-.55 0-1-.45-1-1v-1c0-.55.45-1 1-1h2c.55 0 1 .45 1 1v1c0 .55-.45 1-1 1zm36.38 12.08c.37.15.62.5.62.92v1c0 .55-.45 1-1 1h-2c-.45 0-.81-.3-.94-.71l3.32-2.21zM50 1575h2c.29 0 .54.13.73.32l-3.43 2.39a.965.965 0 0 1-.3-.71v-1c0-.55.45-1 1-1zm-6 5h2l-2 3c-.55 0-1-.45-1-1v-1c0-.55.45-1 1-1z" class="cls-1"/><path d="M58 1568h-2c-.55 0-1-.45-1-1v-1c0-.55.45-1 1-1h2c.55 0 1 .45 1 1v1c0 .55-.45 1-1 1zm-6 0h-2c-.55 0-1-.45-1-1v-1c0-.55.45-1 1-1h2c.55 0 1 .45 1 1v1c0 .55-.45 1-1 1zm-6 0h-2c-.55 0-1-.45-1-1v-1c0-.55.45-1 1-1h2c.55 0 1 .45 1 1v1c0 .55-.45 1-1 1zm-6 0h-2c-.55 0-1-.45-1-1v-1c0-.55.45-1 1-1h2c.55 0 1 .45 1 1v1c0 .55-.45 1-1 1zm-6 0h-2c-.55 0-1-.45-1-1v-1c0-.55.45-1 1-1h2c.55 0 1 .45 1 1v1c0 .55-.45 1-1 1zm-6 0h-2c-.55 0-1-.45-1-1v-1c0-.55.45-1 1-1h2c.55 0 1 .45 1 1v1c0 .55-.45 1-1 1zm10 22h2c.55 0 1 .45 1 1v1c0 .55-.45 1-1 1h-2c-.55 0-1-.45-1-1v-1c0-.55.45-1 1-1zm14.96 2.19c-.09.46-.47.81-.96.81h-2a.89.89 0 0 1-.53-.18l3.49-.63zM57 1590h1c.55 0 1 .45 1 1v1c0 .55-.45 1-1 1h-2c-.55 0-1-.45-1-1v-.67l2-1.33zm5 0h2c.55 0 1 .45 1 1v1c0 .55-.45 1-1 1h-2c-.55 0-1-.45-1-1v-1c0-.55.45-1 1-1z" class="cls-2"/><path d="M80.82 1572.44l-1.63 1.15-6.89-9.83 1.63-1.15a3 3 0 0 1 4.18.74l3.45 4.91a3 3 0 0 1-.74 4.18zm-22.1 15.5l-6.89-9.82 18.83-13.21 6.89 9.83-18.83 13.2zm-4.34 2.52c-.9.36-11.36 2.93-12.22 1.7-.82-1.17 5.2-10.23 5.83-10.94.99-1.15 2.2-1.96 2.2-1.96l6.89 9.83s-1.18.76-2.7 1.37zM59 1509H31c-2.76 0-5-2.24-5-5v-31l12-12h7v2h-2v2h2v2h-2v2h2v2h-2v2h2v2h-2v2h2v2h-2v2h2v2h-2v2h2v2h-2v2h2v2h2v-2h-2v-2h2v-2h-2v-2h2v-2h-2v-2h2v-2h-2v-2h2v-2h-2v-2h2v-2h-2v-2h2v-2h-2v-2h2v-2h12c2.76 0 5 2.24 5 5v38c0 2.76-2.24 5-5 5zm3-42a4 4 0 0 0-4-4H48v29h-6v-29h-4v5c0 2.76-2.24 5-5 5h-5v30a4 4 0 0 0 4 4h26a4 4 0 0 0 4-4v-36zm-19 26h4v8h-4v-8zm1 3h2v-2h-2v2z" class="cls-1"/><g><path d="M63.82 1419H61v-2h2a4 4 0 0 0 4-4v-2h2v2.86c0 2.84-2.32 5.14-5.18 5.14zm3.18-14h2v4h-2v-4zm0-6h2v4h-2v-4zm0-6h2v4h-2v-4zm0-6h2v4h-2v-4zm0-6h2v4h-2v-4zm0-4a4 4 0 0 0-4-4h-2v-2h2.82c2.86 0 5.18 2.3 5.18 5.14v2.86h-2v-2zm-8-6v2h-4v-2h4zm0 48h-4v-2h4v2zm-6-46h-4v-2h4v2zm0 46h-4v-2h4v2zm-6-46h-4v-2h4v2zm-10 44h4v2h-4v-2zm0-46h4v2h-4v-2zm-6 46h4v2h-4v-2zm0-46h4v2h-4v-2zm-10 42.86V1411h2v2a4 4 0 0 0 4 4h2v2h-2.82c-2.86 0-5.18-2.3-5.18-5.14zm2-36.86v2h-2v-2.86c0-2.84 2.32-5.14 5.18-5.14H29v2h-2a4 4 0 0 0-4 4zm-2 4h2v4h-2v-4zm2 10h-2v-4h2v4zm0 6h-2v-4h2v4zm0 6h-2v-4h2v4zm-2 2h2v4h-2v-4zm26 14h-4v-2h4v2zM29 1411v-1h32v1H29zm0-3h32v1H29v-1zm0-2h32v1H29v-1zm4-3h28v2H33v-2zm-4-5h32v1H29v-1zm0-2h32v1H29v-1zm0-2h32v1H29v-1zm4-3h28v2H33v-2zm-4-5h32v1H29v-1zm0-2h32v1H29v-1zm0-2h32v1H29v-1zm4-3h28v2H33v-2zm-4 0h2v2h-2v-2zm2 14h-2v-2h2v2zm0 12h-2v-2h2v2z" class="cls-1"/></g><g><path d="M59 1329H31c-2.76 0-5-2.24-5-5v-27l16-16h17c2.76 0 5 2.24 5 5v38c0 2.76-2.24 5-5 5zm3-42a4 4 0 0 0-4-4H42v9c0 2.76-2.24 5-5 5h-9v26a4 4 0 0 0 4 4h26a4 4 0 0 0 4-4v-36z" class="cls-1"/><path d="M54.89 1303.13l-5.63 5.68a5.007 5.007 0 0 1-7.08.03c-.16-.16-.29-.34-.42-.52-.1-.04-.2-.1-.29-.18-.39-.39-.39-1.02 0-1.42a.996.996 0 0 1 1.41 0l.13-.13c.15.3.33.58.58.83a3.003 3.003 0 0 0 4.25-.02l5.63-5.68c1.16-1.18 1.16-3.08-.02-4.24a2.99 2.99 0 0 0-4.24.02l-2.96 2.98-2.27-.56 3.81-3.83a4.994 4.994 0 0 1 7.07-.03 5.003 5.003 0 0 1 .03 7.07zm-7.07.03c.16.16.29.34.42.52.1.04.2.1.29.18.39.39.39 1.03 0 1.42a.996.996 0 0 1-1.41 0l-.13.13c-.15-.3-.33-.58-.58-.83a2.99 2.99 0 0 0-4.24.02l-5.64 5.68a3.01 3.01 0 0 0 .02 4.24 3.003 3.003 0 0 0 4.25-.02l2.95-2.98 2.27.56-3.8 3.83a5.003 5.003 0 0 1-7.11-7.04l5.63-5.68c1.95-1.96 5.12-1.98 7.08-.03z" class="cls-1"/></g><g><path d="M63.82 1239H61v-2h2a4 4 0 0 0 4-4v-2h2v2.86c0 2.84-2.32 5.14-5.18 5.14zm3.18-14h2v4h-2v-4zm0-6h2v4h-2v-4zm0-6h2v4h-2v-4zm0-6h2v4h-2v-4zm0-6h2v4h-2v-4zm0-4a4 4 0 0 0-4-4h-2v-2h2.82c2.86 0 5.18 2.3 5.18 5.14v2.86h-2v-2zm-8-6v2h-4v-2h4zm0 48h-4v-2h4v2zm-6-46h-4v-2h4v2zm0 46h-4v-2h4v2zm-6-46h-4v-2h4v2zm-10 44h4v2h-4v-2zm0-46h4v2h-4v-2zm-6 46h4v2h-4v-2zm0-46h4v2h-4v-2zm-10 42.86V1231h2v2a4 4 0 0 0 4 4h2v2h-2.82c-2.86 0-5.18-2.3-5.18-5.14zm2-36.86v2h-2v-2.86c0-2.84 2.32-5.14 5.18-5.14H29v2h-2a4 4 0 0 0-4 4zm-2 4h2v4h-2v-4zm2 10h-2v-4h2v4zm0 6h-2v-4h2v4zm0 6h-2v-4h2v4zm-2 2h2v4h-2v-4zm26 14h-4v-2h4v2zM46 1231v-15h15v15H46zm0-32h15v15H46v-15zm-17 17h15v15H29v-15zm0-17h15v15H29v-15z" class="cls-1"/></g><path d="M76.82 1119.44l-1.63 1.15-6.89-9.83 1.63-1.15a3 3 0 0 1 4.18.74l3.45 4.91a3 3 0 0 1-.74 4.18zm-22.1 15.5l-6.89-9.82 18.83-13.21 6.89 9.83-18.83 13.2zm-16.56 4.22c-.82-1.17 5.2-10.23 5.83-10.95.99-1.14 2.2-1.95 2.2-1.95l6.89 9.83s-1.18.76-2.7 1.37c-.9.36-11.36 2.93-12.22 1.7zM62 1107a4 4 0 0 0-4-4H42v9c0 2.76-2.24 5-5 5h-9v26a4 4 0 0 0 4 4h26a4 4 0 0 0 4-4v-10l2-2v13c0 2.76-2.24 5-5 5H31c-2.76 0-5-2.24-5-5v-27l16-16h17c2.76 0 5 2.24 5 5v4l-2 2v-5zM67.83 1057.97a4.008 4.008 0 0 1-5.66 0l-11.51-11.51c2.24-1.49 4.17-3.41 5.68-5.63l11.49 11.48a4.008 4.008 0 0 1 0 5.66zM39 1047c-9.94 0-18-8.06-18-18s8.06-18 18-18 18 8.06 18 18-8.06 18-18 18zm10-27.79v-.21h-.21c-2.53-2.47-5.98-4-9.79-4-7.73 0-14 6.27-14 14 0 3.81 1.53 7.26 4 9.79v.21h.21c2.53 2.47 5.98 4 9.79 4 3.81 0 7.26-1.53 9.79-4H49v-.21c2.47-2.53 4-5.98 4-9.79 0-3.81-1.53-7.26-4-9.79zM31 1029h-2c0-5.52 4.48-10 10-10v2c-4.42 0-8 3.58-8 8zM63.82 969H26.18c-2.86 0-5.18-2.3-5.18-5.14v-29.72c0-2.43 1.71-4.46 4-4.99v-3.01c0-2.84 2.32-5.14 5.18-5.14h8.64c2.86 0 5.18 2.3 5.18 5.14V929h2v-2.86c0-2.84 2.32-5.14 5.18-5.14h8.64c2.86 0 5.18 2.3 5.18 5.14v3.01c2.29.53 4 2.56 4 4.99v29.72c0 2.84-2.32 5.14-5.18 5.14zM63 926c0-1.66-1.34-3-3-3h-9c-1.66 0-3 1.34-3 3v3h15v-3zm4 9a4 4 0 0 0-4-4H42v-5c0-1.66-1.34-3-3-3h-9c-1.66 0-3 1.34-3 3v5a4 4 0 0 0-4 4v28a4 4 0 0 0 4 4h36a4 4 0 0 0 4-4v-28zM49 867c-3.05 5.19-4 12-4 12s-.94-6.84-4-12c-2.67-4.5-11-12.67-11-21 0-8.28 6.72-15 15-15 8.28 0 15 6.72 15 15 0 8.35-8.35 16.5-11 21zm-4-27c-3.31 0-6 2.69-6 6s2.69 6 6 6 6-2.69 6-6-2.69-6-6-6zM72 788.94c-1.07 0-2.15 0-3.29-.06-5.94-.25-8.9-2.32-10.61-3.75-4.61 2.94-9.35 3.87-13.46 3.87C29.6 789 20 777.19 20 765.19 20 752.62 29.86 741 44.51 741c14.66 0 24.77 11.37 24.77 23.75 0 8.25-3.35 12.56-4.93 14.56 2.03 1.5 4.11 1.94 7.65 2.13v7.5zm-27.49-39.76c-7.2 0-13.07 4.82-14.53 12.32-.12 1.44-.12 2.44 0 3.31 1.64-.5 4.3-1.44 7.84-1.44 3.85 0 7.26.82 10.93 3.19 2.84 1.88 4.42 3.32 8.27 6.82 1.84-2.19 2.85-5.25 2.85-8.63 0-9.38-7.02-15.57-15.29-15.57h-.07zm.13 31.63c2.84 0 5.43-.81 6.76-1.68-1.39-1.63-3.98-3.82-4.93-4.57-3.03-2.31-6.38-3.25-9.6-3.25-2.66 0-4.36.5-5.75 1 2.91 6.44 9.41 8.5 13.46 8.5h.06zM63.56 685.25c0 1.34.06 2.2.18 2.59.12.39.34.7.65.94s.6.36.86.36c1.07 0 2.07-.82 3.03-2.45l.73.54c-1.32 3.18-3.48 4.77-6.46 4.77-1.46 0-2.69-.41-3.7-1.23-1.01-.82-1.65-1.73-1.93-2.74-.16-.57-.24-2.09-.24-4.57v-12.54h-3v-.87c2.06-1.47 3.82-3.02 5.27-4.64 1.45-1.62 2.71-3.43 3.8-5.44h.81v8.49h5.45v2.46h-5.45v14.33zM48.3 662.59c-.64-.91-1.52-1.65-2.63-2.19-.63-.3-1.72-.45-3.27-.45h-2.48v25.97c0 1.72.09 2.79.28 3.22.19.43.56.81 1.11 1.13.54.33 1.29.49 2.24.49h1.11v.92H27.21v-.92h1.11c.96 0 1.74-.18 2.33-.52.43-.24.76-.63 1.01-1.2.18-.39.27-1.44.27-3.12v-25.97h-2.41c-2.24 0-3.87.48-4.89 1.44-1.42 1.34-2.32 3.25-2.7 5.73h-.94v-9.11h29.94v9.11h-.89c-.52-2.1-1.1-3.61-1.74-4.53zM63.82 609H61v-2h2a4 4 0 0 0 4-4v-2h2v2.86c0 2.84-2.32 5.14-5.18 5.14zM67 595h2v4h-2v-4zm0-6h2v4h-2v-4zm0-6h2v4h-2v-4zm0-6h2v4h-2v-4zm0-6h2v4h-2v-4zm0-4a4 4 0 0 0-4-4h-2v-2h2.82c2.86 0 5.18 2.3 5.18 5.14V569h-2v-2zm-8-6v2h-4v-2h4zm0 48h-4v-2h4v2zm-6-46h-4v-2h4v2zm0 46h-4v-2h4v2zm-6-46h-4v-2h4v2zm-10 44h4v2h-4v-2zm0-46h4v2h-4v-2zm-6 46h4v2h-4v-2zm0-46h4v2h-4v-2zm-10 42.86V601h2v2a4 4 0 0 0 4 4h2v2h-2.82c-2.86 0-5.18-2.3-5.18-5.14zM23 567v2h-2v-2.86c0-2.84 2.32-5.14 5.18-5.14H29v2h-2a4 4 0 0 0-4 4zm-2 4h2v4h-2v-4zm2 10h-2v-4h2v4zm0 6h-2v-4h2v4zm0 6h-2v-4h2v4zm-2 2h2v4h-2v-4zm26 14h-4v-2h4v2zM67 520v-3h2v3h-2zm0-9h2v4h-2v-4zm0-4a4 4 0 0 0-4-4h-2v-2h2.82c2.86 0 5.18 2.3 5.18 5.14V509h-2v-2zm-3.18-16H61v-2h2a4 4 0 0 0 4-4v-2h2v2.86c0 2.84-2.32 5.14-5.18 5.14zM67 477h2v4h-2v-4zm0-5h2v3h-2v-3zm-12 17h4v2h-4v-2zm-2 14h-4v-2h4v2zm-4-14h4v2h-4v-2zm-2 14h-4v-2h4v2zm-4-14h4v2h-4v-2zm-6 0h4v2h-4v-2zm4 14h-4v-2h4v2zm-10-14h4v2h-4v-2zm4 14h-4v-2h4v2zm-14-17.14V483h2v2a4 4 0 0 0 4 4h2v2h-2.82c-2.86 0-5.18-2.3-5.18-5.14zm0-4.86v-4h2v4h-2zm0-6v-3h2v3h-2zm5.18 26H29v2h-2a4 4 0 0 0-4 4v2h-2v-2.86c0-2.84 2.32-5.14 5.18-5.14zM21 511h2v4h-2v-4zm2 9h-2v-3h2v3zm36-19v2h-4v-2h4zM21 406v-2h48v2H21zm42.82-6H61v-2h2a4 4 0 0 0 4-4v-2h2v2.86c0 2.84-2.32 5.14-5.18 5.14zM67 386h2v4h-2v-4zm0-5h2v3h-2v-3zm-12 17h4v2h-4v-2zm-6 0h4v2h-4v-2zm-6 0h4v2h-4v-2zm-6 0h4v2h-4v-2zm-6 0h4v2h-4v-2zm-10-3.14V392h2v2a4 4 0 0 0 4 4h2v2h-2.82c-2.86 0-5.18-2.3-5.18-5.14zm0-4.86v-4h2v4h-2zm0-6v-3h2v3h-2zm5.18 26H29v2h-2a4 4 0 0 0-4 4v2h-2v-2.86c0-2.84 2.32-5.14 5.18-5.14zM21 420h2v4h-2v-4zm2 9h-2v-3h2v3zm12-17h-4v-2h4v2zm6 0h-4v-2h4v2zm6-2v2h-4v-2h4zm6 0v2h-4v-2h4zm6 0v2h-4v-2h4zm10 5.14V418h-2v-2a4 4 0 0 0-4-4h-2v-2h2.82c2.86 0 5.18 2.3 5.18 5.14zm0 8.86h-2v-4h2v4zm0 5h-2v-3h2v3zM66 328H32c-1.66 0-3-1.34-3-3s1.34-3 3-3h34c1.66 0 3 1.34 3 3s-1.34 3-3 3zm0-10H32c-1.66 0-3-1.34-3-3s1.34-3 3-3h34c1.66 0 3 1.34 3 3s-1.34 3-3 3zm0-10H32c-1.66 0-3-1.34-3-3s1.34-3 3-3h34c1.66 0 3 1.34 3 3s-1.34 3-3 3zm0-10H32c-1.66 0-3-1.34-3-3s1.34-3 3-3h34c1.66 0 3 1.34 3 3s-1.34 3-3 3zm-42 40c-1.66 0-3-1.34-3-3s1.34-3 3-3 3 1.34 3 3-1.34 3-3 3zm0-10c-1.66 0-3-1.34-3-3s1.34-3 3-3 3 1.34 3 3-1.34 3-3 3zm0-10c-1.66 0-3-1.34-3-3s1.34-3 3-3 3 1.34 3 3-1.34 3-3 3zm0-10c-1.66 0-3-1.34-3-3s1.34-3 3-3 3 1.34 3 3-1.34 3-3 3zm0-10c-1.66 0-3-1.34-3-3s1.34-3 3-3 3 1.34 3 3-1.34 3-3 3zm8 34h34c1.66 0 3 1.34 3 3s-1.34 3-3 3H32c-1.66 0-3-1.34-3-3s1.34-3 3-3zM64 249h-4c-2.76 0-5-2.24-5-5v-38c0-2.76 2.24-5 5-5h4c2.76 0 5 2.24 5 5v38c0 2.76-2.24 5-5 5zm3-43c0-1.66-1.34-3-3-3h-4c-1.66 0-3 1.34-3 3v38c0 1.66 1.34 3 3 3h4c1.66 0 3-1.34 3-3v-38zm-20 43h-4c-2.76 0-5-2.24-5-5v-38c0-2.76 2.24-5 5-5h4c2.76 0 5 2.24 5 5v38c0 2.76-2.24 5-5 5zm3-43c0-1.66-1.34-3-3-3h-4c-1.66 0-3 1.34-3 3v38c0 1.66 1.34 3 3 3h4c1.66 0 3-1.34 3-3v-38zm-20 43h-4c-2.76 0-5-2.24-5-5v-38c0-2.76 2.24-5 5-5h4c2.76 0 5 2.24 5 5v38c0 2.76-2.24 5-5 5zm3-43c0-1.66-1.34-3-3-3h-4c-1.66 0-3 1.34-3 3v38c0 1.66 1.34 3 3 3h4c1.66 0 3-1.34 3-3v-38zM64.41 145.97c-.08-.03-.92-.32-1.99-.69-.87 1.81-2.59 5.11-4.42 6.72-3.48 3.08-8.59 4.5-10 5-2 .72-3 2-3 2s-1-1.28-3-2c-1.4-.5-6.52-1.92-10-5-1.94-1.72-3.78-5.34-4.58-7.06-1.09.4-1.97.72-2.06.75-.31.11-.64-.08-.55-.41.06-.27 1.42-5.67 1.54-6.13.08-.3.47-.44.72-.26.28.19 4.82 3.46 5.14 3.71.23.17.17.53-.17.66-.1.03-.7.25-1.5.55 1.01 1.48 3.29 4.62 5.46 6.19 1.75 1.27 4.26 2.16 5 2 1.19-.25 1-2 1-2h.09l.63-20H37.5c-.83 0-1.5-.67-1.5-1.5s.67-1.5 1.5-1.5h5.31l.14-4.38c-2.3-.84-3.95-3.03-3.95-5.62 0-3.31 2.69-6 6-6s6 2.69 6 6c0 2.59-1.65 4.78-3.95 5.62l.14 4.38h5.31c.83 0 1.5.67 1.5 1.5s-.67 1.5-1.5 1.5h-5.22l.63 20H48s-.19 1.75 1 2c.74.16 3.25-.73 5-2 2.01-1.46 4.11-4.25 5.22-5.83-1-.35-1.78-.62-1.9-.66-.36-.13-.42-.5-.17-.68.34-.24 5.15-3.55 5.45-3.76.27-.18.69-.04.77.27.12.47 1.57 5.94 1.64 6.21.09.34-.27.54-.6.42zM49 117a4 4 0 0 0-4-4 4 4 0 0 0-4 4 4 4 0 0 0 4 4 4 4 0 0 0 4-4z" class="cls-1"/><g><path d="M54 53v4h-4.17c-.31 1.82-1.03 3.49-2.06 4.94l2.96 2.96-2.83 2.83-2.96-2.97A11.984 11.984 0 0 1 40 66.82V71h-4v-4.18c-1.82-.31-3.49-1.03-4.93-2.06l-2.97 2.97-2.83-2.83 2.97-2.96A11.944 11.944 0 0 1 26.17 57H22v-4h4.17a12.12 12.12 0 0 1 2.06-4.94l-2.96-2.96 2.83-2.83 2.96 2.97c1.45-1.03 3.12-1.75 4.94-2.06V39h4v4.18c1.82.31 3.49 1.03 4.93 2.06l2.97-2.97 2.83 2.83-2.96 2.96A12.12 12.12 0 0 1 49.83 53H54zm-16-4c-3.31 0-6 2.69-6 6s2.69 6 6 6 6-2.69 6-6-2.69-6-6-6z" class="cls-1"/><path d="M67 30.5v3h-3.14a8.946 8.946 0 0 1-1.54 3.7l2.23 2.22-2.12 2.13-2.23-2.23a8.905 8.905 0 0 1-3.7 1.55V44h-3v-3.13a8.96 8.96 0 0 1-3.7-1.55l-2.22 2.23-2.12-2.13 2.22-2.22a8.89 8.89 0 0 1-1.54-3.7H43v-3h3.14c.23-1.36.77-2.62 1.54-3.7l-2.23-2.22 2.12-2.12 2.23 2.22a8.946 8.946 0 0 1 3.7-1.54V20h3v3.14c1.37.22 2.62.77 3.7 1.54l2.22-2.23 2.13 2.13-2.23 2.22a8.946 8.946 0 0 1 1.54 3.7H67zM55 27c-2.76 0-5 2.24-5 5s2.24 5 5 5 5-2.24 5-5-2.24-5-5-5z" class="cls-3"/></g><g><path class="cls-4" d="M0 0h1v1H0zM89 3800h1v1h-1z"/></g></svg>