<svg id="Dark.svg" xmlns="http://www.w3.org/2000/svg" width="1164" height="1392"><defs><style>.cls-1,.cls-2,.cls-3,.cls-4,.cls-5,.cls-7{fill:#fff}.cls-1,.cls-4,.cls-5,.cls-7{fill-rule:evenodd}.cls-2,.cls-4{opacity:.4}.cls-5{opacity:.55}.cls-7{opacity:0}</style></defs><g id="Column_10" data-name="Column 10"><g id="QuickSilk"><path id="Icon" class="cls-1" d="M1123 776.94c-1.08 0-2.15 0-3.29-.063-5.94-.251-8.9-2.314-10.61-3.751a24.742 24.742 0 01-13.46 3.874c-15.04 0-24.64-11.814-24.64-23.817A24.141 24.141 0 011095.51 729c14.66 0 24.77 11.376 24.77 23.753 0 8.251-3.35 12.561-4.93 14.562 2.03 1.5 4.11 1.938 7.65 2.124v7.5zm-27.49-39.756c-7.2 0-13.08 4.814-14.53 12.314a15.052 15.052 0 000 3.314 24.825 24.825 0 017.84-1.439 18.955 18.955 0 0110.93 3.19 61.545 61.545 0 018.27 6.812 13.346 13.346 0 002.85-8.624c0-9.379-7.02-15.567-15.29-15.567h-.07zm.13 31.63a13.305 13.305 0 006.76-1.688 43.217 43.217 0 00-4.93-4.562 16.21 16.21 0 00-15.35-2.251c2.91 6.438 9.41 8.5 13.46 8.5h.06z"/></g><g id="Flickr"><path id="Icon-2" data-name="Icon" class="cls-1" d="M1083 627a12 12 0 11-12 12 12 12 0 0112-12zm24 0a12 12 0 11-12 12 12 12 0 0112-12zm0 3a9 9 0 11-9 9 9 9 0 019-9z"/></g><g id="Instagram"><path id="icon-3" data-name="icon" class="cls-1" d="M1118.94 534.954a17.325 17.325 0 01-1.12 5.836 12.265 12.265 0 01-7.03 7.031 17.619 17.619 0 01-5.83 1.118c-2.57.117-3.39.144-9.91.144s-7.35-.027-9.92-.144a17.619 17.619 0 01-5.83-1.118 12.274 12.274 0 01-7.03-7.031 17.325 17.325 0 01-1.12-5.836c-.12-2.564-.15-3.383-.15-9.913s.03-7.348.15-9.912a17.6 17.6 0 011.11-5.836 12.329 12.329 0 017.04-7.031 17.593 17.593 0 015.83-1.118c2.57-.117 3.39-.145 9.91-.145s7.35.028 9.92.145a17.622 17.622 0 015.83 1.117 12.28 12.28 0 017.03 7.032 17.325 17.325 0 011.12 5.836c.12 2.564.15 3.383.15 9.912s-.03 7.348-.15 9.913zm-4.33-19.628a13.156 13.156 0 00-.82-4.464 7.962 7.962 0 00-4.57-4.563 13.24 13.24 0 00-4.46-.827c-2.54-.116-3.3-.141-9.72-.141h.01c-6.42 0-7.19.025-9.72.14a13.259 13.259 0 00-4.46.828 7.962 7.962 0 00-4.57 4.563 13.345 13.345 0 00-.83 4.464c-.11 2.536-.14 3.3-.14 9.716s.03 7.18.14 9.715a13.345 13.345 0 00.83 4.464 7.962 7.962 0 004.57 4.563 13.259 13.259 0 004.46.828c2.53.115 3.29.14 9.71.14s7.19-.025 9.72-.14a13.259 13.259 0 004.46-.828 7.968 7.968 0 004.57-4.563 13.156 13.156 0 00.82-4.464c.12-2.535.15-3.3.15-9.715s-.03-7.18-.15-9.716zm-6.73-.233a2.885 2.885 0 112.88-2.885 2.892 2.892 0 01-2.88 2.885zm-12.84 22.294a12.346 12.346 0 1112.35-12.346 12.346 12.346 0 01-12.35 12.346zm0-20.36a8.014 8.014 0 108.02 8.014 8.014 8.014 0 00-8.02-8.014zm.01-16.027z"/></g><g id="Klipfolio"><path id="Letter" class="cls-1" d="M1080.4 387.58h7.67a1.414 1.414 0 011.42 1.381v17.083c0 .768.3.87.7.205l10.25-17.441a2.727 2.727 0 012.12-1.228h7.78c.75 0 1.06.512.6 1.126l-10.45 15.19a2.907 2.907 0 00-.25 2.4l11.86 27.466a.852.852 0 01-.3 1.176.68.68 0 01-.55.1h-7.98a2.153 2.153 0 01-1.92-1.279l-7.37-19.282c-.25-.716-.86-.768-1.31-.154l-2.43 3.427a5.125 5.125 0 00-.8 2.557v13.35a1.414 1.414 0 01-1.42 1.381h-7.62a1.414 1.414 0 01-1.42-1.381v-44.7a1.414 1.414 0 011.42-1.377z"/><path id="Triangle" class="cls-1" d="M1130.31 396.29a1.517 1.517 0 00.41-.819v-17.645a1.824 1.824 0 00-1.82-1.842h-17.42a1.467 1.467 0 00-.96 2.455c.96.972 16.76 16.93 17.72 17.9a1.436 1.436 0 002.07-.049z"/></g><g id="HubSpot"><path id="Icon-4" data-name="Icon" class="cls-1" d="M1107.13 288.888v-5.711a4.4 4.4 0 002.53-3.965v-.13a4.4 4.4 0 00-4.38-4.393h-.11a4.407 4.407 0 00-4.38 4.393v.13a4.4 4.4 0 002.53 3.965v5.711a12.37 12.37 0 00-5.9 2.607l-15.62-12.2a5.016 5.016 0 00-2.61-5.78 4.96 4.96 0 00-6.15 1.437 5.022 5.022 0 00.19 6.343 4.967 4.967 0 006.23 1.049l15.35 12a12.532 12.532 0 00.19 14.089l-4.67 4.693a3.915 3.915 0 00-1.16-.191 4.072 4.072 0 104.05 4.072 3.816 3.816 0 00-.18-1.162l4.62-4.642a12.407 12.407 0 0014.19.649 12.533 12.533 0 00-4.73-22.967m-1.91 18.787a6.4 6.4 0 114.52-1.88 6.405 6.405 0 01-4.52 1.88"/></g><g id="WebEX"><path id="Border" class="cls-1" d="M1097.1 206.908a24 24 0 1121.81-26.01 24 24 0 01-21.81 26.01zm5.84-43.35a21 21 0 1011.5 27.381 21 21 0 00-11.5-27.381z"/><path id="Icon-5" data-name="Icon" class="cls-1" d="M1097.1 206.908a24 24 0 1121.81-26.01 24 24 0 01-21.81 26.01zm5.42-44.965c-5.74-3.31-20.16-3.066-27.45 9.57-7.29 12.661-.26 25.239 5.48 28.549s15.31-2.54 21.38-13.067 6.33-21.743.59-25.052z"/></g><g id="D3"><path id="icon-6" data-name="icon" class="cls-1" d="M1071 46.012a43.328 43.328 0 018.6.455 22.943 22.943 0 0117.6 17.651 24.368 24.368 0 01-.06 10.273 23.922 23.922 0 01-2.5 6.186 23.239 23.239 0 01-16.11 11.1A49.106 49.106 0 011071 92V82a42.518 42.518 0 006.07-.288 12.982 12.982 0 0010.68-12.2c.07-4.582-1.5-7.016-2.41-8.116-3.76-4.537-6.52-5.735-14.34-5.393v-9.991zM1101 64c3.85.059 6.62.471 7.72-2.72a3.985 3.985 0 000-2.724c-1.77-3.439-3.76-2.174-10.4-2.44a24.151 24.151 0 00-6.97-8.343c-.82-.568-1.65-1.135-2.47-1.7v-.061h12.14c2.78 0 5.72-.131 7.87.511 6.52 1.946 12.29 9.149 9.15 18.559a15.269 15.269 0 01-2.29 3.86c.07.076.15.151.22.227.38.549.75 1.1 1.13 1.646a15.821 15.821 0 011.57 4.086 14.165 14.165 0 01-9.95 16.488c-2.04.615-4.86.573-7.48.579-4.08.009-8.16.034-12.24.032.04-.057.06-.242.1-.3 2.41-1.131 6.27-5.237 7.76-7.378.52-.851 1.05-1.7 1.57-2.554 6.45-.236 8.46 1.013 10.29-2.44a3.819 3.819 0 000-2.725c-1.22-3.125-3.54-2.6-7.72-2.6a27.641 27.641 0 00.62-4.82A36.685 36.685 0 001101 64z"/></g></g><g id="Column_9" data-name="Column 9"><g id="Wizard"><path id="Border-2" data-name="Border" class="cls-1" d="M1000 663h-38a5 5 0 01-5-5v-38a5 5 0 015-5h38a5 5 0 015 5v38a5 5 0 01-5 5zm3-42a4 4 0 00-4-4h-36a4 4 0 00-4 4v36a4 4 0 004 4h36a4 4 0 004-4v-36z"/><path id="Icon-7" data-name="Icon" class="cls-1" d="M995 641a5 5 0 01-4.9-4h-4.2a5 5 0 01-9.8 0h-4.2a5 5 0 110-2h4.2a5 5 0 019.8 0h4.2a5 5 0 114.9 6zm-27.99-7.986a3 3 0 103 3 3 3 0 00-3-3zm14 0a3 3 0 103 3 3 3 0 00-3-3zm14 0a3 3 0 103 3 3 3 0 00-3-3zM963 645h8a1 1 0 010 2h-8a1 1 0 010-2zm14 0h8a1 1 0 010 2h-8a1 1 0 010-2zm14 0h8a1 1 0 010 2h-8a1 1 0 010-2z"/></g><g id="MultiField"><rect id="Field" class="cls-2" x="957" y="535" width="36" height="14" rx="5" ry="5"/><rect id="Field-2" data-name="Field" class="cls-3" x="957" y="518" width="36" height="14" rx="5" ry="5"/><rect id="Field-3" data-name="Field" class="cls-3" x="957" y="501" width="36" height="14" rx="5" ry="5"/><path id="Plus" class="cls-1" d="M1005 543h-4v4h-2v-4h-4v-2h4v-4h2v4h4v2z"/><path id="Minus" class="cls-1" d="M1003.54 529.95l-3.54-3.536-3.536 3.536-1.414-1.414 3.536-3.536-3.536-3.536 1.414-1.414 3.536 3.536 3.54-3.536 1.41 1.414-3.54 3.536 3.54 3.536z"/><path id="Minus-2" data-name="Minus" class="cls-1" d="M1003.54 512.95l-3.54-3.536-3.536 3.536-1.414-1.414 3.536-3.536-3.536-3.536 1.414-1.414 3.536 3.536 3.54-3.536 1.41 1.414-3.54 3.536 3.54 3.536z"/></g><g id="Image_Browser" data-name="Image Browser"><g id="Image"><path id="Input" class="cls-1" d="M1002.35 434.39l-1.82-1.7A4 4 0 001003 429v-36a4 4 0 00-4-4h-36a4 4 0 00-4 4v36a4 4 0 004 4h24v2h-25a5 5 0 01-5-5v-38a5 5 0 015-5h38a5 5 0 015 5v38a4.981 4.981 0 01-2.65 4.39z"/><path id="Background" class="cls-4" d="M1000.53 432.694L988 421h-1v12h-24a4 4 0 01-4-4v-36a4 4 0 014-4h36a4 4 0 014 4v36a4 4 0 01-2.47 3.694z"/><path id="Image-2" data-name="Image" class="cls-1" d="M991.574 424.336l2.619-4.169 6.807 10.84h-2.278zm2.436-21.342a5 5 0 115-5 5 5 0 01-5 5zM987 431.007h-26l13.831-22.019L987 428.364v2.643z"/></g><path id="Cursor" class="cls-1" d="M989 424v21.283l4.617-4.3L997.6 448l4.853-2.49-3.579-6.34H1005z"/></g><g id="Captcha"><path id="Icon-8" data-name="Icon" class="cls-1" d="M1000 321h-2v-2h1a4 4 0 004-4v-10a4 4 0 00-4-4h-36a4 4 0 00-4 4v10a4 4 0 004 4h29v2h-30a5 5 0 01-5-5v-12a5 5 0 015-5h38a5 5 0 015 5v12a5 5 0 01-5 5z"/><path id="Text" class="cls-1" d="M963 304h2v12h-2v-12z"/><path id="Cursor-2" data-name="Cursor" class="cls-1" d="M1000 312h-4v16h4a1 1 0 010 2h-10a1 1 0 010-2h4v-16h-4a1 1 0 010-2h10a1 1 0 010 2z"/><path id="Captcha-2" data-name="Captcha" class="cls-1" d="M962 273h38a5 5 0 015 5v12a5 5 0 01-5 5h-38a5 5 0 01-5-5v-12a5 5 0 015-5zm1 2h36a4 4 0 014 4v10a4 4 0 01-4 4h-36a4 4 0 01-4-4v-10a4 4 0 014-4z"/><rect id="Background-2" data-name="Background" class="cls-2" x="959" y="275" width="44" height="18" rx="4" ry="4"/><path id="ABC" class="cls-1" d="M976.384 289.089l-3.93-10.036h-.978l-3.951 10.036h1.175l1.23-3.179h4.006l1.244 3.179h1.2zm-6.043-4.225l1.176-3.1a13.043 13.043 0 00.431-1.442q.239.855.465 1.442l1.162 3.1h-3.234zm7.417 4.225h3.487a3.856 3.856 0 002.532-.752 2.571 2.571 0 00.906-2.092q0-2-2.276-2.393v-.068a2.38 2.38 0 001.445-.749 2.169 2.169 0 00.5-1.466 2.1 2.1 0 00-.889-1.88 5.328 5.328 0 00-2.877-.594h-2.824v9.994zm1.162-8.99h1.709a3.762 3.762 0 011.914.373 1.318 1.318 0 01.6 1.213 1.493 1.493 0 01-.54 1.3 3.12 3.12 0 01-1.771.386h-1.912V280.1zm1.99 4.259a3.346 3.346 0 011.9.437 1.555 1.555 0 01.626 1.368 1.728 1.728 0 01-.612 1.466 2.971 2.971 0 01-1.822.468h-2.082v-3.739h1.99zm12.468-3.835l.493-1a6.192 6.192 0 00-2.748-.574 5.038 5.038 0 00-2.567.629 4.143 4.143 0 00-1.668 1.791 6.011 6.011 0 00-.578 2.707 5.52 5.52 0 001.2 3.808 4.336 4.336 0 003.407 1.339 7.344 7.344 0 002.564-.389v-1.019a8.939 8.939 0 01-2.386.376 3.268 3.268 0 01-2.621-1.07 4.511 4.511 0 01-.92-3.031 4.424 4.424 0 01.954-3 3.27 3.27 0 012.6-1.1 5.287 5.287 0 012.269.533z"/></g><g id="Wysiwyg"><path id="Icon-9" data-name="Icon" class="cls-1" d="M962 159h38a5 5 0 015 5v38a5 5 0 01-5 5h-38a5 5 0 01-5-5v-38a5 5 0 015-5zm1 12h36a4 4 0 014 4v26a4 4 0 01-4 4h-36a4 4 0 01-4-4v-26a4 4 0 014-4zm-2-10h4a2 2 0 012 2v4a2 2 0 01-2 2h-4a2 2 0 01-2-2v-4a2 2 0 012-2zm10 0h4a2 2 0 012 2v4a2 2 0 01-2 2h-4a2 2 0 01-2-2v-4a2 2 0 012-2zm10 0h4a2 2 0 012 2v4a2 2 0 01-2 2h-4a2 2 0 01-2-2v-4a2 2 0 012-2z"/><path id="Bold" class="cls-5" d="M965 167l-1 1h-3v-6h3l1 1v1l-1 1 1 1v1zm-1-1l-2-1 2-1v-1h-2v4h2v-1z"/><path id="Italic" class="cls-5" d="M972 168l1-6h1l-1 6h-1zm-1-1h3v1h-3v-1zm1-5h3v1h-3v-1z"/><path id="Underline" class="cls-5" d="M981 162v5l1 1h2l1-1v-5h-1v4l-1 1-1-1v-4h-1z"/><path id="Text-2" data-name="Text" class="cls-1" d="M963 174h2v12h-2v-12z"/><rect id="Scroll" class="cls-2" x="996" y="171" width="7" height="34" rx="4" ry="4"/><path id="Arrow_Up" data-name="Arrow Up" class="cls-1" d="M998 176l1.5-2 1.5 2h-.75l-.75-1-.75 1H998z"/><path id="Arrow_Down" data-name="Arrow Down" class="cls-1" d="M998 200l1.5 2 1.5-2h-.75l-.75 1-.75-1H998z"/></g><g id="Textarea"><path id="Icon-10" data-name="Icon" class="cls-1" d="M962 45h38a5 5 0 015 5v38a5 5 0 01-5 5h-38a5 5 0 01-5-5V50a5 5 0 015-5zm1 2h36a4 4 0 014 4v36a4 4 0 01-4 4h-36a4 4 0 01-4-4V51a4 4 0 014-4z"/><path id="Text-3" data-name="Text" class="cls-1" d="M963 50h2v12h-2V50z"/><rect id="Scroll-2" data-name="Scroll" class="cls-2" x="996" y="47" width="7" height="44" rx="4" ry="4"/><path id="Arrow_Up-2" data-name="Arrow Up" class="cls-1" d="M998 52l1.5-2 1.5 2h-.75l-.75-1-.75 1H998z"/><path id="Arrow_Down-2" data-name="Arrow Down" class="cls-1" d="M998 86l1.5 2 1.5-2h-.75l-.75 1-.75-1H998z"/></g></g><g id="Column_8" data-name="Column 8"><g id="Date_Picker" data-name="Date Picker"><path id="Icon-11" data-name="Icon" class="cls-1" d="M887 1105.9v-2.45a4 4 0 002-3.45v-10a4 4 0 00-4-4h-36a4 4 0 00-4 4v10a4 4 0 004 4h12v2h-13a5 5 0 01-5-5v-12a5 5 0 015-5h38a5 5 0 015 5v12a5 5 0 01-4 4.9z"/><path id="Text-4" data-name="Text" class="cls-1" d="M849 1089h2v12h-2v-12z"/><path id="Icon-12" data-name="Icon" class="cls-1" d="M883 1116h-20v-22h2v3h5v-3h8v3h5v-3h2v22h-2zm0-17h-18v15h18v-15zm-14 7h-2v-2h2v2zm0 3h-2v-2h2v2zm0 3h-2v-2h2v2zm3-6h-2v-2h2v2zm0 3h-2v-2h2v2zm0 3h-2v-2h2v2zm3-9h-2v-2h2v2zm0 3h-2v-2h2v2zm0 3h-2v-2h2v2zm0 3h-2v-2h2v2zm3-9h-2v-2h2v2zm0 3h-2v-2h2v2zm0 3h-2v-2h2v2zm0 3h-2v-2h2v2zm3-9h-2v-2h2v2zm0 3h-2v-2h2v2zm0 3h-2v-2h2v2zm-2-15h3v2h-3v-2zm-13 0h3v2h-3v-2z"/></g><g id="Timer_Picker" data-name="Timer Picker"><path id="Icon-13" data-name="Icon" class="cls-1" d="M887 991.9v-2.455a3.982 3.982 0 002-3.445v-10a4 4 0 00-4-4h-36a4 4 0 00-4 4v10a4 4 0 004 4h10v2h-11a5 5 0 01-5-5v-12a5 5 0 015-5h38a5 5 0 015 5v12a5 5 0 01-4 4.9z"/><path id="Text-5" data-name="Text" class="cls-1" d="M849 975h2v12h-2v-12z"/><g id="Clock"><path id="Lines" class="cls-5" d="M872.5 998.5h1v2h-1v-2zm0-17h1v2h-1v-2zm-9 9h2v1h-2v-1zm17 0h2v1h-2v-1zm-13.154 5.453l.707.707-1.413 1.415-.708-.707zm12.014-12.028l.708.707-1.414 1.415-.707-.707zm-12.731.011l1.415 1.412-.707.709-1.415-1.413zm12.034 12.007l1.415 1.413-.708.709-1.414-1.413z"/><path id="Border-3" data-name="Border" class="cls-1" d="M873 1003a12 12 0 1112-12 12 12 0 01-12 12zm0-22a10 10 0 1010 10 10 10 0 00-10-10zm1.926 9.489a1.991 1.991 0 01-3.649 1.511H865.5a1 1 0 010-2h5.777a1.994 1.994 0 011.723-1 1.967 1.967 0 01.512.075l2.9-2.9a1 1 0 011.416 1.413z"/></g></g><g id="Multi_Checkbox" data-name="Multi Checkbox"><path id="Icon-14" data-name="Icon" class="cls-1" d="M861 869h12a5 5 0 015 5v12a5 5 0 01-5 5h-12a5 5 0 01-5-5v-12a5 5 0 015-5zm1 2h10a4 4 0 014 4v10a4 4 0 01-4 4h-10a4 4 0 01-4-4v-10a4 4 0 014-4z"/><path id="Icon_Check" data-name="Icon Check" class="cls-1" d="M874.28 845.72A3.965 3.965 0 00872 845h-10a4 4 0 00-4 4v10a4 4 0 004 4h10a4 4 0 004-4v-4.6l2-1.6v7.2a5 5 0 01-5 5h-12a5 5 0 01-5-5v-12a5 5 0 015-5h12a4.954 4.954 0 012.987 1.012z"/><path id="Check" class="cls-1" d="M859 852l8 7 16-13-3-3-13 11-4-4z"/></g><g id="Radiobutton"><path id="Icon-15" data-name="Icon" class="cls-1" d="M854 764a11 11 0 1111-11 11 11 0 01-11 11zm0-20a9 9 0 109 9 9 9 0 00-9-9z"/><path id="Icon_Check-2" data-name="Icon Check" class="cls-1" d="M880 764a11 11 0 1111-11 11 11 0 01-11 11zm0-20a9 9 0 109 9 9 9 0 00-9-9zm0 13a4 4 0 114-4 4 4 0 01-4 4z"/></g><g id="Checkbox"><path id="Icon-16" data-name="Icon" class="cls-1" d="M874.28 630.72A3.973 3.973 0 00872 630h-10a4 4 0 00-4 4v10a4 4 0 004 4h10a4 4 0 004-4v-4.6l2-1.6v7.2a5 5 0 01-5 5h-12a5 5 0 01-5-5v-12a5 5 0 015-5h12a4.954 4.954 0 012.987 1.012z"/><path id="Check-2" data-name="Check" class="cls-1" d="M859 637l8 7 16-13-3-3-13 11-4-4z"/></g><g id="Select"><path id="Icon-17" data-name="Icon" class="cls-1" d="M848 514h38a5 5 0 015 5v12a5 5 0 01-5 5h-38a5 5 0 01-5-5v-12a5 5 0 015-5zm1 2h36a4 4 0 014 4v10a4 4 0 01-4 4h-36a4 4 0 01-4-4v-10a4 4 0 014-4z"/><rect id="Button" class="cls-2" x="871" y="516" width="18" height="18" rx="4" ry="4"/><path id="Arrow" class="cls-1" d="M876 523l4 4 4-4h2l-6 6-6-6z"/></g><g id="Hidden"><path id="Icon-18" data-name="Icon" class="cls-1" d="M887 421.9v-2.454a3.984 3.984 0 002-3.446v-10a4 4 0 00-4-4h-36a4 4 0 00-4 4v10a4 4 0 004 4h4v2h-5a5 5 0 01-5-5v-12a5 5 0 015-5h38a5 5 0 015 5v12a5 5 0 01-4 4.9z"/><path id="Text-6" data-name="Text" class="cls-1" d="M849 405h2v12h-2v-12z"/><path id="Eye" class="cls-1" d="M880.385 429.833L860.769 410l-1.154 1.167L879.231 431zM870 417l3.462 3.5A3.481 3.481 0 00870 417zm0-1.166a4.67 4.67 0 014.5 5.713l4.635 4.686A16.93 16.93 0 00885 420.5a17.382 17.382 0 00-15-8.167 18.79 18.79 0 00-4.165.456l3.129 3.164a4.539 4.539 0 011.036-.119zm0 8.166h.07l-3.53-3.569v.071A3.481 3.481 0 00870 424zm0 1.167a4.641 4.641 0 01-4.615-4.667 4.737 4.737 0 01.131-1.106l-4.6-4.655A16.941 16.941 0 00855 420.5a17.382 17.382 0 0015 8.167 18.713 18.713 0 004.223-.47l-3.129-3.163a4.59 4.59 0 01-1.094.133z"/></g><g id="Input_Password" data-name="Input Password"><path id="Icon-19" data-name="Icon" class="cls-1" d="M886 308h-2v-2h1a4 4 0 004-4v-10a4 4 0 00-4-4h-36a4 4 0 00-4 4v10a4 4 0 004 4h29v2h-30a5 5 0 01-5-5v-12a5 5 0 015-5h38a5 5 0 015 5v12a5 5 0 01-5 5z"/><path id="Text-7" data-name="Text" class="cls-1" d="M852 294l.989 1.886 2.011.406-1.4 1.571.254 2.137-1.854-.915-1.854.915.254-2.137-1.4-1.571 2.011-.406L852 294m8 0l.989 1.886 2.011.406-1.4 1.571.254 2.137-1.854-.915-1.854.915.254-2.137-1.4-1.571 2.011-.406L860 294m8 0l.989 1.886 2.011.406-1.4 1.571.254 2.137-1.854-.915-1.854.915.254-2.137-1.4-1.571 2.011-.406L868 294"/><path id="Cursor-3" data-name="Cursor" class="cls-1" d="M886 299h-4v16h4a1 1 0 010 2h-10a1 1 0 010-2h4v-16h-4a1 1 0 010-2h10a1 1 0 010 2z"/></g><g id="Input-2" data-name="Input"><path id="Icon-20" data-name="Icon" class="cls-1" d="M886 194h-2v-2h1a4 4 0 004-4v-10a4 4 0 00-4-4h-36a4 4 0 00-4 4v10a4 4 0 004 4h29v2h-30a5 5 0 01-5-5v-12a5 5 0 015-5h38a5 5 0 015 5v12a5 5 0 01-5 5z"/><path id="Text-8" data-name="Text" class="cls-1" d="M849 177h2v12h-2v-12z"/><path id="Cursor-4" data-name="Cursor" class="cls-1" d="M886 185h-4v16h4a1 1 0 010 2h-10a1 1 0 010-2h4v-16h-4a1 1 0 010-2h10a1 1 0 010 2z"/></g><g id="Button-2" data-name="Button"><path id="Icon-21" data-name="Icon" class="cls-1" d="M888.364 79.406L874 66h-1v14h-25a5 5 0 01-5-5V63a5 5 0 015-5h38a5 5 0 015 5v12a5 5 0 01-2.636 4.406z"/><path id="Cursor-5" data-name="Cursor" class="cls-1" d="M875 69v21.283l4.617-4.3L883.6 93l4.856-2.491-3.582-6.34H891z"/></g></g><g id="Column_7" data-name="Column 7"><g id="Product"><path id="Border-4" data-name="Border" class="cls-1" d="M771.818 1119H769v-2h2a4 4 0 004-4v-2h2v2.86a5.16 5.16 0 01-5.182 5.14zm3.182-14h2v4h-2v-4zm0-6h2v4h-2v-4zm0-6h2v4h-2v-4zm0-6h2v4h-2v-4zm0-6h2v4h-2v-4zm0-4a4 4 0 00-4-4h-2v-2h2.818a5.16 5.16 0 015.182 5.14v2.86h-2v-2zm-8-6v2h-4v-2h4zm0 48h-4v-2h4v2zm-6-46h-4v-2h4v2zm0 46h-4v-2h4v2zm-6-46h-4v-2h4v2zm-10 44h4v2h-4v-2zm0-46h4v2h-4v-2zm-6 46h4v2h-4v-2zm0-46h4v2h-4v-2zm-10 42.86V1111h2v2a4 4 0 004 4h2v2h-2.818a5.16 5.16 0 01-5.182-5.14zm2-36.86v2h-2v-2.86a5.16 5.16 0 015.182-5.14H737v2h-2a4 4 0 00-4 4zm-2 4h2v4h-2v-4zm2 10h-2v-4h2v4zm0 6h-2v-4h2v4zm0 6h-2v-4h2v4zm-2 2h2v4h-2v-4zm26 14h-4v-2h4v2z"/><path id="Icon-22" data-name="Icon" class="cls-1" d="M754.075 1109.01v-12.44l12.918-6.39v12.45zM739 1087.75l14-6.74 14 6.74-14 6.74zm0 2.6l12.918 6.33v12.33L739 1102.68v-12.33z"/></g><g id="Products"><path id="Icon-23" data-name="Icon" class="cls-1" d="M765.46 990.734l-11.536-5.7 11.536-5.7 11.536 5.7zm-11.032-8.062v-10.52l10.649-5.4v10.521zM742.005 964.7l11.536-5.7 11.536 5.7-11.536 5.7zm0 2.192l10.648 5.354v10.43l-10.648-5.354v-10.43zm-1.466 23.846L729 985.036l11.537-5.7 11.536 5.7zm-.888 12.276L729 997.658v-10.43l10.649 5.354v10.428zm12.423-5.4l-10.648 5.4v-10.523l10.648-5.4v10.52zm12.5 5.4l-10.648-5.352v-10.43l10.648 5.354v10.428zm12.424-5.4l-10.649 5.4v-10.523l10.649-5.4v10.52z"/></g><g id="Orders_Widget" data-name="Orders Widget"><path id="Border-5" data-name="Border" class="cls-1" d="M771.818 891H769v-2h2a4 4 0 004-4v-2h2v2.857a5.162 5.162 0 01-5.182 5.143zM775 877h2v4h-2v-4zm0-6h2v4h-2v-4zm0-6h2v4h-2v-4zm0-6h2v4h-2v-4zm0-6h2v4h-2v-4zm0-4a4 4 0 00-4-4h-2v-2h2.818a5.162 5.162 0 015.182 5.143V851h-2v-2zm-8-6v2h-4v-2h4zm0 48h-4v-2h4v2zm-6-46h-4v-2h4v2zm0 46h-4v-2h4v2zm-6-46h-4v-2h4v2zm-10 44h4v2h-4v-2zm0-46h4v2h-4v-2zm-6 46h4v2h-4v-2zm0-46h4v2h-4v-2zm-10 42.857V883h2v2a4 4 0 004 4h2v2h-2.818a5.162 5.162 0 01-5.182-5.143zM731 849v2h-2v-2.857a5.162 5.162 0 015.182-5.143H737v2h-2a4 4 0 00-4 4zm-2 4h2v4h-2v-4zm2 10h-2v-4h2v4zm0 6h-2v-4h2v4zm0 6h-2v-4h2v4zm-2 2h2v4h-2v-4zm26 14h-4v-2h4v2z"/><path id="Icon-24" data-name="Icon" class="cls-1" d="M768 868h-14a1 1 0 010-2h14a1 1 0 010 2zm0-10h-14a1 1 0 010-2h14a1 1 0 010 2zm-31 18.406l2.054-1.027 2.054 2.054 6.675-5.648 1.54 1.54-8.215 6.675zm0-10l2.054-1.027 2.054 2.054 6.675-5.648 1.54 1.54-8.215 6.675zm0-10l2.054-1.027 2.054 2.054 6.675-5.648 1.54 1.54-8.215 6.675zM754 876h14a1 1 0 010 2h-14a1 1 0 010-2z"/></g><g id="Cart"><path id="bg" class="cls-4" d="M745.875 753h28.031v-12h-32.812z"/><path id="icon-25" data-name="icon" class="cls-1" d="M735 735l12 30h30v-3h-26.813l-2.437-6H777v-18h-36.563L738 732h-9v3h6zm18 36a3 3 0 11-3-3 3 3 0 013 3zm24 0a3 3 0 11-3-3 3 3 0 013 3zm-30.469-18H774v-12h-32.25z"/></g><g id="View_Submissions" data-name="View Submissions"><path id="Icon-26" data-name="Icon" class="cls-1" d="M775 655v-38h-38v-2h40v40h-2zm-2-34v38h-2v-38h-38v-2h40v2zm-4 42h-40v-40h40v40zm-2-38h-36v36h36v-36z"/><path id="Icon-27" data-name="Icon" class="cls-1" d="M762 644h-18a1 1 0 010-2h18a1 1 0 010 2zm0-10h-18a1 1 0 010-2h18a1 1 0 010 2zm-24 22a3 3 0 113-3 3 3 0 01-3 3zm0-10a3 3 0 113-3 3 3 0 01-3 3zm0-10a3 3 0 113-3 3 3 0 01-3 3zm6 16h18a1 1 0 010 2h-18a1 1 0 010-2z"/></g><g id="Listing_Directory_Filter" data-name="Listing Directory Filter"><path id="Border-6" data-name="Border" class="cls-1" d="M772 549h-38a5 5 0 01-5-5v-38a5 5 0 015-5h7v2h-6a4 4 0 00-4 4v36a4 4 0 004 4h36a4 4 0 004-4v-36a4 4 0 00-4-4h-6v-2h7a5 5 0 015 5v38a5 5 0 01-5 5zm-29-47a3 3 0 013-3h3a3 3 0 013-3h2a3 3 0 013 3h3a3 3 0 013 3v3h-20v-3z"/><path id="Line" class="cls-1" d="M743 529a4 4 0 114-4 4 4 0 01-4 4zm0-6a2 2 0 102 2 2 2 0 00-2-2zm-1-2.9V514a1 1 0 012 0v6.1a5.05 5.05 0 00-2 0zm2 9.8v6.1a1 1 0 01-2 0v-6.1a5.05 5.05 0 002 0z"/><path id="Line-2" data-name="Line" class="cls-1" d="M753 524a4 4 0 114-4 4 4 0 01-4 4zm0-6a2 2 0 102 2 2 2 0 00-2-2zm-1-2.9V514a1 1 0 012 0v1.1a5.05 5.05 0 00-2 0zm2 9.8V536a1 1 0 01-2 0v-11.1a5.05 5.05 0 002 0z"/><path id="Line-3" data-name="Line" class="cls-1" d="M763 533a4 4 0 114-4 4 4 0 01-4 4zm0-6a2 2 0 102 2 2 2 0 00-2-2zm-1-2.9V514a1 1 0 012 0v10.1a5.05 5.05 0 00-2 0zm2 9.8v2.1a1 1 0 01-2 0v-2.1a5.05 5.05 0 002 0z"/></g><g id="Listing_Directory_Pins" data-name="Listing Directory Pins"><path id="Border-7" data-name="Border" class="cls-1" d="M772 435h-38a5 5 0 01-5-5v-38a5 5 0 015-5h7v2h-6a4 4 0 00-4 4v36a4 4 0 004 4h36a4 4 0 004-4v-36a4 4 0 00-4-4h-6v-2h7a5 5 0 015 5v38a5 5 0 01-5 5zm-29-47a3 3 0 013-3h3a3 3 0 013-3h2a3 3 0 013 3h3a3 3 0 013 3v3h-20v-3z"/><path id="Icon_Back" data-name="Icon Back" class="cls-4" d="M765.965 418.5a18.667 18.667 0 00-2.1 6.079 18.384 18.384 0 00-2.1-6.079c-.388-.633-1.009-1.414-1.7-2.3a30.01 30.01 0 003.349-5.346 3.162 3.162 0 00.448.044 3.1 3.1 0 003.147-3.04 3.063 3.063 0 00-2.451-2.96 10.325 10.325 0 00-1.658-4.577 8.252 8.252 0 01.962-.062 7.737 7.737 0 017.868 7.6c.005 4.227-4.377 8.354-5.765 10.641zm-8.671-14.808a4.133 4.133 0 01.72 2.323 4.2 4.2 0 01-1.82 3.432 6.9 6.9 0 01-.194-1.586 7.371 7.371 0 011.294-4.174z"/><path id="Icon_Back-2" data-name="Icon Back" class="cls-4" d="M742.041 404.936a3.05 3.05 0 00-2.321 2.92 3.1 3.1 0 003.147 3.04 3.255 3.255 0 00.467-.046 31.783 31.783 0 003.37 5.292 28.56 28.56 0 00-1.739 2.353 18.667 18.667 0 00-2.1 6.079 18.384 18.384 0 00-2.1-6.079c-1.4-2.278-5.769-6.42-5.769-10.639a7.736 7.736 0 017.867-7.6c.227 0 .449.014.67.033a10.378 10.378 0 00-1.492 4.647zm8.694 2.92a6.823 6.823 0 01-.157 1.39 4.241 4.241 0 01-1.927-3.532 4.143 4.143 0 01.656-2.216 7.384 7.384 0 011.428 4.358z"/><path id="Icon-28" data-name="Icon" class="cls-1" d="M755.941 419.683a24.23 24.23 0 00-2.725 7.895 23.877 23.877 0 00-2.724-7.895c-1.816-2.958-7.492-8.336-7.492-13.815a10.223 10.223 0 0120.433 0c0 5.494-5.69 10.852-7.492 13.815zm-2.725-17.762a3.949 3.949 0 104.087 3.947 4.018 4.018 0 00-4.087-3.947z"/></g><g id="Listing_Directory" data-name="Listing Directory"><path id="Border-8" data-name="Border" class="cls-1" d="M772 321h-38a5 5 0 01-5-5v-38a5 5 0 015-5h7v2h-6a4 4 0 00-4 4v36a4 4 0 004 4h36a4 4 0 004-4v-36a4 4 0 00-4-4h-6v-2h7a5 5 0 015 5v38a5 5 0 01-5 5zm-29-47a3 3 0 013-3h3a3 3 0 013-3h2a3 3 0 013 3h3a3 3 0 013 3v3h-20v-3z"/><path id="Icon-29" data-name="Icon" class="cls-1" d="M766 298h-18a1 1 0 010-2h18a1 1 0 010 2zm0-10h-18a1 1 0 010-2h18a1 1 0 010 2zm-24 22a3 3 0 113-3 3 3 0 01-3 3zm0-10a3 3 0 113-3 3 3 0 01-3 3zm0-10a3 3 0 113-3 3 3 0 01-3 3zm6 16h18a1 1 0 010 2h-18a1 1 0 010-2z"/></g><g id="File_Grid_List_Widget" data-name="File Grid List Widget"><path id="Border-9" data-name="Border" class="cls-1" d="M771.818 207H769v-2h2a4 4 0 004-4v-2h2v2.857a5.162 5.162 0 01-5.182 5.143zM775 193h2v4h-2v-4zm0-6h2v4h-2v-4zm0-6h2v4h-2v-4zm0-6h2v4h-2v-4zm0-6h2v4h-2v-4zm0-4a4 4 0 00-4-4h-2v-2h2.818a5.162 5.162 0 015.182 5.143V167h-2v-2zm-8-6v2h-4v-2h4zm0 48h-4v-2h4v2zm-6-46h-4v-2h4v2zm0 46h-4v-2h4v2zm-6-46h-4v-2h4v2zm-10 44h4v2h-4v-2zm0-46h4v2h-4v-2zm-6 46h4v2h-4v-2zm0-46h4v2h-4v-2zm-10 42.857V199h2v2a4 4 0 004 4h2v2h-2.818a5.162 5.162 0 01-5.182-5.143zM731 165v2h-2v-2.857a5.162 5.162 0 015.182-5.143H737v2h-2a4 4 0 00-4 4zm-2 4h2v4h-2v-4zm2 10h-2v-4h2v4zm0 6h-2v-4h2v4zm0 6h-2v-4h2v4zm-2 2h2v4h-2v-4zm26 14h-4v-2h4v2z"/><path id="Icon-30" data-name="Icon" class="cls-1" d="M759 199l10-10v10h-10zm-16.818 0a5.162 5.162 0 01-5.182-5.143v-21.714a5.163 5.163 0 015.182-5.143h21.636a5.163 5.163 0 015.182 5.143V185l-14 14h-12.818zM767 172a3 3 0 00-3-3h-22a3 3 0 00-3 3v22a3 3 0 003 3h11l14-14v-11z"/></g><g id="File_Grid_List" data-name="File Grid List"><path id="Icon-31" data-name="Icon" class="cls-1" d="M762 93l10-10v10h-10zm-22.818 0A5.163 5.163 0 01734 87.857V50.143A5.163 5.163 0 01739.182 45h27.636A5.163 5.163 0 01772 50.143V79l-14 14h-18.818zM770 50a3 3 0 00-3-3h-28a3 3 0 00-3 3v38a3 3 0 003 3h17l14-14V50z"/></g></g><g id="Column_6" data-name="Column 6"><g id="Events_Filter" data-name="Events Filter"><path id="Border-10" data-name="Border" class="cls-1" d="M654 663h-30a5 5 0 01-5-5v-38a5 5 0 015-5h3v6a2 2 0 004 0v-6h16v6a2 2 0 004 0v-6h3a5 5 0 015 5v38a5 5 0 01-5 5zm3-34a4 4 0 00-4-4h-28a4 4 0 00-4 4v28a4 4 0 004 4h28a4 4 0 004-4v-28zm-8-7a1 1 0 01-1-1v-7a1 1 0 012 0v7a1 1 0 01-1 1zm-20 0a1 1 0 01-1-1v-7a1 1 0 012 0v7a1 1 0 01-1 1z"/><path id="Line-4" data-name="Line" class="cls-1" d="M629 647a4 4 0 114-4 4 4 0 01-4 4zm0-6a2 2 0 102 2 2 2 0 00-2-2zm-1-2.9V632a1 1 0 012 0v6.1a5.05 5.05 0 00-2 0zm2 9.8v6.1a1 1 0 01-2 0v-6.1a5.05 5.05 0 002 0z"/><path id="Line-5" data-name="Line" class="cls-1" d="M639 642a4 4 0 114-4 4 4 0 01-4 4zm0-6a2 2 0 102 2 2 2 0 00-2-2zm-1-2.9V632a1 1 0 012 0v1.1a5.05 5.05 0 00-2 0zm2 9.8V654a1 1 0 01-2 0v-11.1a5.05 5.05 0 002 0z"/><path id="Line-6" data-name="Line" class="cls-1" d="M649 651a4 4 0 114-4 4 4 0 01-4 4zm0-6a2 2 0 102 2 2 2 0 00-2-2zm-1-2.9V632a1 1 0 012 0v10.1a5.05 5.05 0 00-2 0zm2 9.8v2.1a1 1 0 01-2 0v-2.1a5.05 5.05 0 002 0z"/></g><g id="Events_Categories" data-name="Events Categories"><path id="Border-11" data-name="Border" class="cls-1" d="M662.48 529h.52v.816a13.568 13.568 0 00-.52-.816zm-1.48-6h2v4h-2v-4zm0-6h2v4h-2v-4zm0-6h2v4h-2v-4zm0-4a4 4 0 00-4-4h-2v-2h2.818a5.162 5.162 0 015.182 5.143V509h-2v-2zm-12-6h4v2h-4v-2zm-6 0h4v2h-4v-2zm-6 46h4v2h-4v-2zm0-46h4v2h-4v-2zm-6 46h4v2h-4v-2zm0-46h4v2h-4v-2zm-6 46h4v2h-4v-2zm0-46h4v2h-4v-2zm-10 42.857V541h2v2a4 4 0 004 4h2v2h-2.818a5.162 5.162 0 01-5.182-5.143zM617 507v2h-2v-2.857a5.162 5.162 0 015.182-5.143H623v2h-2a4 4 0 00-4 4zm0 8h-2v-4h2v4zm0 6h-2v-4h2v4zm0 6h-2v-4h2v4zm0 6h-2v-4h2v4zm0 6h-2v-4h2v4zm26 10v-.52c.264.185.539.354.816.52H643z"/><path id="Icon-32" data-name="Icon" class="cls-5" d="M645.824 524H640v-15h15v14.587a13.907 13.907 0 00-9.176.413zm-8.237 17H623v-15h15v5.824a13.907 13.907 0 00-.413 9.176zM623 509h15v15h-15v-15zm17 19.358V526h2.358a14.066 14.066 0 00-2.358 2.358z"/><g id="Clock-2" data-name="Clock"><path id="Lines-2" data-name="Lines" class="cls-5" d="M650.5 544.5h1v2h-1v-2zm0-17h1v2h-1v-2zm-9 9h2v1h-2v-1zm17 0h2v1h-2v-1zm-13.154 5.453l.707.707-1.413 1.415-.708-.707zm12.014-12.027l.708.706-1.414 1.415-.707-.707zm-12.731.009l1.415 1.414-.707.708-1.415-1.413zm12.034 12.008l1.415 1.413-.708.709-1.414-1.414z"/><path id="Border-12" data-name="Border" class="cls-1" d="M651 549a12 12 0 1112-12 12 12 0 01-12 12zm0-22a10 10 0 1010 10 10 10 0 00-10-10zm1.926 9.489a1.991 1.991 0 01-3.649 1.511H643.5a1 1 0 010-2h5.777a1.949 1.949 0 012.235-.926l2.9-2.9a1 1 0 011.416 1.413z"/></g></g><g id="Events_Big_Calendar" data-name="Events Big Calendar"><g id="Calendar"><path id="Border-13" data-name="Border" class="cls-1" d="M661 401a4 4 0 00-4-4h-36a4 4 0 00-4 4v28a4 4 0 004 4h20.211a14.065 14.065 0 002.605 2H620a5 5 0 01-5-5v-38a5 5 0 015-5h2v6a2 2 0 004 0v-6h6v6a2 2 0 004 0v-6h6v6a2 2 0 004 0v-6h6v6a2 2 0 004 0v-6h2a5 5 0 015 5v23.816a14.065 14.065 0 00-2-2.6V401zm-7-7a1 1 0 01-1-1v-7a1 1 0 012 0v7a1 1 0 01-1 1zm-10 0a1 1 0 01-1-1v-7a1 1 0 012 0v7a1 1 0 01-1 1zm-10 0a1 1 0 01-1-1v-7a1 1 0 012 0v7a1 1 0 01-1 1zm-10 0a1 1 0 01-1-1v-7a1 1 0 012 0v7a1 1 0 01-1 1z"/><path id="Days" class="cls-1" d="M658 409h-2a1 1 0 01-1-1v-1a1 1 0 011-1h2a1 1 0 011 1v1a1 1 0 01-1 1zm0-5h-2a1 1 0 01-1-1v-1a1 1 0 011-1h2a1 1 0 011 1v1a1 1 0 01-1 1zm-6 5h-2a1 1 0 01-1-1v-1a1 1 0 011-1h2a1 1 0 011 1v1a1 1 0 01-1 1zm-6 0h-2a1 1 0 01-1-1v-1a1 1 0 011-1h2a1 1 0 011 1v1a1 1 0 01-1 1zm-5.653 4.93a1 1 0 01-.347.07h-2a1 1 0 01-1-1v-1a1 1 0 011-1h2a1 1 0 011 1v1a.94.94 0 01-.055.271q-.309.319-.598.659zM640 409h-2a1 1 0 01-1-1v-1a1 1 0 011-1h2a1 1 0 011 1v1a1 1 0 01-1 1zm-6 15h-2a1 1 0 01-1-1v-1a1 1 0 011-1h2a1 1 0 011 1v1a1 1 0 01-1 1zm0-5h-2a1 1 0 01-1-1v-1a1 1 0 011-1h2a1 1 0 011 1v1a1 1 0 01-1 1zm0-5h-2a1 1 0 01-1-1v-1a1 1 0 011-1h2a1 1 0 011 1v1a1 1 0 01-1 1zm0-5h-2a1 1 0 01-1-1v-1a1 1 0 011-1h2a1 1 0 011 1v1a1 1 0 01-1 1zm-6 20h-2a1 1 0 01-1-1v-1a1 1 0 011-1h2a1 1 0 011 1v1a1 1 0 01-1 1zm0-5h-2a1 1 0 01-1-1v-1a1 1 0 011-1h2a1 1 0 011 1v1a1 1 0 01-1 1zm0-5h-2a1 1 0 01-1-1v-1a1 1 0 011-1h2a1 1 0 011 1v1a1 1 0 01-1 1zm0-5h-2a1 1 0 01-1-1v-1a1 1 0 011-1h2a1 1 0 011 1v1a1 1 0 01-1 1zm0-5h-2a1 1 0 01-1-1v-1a1 1 0 011-1h2a1 1 0 011 1v1a1 1 0 01-1 1zm-6 20h-2a1 1 0 01-1-1v-1a1 1 0 011-1h2a1 1 0 011 1v1a1 1 0 01-1 1zm0-5h-2a1 1 0 01-1-1v-1a1 1 0 011-1h2a1 1 0 011 1v1a1 1 0 01-1 1zm0-5h-2a1 1 0 01-1-1v-1a1 1 0 011-1h2a1 1 0 011 1v1a1 1 0 01-1 1zm0-5h-2a1 1 0 01-1-1v-1a1 1 0 011-1h2a1 1 0 011 1v1a1 1 0 01-1 1zm0-5h-2a1 1 0 01-1-1v-1a1 1 0 011-1h2a1 1 0 011 1v1a1 1 0 01-1 1zm16 7h.888a13.909 13.909 0 00-1.28 2.92A1 1 0 01637 418v-1a1 1 0 011-1zm-1 7v-1a1 1 0 01.067-.334c-.041.44-.067.884-.067 1.334zm21.736-11.665c-.15-.1-.308-.186-.461-.28a.992.992 0 01.461.28zm-15.011-.28c-.153.094-.311.181-.461.28a.992.992 0 01.461-.28z"/><path id="Offdays" class="cls-5" d="M652 404h-2a1 1 0 01-1-1v-1a1 1 0 011-1h2a1 1 0 011 1v1a1 1 0 01-1 1zm-6 0h-2a1 1 0 01-1-1v-1a1 1 0 011-1h2a1 1 0 011 1v1a1 1 0 01-1 1zm-6 0h-2a1 1 0 01-1-1v-1a1 1 0 011-1h2a1 1 0 011 1v1a1 1 0 01-1 1zm-6 25h-2a1 1 0 01-1-1v-1a1 1 0 011-1h2a1 1 0 011 1v1a1 1 0 01-1 1zm0-25h-2a1 1 0 01-1-1v-1a1 1 0 011-1h2a1 1 0 011 1v1a1 1 0 01-1 1zm-6 0h-2a1 1 0 01-1-1v-1a1 1 0 011-1h2a1 1 0 011 1v1a1 1 0 01-1 1zm-6 0h-2a1 1 0 01-1-1v-1a1 1 0 011-1h2a1 1 0 011 1v1a1 1 0 01-1 1zm15.389 22.228a13.891 13.891 0 00.976 2.772H638a1 1 0 01-1-1v-1a.983.983 0 01.389-.772z"/></g><g id="Clock-3" data-name="Clock"><path id="Lines-3" data-name="Lines" class="cls-5" d="M650.5 430.5h1v2h-1v-2zm0-17h1v2h-1v-2zm-9 9h2v1h-2v-1zm17 0h2v1h-2v-1zm-13.154 5.453l.707.707-1.413 1.415-.708-.707zm12.014-12.027l.708.706-1.414 1.415-.707-.707zm-12.731.009l1.415 1.414-.707.708-1.415-1.413zm12.034 12.008l1.415 1.413-.708.709-1.414-1.414z"/><path id="Border-14" data-name="Border" class="cls-1" d="M651 435a12 12 0 1112-12 12 12 0 01-12 12zm0-22a10 10 0 1010 10 10 10 0 00-10-10zm1.926 9.489a1.991 1.991 0 01-3.649 1.511H643.5a1 1 0 010-2h5.777a1.949 1.949 0 012.235-.926l2.9-2.9a1 1 0 011.416 1.413z"/></g></g><g id="Events_Calendar" data-name="Events Calendar"><g id="Calendar-2" data-name="Calendar"><path id="Border-15" data-name="Border" class="cls-1" d="M654 321h-30a5 5 0 01-5-5v-38a5 5 0 015-5h3v6a2 2 0 004 0v-6h16v6a2 2 0 004 0v-6h3a5 5 0 015 5v38a5 5 0 01-5 5zm3-34a4 4 0 00-4-4h-28a4 4 0 00-4 4v28a4 4 0 004 4h28a4 4 0 004-4v-28zm-8-7a1 1 0 01-1-1v-7a1 1 0 012 0v7a1 1 0 01-1 1zm-20 0a1 1 0 01-1-1v-7a1 1 0 012 0v7a1 1 0 01-1 1z"/></g><g id="Clock-4" data-name="Clock"><path id="Lines-4" data-name="Lines" class="cls-5" d="M638.5 308.5h1v2h-1v-2zm0-17h1v2h-1v-2zm-9 9h2v1h-2v-1zm17 0h2v1h-2v-1zm-13.154 5.453l.707.707-1.413 1.415-.708-.707zm12.014-12.027l.708.706-1.414 1.415-.707-.707zm-12.731.009l1.415 1.414-.707.708-1.415-1.413zm12.034 12.008l1.415 1.413-.708.709-1.414-1.414z"/><path id="Border-16" data-name="Border" class="cls-1" d="M639 313a12 12 0 1112-12 12 12 0 01-12 12zm0-22a10 10 0 1010 10 10 10 0 00-10-10zm1.926 9.489a1.991 1.991 0 01-3.649 1.511H631.5a1 1 0 010-2h5.777a1.949 1.949 0 012.235-.926l2.9-2.9a1 1 0 011.416 1.413z"/></g></g><g id="Events_Widget" data-name="Events Widget"><path id="Border-17" data-name="Border" class="cls-1" d="M657.818 207H655v-2h2a4 4 0 004-4v-2h2v2.857a5.162 5.162 0 01-5.182 5.143zM661 193h2v4h-2v-4zm0-6h2v4h-2v-4zm0-6h2v4h-2v-4zm0-6h2v4h-2v-4zm0-6h2v4h-2v-4zm0-4a4 4 0 00-4-4h-2v-2h2.818a5.162 5.162 0 015.182 5.143V167h-2v-2zm-8-6v2h-4v-2h4zm0 48h-4v-2h4v2zm-6-46h-4v-2h4v2zm0 46h-4v-2h4v2zm-6-46h-4v-2h4v2zm-10 44h4v2h-4v-2zm0-46h4v2h-4v-2zm-6 46h4v2h-4v-2zm0-46h4v2h-4v-2zm-10 42.857V199h2v2a4 4 0 004 4h2v2h-2.818a5.162 5.162 0 01-5.182-5.143zM617 165v2h-2v-2.857a5.162 5.162 0 015.182-5.143H623v2h-2a4 4 0 00-4 4zm-2 4h2v4h-2v-4zm2 10h-2v-4h2v4zm0 6h-2v-4h2v4zm0 6h-2v-4h2v4zm-2 2h2v4h-2v-4zm26 14h-4v-2h4v2z"/><g id="Clock-5" data-name="Clock"><path id="Lines-5" data-name="Lines" class="cls-5" d="M638.25 194.25h1.5v3h-1.5v-3zm0-25.5h1.5v3h-1.5v-3zm-13.5 13.5h3v1.5h-3v-1.5zm25.5 0h3v1.5h-3v-1.5zm-19.731 8.179l1.061 1.06-2.12 2.123-1.061-1.06zm18.021-18.041l1.061 1.06-2.12 2.123-1.061-1.06zm-19.1.015l2.122 2.12-1.061 1.062-2.122-2.119zm18.06 18.012l2.122 2.119-1.061 1.063-2.122-2.12z"/><path id="Border-18" data-name="Border" class="cls-1" d="M639 201a18 18 0 1118-18 18 18 0 01-18 18zm0-33a15 15 0 1015 15 15 15 0 00-15-15zm2.889 14.234a2.988 2.988 0 01-5.705 1.766H627a1 1 0 010-2h9.184a2.992 2.992 0 012.816-2 2.951 2.951 0 01.768.112l4.351-4.356a1.5 1.5 0 112.122 2.12z"/></g></g><g id="Events"><g id="Clock-6" data-name="Clock"><path id="Lines-6" data-name="Lines" class="cls-5" d="M638 84h2v4h-2v-4zm0-34h2v4h-2v-4zm-18 18h4v2h-4v-2zm34 0h4v2h-4v-2zm-26.308 10.906l1.415 1.413-2.827 2.83-1.415-1.413zm24.028-24.055l1.415 1.413-2.827 2.83-1.415-1.414zm-25.461.02l2.829 2.826-1.415 1.416-2.829-2.826zm24.068 24.015l2.829 2.826-1.415 1.417-2.829-2.829z"/><path id="Border-19" data-name="Border" class="cls-1" d="M639 93a24 24 0 1124-24 24 24 0 01-24 24zm0-44a20 20 0 1020 20 20 20 0 00-20-20zm3.852 18.978a3.982 3.982 0 01-7.3 3.022H624a2 2 0 110-4h11.555a3.893 3.893 0 014.47-1.851l5.8-5.808a2 2 0 012.83 2.827z"/></g><path id="Fire" class="cls-1" d="M674 55c-2.651.529-7.024.716-7 4 .027 3.8 5.167 2.25 6 2 1.789-.537 3.623-2.435 4.967-4.121A21.6 21.6 0 01677 60c-2.169 5.407-8.311 12.8-13.963 18.9A25.993 25.993 0 00639 43c-.474 0-.936.046-1.4.071A64.525 64.525 0 01647 40a46.383 46.383 0 019.5-.294A5.179 5.179 0 00654 42c-.876 2.727 1.459 3.45 4 2 2.3-1.311 2.491-2.86 2.141-4.056A24.173 24.173 0 00665 40c7.138-1.237 12-9 12-9l.04.181c-.231 3.28-1.03 8.383-3.04 11.82-2.833 4.844-9 7-9 7s7.106 2.676 13-6a4.4 4.4 0 00.633-1.7c.145 1.832.24 3.767.233 5.723C678.553 50.456 677.5 54.3 674 55z"/></g></g><g id="Column_5" data-name="Column 5"><g id="FAQ"><path id="Back" class="cls-1" d="M549 1001l-6.977-2.791a15.966 15.966 0 01-21.737-3.523 17.956 17.956 0 0012.824-25.68 15.976 15.976 0 0113.4 24.535z"/><path id="Front" class="cls-1" d="M517 993a15.914 15.914 0 01-9.023-2.791l2.309-.923a14.077 14.077 0 10-4.665-4.15L504 990l4.582-1.833a13.935 13.935 0 001.7 1.119L501 993l2.486-7.459A15.99 15.99 0 11517 993z"/><path id="_" data-name="?" class="cls-1" d="M518.1 980.773l.047-.715a3.213 3.213 0 011.019-2.006l.949-.9a7.782 7.782 0 001.559-1.965 4.132 4.132 0 00.445-1.883 4.275 4.275 0 00-1.371-3.4 6.682 6.682 0 00-7.74.064 4.519 4.519 0 00-1.447 3.507h3.4A2.1 2.1 0 01515.5 972a1.853 1.853 0 011.389-.534 1.688 1.688 0 011.828 1.984 2.408 2.408 0 01-.352 1.25 7.466 7.466 0 01-1.412 1.537 5.368 5.368 0 00-1.459 1.918 7.041 7.041 0 00-.4 2.615h3zm-2.819 4.865a2.136 2.136 0 002.754 0 1.82 1.82 0 00-.011-2.563 2.086 2.086 0 00-2.731 0 1.822 1.822 0 00-.016 2.563z"/></g><g id="Working_Groups" data-name="Working Groups"><path id="Icon-33" data-name="Icon" class="cls-4" d="M549.027 882.509h-8.29c-.093-4.9-.524-13.5-2.362-16-.023-.032-.046-.055-.069-.087a6.35 6.35 0 00.875-.324c1.469-.684 1.935-1.948 3.282-1.969 1.321-.021 2.77.2 4.6 2.626 2.159 2.874 1.964 15.754 1.964 15.754zM536.753 864.7a5.26 5.26 0 00-3.934-1.436 2.233 2.233 0 00-.8.17c-.136-.106-.263-.223-.392-.34a8.973 8.973 0 00.869-11.065A6.274 6.274 0 01535.9 851a6.9 6.9 0 01.853 13.7zm-11.813 1.816c.144-.182.289-.365.428-.52a8.947 8.947 0 004.837-1.643 2.458 2.458 0 01.287.18 6.728 6.728 0 01-1.642 1.168 9.07 9.07 0 01-3.91.81z"/><path id="Icon-34" data-name="Icon" class="cls-4" d="M516.006 857.01a8.972 8.972 0 002.636 6.364c-.125.11-.245.227-.378.328a2.367 2.367 0 00-1.322-.443 5.313 5.313 0 00-4.088 1.581 6.946 6.946 0 01-5.17-6.821 6.858 6.858 0 016.685-7.019 6.363 6.363 0 013.226.908 8.955 8.955 0 00-1.589 5.102zm-4.979 9.364c.118.055.236.1.354.143-1.907 2.609-2.3 11.8-2.367 16.568H501s-.2-13.116 2-16.042c1.858-2.468 3.334-2.7 4.679-2.674 1.377.022 1.852 1.308 3.348 2.005zm13.854.135a9.122 9.122 0 01-3.969-.813 5.738 5.738 0 01-1.213-.8 3.044 3.044 0 01.47-.309 8.948 8.948 0 004.663 1.41c.151.153.3.324.461.508-.255.011-.412.004-.412.004z"/><path id="Icon-35" data-name="Icon" class="cls-1" d="M540 885h-30s-.222-14.716 2.25-18c2.085-2.768 3.741-3.024 5.25-3 1.539.024 2.072 1.468 3.75 2.25a9.75 9.75 0 007.5 0c1.678-.782 2.211-2.226 3.75-2.25 1.509-.024 3.165.232 5.25 3 2.472 3.284 2.25 18 2.25 18zm-15-20.25a7.884 7.884 0 117.5-7.875 7.695 7.695 0 01-7.5 7.875z"/></g><g id="Member_Directory_Widget" data-name="Member Directory Widget"><path id="Border-20" data-name="Border" class="cls-1" d="M543.818 777H541v-2h2a4 4 0 004-4v-2h2v2.857a5.162 5.162 0 01-5.182 5.143zM547 763h2v4h-2v-4zm0-6h2v4h-2v-4zm0-6h2v4h-2v-4zm0-6h2v4h-2v-4zm0-6h2v4h-2v-4zm0-4a4 4 0 00-4-4h-2v-2h2.818a5.162 5.162 0 015.182 5.143V737h-2v-2zm-8-6v2h-4v-2h4zm0 48h-4v-2h4v2zm-6-46h-4v-2h4v2zm0 46h-4v-2h4v2zm-6-46h-4v-2h4v2zm-10 44h4v2h-4v-2zm0-46h4v2h-4v-2zm-6 46h4v2h-4v-2zm0-46h4v2h-4v-2zm-10 42.857V769h2v2a4 4 0 004 4h2v2h-2.818a5.162 5.162 0 01-5.182-5.143zM503 735v2h-2v-2.857a5.162 5.162 0 015.182-5.143H509v2h-2a4 4 0 00-4 4zm-2 4h2v4h-2v-4zm2 10h-2v-4h2v4zm0 6h-2v-4h2v4zm0 6h-2v-4h2v4zm-2 2h2v4h-2v-4zm26 14h-4v-2h4v2z"/><path id="Icon-36" data-name="Icon" class="cls-1" d="M540 771h-30s-.222-14.716 2.25-18c2.085-2.768 3.741-3.024 5.25-3 1.539.024 2.072 1.468 3.75 2.25a9.75 9.75 0 007.5 0c1.678-.782 2.211-2.226 3.75-2.25 1.509-.024 3.165.232 5.25 3 2.472 3.284 2.25 18 2.25 18zm-15-20.25a7.884 7.884 0 117.5-7.875 7.695 7.695 0 01-7.5 7.875z"/></g><g id="Member_Directory" data-name="Member Directory"><path id="Icon-37" data-name="Icon" class="cls-1" d="M545 663h-40s-.3-19.622 3-24c2.78-3.691 4.988-4.032 7-4 2.052.033 2.762 1.957 5 3a13 13 0 0010 0c2.238-1.043 2.948-2.967 5-3 2.012-.032 4.22.309 7 4 3.3 4.378 3 24 3 24zm-20-27a10.513 10.513 0 1110-10.5 10.259 10.259 0 01-10 10.5z"/></g><g id="Social"><path id="Twitter" class="cls-1" d="M538 523a11 11 0 1111-11 11 11 0 01-11 11zm6.613-15.8a5.883 5.883 0 01-1.824.674 2.913 2.913 0 00-2.1-.877 2.826 2.826 0 00-2.873 2.777 2.708 2.708 0 00.075.633 8.25 8.25 0 01-5.92-2.9 2.686 2.686 0 00-.389 1.4 2.754 2.754 0 001.277 2.312 2.95 2.95 0 01-1.3-.348v.029a2.8 2.8 0 002.3 2.723 2.945 2.945 0 01-.756.1 3.007 3.007 0 01-.541-.05 2.866 2.866 0 002.683 1.929 5.893 5.893 0 01-3.567 1.188 5.958 5.958 0 01-.685-.039A8.333 8.333 0 00535.4 518a7.976 7.976 0 008.172-7.9c0-.121 0-.24-.008-.36A5.722 5.722 0 00545 508.3a5.889 5.889 0 01-1.65.437 2.8 2.8 0 001.263-1.537z"/><path id="Google" class="cls-1" d="M525 549a11 11 0 1111-11 11 11 0 01-11 11zm-.643-18a8.235 8.235 0 00-1.6.17 4.115 4.115 0 00-1.661.843 3.33 3.33 0 00-1.163 2.458 2.726 2.726 0 00.821 1.964 2.9 2.9 0 002.281.923 5.153 5.153 0 00.6-.036c-.035.1-.073.2-.114.316a1.022 1.022 0 00-.071.406 1.261 1.261 0 00.185.694 3.885 3.885 0 00.362.56 14.416 14.416 0 00-1.649.161 5.9 5.9 0 00-1.912.68 2.724 2.724 0 00-1.121 1.1 2.554 2.554 0 00-.318 1.137 2.213 2.213 0 00.98 1.8 4.593 4.593 0 002.94.824 5.523 5.523 0 003.6-1.1 3.061 3.061 0 001.2-2.368 2.634 2.634 0 00-.439-1.525 6.32 6.32 0 00-1.039-1.049l-.636-.511a3.789 3.789 0 01-.283-.314.678.678 0 01-.172-.476.851.851 0 01.167-.52 2.606 2.606 0 01.31-.386c.2-.167.38-.331.553-.493a5.046 5.046 0 00.444-.529 2.723 2.723 0 00.444-1.579 3.244 3.244 0 00-.124-.942 3.5 3.5 0 00-.344-.7 3.325 3.325 0 00-.415-.53 2.545 2.545 0 00-.4-.313h1.155l1.158-.663h-3.748zm7.624 5.732v-1.974h-1.154v1.974h-1.971v1.127h1.971v1.926h1.154v-1.926H534v-1.127h-2.019zm-6.845-.4a1.767 1.767 0 01-1.233.522 1.662 1.662 0 01-1.042-.351 2.85 2.85 0 01-.743-.854 4.3 4.3 0 01-.6-2.076 2.237 2.237 0 01.407-1.366 1.662 1.662 0 011.267-.6 1.822 1.822 0 011.019.332 2.459 2.459 0 01.7.863 4.774 4.774 0 01.567 2.193 5.871 5.871 0 01-.041.621 1.872 1.872 0 01-.301.72zm-.625 3.481a11.219 11.219 0 011.539 1.211 1.768 1.768 0 01.466 1.22 1.729 1.729 0 01-.681 1.409 3.268 3.268 0 01-2.022.574 3.939 3.939 0 01-2.328-.646 1.887 1.887 0 01-.895-1.6 1.639 1.639 0 01.206-.844 1.969 1.969 0 01.439-.556 2.506 2.506 0 01.528-.332c.173-.072.307-.125.4-.161a8.136 8.136 0 011.19-.26 4.9 4.9 0 01.734-.036c.164.008.304.008.424.025z"/><path id="Facebook" class="cls-1" d="M512 523a11 11 0 1111-11 11 11 0 01-11 11zm3-17.9a20.355 20.355 0 00-2.111-.1 3.249 3.249 0 00-3.517 3.52v1.969H507v2.658h2.371V520h2.829v-6.853h2.349l.352-2.658h-2.7v-1.7a1.115 1.115 0 011.348-1.3H515V505.1z"/></g><g id="Twitter-2" data-name="Twitter"><path id="Icon-38" data-name="Icon" class="cls-1" d="M549 395.616a19.7 19.7 0 01-5.656 1.551 9.877 9.877 0 004.33-5.447 19.738 19.738 0 01-6.253 2.389 9.857 9.857 0 00-16.782 8.98 27.961 27.961 0 01-20.3-10.287 9.856 9.856 0 003.048 13.145 9.818 9.818 0 01-4.461-1.232v.124a9.851 9.851 0 007.9 9.654 9.89 9.89 0 01-4.447.169 9.859 9.859 0 009.2 6.838 19.763 19.763 0 01-12.23 4.214 20.23 20.23 0 01-2.349-.137A27.881 27.881 0 00516.1 430c18.114 0 28.019-15 28.019-28.013q0-.641-.029-1.274a20 20 0 004.91-5.097z"/></g><g id="Comments"><path id="Icon-39" data-name="Icon" class="cls-1" d="M541 299c5.006-.091 8.146 5.305 8 8-.167 3.083-3 8-8 8-7.5 0-15.179-7-15-16 .25-12.583 16-20 16-20s-12.958 10.078-13 20c-.036 8.531 6.165.105 12 0zm-25 16c-7.5 0-15.179-7-15-16 .25-12.583 16-20 16-20s-12.958 10.078-13 20c-.036 8.531 6.165.105 12 0 5.006-.091 8.146 5.305 8 8-.167 3.083-3 8-8 8z"/></g><g id="Forum_Widget" data-name="Forum Widget"><path id="Border-21" data-name="Border" class="cls-1" d="M543.818 207H541v-2h2a4 4 0 004-4v-2h2v2.857a5.163 5.163 0 01-5.182 5.143zM547 193h2v4h-2v-4zm0-6h2v4h-2v-4zm0-6h2v4h-2v-4zm0-6h2v4h-2v-4zm0-6h2v4h-2v-4zm0-4a4 4 0 00-4-4h-2v-2h2.818a5.162 5.162 0 015.182 5.143V167h-2v-2zm-8-6v2h-4v-2h4zm0 48h-4v-2h4v2zm-6-46h-4v-2h4v2zm0 46h-4v-2h4v2zm-6-46h-4v-2h4v2zm-10 44h4v2h-4v-2zm0-46h4v2h-4v-2zm-6 46h4v2h-4v-2zm0-46h4v2h-4v-2zm-10 42.857V199h2v2a4 4 0 004 4h2v2h-2.818a5.163 5.163 0 01-5.182-5.143zM503 165v2h-2v-2.857a5.162 5.162 0 015.182-5.143H509v2h-2a4 4 0 00-4 4zm-2 4h2v4h-2v-4zm2 10h-2v-4h2v4zm0 6h-2v-4h2v4zm0 6h-2v-4h2v4zm-2 2h2v4h-2v-4zm26 14h-4v-2h4v2z"/><path id="Icon-40" data-name="Icon" class="cls-1" d="M540 189v-2.278a1.991 1.991 0 001-1.722v-12a2 2 0 00-2-2h-24a1.994 1.994 0 00-1.723 1H511v1h25a3 3 0 013 3v14a3 3 0 01-3 3h-3v5l-5-5h-18a3 3 0 01-3-3v-14a3 3 0 013-3h1v-1a3 3 0 013-3h26a3 3 0 013 3v14a3 3 0 01-3 3z"/></g><g id="Forum"><path id="Icon-41" data-name="Icon" class="cls-1" d="M546 76h-1v-2a2 2 0 002-2V52a2 2 0 00-2-2h-34a2 2 0 00-2 2h-2v-1a3 3 0 013-3h36a3 3 0 013 3v22a3 3 0 01-3 3zm-3-19v22a3 3 0 01-3 3h-3v8l-7-8h-26a3 3 0 01-3-3V57a3 3 0 013-3h36a3 3 0 013 3z"/></g></g><g id="Column_4" data-name="Column 4"><g id="Blog_Navigation" data-name="Blog Navigation"><path id="Border-22" data-name="Border" class="cls-1" d="M430 772a5 5 0 01-5 5h-28a5 5 0 01-5-5v-31l12-12h21a5 5 0 015 5v38zm-6-41h-20v5a5 5 0 01-5 5h-5v30a4 4 0 004 4h26a4 4 0 004-4v-36a4 4 0 00-4-4z"/><path id="Icon-42" data-name="Icon" class="cls-1" d="M422.238 750.143l-.982.68-4.13-5.817.982-.679a1.812 1.812 0 012.5.434l2.065 2.908a1.761 1.761 0 01-.435 2.474zm-13.254 9.176l-4.13-5.816 11.29-7.817 4.131 5.817zm-2.6 1.49c-.544.215-6.81 1.735-7.328 1.006-.489-.688 3.12-6.052 3.492-6.477a7.263 7.263 0 011.322-1.155L408 760a10.786 10.786 0 01-1.614.809z"/><path id="Arrow-2" data-name="Arrow" class="cls-1" d="M440 761h-3l7-8-7-8h3l7 8zm-58 0l-7-8 7-8h3l-7 8 7 8h-3z"/></g><g id="Blog_Calendar" data-name="Blog Calendar"><path id="Calendar-3" data-name="Calendar" class="cls-1" d="M433 629.391V629a4 4 0 00-4-4h-36a4 4 0 00-4 4v28a4 4 0 004 4h36a4 4 0 004-4v-9.667l2-1.333v12a5 5 0 01-5 5h-38a5 5 0 01-5-5v-38a5 5 0 015-5h2v6a2 2 0 004 0v-6h6v6a2 2 0 004 0v-6h6v6a2 2 0 004 0v-6h6v6a2 2 0 004 0v-6h2a5 5 0 015 5v8zM426 622a1 1 0 01-1-1v-7a1 1 0 012 0v7a1 1 0 01-1 1zm-10 0a1 1 0 01-1-1v-7a1 1 0 012 0v7a1 1 0 01-1 1zm-10 0a1 1 0 01-1-1v-7a1 1 0 012 0v7a1 1 0 01-1 1zm-10 0a1 1 0 01-1-1v-7a1 1 0 012 0v7a1 1 0 01-1 1z"/><path id="Days-2" data-name="Days" class="cls-1" d="M429.251 632H428a1 1 0 01-1-1v-1a1 1 0 011-1h2a1 1 0 011 1v.783zm-7.189 5H422a1 1 0 01-1-1v-1a1 1 0 011-1h2a1 1 0 01.992.962zM418 637h-2a1 1 0 01-1-1v-1a1 1 0 011-1h2a1 1 0 011 1v1a1 1 0 01-1 1zm-6 5h-2a1 1 0 01-1-1v-1a1 1 0 011-1h2a1 1 0 011 1v1a1 1 0 01-1 1zm0-5h-2a1 1 0 01-1-1v-1a1 1 0 011-1h2a1 1 0 011 1v1a1 1 0 01-1 1zm-6 15h-2a1 1 0 01-1-1v-1a1 1 0 011-1h2a1 1 0 011 1v1a1 1 0 01-1 1zm0-5h-2a1 1 0 01-1-1v-1a1 1 0 011-1h2a1 1 0 011 1v1a1 1 0 01-1 1zm0-5h-2a1 1 0 01-1-1v-1a1 1 0 011-1h2a1 1 0 011 1v1a1 1 0 01-1 1zm0-5h-2a1 1 0 01-1-1v-1a1 1 0 011-1h2a1 1 0 011 1v1a1 1 0 01-1 1zm-6 20h-2a1 1 0 01-1-1v-1a1 1 0 011-1h2a1 1 0 011 1v1a1 1 0 01-1 1zm0-5h-2a1 1 0 01-1-1v-1a1 1 0 011-1h2a1 1 0 011 1v1a1 1 0 01-1 1zm0-5h-2a1 1 0 01-1-1v-1a1 1 0 011-1h2a1 1 0 011 1v1a1 1 0 01-1 1zm0-5h-2a1 1 0 01-1-1v-1a1 1 0 011-1h2a1 1 0 011 1v1a1 1 0 01-1 1zm0-5h-2a1 1 0 01-1-1v-1a1 1 0 011-1h2a1 1 0 011 1v1a1 1 0 01-1 1zm-6 20h-2a1 1 0 01-1-1v-1a1 1 0 011-1h2a1 1 0 011 1v1a1 1 0 01-1 1zm0-5h-2a1 1 0 01-1-1v-1a1 1 0 011-1h2a1 1 0 011 1v1a1 1 0 01-1 1zm0-5h-2a1 1 0 01-1-1v-1a1 1 0 011-1h2a1 1 0 011 1v1a1 1 0 01-1 1zm0-5h-2a1 1 0 01-1-1v-1a1 1 0 011-1h2a1 1 0 011 1v1a1 1 0 01-1 1zm0-5h-2a1 1 0 01-1-1v-1a1 1 0 011-1h2a1 1 0 011 1v1a1 1 0 01-1 1zm36.383 12.078A1 1 0 01431 650v1a1 1 0 01-1 1h-2a.989.989 0 01-.941-.706zM416 639h2a.992.992 0 01.726.321l-3.431 2.387A1 1 0 01415 641v-1a1 1 0 011-1zm-6 5h2l-2 3a1 1 0 01-1-1v-1a1 1 0 011-1z"/><path id="Offdays-2" data-name="Offdays" class="cls-5" d="M424 632h-2a1 1 0 01-1-1v-1a1 1 0 011-1h2a1 1 0 011 1v1a1 1 0 01-1 1zm-6 0h-2a1 1 0 01-1-1v-1a1 1 0 011-1h2a1 1 0 011 1v1a1 1 0 01-1 1zm-6 0h-2a1 1 0 01-1-1v-1a1 1 0 011-1h2a1 1 0 011 1v1a1 1 0 01-1 1zm-6 0h-2a1 1 0 01-1-1v-1a1 1 0 011-1h2a1 1 0 011 1v1a1 1 0 01-1 1zm-6 0h-2a1 1 0 01-1-1v-1a1 1 0 011-1h2a1 1 0 011 1v1a1 1 0 01-1 1zm-6 0h-2a1 1 0 01-1-1v-1a1 1 0 011-1h2a1 1 0 011 1v1a1 1 0 01-1 1zm10 22h2a1 1 0 011 1v1a1 1 0 01-1 1h-2a1 1 0 01-1-1v-1a1 1 0 011-1zm14.962 2.189A.986.986 0 01418 657h-2a.967.967 0 01-.533-.176zM423 654h1a1 1 0 011 1v1a1 1 0 01-1 1h-2a1 1 0 01-1-1v-.667zm5 0h2a1 1 0 011 1v1a1 1 0 01-1 1h-2a1 1 0 01-1-1v-1a1 1 0 011-1z"/><path id="Pen" class="cls-1" d="M446.823 636.439l-1.637 1.149-6.89-9.826 1.638-1.148a3 3 0 014.178.734l3.445 4.913a3 3 0 01-.734 4.178zm-22.107 15.5l-6.889-9.825 18.832-13.2 6.889 9.825zm-4.334 2.517c-.907.364-11.36 2.93-12.223 1.7-.815-1.162 5.2-10.222 5.826-10.941a12.2 12.2 0 012.2-1.952l6.889 9.826a17.893 17.893 0 01-2.692 1.368z"/></g><g id="Blog_Archive" data-name="Blog Archive"><path id="Icon-43" data-name="Icon" class="cls-1" d="M425 549h-28a5 5 0 01-5-5v-31l12-12h7v2h-2v2h2v2h-2v2h2v2h-2v2h2v2h-2v2h2v2h-2v2h2v2h-2v2h2v2h-2v2h2v2h2v-2h-2v-2h2v-2h-2v-2h2v-2h-2v-2h2v-2h-2v-2h2v-2h-2v-2h2v-2h-2v-2h2v-2h-2v-2h2v-2h12a5 5 0 015 5v38a5 5 0 01-5 5zm3-42a4 4 0 00-4-4h-10v29h-6v-29h-4v5a5 5 0 01-5 5h-5v30a4 4 0 004 4h26a4 4 0 004-4v-36zm-19 26h4v8h-4v-8zm1 3h2v-2h-2v2z"/></g><g id="Blog_Widget" data-name="Blog Widget"><path id="Border-23" data-name="Border" class="cls-1" d="M429.818 435H427v-2h2a4 4 0 004-4v-2h2v2.857a5.163 5.163 0 01-5.182 5.143zM433 421h2v4h-2v-4zm0-6h2v4h-2v-4zm0-6h2v4h-2v-4zm0-6h2v4h-2v-4zm0-6h2v4h-2v-4zm0-4a4 4 0 00-4-4h-2v-2h2.818a5.162 5.162 0 015.182 5.143V395h-2v-2zm-8-6v2h-4v-2h4zm0 48h-4v-2h4v2zm-6-46h-4v-2h4v2zm0 46h-4v-2h4v2zm-6-46h-4v-2h4v2zm-10 44h4v2h-4v-2zm0-46h4v2h-4v-2zm-6 46h4v2h-4v-2zm0-46h4v2h-4v-2zm-10 42.857V427h2v2a4 4 0 004 4h2v2h-2.818a5.163 5.163 0 01-5.182-5.143zM389 393v2h-2v-2.857a5.162 5.162 0 015.182-5.143H395v2h-2a4 4 0 00-4 4zm-2 4h2v4h-2v-4zm2 10h-2v-4h2v4zm0 6h-2v-4h2v4zm0 6h-2v-4h2v4zm-2 2h2v4h-2v-4zm26 14h-4v-2h4v2z"/><path id="Menu" class="cls-1" d="M395 427v-1h32v1h-32zm0-3h32v1h-32v-1zm0-2h32v1h-32v-1zm4-3h28v2h-28v-2zm-4-5h32v1h-32v-1zm0-2h32v1h-32v-1zm0-2h32v1h-32v-1zm4-3h28v2h-28v-2zm-4-5h32v1h-32v-1zm0-2h32v1h-32v-1zm0-2h32v1h-32v-1zm4-3h28v2h-28v-2zm-4 0h2v2h-2v-2zm2 14h-2v-2h2v2zm0 12h-2v-2h2v2z"/></g><g id="Blog_Roll" data-name="Blog Roll"><path id="Border-24" data-name="Border" class="cls-1" d="M425 321h-28a5 5 0 01-5-5v-31l12-12h21a5 5 0 015 5v38a5 5 0 01-5 5zm3-42a4 4 0 00-4-4h-20v5a5 5 0 01-5 5h-5v30a4 4 0 004 4h26a4 4 0 004-4v-36z"/><path id="Icon-44" data-name="Icon" class="cls-1" d="M420.887 295.128l-5.632 5.682a5 5 0 01-7.071.031 4.93 4.93 0 01-.426-.517 1 1 0 111.124-1.608l.129-.13a2.973 2.973 0 004.824.816l5.632-5.682a3 3 0 00-4.262-4.224l-2.956 2.983-2.265-.556 3.8-3.835a5 5 0 117.103 7.04zm-7.071.031a4.93 4.93 0 01.426.517 1 1 0 11-1.124 1.608l-.129.13a2.971 2.971 0 00-4.824-.816l-5.632 5.682a3 3 0 004.267 4.22l2.956-2.983 2.266.556-3.8 3.835a5 5 0 01-7.1-7.04l5.632-5.682a5 5 0 017.062-.027z"/></g><g id="Blog_Categories" data-name="Blog Categories"><path id="Border-25" data-name="Border" class="cls-1" d="M429.818 207H427v-2h2a4 4 0 004-4v-2h2v2.857a5.162 5.162 0 01-5.182 5.143zM433 193h2v4h-2v-4zm0-6h2v4h-2v-4zm0-6h2v4h-2v-4zm0-6h2v4h-2v-4zm0-6h2v4h-2v-4zm0-4a4 4 0 00-4-4h-2v-2h2.818a5.162 5.162 0 015.182 5.143V167h-2v-2zm-8-6v2h-4v-2h4zm0 48h-4v-2h4v2zm-6-46h-4v-2h4v2zm0 46h-4v-2h4v2zm-6-46h-4v-2h4v2zm-10 44h4v2h-4v-2zm0-46h4v2h-4v-2zm-6 46h4v2h-4v-2zm0-46h4v2h-4v-2zm-10 42.857V199h2v2a4 4 0 004 4h2v2h-2.818a5.162 5.162 0 01-5.182-5.143zM389 165v2h-2v-2.857a5.162 5.162 0 015.182-5.143H395v2h-2a4 4 0 00-4 4zm-2 4h2v4h-2v-4zm2 10h-2v-4h2v4zm0 6h-2v-4h2v4zm0 6h-2v-4h2v4zm-2 2h2v4h-2v-4zm26 14h-4v-2h4v2z"/><path id="Icon-45" data-name="Icon" class="cls-5" d="M395 167h15v15h-15v-15zm17 0h15v15h-15v-15zm-17 17h15v15h-15v-15zm17 0h15v15h-15v-15z"/></g><g id="Blog"><path id="Border-26" data-name="Border" class="cls-1" d="M428 56.718V51a4 4 0 00-4-4h-20v5a5 5 0 01-5 5h-5v30a4 4 0 004 4h26a4 4 0 004-4V75.6l2-1.314V88a5 5 0 01-5 5h-28a5 5 0 01-5-5V57l12-12h21a5 5 0 015 5v5.4z"/><path id="Icon-46" data-name="Icon" class="cls-1" d="M442.823 63.439l-1.638 1.148-6.885-9.824 1.638-1.148a3 3 0 014.178.734l3.445 4.913a3 3 0 01-.738 4.177zm-22.107 15.5l-6.889-9.825 18.832-13.2 6.889 9.826zm-4.334 2.516c-.907.364-11.36 2.931-12.223 1.7-.815-1.162 5.2-10.222 5.826-10.941a12.2 12.2 0 012.2-1.951l6.889 9.825a17.79 17.79 0 01-2.692 1.369z"/></g></g><g id="Column_3" data-name="Column 3"><g id="Logo"><path id="Icon-47" data-name="Icon" class="cls-1" d="M325 548.94c-1.074 0-2.148 0-3.286-.063-5.94-.251-8.908-2.314-10.616-3.751A24.74 24.74 0 01297.64 549C282.6 549 273 537.189 273 525.186A24.139 24.139 0 01297.513 501c14.66 0 24.768 11.376 24.768 23.753 0 8.251-3.347 12.561-4.928 14.562 2.023 1.5 4.108 1.938 7.646 2.124v7.5zm-27.486-39.756c-7.2 0-13.078 4.814-14.531 12.314a14.227 14.227 0 000 3.314 24.812 24.812 0 017.835-1.439 18.937 18.937 0 0110.931 3.19 61.535 61.535 0 018.276 6.812 13.387 13.387 0 002.843-8.624c0-9.379-7.014-15.567-15.29-15.567h-.064zm.127 31.63a13.285 13.285 0 006.76-1.688 43.306 43.306 0 00-4.928-4.562 15.626 15.626 0 00-9.6-3.252 15.786 15.786 0 00-5.75 1c2.909 6.438 9.417 8.5 13.46 8.5h.063z"/></g><g id="Video"><path id="Icon-48" data-name="Icon" class="cls-1" d="M319 427v-38h-38v-2h40v40h-2zm-2-34v38h-2v-38h-38v-2h40v2zm-4 42h-40v-40h40v40zm-2-38h-36v36h36v-36zm-24 26v-16l12 8z"/></g><g id="Slider"><path id="Icon-49" data-name="Icon" class="cls-1" d="M326 305h-3l7-8-7-8h3l7 8zm-49-28h40v40h-40v-40zm2 38h36v-36h-36v36zm13.063-20.01l10.555 17.185 4.936-8.038 5.446 8.869h-32zm14.945-4a4 4 0 114-4 4 4 0 01-4 4.01zM268 305l-7-8 7-8h3l-7 8 7 8h-3z"/></g><g id="Gallery"><path id="Icon-50" data-name="Icon" class="cls-1" d="M319 199v-38h-38v-2h40v40h-2zm-2-34v38h-2v-38h-38v-2h40v2zm-4 42h-40v-40h40v40zm-2-38h-36v36h36v-36zm-12.382 33.175l4.936-8.039 5.448 8.87H277l11.065-18.016zm4.39-21.18a4 4 0 114-4 4 4 0 01-4 4.005z"/></g><g id="Image-3" data-name="Image"><path id="Icon-51" data-name="Icon" class="cls-1" d="M273 93V45h48v48h-48zm46-46h-44v44h44V47zm-14.978 40.991l6.171-9.824L317 89.007h-40l13.831-22.019zm5.988-27a5 5 0 115-5 5 5 0 01-5 5.003z"/></g></g><g id="Column_2" data-name="Column 2"><g id="Form"><path id="Border-27" data-name="Border" class="cls-1" d="M164 1071h38a5 5 0 015 5v38a5 5 0 01-5 5h-38a5 5 0 01-5-5v-38a5 5 0 015-5zm1 2h36a4 4 0 014 4v36a4 4 0 01-4 4h-36a4 4 0 01-4-4v-36a4 4 0 014-4z"/><path id="Input-3" data-name="Input" class="cls-5" d="M166 1079h34a1 1 0 011 1v2a1 1 0 01-1 1h-34a1 1 0 01-1-1v-2a1 1 0 011-1zm0 6h34a1 1 0 011 1v2a1 1 0 01-1 1h-34a1 1 0 01-1-1v-2a1 1 0 011-1zm0 6h34a1 1 0 011 1v8a1 1 0 01-1 1h-34a1 1 0 01-1-1v-8a1 1 0 011-1z"/><path id="Button-3" data-name="Button" class="cls-5" d="M171 1107h10a1 1 0 011 1v2a1 1 0 01-1 1h-10a1 1 0 01-1-1v-2a1 1 0 011-1zm14 0h10a1 1 0 011 1v2a1 1 0 01-1 1h-10a1 1 0 01-1-1v-2a1 1 0 011-1z"/></g><g id="Breadcrumbs"><path id="Icon-52" data-name="Icon" class="cls-1" d="M206.811 978.9l-2.836 2.833-18.889-18.908a3 3 0 00-4.243 0l-18.988 18.969-2.862-2.866 20.407-20.394a5 5 0 017.071 0l6.53 6.536V958a1 1 0 011-1h6a1 1 0 011 1v15.08zm-21.69-12.5L201 982.267V1002a3 3 0 01-3 3h-30a3 3 0 01-3-3v-19.727l15.879-15.882a3 3 0 014.242 0zM177 1005h12v-18h-12v18z"/></g><g id="RSS"><path id="Icon-53" data-name="Icon" class="cls-1" d="M190.729 891h-8.949A22.78 22.78 0 00159 868.22v-8.949A31.73 31.73 0 01190.729 891zM159 884.492a6.509 6.509 0 116.508 6.508 6.509 6.509 0 01-6.508-6.508zM207 891h-8.949A39.051 39.051 0 00159 851.949V843a48 48 0 0148 48z"/></g><g id="Language_Swicther" data-name="Language Swicther"><path id="Icon-54" data-name="Icon" class="cls-1" d="M206.767 756.17a25.03 25.03 0 01-.215 1.409c-.068.349-.156.69-.239 1.033-.09.377-.181.755-.289 1.125s-.241.759-.371 1.133c-.108.31-.218.618-.337.921a23.288 23.288 0 01-.871 1.937c-.214.425-.435.846-.673 1.256-.108.187-.223.369-.336.553-.274.443-.553.883-.854 1.307-.083.116-.172.228-.257.343-.346.47-.7.935-1.079 1.378-.417.488-.842.969-1.3 1.422a24.041 24.041 0 01-7.621 5.129c-.065.028-.134.047-.2.073-.655.27-1.32.52-2 .732-.179.056-.366.09-.547.141a23.7 23.7 0 01-1.749.449c-.358.073-.727.109-1.09.166-.43.068-.853.153-1.29.2a24.305 24.305 0 01-4.9 0c-.436-.044-.86-.129-1.29-.2-.363-.057-.732-.093-1.09-.166a23.7 23.7 0 01-1.749-.449c-.181-.051-.368-.085-.547-.141a23.23 23.23 0 01-2-.732c-.065-.026-.134-.045-.2-.073a24.026 24.026 0 01-7.62-5.129 23.96 23.96 0 01-2.379-2.8c-.085-.115-.174-.227-.257-.343-.3-.424-.58-.864-.854-1.307-.113-.184-.227-.366-.336-.553-.238-.41-.459-.831-.673-1.256a24.944 24.944 0 01-.871-1.937 23.29 23.29 0 01-.337-.921c-.13-.374-.258-.75-.371-1.133s-.2-.748-.289-1.125c-.083-.343-.171-.684-.239-1.033a25.03 25.03 0 01-.215-1.409c-.037-.281-.088-.557-.115-.841-.073-.767-.117-1.543-.117-2.329s.044-1.562.118-2.329c.027-.284.078-.561.115-.841.063-.473.126-.946.215-1.409.068-.349.156-.69.239-1.033.091-.377.181-.755.289-1.125s.241-.758.371-1.133c.108-.31.218-.618.337-.921a23.288 23.288 0 01.871-1.937c.214-.425.435-.846.673-1.256.109-.187.223-.369.336-.552.274-.444.553-.884.854-1.308.083-.116.172-.228.257-.343.346-.47.7-.935 1.079-1.378.417-.488.842-.969 1.3-1.422a24.026 24.026 0 017.62-5.129c.065-.028.134-.046.2-.073.655-.27 1.32-.52 2-.732.179-.056.366-.089.547-.141a23.7 23.7 0 011.749-.449c.358-.073.727-.11 1.09-.167.43-.067.854-.152 1.29-.2a24.305 24.305 0 014.9 0c.437.044.86.129 1.29.2.363.057.732.094 1.09.167a23.7 23.7 0 011.749.449c.181.052.368.085.547.141a23.23 23.23 0 012 .732c.065.027.134.045.2.073a24.041 24.041 0 017.621 5.129c.453.453.878.934 1.3 1.422.379.443.733.908 1.079 1.378.085.115.174.227.257.343.3.424.58.864.854 1.308.113.183.228.365.336.552.238.41.459.831.673 1.256a24.944 24.944 0 01.871 1.937c.119.3.229.611.337.921.13.375.258.75.371 1.133s.2.748.289 1.125c.083.343.171.684.239 1.033.089.463.152.936.215 1.409.037.28.088.557.115.841.074.767.118 1.543.118 2.329s-.044 1.562-.118 2.329c-.028.284-.083.56-.116.841zM176.8 774.1a20.5 20.5 0 01-4.2-6.791 27.958 27.958 0 00-4.669 1.691 21.959 21.959 0 008.869 5.1zm-10.258-6.543a29.354 29.354 0 015.371-2.079A39.652 39.652 0 01170.019 754h-8.977a21.891 21.891 0 005.499 13.556zm-5.5-15.557h8.977a39.652 39.652 0 011.893-11.477 29.426 29.426 0 01-5.371-2.078A21.885 21.885 0 00161.042 752zm6.889-15a28.048 28.048 0 004.666 1.692 20.5 20.5 0 014.2-6.791 21.938 21.938 0 00-8.866 5.099zM182 731.1c-3.037.549-5.712 3.569-7.528 8.044a41.235 41.235 0 007.528.833V731.1zm0 10.875a41.737 41.737 0 01-8.2-.968 38.669 38.669 0 00-1.771 11H182v-10.034zM182 754h-9.975a38.656 38.656 0 001.771 10.994 41.814 41.814 0 018.2-.967V754zm0 12.025a41.323 41.323 0 00-7.528.833c1.816 4.475 4.491 7.5 7.528 8.044v-8.877zM204.958 754h-8.977a39.652 39.652 0 01-1.893 11.477 29.354 29.354 0 015.371 2.079A21.891 21.891 0 00204.958 754zm-6.889 15a27.958 27.958 0 00-4.666-1.693 20.5 20.5 0 01-4.2 6.791 21.959 21.959 0 008.866-5.098zM184 774.9c3.037-.549 5.712-3.569 7.528-8.044a41.323 41.323 0 00-7.528-.833v8.877zm0-10.875a41.814 41.814 0 018.2.967A38.656 38.656 0 00193.975 754H184v10.027zM184 752h9.975a38.669 38.669 0 00-1.771-11 41.737 41.737 0 01-8.2.968V752zm0-12.025a41.235 41.235 0 007.528-.833c-1.816-4.475-4.491-7.5-7.528-8.044v8.877zm5.2-8.074a20.5 20.5 0 014.2 6.791 28.048 28.048 0 004.669-1.692 21.938 21.938 0 00-8.869-5.1zm10.258 6.544a29.426 29.426 0 01-5.371 2.078A39.652 39.652 0 01195.981 752h8.977a21.885 21.885 0 00-5.499-13.555z"/></g><g id="Map"><path id="Icon-55" data-name="Icon" class="cls-1" d="M187 651a37.74 37.74 0 00-4 12 37.21 37.21 0 00-4-12c-2.666-4.5-11-12.672-11-21a15 15 0 0130 0c0 8.35-8.354 16.5-11 21zm-4-27a6 6 0 106 6 6 6 0 00-6-6z"/></g><g id="Anchor"><path id="Icon-56" data-name="Icon" class="cls-1" d="M202.414 535.971l-2-.694c-.866 1.817-2.592 5.108-4.418 6.723-3.479 3.077-8.595 4.5-10 5a7.055 7.055 0 00-3 2 7.055 7.055 0 00-3-2c-1.405-.5-6.521-1.923-10-5-1.943-1.719-3.777-5.343-4.578-7.059l-2.058.749a.381.381 0 01-.558-.413l1.542-6.129a.483.483 0 01.724-.263c.281.2 4.814 3.47 5.134 3.71a.378.378 0 01-.164.663l-1.507.549A28.129 28.129 0 00174 540c1.752 1.269 4.26 2.156 5 2 1.187-.25 1-2 1-2h.094l.625-20H175.5a1.5 1.5 0 010-3h5.313l.136-4.383a6 6 0 114.1 0l.138 4.383h5.313a1.5 1.5 0 010 3h-5.219l.625 20H186s-.187 1.75 1 2c.74.156 3.248-.731 5-2a27 27 0 005.217-5.835l-1.9-.659a.377.377 0 01-.174-.672c.339-.244 5.154-3.559 5.453-3.761a.52.52 0 01.768.267l1.639 6.212a.4.4 0 01-.589.419zM187 507a4 4 0 10-4 4 4 4 0 004-4z"/></g><g id="Content"><path id="Icon-57" data-name="Icon" class="cls-1" d="M201.556 421.246a11.009 11.009 0 00.185 2.594 1.863 1.863 0 00.651.943 1.454 1.454 0 00.86.361q1.6 0 3.023-2.458l.737.546q-1.99 4.768-6.463 4.768a5.67 5.67 0 01-3.7-1.229 5.431 5.431 0 01-1.929-2.742 23.672 23.672 0 01-.245-4.568v-12.539h-3v-.869a31.818 31.818 0 005.271-4.642 28.244 28.244 0 003.8-5.437h.811v8.491h5.456v2.457h-5.456v14.324zM186.3 398.593a6.749 6.749 0 00-2.63-2.2 8.354 8.354 0 00-3.268-.447h-2.482v25.967a10.69 10.69 0 00.283 3.228 2.543 2.543 0 001.106 1.129 4.43 4.43 0 002.248.484h1.106v.919h-17.452v-.919h1.106a4.566 4.566 0 002.335-.521 2.368 2.368 0 001.007-1.192 10.321 10.321 0 00.271-3.128v-25.964h-2.409q-3.366 0-4.89 1.441a9.559 9.559 0 00-2.7 5.734h-.934v-9.111h29.931v9.111h-.884a14.49 14.49 0 00-1.744-4.531z"/></g><g id="Registration"><path id="Icon-58" data-name="Icon" class="cls-1" d="M199 321h-30a5 5 0 01-5-5v-20a5 5 0 015-5h30a5 5 0 015 5v20a5 5 0 01-5 5zm-15-23a5 5 0 00-2 9.578V312a2 2 0 004 0v-4.422a5 5 0 00-2-9.578zm10.949-9c.03-.33.051-.662.051-1a11 11 0 00-22 0c0 .338.021.67.051 1h-4c-.021-.332-.05-.662-.05-1a15 15 0 0130 0c0 .338-.029.668-.05 1h-4z"/></g><g id="Login"><path id="Icon-59" data-name="Icon" class="cls-1" d="M197.818 207h-27.636a5.163 5.163 0 01-5.182-5.143V185h-2v-4h2v-16.857a5.162 5.162 0 015.182-5.143h27.636a5.162 5.162 0 015.182 5.143v37.714a5.163 5.163 0 01-5.182 5.143zM201 164a3 3 0 00-3-3h-28a3 3 0 00-3 3v12h-2v5h19l-10-10h7l12 12-12 12h-7l10-10h-19v5h2v12a3 3 0 003 3h28a3 3 0 003-3v-38z"/></g><g id="Search"><path id="Icon-60" data-name="Icon" class="cls-1" d="M205.828 91.966a4 4 0 01-5.657 0l-11.511-11.5a21.094 21.094 0 005.684-5.629l11.482 11.476a4 4 0 01.002 5.653zM177 81a18 18 0 1118-18 18 18 0 01-18 18zm10-27.789V53h-.211A13.993 13.993 0 00167 72.789V73h.211a13.979 13.979 0 0019.578 0H187v-.211a13.977 13.977 0 000-19.578zM169 63h-2a10 10 0 0110-10v2a8 8 0 00-8 8z"/></g></g><g id="Column_1" data-name="Column 1"><g id="Spoiler"><path id="Background-3" data-name="Background" class="cls-2" d="M47 1315h44v26a4 4 0 01-4 4H51a4 4 0 01-4-4v-26z"/><path id="Border-28" data-name="Border" class="cls-1" d="M88 1347H50a5 5 0 01-5-5v-38a5 5 0 015-5h38a5 5 0 015 5v38a5 5 0 01-5 5zm-37-2h36a4 4 0 004-4v-26H47v26a4 4 0 004 4zm36-44H51a4 4 0 00-4 4v8h44v-8a4 4 0 00-4-4z"/><path id="Arrow-3" data-name="Arrow" class="cls-1" d="M65 1304l4 4 4-4h2l-6 6-6-6h2z"/></g><g id="Structure"><path id="Border-29" data-name="Border" class="cls-1" d="M45 1203h23v30H50a5 5 0 01-5-5v-25zm2 2h19v26H51a4 4 0 01-4-4v-22zm-2-15a5 5 0 015-5h38a5 5 0 015 5v11H45v-11zm2 1a4 4 0 014-4h36a4 4 0 014 4v8H47v-8zm46 12v25a5 5 0 01-5 5H70v-30h23zm-2 24a4 4 0 01-4 4H72v-26h19v22z"/></g><g id="Flip_Cards" data-name="Flip Cards"><path id="Front-2" data-name="Front" class="cls-1" d="M51.425 1071.35l12.757 4.04a5.636 5.636 0 013.818 5.04v29.15a5.639 5.639 0 01-3.818 5.05l-12.757 4.04c-3.417 1.08-6.425-.37-6.425-3.32v-40.68c0-2.95 3.008-4.4 6.425-3.32z"/><path id="Back-2" data-name="Back" class="cls-1" d="M86.576 1118.63l-12.757-4.03a5.613 5.613 0 01-3.819-5.03v-29.12a5.613 5.613 0 013.819-5.03l12.757-4.04c3.417-1.08 6.424.37 6.424 3.32v40.62c0 2.95-3.008 4.39-6.424 3.31zm3.727-42.22c0-2.29-2.268-3.48-4.891-2.72l-10.767 3.12a4.5 4.5 0 00-3.174 4.06v28.28a4.5 4.5 0 003.174 4.06l10.767 3.12c2.623.76 4.891-.44 4.891-2.72v-37.2z"/></g><g id="Sticky_Block" data-name="Sticky Block"><path id="Borde" class="cls-1" d="M87.818 1005H85v-2h2a4 4 0 004-4v-2h2v2.857a5.161 5.161 0 01-5.182 5.143zM91 991h2v4h-2v-4zm0-6h2v4h-2v-4zm0-6h2v4h-2v-4zm0-6h2v4h-2v-4zm0-6h2v4h-2v-4zm0-4a4 4 0 00-4-4h-2v-2h2.818A5.162 5.162 0 0193 962.143V965h-2v-2zm-8-6v2h-4v-2h4zm0 48h-4v-2h4v2zm-6-46h-4v-2h4v2zm0 46h-4v-2h4v2zm-6-46h-4v-2h4v2zm-10 44h4v2h-4v-2zm0-46h4v2h-4v-2zm-6 46h4v2h-4v-2zm0-46h4v2h-4v-2zm-10 42.857V997h2v2a4 4 0 004 4h2v2h-2.818A5.161 5.161 0 0145 999.857zM47 963v2h-2v-2.857A5.162 5.162 0 0150.182 957H53v2h-2a4 4 0 00-4 4zm-2 4h2v4h-2v-4zm2 10h-2v-4h2v4zm0 6h-2v-4h2v4zm0 6h-2v-4h2v4zm-2 2h2v4h-2v-4zm26 14h-4v-2h4v2z"/><path id="Pin" class="cls-1" d="M66.565 984.825l-9.437 9.437a1.112 1.112 0 01-1.573-1.572l9.437-9.438-5.5-5.5.786-.786a2.224 2.224 0 013.146 0l3.932 3.932 1.573 1.573 3.932 3.932a2.225 2.225 0 010 3.146l-.786.786zm12.583-7.864l-6.291 7.864-7.864-7.864 7.864-6.291zm.786-.786l-6.291-6.292a2.225 2.225 0 010-3.146l9.437 9.438s-2.28.868-3.145 0z"/></g><g id="Hidden_Tabs" data-name="Hidden Tabs"><path id="Icon-61" data-name="Icon" class="cls-1" d="M87.818 891H50.182A5.163 5.163 0 0145 885.857v-29.714a5.144 5.144 0 014-5v-3A5.162 5.162 0 0154.182 843h8.636A5.162 5.162 0 0168 848.143V851h2v-2.857A5.162 5.162 0 0175.182 843h8.636A5.162 5.162 0 0189 848.143v3a5.144 5.144 0 014 5v29.714A5.163 5.163 0 0187.818 891zM87 848a3 3 0 00-3-3h-9a3 3 0 00-3 3v3h15v-3zm4 9a4 4 0 00-4-4H66v-5a3 3 0 00-3-3h-9a3 3 0 00-3 3v5a4 4 0 00-4 4v28a4 4 0 004 4h36a4 4 0 004-4v-28z"/><path id="Arrow-4" data-name="Arrow" class="cls-1" d="M77 869l-8 7-8-7v-3l8 7 8-7v3z"/></g><g id="Tabs"><path id="Icon-62" data-name="Icon" class="cls-1" d="M87.818 777H50.182A5.162 5.162 0 0145 771.857v-29.714a5.144 5.144 0 014-5v-3A5.162 5.162 0 0154.182 729h8.636A5.162 5.162 0 0168 734.143V737h2v-2.857A5.162 5.162 0 0175.182 729h8.636A5.162 5.162 0 0189 734.143v3a5.144 5.144 0 014 5v29.714A5.162 5.162 0 0187.818 777zM87 734a3 3 0 00-3-3h-9a3 3 0 00-3 3v3h15v-3zm4 9a4 4 0 00-4-4H66v-5a3 3 0 00-3-3h-9a3 3 0 00-3 3v5a4 4 0 00-4 4v28a4 4 0 004 4h36a4 4 0 004-4v-28z"/></g><g id="Menu-2" data-name="Menu"><path id="Icon-63" data-name="Icon" class="cls-1" d="M90 652H56a3 3 0 010-6h34a3 3 0 010 6zm0-10H56a3 3 0 010-6h34a3 3 0 010 6zm0-10H56a3 3 0 010-6h34a3 3 0 010 6zm0-10H56a3 3 0 010-6h34a3 3 0 010 6zm-42 40a3 3 0 113-3 3 3 0 01-3 3zm0-10a3 3 0 113-3 3 3 0 01-3 3zm0-10a3 3 0 113-3 3 3 0 01-3 3zm0-10a3 3 0 113-3 3 3 0 01-3 3zm0-10a3 3 0 113-3 3 3 0 01-3 3zm8 34h34a3 3 0 010 6H56a3 3 0 010-6z"/></g><g id="Spacer"><path id="Icon-64" data-name="Icon" class="cls-1" d="M91 549v-3h2v3h-2zm0-9h2v4h-2v-4zm0-4a4 4 0 00-4-4h-2v-2h2.818A5.163 5.163 0 0193 535.143V538h-2v-2zm-3.182-16H85v-2h2a4 4 0 004-4v-2h2v2.857A5.162 5.162 0 0187.818 520zM91 506h2v4h-2v-4zm0-5h2v3h-2v-3zm-12 17h4v2h-4v-2zm-2 14h-4v-2h4v2zm-4-14h4v2h-4v-2zm-2 14h-4v-2h4v2zm-4-14h4v2h-4v-2zm-6 0h4v2h-4v-2zm4 14h-4v-2h4v2zm-10-14h4v2h-4v-2zm4 14h-4v-2h4v2zm-14-17.143V512h2v2a4 4 0 004 4h2v2h-2.818A5.162 5.162 0 0145 514.857zM45 510v-4h2v4h-2zm0-6v-3h2v3h-2zm5.182 26H53v2h-2a4 4 0 00-4 4v2h-2v-2.857A5.163 5.163 0 0150.182 530zM45 540h2v4h-2v-4zm2 9h-2v-3h2v3zm36-19v2h-4v-2h4z"/></g><g id="Divider"><path id="Icon-65" data-name="Icon" class="cls-1" d="M91 435v-3h2v3h-2zm0-9h2v4h-2v-4zm0-4a4 4 0 00-4-4h-2v-2h2.818A5.162 5.162 0 0193 421.143V424h-2v-2zm-3.182-16H85v-2h2a4 4 0 004-4v-2h2v2.857A5.163 5.163 0 0187.818 406zM91 392h2v4h-2v-4zm0-5h2v3h-2v-3zm-12 17h4v2h-4v-2zm-2 14h-4v-2h4v2zm-4-14h4v2h-4v-2zm-2 14h-4v-2h4v2zm-4-14h4v2h-4v-2zm-6 0h4v2h-4v-2zm4 14h-4v-2h4v2zm-10-14h4v2h-4v-2zm4 14h-4v-2h4v2zm-14-17.143V398h2v2a4 4 0 004 4h2v2h-2.818A5.163 5.163 0 0145 400.857zM45 396v-4h2v4h-2zm0-6v-3h2v3h-2zm5.182 26H53v2h-2a4 4 0 00-4 4v2h-2v-2.857A5.162 5.162 0 0150.182 416zM45 426h2v4h-2v-4zm2 9h-2v-3h2v3zm36-19v2h-4v-2h4zm-38-6h48v2H45v-2z"/></g><g id="Columns"><path id="Icon-66" data-name="Icon" class="cls-1" d="M88 321h-4a5 5 0 01-5-5v-38a5 5 0 015-5h4a5 5 0 015 5v38a5 5 0 01-5 5zm3-43a3 3 0 00-3-3h-4a3 3 0 00-3 3v38a3 3 0 003 3h4a3 3 0 003-3v-38zm-20 43h-4a5 5 0 01-5-5v-38a5 5 0 015-5h4a5 5 0 015 5v38a5 5 0 01-5 5zm3-43a3 3 0 00-3-3h-4a3 3 0 00-3 3v38a3 3 0 003 3h4a3 3 0 003-3v-38zm-20 43h-4a5 5 0 01-5-5v-38a5 5 0 015-5h4a5 5 0 015 5v38a5 5 0 01-5 5zm3-43a3 3 0 00-3-3h-4a3 3 0 00-3 3v38a3 3 0 003 3h4a3 3 0 003-3v-38z"/></g><g id="Area"><path id="Border-30" data-name="Border" class="cls-1" d="M87.818 207H85v-2h2a4 4 0 004-4v-2h2v2.857A5.162 5.162 0 0187.818 207zM91 193h2v4h-2v-4zm0-6h2v4h-2v-4zm0-6h2v4h-2v-4zm0-6h2v4h-2v-4zm0-6h2v4h-2v-4zm0-4a4 4 0 00-4-4h-2v-2h2.818A5.162 5.162 0 0193 164.143V167h-2v-2zm-8-6v2h-4v-2h4zm0 48h-4v-2h4v2zm-6-46h-4v-2h4v2zm0 46h-4v-2h4v2zm-6-46h-4v-2h4v2zm-10 44h4v2h-4v-2zm0-46h4v2h-4v-2zm-6 46h4v2h-4v-2zm0-46h4v2h-4v-2zm-10 42.857V199h2v2a4 4 0 004 4h2v2h-2.818A5.162 5.162 0 0145 201.857zM47 165v2h-2v-2.857A5.162 5.162 0 0150.182 159H53v2h-2a4 4 0 00-4 4zm-2 4h2v4h-2v-4zm2 10h-2v-4h2v4zm0 6h-2v-4h2v4zm0 6h-2v-4h2v4zm-2 2h2v4h-2v-4zm26 14h-4v-2h4v2z"/></g><g id="Default"><path id="big" class="cls-1" d="M78 77v4h-4.173a11.91 11.91 0 01-2.06 4.937l2.962 2.963-2.829 2.827-2.964-2.964A11.929 11.929 0 0164 90.82V95h-4v-4.18a11.932 11.932 0 01-4.934-2.055L52.1 91.729 49.273 88.9l2.962-2.962A11.906 11.906 0 0150.173 81H46v-4h4.173a11.908 11.908 0 012.06-4.937L49.271 69.1l2.829-2.827 2.964 2.964A11.924 11.924 0 0160 67.18V63h4v4.18a11.931 11.931 0 014.935 2.055l2.965-2.964 2.827 2.829-2.962 2.962A11.907 11.907 0 0173.827 77H78zm-16-4a6 6 0 106 6 6 6 0 00-6-6z"/><path id="small" d="M91 54.5v3h-3.136a8.943 8.943 0 01-1.542 3.7l2.225 2.224-2.121 2.122-2.226-2.225a8.934 8.934 0 01-3.7 1.544V68h-3v-3.135a8.934 8.934 0 01-3.7-1.543l-2.224 2.224-2.122-2.122 2.225-2.224a8.945 8.945 0 01-1.543-3.7H67v-3h3.136a8.944 8.944 0 011.542-3.7l-2.225-2.224 2.121-2.122 2.226 2.224a8.933 8.933 0 013.7-1.543V44h3v3.135a8.932 8.932 0 013.7 1.542l2.224-2.224 2.121 2.121-2.224 2.226a8.945 8.945 0 011.543 3.7H91zM79 51a5 5 0 105 5 5 5 0 00-5-5z" fill-opacity=".85" fill-rule="evenodd" fill="#fff"/></g></g><g id="_pivots"><path id="Top" class="cls-7" d="M0 0h1v1H0V0z"/><path id="Bottom" class="cls-7" d="M1163 1391h1v1h-1v-1z"/></g></svg>