<svg id="Dark.svg" xmlns="http://www.w3.org/2000/svg" width="1164" height="1392" viewBox="0 0 1164 1392"><defs><style>.cls-1,.cls-2,.cls-3,.cls-4,.cls-5,.cls-6,.cls-7{fill:#fff}.cls-1,.cls-4,.cls-5,.cls-6,.cls-7{fill-rule:evenodd}.cls-2,.cls-4{opacity:.4}.cls-5{opacity:.55}.cls-6{fill-opacity:.85}.cls-7{opacity:0}</style></defs><g id="Column_10" data-name="Column 10"><g id="QuickSilk"><path id="Icon" class="cls-1" d="M1123 776.94c-1.08 0-2.15 0-3.29-.063-5.94-.25-8.9-2.314-10.61-3.75a24.742 24.742 0 0 1-13.46 3.873c-15.04 0-24.64-11.814-24.64-23.817A24.14 24.14 0 0 1 1095.51 729c14.66 0 24.77 11.376 24.77 23.753 0 8.25-3.35 12.56-4.93 14.562 2.03 1.5 4.11 1.938 7.65 2.124v7.5zm-27.49-39.756c-7.2 0-13.08 4.814-14.53 12.314a15.052 15.052 0 0 0 0 3.314 24.825 24.825 0 0 1 7.84-1.44 18.955 18.955 0 0 1 10.93 3.19 61.545 61.545 0 0 1 8.27 6.813 13.346 13.346 0 0 0 2.85-8.624c0-9.378-7.02-15.566-15.29-15.566h-.07zm.13 31.63a13.305 13.305 0 0 0 6.76-1.688 43.217 43.217 0 0 0-4.93-4.562 16.21 16.21 0 0 0-15.35-2.25c2.91 6.437 9.41 8.5 13.46 8.5h.06z"/></g><g id="Flickr"><path id="Icon-2" data-name="Icon" class="cls-1" d="M1083 627a12 12 0 1 1-12 12 12 12 0 0 1 12-12zm24 0a12 12 0 1 1-12 12 12 12 0 0 1 12-12zm0 3a9 9 0 1 1-9 9 9 9 0 0 1 9-9z"/></g><g id="Instagram"><path id="icon-3" data-name="icon" class="cls-1" d="M1118.94 534.954a17.325 17.325 0 0 1-1.12 5.836 12.265 12.265 0 0 1-7.03 7.03 17.62 17.62 0 0 1-5.83 1.12c-2.57.116-3.39.143-9.91.143s-7.35-.027-9.92-.144a17.62 17.62 0 0 1-5.83-1.12 12.274 12.274 0 0 1-7.03-7.03 17.325 17.325 0 0 1-1.12-5.836c-.12-2.564-.15-3.383-.15-9.913s.03-7.347.15-9.91a17.6 17.6 0 0 1 1.11-5.837 12.33 12.33 0 0 1 7.04-7.03 17.593 17.593 0 0 1 5.83-1.12c2.57-.116 3.39-.144 9.91-.144s7.35.027 9.92.144a17.622 17.622 0 0 1 5.83 1.117 12.28 12.28 0 0 1 7.03 7.033 17.325 17.325 0 0 1 1.12 5.836c.12 2.563.15 3.382.15 9.91s-.03 7.35-.15 9.914zm-4.33-19.628a13.156 13.156 0 0 0-.82-4.464 7.962 7.962 0 0 0-4.57-4.563 13.24 13.24 0 0 0-4.46-.828c-2.54-.116-3.3-.14-9.72-.14h.01c-6.42 0-7.19.024-9.72.14a13.26 13.26 0 0 0-4.46.827 7.962 7.962 0 0 0-4.57 4.562 13.345 13.345 0 0 0-.83 4.464c-.11 2.536-.14 3.3-.14 9.716s.03 7.18.14 9.715a13.345 13.345 0 0 0 .83 4.464 7.962 7.962 0 0 0 4.57 4.564 13.26 13.26 0 0 0 4.46.828c2.53.115 3.29.14 9.71.14s7.19-.025 9.72-.14a13.26 13.26 0 0 0 4.46-.828 7.968 7.968 0 0 0 4.57-4.563 13.156 13.156 0 0 0 .82-4.463c.12-2.535.15-3.3.15-9.715s-.03-7.18-.15-9.716zm-6.73-.233a2.885 2.885 0 1 1 2.88-2.885 2.892 2.892 0 0 1-2.88 2.885zm-12.84 22.294a12.346 12.346 0 1 1 12.35-12.346 12.346 12.346 0 0 1-12.35 12.347zm0-20.36a8.014 8.014 0 1 0 8.02 8.014 8.014 8.014 0 0 0-8.02-8.013zm.01-16.027z"/></g><g id="Klipfolio"><path id="Letter" class="cls-1" d="M1080.4 387.58h7.67a1.414 1.414 0 0 1 1.42 1.38v17.084c0 .768.3.87.7.205l10.25-17.442a2.727 2.727 0 0 1 2.12-1.228h7.78c.75 0 1.06.512.6 1.126l-10.45 15.19a2.907 2.907 0 0 0-.25 2.4l11.86 27.466a.852.852 0 0 1-.3 1.176.68.68 0 0 1-.55.1h-7.98a2.153 2.153 0 0 1-1.92-1.28l-7.37-19.28c-.25-.717-.86-.77-1.31-.155l-2.43 3.427a5.125 5.125 0 0 0-.8 2.557v13.35a1.414 1.414 0 0 1-1.42 1.38h-7.62a1.414 1.414 0 0 1-1.42-1.38v-44.7a1.414 1.414 0 0 1 1.42-1.377z"/><path id="Triangle" class="cls-1" d="M1130.31 396.29a1.517 1.517 0 0 0 .41-.82v-17.644a1.824 1.824 0 0 0-1.82-1.842h-17.42a1.467 1.467 0 0 0-.96 2.455l17.72 17.9a1.436 1.436 0 0 0 2.07-.05z"/></g><g id="HubSpot"><path id="Icon-4" data-name="Icon" class="cls-1" d="M1107.13 288.888v-5.71a4.4 4.4 0 0 0 2.53-3.966v-.13a4.4 4.4 0 0 0-4.38-4.393h-.11a4.407 4.407 0 0 0-4.38 4.392v.13a4.4 4.4 0 0 0 2.53 3.965v5.71a12.37 12.37 0 0 0-5.9 2.608l-15.62-12.2a5.016 5.016 0 0 0-2.61-5.78 4.96 4.96 0 0 0-6.15 1.437 5.022 5.022 0 0 0 .19 6.343 4.967 4.967 0 0 0 6.23 1.05l15.35 12a12.532 12.532 0 0 0 .19 14.088l-4.67 4.693a3.915 3.915 0 0 0-1.16-.19 4.072 4.072 0 1 0 4.05 4.07 3.816 3.816 0 0 0-.18-1.16l4.62-4.643a12.407 12.407 0 0 0 14.19.65 12.533 12.533 0 0 0-4.73-22.968m-1.91 18.787a6.4 6.4 0 1 1 4.52-1.88 6.405 6.405 0 0 1-4.52 1.88"/></g><g id="WebEX"><path id="Border" class="cls-1" d="M1097.1 206.908a24 24 0 1 1 21.81-26.01 24 24 0 0 1-21.81 26.01zm5.84-43.35a21 21 0 1 0 11.5 27.38 21 21 0 0 0-11.5-27.38z"/><path id="Icon-5" data-name="Icon" class="cls-1" d="M1097.1 206.908a24 24 0 1 1 21.81-26.01 24 24 0 0 1-21.81 26.01zm5.42-44.965c-5.74-3.31-20.16-3.066-27.45 9.57-7.29 12.66-.26 25.24 5.48 28.55s15.31-2.54 21.38-13.068 6.33-21.743.59-25.052z"/></g><g id="D3"><path id="icon-6" data-name="icon" class="cls-1" d="M1071 46.012a43.328 43.328 0 0 1 8.6.455 22.943 22.943 0 0 1 17.6 17.65 24.368 24.368 0 0 1-.06 10.274 23.922 23.922 0 0 1-2.5 6.187 23.24 23.24 0 0 1-16.11 11.1A49.106 49.106 0 0 1 1071 92V82a42.518 42.518 0 0 0 6.07-.288 12.982 12.982 0 0 0 10.68-12.2c.07-4.582-1.5-7.016-2.41-8.116-3.76-4.537-6.52-5.735-14.34-5.393v-9.99zM1101 64c3.85.06 6.62.47 7.72-2.72a3.985 3.985 0 0 0 0-2.724c-1.77-3.44-3.76-2.174-10.4-2.44a24.15 24.15 0 0 0-6.97-8.343c-.82-.568-1.65-1.135-2.47-1.7v-.06h12.14c2.78 0 5.72-.132 7.87.51 6.52 1.946 12.29 9.15 9.15 18.56a15.27 15.27 0 0 1-2.29 3.86c.07.075.15.15.22.226.38.548.75 1.1 1.13 1.645a15.82 15.82 0 0 1 1.57 4.086 14.165 14.165 0 0 1-9.95 16.49c-2.04.614-4.86.572-7.48.578-4.08.01-8.16.034-12.24.032.04-.057.06-.242.1-.3 2.41-1.13 6.27-5.237 7.76-7.378.52-.85 1.05-1.7 1.57-2.554 6.45-.236 8.46 1.013 10.29-2.44a3.82 3.82 0 0 0 0-2.725c-1.22-3.125-3.54-2.6-7.72-2.6a27.64 27.64 0 0 0 .62-4.82A36.685 36.685 0 0 0 1101 64z"/></g></g><g id="Column_9" data-name="Column 9"><g id="Wizard"><path id="Border-2" data-name="Border" class="cls-1" d="M1000 663h-38a5 5 0 0 1-5-5v-38a5 5 0 0 1 5-5h38a5 5 0 0 1 5 5v38a5 5 0 0 1-5 5zm3-42a4 4 0 0 0-4-4h-36a4 4 0 0 0-4 4v36a4 4 0 0 0 4 4h36a4 4 0 0 0 4-4v-36z"/><path id="Icon-7" data-name="Icon" class="cls-1" d="M995 641a5 5 0 0 1-4.9-4h-4.2a5 5 0 0 1-9.8 0h-4.2a5 5 0 1 1 0-2h4.2a5 5 0 0 1 9.8 0h4.2a5 5 0 1 1 4.9 6zm-27.99-7.986a3 3 0 1 0 3 3 3 3 0 0 0-3-3zm14 0a3 3 0 1 0 3 3 3 3 0 0 0-3-3zm14 0a3 3 0 1 0 3 3 3 3 0 0 0-3-3zM963 645h8a1 1 0 0 1 0 2h-8a1 1 0 0 1 0-2zm14 0h8a1 1 0 0 1 0 2h-8a1 1 0 0 1 0-2zm14 0h8a1 1 0 0 1 0 2h-8a1 1 0 0 1 0-2z"/></g><g id="MultiField"><rect id="Field" class="cls-2" x="957" y="535" width="36" height="14" rx="5" ry="5"/><rect id="Field-2" data-name="Field" class="cls-3" x="957" y="518" width="36" height="14" rx="5" ry="5"/><rect id="Field-3" data-name="Field" class="cls-3" x="957" y="501" width="36" height="14" rx="5" ry="5"/><path id="Plus" class="cls-1" d="M1005 543h-4v4h-2v-4h-4v-2h4v-4h2v4h4v2z"/><path id="Minus" class="cls-1" d="M1003.54 529.95l-3.54-3.536-3.536 3.536-1.414-1.414 3.536-3.536-3.536-3.536 1.414-1.414 3.536 3.536 3.54-3.536 1.41 1.414-3.54 3.536 3.54 3.536z"/><path id="Minus-2" data-name="Minus" class="cls-1" d="M1003.54 512.95l-3.54-3.536-3.536 3.536-1.414-1.414 3.536-3.536-3.536-3.536 1.414-1.414 3.536 3.536 3.54-3.536 1.41 1.414-3.54 3.536 3.54 3.536z"/></g><g id="Image_Browser" data-name="Image Browser"><g id="Image"><path id="Input" class="cls-1" d="M1002.35 434.39l-1.82-1.7A4 4 0 0 0 1003 429v-36a4 4 0 0 0-4-4h-36a4 4 0 0 0-4 4v36a4 4 0 0 0 4 4h24v2h-25a5 5 0 0 1-5-5v-38a5 5 0 0 1 5-5h38a5 5 0 0 1 5 5v38a4.98 4.98 0 0 1-2.65 4.39z"/><path id="Background" class="cls-4" d="M1000.53 432.694L988 421h-1v12h-24a4 4 0 0 1-4-4v-36a4 4 0 0 1 4-4h36a4 4 0 0 1 4 4v36a4 4 0 0 1-2.47 3.694z"/><path id="Image-2" data-name="Image" class="cls-1" d="M991.574 424.336l2.62-4.17 6.806 10.84h-2.278zm2.436-21.342a5 5 0 1 1 5-5 5 5 0 0 1-5 5zM987 431.007h-26l13.83-22.02L987 428.365v2.643z"/></g><path id="Cursor" class="cls-1" d="M989 424v21.283l4.617-4.3L997.6 448l4.853-2.49-3.58-6.34H1005z"/></g><g id="Captcha"><path id="Icon-8" data-name="Icon" class="cls-1" d="M1000 321h-2v-2h1a4 4 0 0 0 4-4v-10a4 4 0 0 0-4-4h-36a4 4 0 0 0-4 4v10a4 4 0 0 0 4 4h29v2h-30a5 5 0 0 1-5-5v-12a5 5 0 0 1 5-5h38a5 5 0 0 1 5 5v12a5 5 0 0 1-5 5z"/><path id="Text" class="cls-1" d="M963 304h2v12h-2v-12z"/><path id="Cursor-2" data-name="Cursor" class="cls-1" d="M1000 312h-4v16h4a1 1 0 0 1 0 2h-10a1 1 0 0 1 0-2h4v-16h-4a1 1 0 0 1 0-2h10a1 1 0 0 1 0 2z"/><path id="Captcha-2" data-name="Captcha" class="cls-1" d="M962 273h38a5 5 0 0 1 5 5v12a5 5 0 0 1-5 5h-38a5 5 0 0 1-5-5v-12a5 5 0 0 1 5-5zm1 2h36a4 4 0 0 1 4 4v10a4 4 0 0 1-4 4h-36a4 4 0 0 1-4-4v-10a4 4 0 0 1 4-4z"/><rect id="Background-2" data-name="Background" class="cls-2" x="959" y="275" width="44" height="18" rx="4" ry="4"/><path id="ABC" class="cls-1" d="M976.384 289.09l-3.93-10.037h-.978l-3.95 10.036h1.174l1.23-3.18h4.006l1.244 3.18h1.2zm-6.043-4.226l1.177-3.1a13.043 13.043 0 0 0 .43-1.442q.24.855.466 1.442l1.162 3.1h-3.234zm7.418 4.225h3.487a3.856 3.856 0 0 0 2.532-.753 2.57 2.57 0 0 0 .906-2.092q0-2-2.276-2.393v-.068a2.38 2.38 0 0 0 1.445-.75 2.17 2.17 0 0 0 .5-1.465 2.1 2.1 0 0 0-.89-1.88 5.328 5.328 0 0 0-2.876-.595h-2.824v9.994zm1.162-8.99h1.71a3.762 3.762 0 0 1 1.913.372 1.318 1.318 0 0 1 .6 1.213 1.493 1.493 0 0 1-.54 1.3 3.12 3.12 0 0 1-1.77.386h-1.913v-3.27zm1.99 4.258a3.346 3.346 0 0 1 1.9.437 1.555 1.555 0 0 1 .626 1.368 1.728 1.728 0 0 1-.612 1.466 2.97 2.97 0 0 1-1.822.467h-2.082v-3.74h1.99zm12.468-3.835l.493-1a6.192 6.192 0 0 0-2.747-.574 5.038 5.038 0 0 0-2.567.628 4.143 4.143 0 0 0-1.668 1.79 6.01 6.01 0 0 0-.578 2.708 5.52 5.52 0 0 0 1.2 3.808 4.336 4.336 0 0 0 3.407 1.34 7.344 7.344 0 0 0 2.564-.39v-1.02a8.94 8.94 0 0 1-2.385.377 3.268 3.268 0 0 1-2.62-1.07 4.51 4.51 0 0 1-.92-3.03 4.424 4.424 0 0 1 .953-3 3.27 3.27 0 0 1 2.6-1.1 5.287 5.287 0 0 1 2.27.533z"/></g><g id="Wysiwyg"><path id="Icon-9" data-name="Icon" class="cls-1" d="M962 159h38a5 5 0 0 1 5 5v38a5 5 0 0 1-5 5h-38a5 5 0 0 1-5-5v-38a5 5 0 0 1 5-5zm1 12h36a4 4 0 0 1 4 4v26a4 4 0 0 1-4 4h-36a4 4 0 0 1-4-4v-26a4 4 0 0 1 4-4zm-2-10h4a2 2 0 0 1 2 2v4a2 2 0 0 1-2 2h-4a2 2 0 0 1-2-2v-4a2 2 0 0 1 2-2zm10 0h4a2 2 0 0 1 2 2v4a2 2 0 0 1-2 2h-4a2 2 0 0 1-2-2v-4a2 2 0 0 1 2-2zm10 0h4a2 2 0 0 1 2 2v4a2 2 0 0 1-2 2h-4a2 2 0 0 1-2-2v-4a2 2 0 0 1 2-2z"/><path id="Bold" class="cls-5" d="M965 167l-1 1h-3v-6h3l1 1v1l-1 1 1 1v1zm-1-1l-2-1 2-1v-1h-2v4h2v-1z"/><path id="Italic" class="cls-5" d="M972 168l1-6h1l-1 6h-1zm-1-1h3v1h-3v-1zm1-5h3v1h-3v-1z"/><path id="Underline" class="cls-5" d="M981 162v5l1 1h2l1-1v-5h-1v4l-1 1-1-1v-4h-1z"/><path id="Text-2" data-name="Text" class="cls-1" d="M963 174h2v12h-2v-12z"/><rect id="Scroll" class="cls-2" x="996" y="171" width="7" height="34" rx="4" ry="4"/><path id="Arrow_Up" data-name="Arrow Up" class="cls-1" d="M998 176l1.5-2 1.5 2h-.75l-.75-1-.75 1H998z"/><path id="Arrow_Down" data-name="Arrow Down" class="cls-1" d="M998 200l1.5 2 1.5-2h-.75l-.75 1-.75-1H998z"/></g><g id="Textarea"><path id="Icon-10" data-name="Icon" class="cls-1" d="M962 45h38a5 5 0 0 1 5 5v38a5 5 0 0 1-5 5h-38a5 5 0 0 1-5-5V50a5 5 0 0 1 5-5zm1 2h36a4 4 0 0 1 4 4v36a4 4 0 0 1-4 4h-36a4 4 0 0 1-4-4V51a4 4 0 0 1 4-4z"/><path id="Text-3" data-name="Text" class="cls-1" d="M963 50h2v12h-2V50z"/><rect id="Scroll-2" data-name="Scroll" class="cls-2" x="996" y="47" width="7" height="44" rx="4" ry="4"/><path id="Arrow_Up-2" data-name="Arrow Up" class="cls-1" d="M998 52l1.5-2 1.5 2h-.75l-.75-1-.75 1H998z"/><path id="Arrow_Down-2" data-name="Arrow Down" class="cls-1" d="M998 86l1.5 2 1.5-2h-.75l-.75 1-.75-1H998z"/></g></g><g id="Column_8" data-name="Column 8"><g id="Date_Picker" data-name="Date Picker"><path id="Icon-11" data-name="Icon" class="cls-1" d="M887 1105.9v-2.45a4 4 0 0 0 2-3.45v-10a4 4 0 0 0-4-4h-36a4 4 0 0 0-4 4v10a4 4 0 0 0 4 4h12v2h-13a5 5 0 0 1-5-5v-12a5 5 0 0 1 5-5h38a5 5 0 0 1 5 5v12a5 5 0 0 1-4 4.9z"/><path id="Text-4" data-name="Text" class="cls-1" d="M849 1089h2v12h-2v-12z"/><path id="Icon-12" data-name="Icon" class="cls-1" d="M883 1116h-20v-22h2v3h5v-3h8v3h5v-3h2v22h-2zm0-17h-18v15h18v-15zm-14 7h-2v-2h2v2zm0 3h-2v-2h2v2zm0 3h-2v-2h2v2zm3-6h-2v-2h2v2zm0 3h-2v-2h2v2zm0 3h-2v-2h2v2zm3-9h-2v-2h2v2zm0 3h-2v-2h2v2zm0 3h-2v-2h2v2zm0 3h-2v-2h2v2zm3-9h-2v-2h2v2zm0 3h-2v-2h2v2zm0 3h-2v-2h2v2zm0 3h-2v-2h2v2zm3-9h-2v-2h2v2zm0 3h-2v-2h2v2zm0 3h-2v-2h2v2zm-2-15h3v2h-3v-2zm-13 0h3v2h-3v-2z"/></g><g id="Timer_Picker" data-name="Timer Picker"><path id="Icon-13" data-name="Icon" class="cls-1" d="M887 991.9v-2.455a3.982 3.982 0 0 0 2-3.445v-10a4 4 0 0 0-4-4h-36a4 4 0 0 0-4 4v10a4 4 0 0 0 4 4h10v2h-11a5 5 0 0 1-5-5v-12a5 5 0 0 1 5-5h38a5 5 0 0 1 5 5v12a5 5 0 0 1-4 4.9z"/><path id="Text-5" data-name="Text" class="cls-1" d="M849 975h2v12h-2v-12z"/><g id="Clock"><path id="Lines" class="cls-5" d="M872.5 998.5h1v2h-1v-2zm0-17h1v2h-1v-2zm-9 9h2v1h-2v-1zm17 0h2v1h-2v-1zm-13.154 5.453l.707.707-1.413 1.415-.708-.707zm12.014-12.028l.708.707-1.414 1.415-.707-.707zm-12.73.01l1.414 1.413-.707.71-1.415-1.414zm12.033 12.008l1.415 1.413-.708.71-1.414-1.414z"/><path id="Border-3" data-name="Border" class="cls-1" d="M873 1003a12 12 0 1 1 12-12 12 12 0 0 1-12 12zm0-22a10 10 0 1 0 10 10 10 10 0 0 0-10-10zm1.926 9.49a1.99 1.99 0 0 1-3.65 1.51H865.5a1 1 0 0 1 0-2h5.777a1.994 1.994 0 0 1 1.723-1 1.967 1.967 0 0 1 .512.075l2.9-2.9a1 1 0 0 1 1.416 1.413z"/></g></g><g id="Multi_Checkbox" data-name="Multi Checkbox"><path id="Icon-14" data-name="Icon" class="cls-1" d="M861 869h12a5 5 0 0 1 5 5v12a5 5 0 0 1-5 5h-12a5 5 0 0 1-5-5v-12a5 5 0 0 1 5-5zm1 2h10a4 4 0 0 1 4 4v10a4 4 0 0 1-4 4h-10a4 4 0 0 1-4-4v-10a4 4 0 0 1 4-4z"/><path id="Icon_Check" data-name="Icon Check" class="cls-1" d="M874.28 845.72A3.965 3.965 0 0 0 872 845h-10a4 4 0 0 0-4 4v10a4 4 0 0 0 4 4h10a4 4 0 0 0 4-4v-4.6l2-1.6v7.2a5 5 0 0 1-5 5h-12a5 5 0 0 1-5-5v-12a5 5 0 0 1 5-5h12a4.954 4.954 0 0 1 2.987 1.012z"/><path id="Check" class="cls-1" d="M859 852l8 7 16-13-3-3-13 11-4-4z"/></g><g id="Radiobutton"><path id="Icon-15" data-name="Icon" class="cls-1" d="M854 764a11 11 0 1 1 11-11 11 11 0 0 1-11 11zm0-20a9 9 0 1 0 9 9 9 9 0 0 0-9-9z"/><path id="Icon_Check-2" data-name="Icon Check" class="cls-1" d="M880 764a11 11 0 1 1 11-11 11 11 0 0 1-11 11zm0-20a9 9 0 1 0 9 9 9 9 0 0 0-9-9zm0 13a4 4 0 1 1 4-4 4 4 0 0 1-4 4z"/></g><g id="Checkbox"><path id="Icon-16" data-name="Icon" class="cls-1" d="M874.28 630.72A3.973 3.973 0 0 0 872 630h-10a4 4 0 0 0-4 4v10a4 4 0 0 0 4 4h10a4 4 0 0 0 4-4v-4.6l2-1.6v7.2a5 5 0 0 1-5 5h-12a5 5 0 0 1-5-5v-12a5 5 0 0 1 5-5h12a4.954 4.954 0 0 1 2.987 1.012z"/><path id="Check-2" data-name="Check" class="cls-1" d="M859 637l8 7 16-13-3-3-13 11-4-4z"/></g><g id="Select"><path id="Icon-17" data-name="Icon" class="cls-1" d="M848 514h38a5 5 0 0 1 5 5v12a5 5 0 0 1-5 5h-38a5 5 0 0 1-5-5v-12a5 5 0 0 1 5-5zm1 2h36a4 4 0 0 1 4 4v10a4 4 0 0 1-4 4h-36a4 4 0 0 1-4-4v-10a4 4 0 0 1 4-4z"/><rect id="Button" class="cls-2" x="871" y="516" width="18" height="18" rx="4" ry="4"/><path id="Arrow" class="cls-1" d="M876 523l4 4 4-4h2l-6 6-6-6z"/></g><g id="Hidden"><path id="Icon-18" data-name="Icon" class="cls-1" d="M887 421.9v-2.454a3.984 3.984 0 0 0 2-3.446v-10a4 4 0 0 0-4-4h-36a4 4 0 0 0-4 4v10a4 4 0 0 0 4 4h4v2h-5a5 5 0 0 1-5-5v-12a5 5 0 0 1 5-5h38a5 5 0 0 1 5 5v12a5 5 0 0 1-4 4.9z"/><path id="Text-6" data-name="Text" class="cls-1" d="M849 405h2v12h-2v-12z"/><path id="Eye" class="cls-1" d="M880.385 429.833L860.77 410l-1.155 1.167L879.23 431zM870 417l3.462 3.5A3.48 3.48 0 0 0 870 417zm0-1.166a4.67 4.67 0 0 1 4.5 5.713l4.635 4.686A16.93 16.93 0 0 0 885 420.5a17.382 17.382 0 0 0-15-8.167 18.79 18.79 0 0 0-4.165.456l3.13 3.163a4.54 4.54 0 0 1 1.035-.12zm0 8.166h.07l-3.53-3.57v.072A3.48 3.48 0 0 0 870 424zm0 1.167a4.64 4.64 0 0 1-4.615-4.667 4.737 4.737 0 0 1 .13-1.106l-4.6-4.655A16.94 16.94 0 0 0 855 420.5a17.382 17.382 0 0 0 15 8.167 18.713 18.713 0 0 0 4.223-.47l-3.13-3.163a4.59 4.59 0 0 1-1.093.133z"/></g><g id="Input_Password" data-name="Input Password"><path id="Icon-19" data-name="Icon" class="cls-1" d="M886 308h-2v-2h1a4 4 0 0 0 4-4v-10a4 4 0 0 0-4-4h-36a4 4 0 0 0-4 4v10a4 4 0 0 0 4 4h29v2h-30a5 5 0 0 1-5-5v-12a5 5 0 0 1 5-5h38a5 5 0 0 1 5 5v12a5 5 0 0 1-5 5z"/><path id="Text-7" data-name="Text" class="cls-1" d="M852 294l.99 1.886 2.01.406-1.4 1.57.254 2.138-1.854-.915-1.854.915.254-2.137-1.4-1.57 2.01-.407L852 294m8 0l.99 1.886 2.01.406-1.4 1.57.254 2.138-1.854-.915-1.854.915.254-2.137-1.4-1.57 2.01-.407L860 294m8 0l.99 1.886 2.01.406-1.4 1.57.254 2.138-1.854-.915-1.854.915.254-2.137-1.4-1.57 2.01-.407L868 294"/><path id="Cursor-3" data-name="Cursor" class="cls-1" d="M886 299h-4v16h4a1 1 0 0 1 0 2h-10a1 1 0 0 1 0-2h4v-16h-4a1 1 0 0 1 0-2h10a1 1 0 0 1 0 2z"/></g><g id="Input-2" data-name="Input"><path id="Icon-20" data-name="Icon" class="cls-1" d="M886 194h-2v-2h1a4 4 0 0 0 4-4v-10a4 4 0 0 0-4-4h-36a4 4 0 0 0-4 4v10a4 4 0 0 0 4 4h29v2h-30a5 5 0 0 1-5-5v-12a5 5 0 0 1 5-5h38a5 5 0 0 1 5 5v12a5 5 0 0 1-5 5z"/><path id="Text-8" data-name="Text" class="cls-1" d="M849 177h2v12h-2v-12z"/><path id="Cursor-4" data-name="Cursor" class="cls-1" d="M886 185h-4v16h4a1 1 0 0 1 0 2h-10a1 1 0 0 1 0-2h4v-16h-4a1 1 0 0 1 0-2h10a1 1 0 0 1 0 2z"/></g><g id="Button-2" data-name="Button"><path id="Icon-21" data-name="Icon" class="cls-1" d="M888.364 79.406L874 66h-1v14h-25a5 5 0 0 1-5-5V63a5 5 0 0 1 5-5h38a5 5 0 0 1 5 5v12a5 5 0 0 1-2.636 4.406z"/><path id="Cursor-5" data-name="Cursor" class="cls-1" d="M875 69v21.283l4.617-4.3L883.6 93l4.856-2.49-3.582-6.34H891z"/></g></g><g id="Column_7" data-name="Column 7"><g id="Product"><path id="Border-4" data-name="Border" class="cls-1" d="M771.818 1119H769v-2h2a4 4 0 0 0 4-4v-2h2v2.86a5.16 5.16 0 0 1-5.182 5.14zm3.182-14h2v4h-2v-4zm0-6h2v4h-2v-4zm0-6h2v4h-2v-4zm0-6h2v4h-2v-4zm0-6h2v4h-2v-4zm0-4a4 4 0 0 0-4-4h-2v-2h2.818a5.16 5.16 0 0 1 5.182 5.14v2.86h-2v-2zm-8-6v2h-4v-2h4zm0 48h-4v-2h4v2zm-6-46h-4v-2h4v2zm0 46h-4v-2h4v2zm-6-46h-4v-2h4v2zm-10 44h4v2h-4v-2zm0-46h4v2h-4v-2zm-6 46h4v2h-4v-2zm0-46h4v2h-4v-2zm-10 42.86V1111h2v2a4 4 0 0 0 4 4h2v2h-2.818a5.16 5.16 0 0 1-5.182-5.14zm2-36.86v2h-2v-2.86a5.16 5.16 0 0 1 5.182-5.14H737v2h-2a4 4 0 0 0-4 4zm-2 4h2v4h-2v-4zm2 10h-2v-4h2v4zm0 6h-2v-4h2v4zm0 6h-2v-4h2v4zm-2 2h2v4h-2v-4zm26 14h-4v-2h4v2z"/><path id="Icon-22" data-name="Icon" class="cls-1" d="M754.075 1109.01v-12.44l12.918-6.39v12.45zM739 1087.75l14-6.74 14 6.74-14 6.74zm0 2.6l12.918 6.33v12.33L739 1102.68v-12.33z"/></g><g id="Products"><path id="Icon-23" data-name="Icon" class="cls-1" d="M765.46 990.734l-11.536-5.7 11.536-5.7 11.536 5.7zm-11.032-8.062v-10.52l10.65-5.4v10.52zM742.005 964.7l11.536-5.7 11.537 5.7-11.536 5.7zm0 2.192l10.648 5.354v10.43l-10.648-5.354v-10.43zm-1.466 23.846L729 985.036l11.537-5.7 11.536 5.7zm-.89 12.276L729 997.658v-10.43l10.65 5.354v10.428zm12.424-5.4l-10.648 5.4V992.49l10.648-5.4v10.52zm12.5 5.4l-10.648-5.352v-10.43l10.648 5.354v10.428zm12.424-5.4l-10.65 5.4V992.49l10.65-5.4v10.52z"/></g><g id="Orders_Widget" data-name="Orders Widget"><path id="Border-5" data-name="Border" class="cls-1" d="M771.818 891H769v-2h2a4 4 0 0 0 4-4v-2h2v2.857a5.162 5.162 0 0 1-5.182 5.143zM775 877h2v4h-2v-4zm0-6h2v4h-2v-4zm0-6h2v4h-2v-4zm0-6h2v4h-2v-4zm0-6h2v4h-2v-4zm0-4a4 4 0 0 0-4-4h-2v-2h2.818a5.162 5.162 0 0 1 5.182 5.143V851h-2v-2zm-8-6v2h-4v-2h4zm0 48h-4v-2h4v2zm-6-46h-4v-2h4v2zm0 46h-4v-2h4v2zm-6-46h-4v-2h4v2zm-10 44h4v2h-4v-2zm0-46h4v2h-4v-2zm-6 46h4v2h-4v-2zm0-46h4v2h-4v-2zm-10 42.857V883h2v2a4 4 0 0 0 4 4h2v2h-2.818a5.162 5.162 0 0 1-5.182-5.143zM731 849v2h-2v-2.857a5.162 5.162 0 0 1 5.182-5.143H737v2h-2a4 4 0 0 0-4 4zm-2 4h2v4h-2v-4zm2 10h-2v-4h2v4zm0 6h-2v-4h2v4zm0 6h-2v-4h2v4zm-2 2h2v4h-2v-4zm26 14h-4v-2h4v2z"/><path id="Icon-24" data-name="Icon" class="cls-1" d="M768 868h-14a1 1 0 0 1 0-2h14a1 1 0 0 1 0 2zm0-10h-14a1 1 0 0 1 0-2h14a1 1 0 0 1 0 2zm-31 18.406l2.054-1.027 2.054 2.053 6.675-5.648 1.54 1.54-8.215 6.675zm0-10l2.054-1.027 2.054 2.053 6.675-5.648 1.54 1.54-8.215 6.675zm0-10l2.054-1.027 2.054 2.053 6.675-5.648 1.54 1.54-8.215 6.675zM754 876h14a1 1 0 0 1 0 2h-14a1 1 0 0 1 0-2z"/></g><g id="Cart"><path id="bg" class="cls-4" d="M745.875 753h28.03v-12h-32.81z"/><path id="icon-25" data-name="icon" class="cls-1" d="M735 735l12 30h30v-3h-26.813l-2.437-6H777v-18h-36.563L738 732h-9v3h6zm18 36a3 3 0 1 1-3-3 3 3 0 0 1 3 3zm24 0a3 3 0 1 1-3-3 3 3 0 0 1 3 3zm-30.47-18H774v-12h-32.25z"/></g><g id="View_Submissions" data-name="View Submissions"><path id="Icon-26" data-name="Icon" class="cls-1" d="M775 655v-38h-38v-2h40v40h-2zm-2-34v38h-2v-38h-38v-2h40v2zm-4 42h-40v-40h40v40zm-2-38h-36v36h36v-36z"/><path id="Icon-27" data-name="Icon" class="cls-1" d="M762 644h-18a1 1 0 0 1 0-2h18a1 1 0 0 1 0 2zm0-10h-18a1 1 0 0 1 0-2h18a1 1 0 0 1 0 2zm-24 22a3 3 0 1 1 3-3 3 3 0 0 1-3 3zm0-10a3 3 0 1 1 3-3 3 3 0 0 1-3 3zm0-10a3 3 0 1 1 3-3 3 3 0 0 1-3 3zm6 16h18a1 1 0 0 1 0 2h-18a1 1 0 0 1 0-2z"/></g><g id="Listing_Directory_Filter" data-name="Listing Directory Filter"><path id="Border-6" data-name="Border" class="cls-1" d="M772 549h-38a5 5 0 0 1-5-5v-38a5 5 0 0 1 5-5h7v2h-6a4 4 0 0 0-4 4v36a4 4 0 0 0 4 4h36a4 4 0 0 0 4-4v-36a4 4 0 0 0-4-4h-6v-2h7a5 5 0 0 1 5 5v38a5 5 0 0 1-5 5zm-29-47a3 3 0 0 1 3-3h3a3 3 0 0 1 3-3h2a3 3 0 0 1 3 3h3a3 3 0 0 1 3 3v3h-20v-3z"/><path id="Line" class="cls-1" d="M743 529a4 4 0 1 1 4-4 4 4 0 0 1-4 4zm0-6a2 2 0 1 0 2 2 2 2 0 0 0-2-2zm-1-2.9V514a1 1 0 0 1 2 0v6.1a5.05 5.05 0 0 0-2 0zm2 9.8v6.1a1 1 0 0 1-2 0v-6.1a5.05 5.05 0 0 0 2 0z"/><path id="Line-2" data-name="Line" class="cls-1" d="M753 524a4 4 0 1 1 4-4 4 4 0 0 1-4 4zm0-6a2 2 0 1 0 2 2 2 2 0 0 0-2-2zm-1-2.9V514a1 1 0 0 1 2 0v1.1a5.05 5.05 0 0 0-2 0zm2 9.8V536a1 1 0 0 1-2 0v-11.1a5.05 5.05 0 0 0 2 0z"/><path id="Line-3" data-name="Line" class="cls-1" d="M763 533a4 4 0 1 1 4-4 4 4 0 0 1-4 4zm0-6a2 2 0 1 0 2 2 2 2 0 0 0-2-2zm-1-2.9V514a1 1 0 0 1 2 0v10.1a5.05 5.05 0 0 0-2 0zm2 9.8v2.1a1 1 0 0 1-2 0v-2.1a5.05 5.05 0 0 0 2 0z"/></g><g id="Listing_Directory_Pins" data-name="Listing Directory Pins"><path id="Border-7" data-name="Border" class="cls-1" d="M772 435h-38a5 5 0 0 1-5-5v-38a5 5 0 0 1 5-5h7v2h-6a4 4 0 0 0-4 4v36a4 4 0 0 0 4 4h36a4 4 0 0 0 4-4v-36a4 4 0 0 0-4-4h-6v-2h7a5 5 0 0 1 5 5v38a5 5 0 0 1-5 5zm-29-47a3 3 0 0 1 3-3h3a3 3 0 0 1 3-3h2a3 3 0 0 1 3 3h3a3 3 0 0 1 3 3v3h-20v-3z"/><path id="Icon_Back" data-name="Icon Back" class="cls-4" d="M765.965 418.5a18.667 18.667 0 0 0-2.1 6.08 18.384 18.384 0 0 0-2.1-6.08c-.388-.633-1.01-1.414-1.7-2.3a30.01 30.01 0 0 0 3.35-5.346 3.162 3.162 0 0 0 .447.044 3.1 3.1 0 0 0 3.147-3.04 3.063 3.063 0 0 0-2.452-2.96 10.325 10.325 0 0 0-1.658-4.577 8.252 8.252 0 0 1 .962-.06 7.737 7.737 0 0 1 7.868 7.6c.005 4.226-4.377 8.353-5.765 10.64zm-8.67-14.808a4.133 4.133 0 0 1 .72 2.323 4.2 4.2 0 0 1-1.82 3.432 6.9 6.9 0 0 1-.195-1.586 7.37 7.37 0 0 1 1.294-4.173z"/><path id="Icon_Back-2" data-name="Icon Back" class="cls-4" d="M742.04 404.936a3.05 3.05 0 0 0-2.32 2.92 3.1 3.1 0 0 0 3.147 3.04 3.255 3.255 0 0 0 .467-.046 31.783 31.783 0 0 0 3.37 5.292 28.56 28.56 0 0 0-1.74 2.353 18.667 18.667 0 0 0-2.1 6.08 18.384 18.384 0 0 0-2.1-6.08c-1.4-2.278-5.768-6.42-5.768-10.64a7.736 7.736 0 0 1 7.867-7.6c.227 0 .45.015.67.034a10.378 10.378 0 0 0-1.492 4.646zm8.695 2.92a6.823 6.823 0 0 1-.157 1.39 4.24 4.24 0 0 1-1.927-3.532 4.143 4.143 0 0 1 .657-2.216 7.384 7.384 0 0 1 1.428 4.358z"/><path id="Icon-28" data-name="Icon" class="cls-1" d="M755.94 419.683a24.23 24.23 0 0 0-2.724 7.895 23.877 23.877 0 0 0-2.724-7.895c-1.816-2.958-7.492-8.336-7.492-13.815a10.223 10.223 0 0 1 20.433 0c0 5.494-5.69 10.852-7.492 13.815zm-2.724-17.762a3.95 3.95 0 1 0 4.087 3.948 4.018 4.018 0 0 0-4.087-3.947z"/></g><g id="Listing_Directory" data-name="Listing Directory"><path id="Border-8" data-name="Border" class="cls-1" d="M772 321h-38a5 5 0 0 1-5-5v-38a5 5 0 0 1 5-5h7v2h-6a4 4 0 0 0-4 4v36a4 4 0 0 0 4 4h36a4 4 0 0 0 4-4v-36a4 4 0 0 0-4-4h-6v-2h7a5 5 0 0 1 5 5v38a5 5 0 0 1-5 5zm-29-47a3 3 0 0 1 3-3h3a3 3 0 0 1 3-3h2a3 3 0 0 1 3 3h3a3 3 0 0 1 3 3v3h-20v-3z"/><path id="Icon-29" data-name="Icon" class="cls-1" d="M766 298h-18a1 1 0 0 1 0-2h18a1 1 0 0 1 0 2zm0-10h-18a1 1 0 0 1 0-2h18a1 1 0 0 1 0 2zm-24 22a3 3 0 1 1 3-3 3 3 0 0 1-3 3zm0-10a3 3 0 1 1 3-3 3 3 0 0 1-3 3zm0-10a3 3 0 1 1 3-3 3 3 0 0 1-3 3zm6 16h18a1 1 0 0 1 0 2h-18a1 1 0 0 1 0-2z"/></g><g id="File_Grid_List_Widget" data-name="File Grid List Widget"><path id="Border-9" data-name="Border" class="cls-1" d="M771.818 207H769v-2h2a4 4 0 0 0 4-4v-2h2v2.857a5.162 5.162 0 0 1-5.182 5.143zM775 193h2v4h-2v-4zm0-6h2v4h-2v-4zm0-6h2v4h-2v-4zm0-6h2v4h-2v-4zm0-6h2v4h-2v-4zm0-4a4 4 0 0 0-4-4h-2v-2h2.818a5.162 5.162 0 0 1 5.182 5.143V167h-2v-2zm-8-6v2h-4v-2h4zm0 48h-4v-2h4v2zm-6-46h-4v-2h4v2zm0 46h-4v-2h4v2zm-6-46h-4v-2h4v2zm-10 44h4v2h-4v-2zm0-46h4v2h-4v-2zm-6 46h4v2h-4v-2zm0-46h4v2h-4v-2zm-10 42.857V199h2v2a4 4 0 0 0 4 4h2v2h-2.818a5.162 5.162 0 0 1-5.182-5.143zM731 165v2h-2v-2.857a5.162 5.162 0 0 1 5.182-5.143H737v2h-2a4 4 0 0 0-4 4zm-2 4h2v4h-2v-4zm2 10h-2v-4h2v4zm0 6h-2v-4h2v4zm0 6h-2v-4h2v4zm-2 2h2v4h-2v-4zm26 14h-4v-2h4v2z"/><path id="Icon-30" data-name="Icon" class="cls-1" d="M759 199l10-10v10h-10zm-16.818 0a5.162 5.162 0 0 1-5.182-5.143v-21.714a5.163 5.163 0 0 1 5.182-5.143h21.636a5.163 5.163 0 0 1 5.182 5.143V185l-14 14h-12.818zM767 172a3 3 0 0 0-3-3h-22a3 3 0 0 0-3 3v22a3 3 0 0 0 3 3h11l14-14v-11z"/></g><g id="File_Grid_List" data-name="File Grid List"><path id="Icon-31" data-name="Icon" class="cls-1" d="M762 93l10-10v10h-10zm-22.818 0A5.163 5.163 0 0 1 734 87.857V50.143A5.163 5.163 0 0 1 739.182 45h27.636A5.163 5.163 0 0 1 772 50.143V79l-14 14h-18.818zM770 50a3 3 0 0 0-3-3h-28a3 3 0 0 0-3 3v38a3 3 0 0 0 3 3h17l14-14V50z"/></g></g><g id="Column_6" data-name="Column 6"><g id="Events_Filter" data-name="Events Filter"><path id="Border-10" data-name="Border" class="cls-1" d="M654 663h-30a5 5 0 0 1-5-5v-38a5 5 0 0 1 5-5h3v6a2 2 0 0 0 4 0v-6h16v6a2 2 0 0 0 4 0v-6h3a5 5 0 0 1 5 5v38a5 5 0 0 1-5 5zm3-34a4 4 0 0 0-4-4h-28a4 4 0 0 0-4 4v28a4 4 0 0 0 4 4h28a4 4 0 0 0 4-4v-28zm-8-7a1 1 0 0 1-1-1v-7a1 1 0 0 1 2 0v7a1 1 0 0 1-1 1zm-20 0a1 1 0 0 1-1-1v-7a1 1 0 0 1 2 0v7a1 1 0 0 1-1 1z"/><path id="Line-4" data-name="Line" class="cls-1" d="M629 647a4 4 0 1 1 4-4 4 4 0 0 1-4 4zm0-6a2 2 0 1 0 2 2 2 2 0 0 0-2-2zm-1-2.9V632a1 1 0 0 1 2 0v6.1a5.05 5.05 0 0 0-2 0zm2 9.8v6.1a1 1 0 0 1-2 0v-6.1a5.05 5.05 0 0 0 2 0z"/><path id="Line-5" data-name="Line" class="cls-1" d="M639 642a4 4 0 1 1 4-4 4 4 0 0 1-4 4zm0-6a2 2 0 1 0 2 2 2 2 0 0 0-2-2zm-1-2.9V632a1 1 0 0 1 2 0v1.1a5.05 5.05 0 0 0-2 0zm2 9.8V654a1 1 0 0 1-2 0v-11.1a5.05 5.05 0 0 0 2 0z"/><path id="Line-6" data-name="Line" class="cls-1" d="M649 651a4 4 0 1 1 4-4 4 4 0 0 1-4 4zm0-6a2 2 0 1 0 2 2 2 2 0 0 0-2-2zm-1-2.9V632a1 1 0 0 1 2 0v10.1a5.05 5.05 0 0 0-2 0zm2 9.8v2.1a1 1 0 0 1-2 0v-2.1a5.05 5.05 0 0 0 2 0z"/></g><g id="Events_Categories" data-name="Events Categories"><path id="Border-11" data-name="Border" class="cls-1" d="M662.48 529h.52v.816a13.568 13.568 0 0 0-.52-.816zm-1.48-6h2v4h-2v-4zm0-6h2v4h-2v-4zm0-6h2v4h-2v-4zm0-4a4 4 0 0 0-4-4h-2v-2h2.818a5.162 5.162 0 0 1 5.182 5.143V509h-2v-2zm-12-6h4v2h-4v-2zm-6 0h4v2h-4v-2zm-6 46h4v2h-4v-2zm0-46h4v2h-4v-2zm-6 46h4v2h-4v-2zm0-46h4v2h-4v-2zm-6 46h4v2h-4v-2zm0-46h4v2h-4v-2zm-10 42.857V541h2v2a4 4 0 0 0 4 4h2v2h-2.818a5.162 5.162 0 0 1-5.182-5.143zM617 507v2h-2v-2.857a5.162 5.162 0 0 1 5.182-5.143H623v2h-2a4 4 0 0 0-4 4zm0 8h-2v-4h2v4zm0 6h-2v-4h2v4zm0 6h-2v-4h2v4zm0 6h-2v-4h2v4zm0 6h-2v-4h2v4zm26 10v-.52c.264.185.54.354.816.52H643z"/><path id="Icon-32" data-name="Icon" class="cls-5" d="M645.824 524H640v-15h15v14.587a13.907 13.907 0 0 0-9.176.413zm-8.237 17H623v-15h15v5.824a13.907 13.907 0 0 0-.413 9.176zM623 509h15v15h-15v-15zm17 19.358V526h2.358a14.066 14.066 0 0 0-2.358 2.358z"/><g id="Clock-2" data-name="Clock"><path id="Lines-2" data-name="Lines" class="cls-5" d="M650.5 544.5h1v2h-1v-2zm0-17h1v2h-1v-2zm-9 9h2v1h-2v-1zm17 0h2v1h-2v-1zm-13.154 5.453l.707.707-1.413 1.415-.708-.707zm12.014-12.027l.708.706-1.414 1.415-.707-.707zm-12.73.01l1.414 1.413-.707.707-1.415-1.413zm12.033 12.007l1.415 1.413-.708.71-1.414-1.415z"/><path id="Border-12" data-name="Border" class="cls-1" d="M651 549a12 12 0 1 1 12-12 12 12 0 0 1-12 12zm0-22a10 10 0 1 0 10 10 10 10 0 0 0-10-10zm1.926 9.49a1.99 1.99 0 0 1-3.65 1.51H643.5a1 1 0 0 1 0-2h5.777a1.95 1.95 0 0 1 2.235-.926l2.9-2.9a1 1 0 0 1 1.416 1.413z"/></g></g><g id="Events_Big_Calendar" data-name="Events Big Calendar"><g id="Calendar"><path id="Border-13" data-name="Border" class="cls-1" d="M661 401a4 4 0 0 0-4-4h-36a4 4 0 0 0-4 4v28a4 4 0 0 0 4 4h20.21a14.065 14.065 0 0 0 2.606 2H620a5 5 0 0 1-5-5v-38a5 5 0 0 1 5-5h2v6a2 2 0 0 0 4 0v-6h6v6a2 2 0 0 0 4 0v-6h6v6a2 2 0 0 0 4 0v-6h6v6a2 2 0 0 0 4 0v-6h2a5 5 0 0 1 5 5v23.816a14.065 14.065 0 0 0-2-2.6V401zm-7-7a1 1 0 0 1-1-1v-7a1 1 0 0 1 2 0v7a1 1 0 0 1-1 1zm-10 0a1 1 0 0 1-1-1v-7a1 1 0 0 1 2 0v7a1 1 0 0 1-1 1zm-10 0a1 1 0 0 1-1-1v-7a1 1 0 0 1 2 0v7a1 1 0 0 1-1 1zm-10 0a1 1 0 0 1-1-1v-7a1 1 0 0 1 2 0v7a1 1 0 0 1-1 1z"/><path id="Days" class="cls-1" d="M658 409h-2a1 1 0 0 1-1-1v-1a1 1 0 0 1 1-1h2a1 1 0 0 1 1 1v1a1 1 0 0 1-1 1zm0-5h-2a1 1 0 0 1-1-1v-1a1 1 0 0 1 1-1h2a1 1 0 0 1 1 1v1a1 1 0 0 1-1 1zm-6 5h-2a1 1 0 0 1-1-1v-1a1 1 0 0 1 1-1h2a1 1 0 0 1 1 1v1a1 1 0 0 1-1 1zm-6 0h-2a1 1 0 0 1-1-1v-1a1 1 0 0 1 1-1h2a1 1 0 0 1 1 1v1a1 1 0 0 1-1 1zm-5.653 4.93a1 1 0 0 1-.347.07h-2a1 1 0 0 1-1-1v-1a1 1 0 0 1 1-1h2a1 1 0 0 1 1 1v1a.94.94 0 0 1-.055.27q-.31.32-.598.66zM640 409h-2a1 1 0 0 1-1-1v-1a1 1 0 0 1 1-1h2a1 1 0 0 1 1 1v1a1 1 0 0 1-1 1zm-6 15h-2a1 1 0 0 1-1-1v-1a1 1 0 0 1 1-1h2a1 1 0 0 1 1 1v1a1 1 0 0 1-1 1zm0-5h-2a1 1 0 0 1-1-1v-1a1 1 0 0 1 1-1h2a1 1 0 0 1 1 1v1a1 1 0 0 1-1 1zm0-5h-2a1 1 0 0 1-1-1v-1a1 1 0 0 1 1-1h2a1 1 0 0 1 1 1v1a1 1 0 0 1-1 1zm0-5h-2a1 1 0 0 1-1-1v-1a1 1 0 0 1 1-1h2a1 1 0 0 1 1 1v1a1 1 0 0 1-1 1zm-6 20h-2a1 1 0 0 1-1-1v-1a1 1 0 0 1 1-1h2a1 1 0 0 1 1 1v1a1 1 0 0 1-1 1zm0-5h-2a1 1 0 0 1-1-1v-1a1 1 0 0 1 1-1h2a1 1 0 0 1 1 1v1a1 1 0 0 1-1 1zm0-5h-2a1 1 0 0 1-1-1v-1a1 1 0 0 1 1-1h2a1 1 0 0 1 1 1v1a1 1 0 0 1-1 1zm0-5h-2a1 1 0 0 1-1-1v-1a1 1 0 0 1 1-1h2a1 1 0 0 1 1 1v1a1 1 0 0 1-1 1zm0-5h-2a1 1 0 0 1-1-1v-1a1 1 0 0 1 1-1h2a1 1 0 0 1 1 1v1a1 1 0 0 1-1 1zm-6 20h-2a1 1 0 0 1-1-1v-1a1 1 0 0 1 1-1h2a1 1 0 0 1 1 1v1a1 1 0 0 1-1 1zm0-5h-2a1 1 0 0 1-1-1v-1a1 1 0 0 1 1-1h2a1 1 0 0 1 1 1v1a1 1 0 0 1-1 1zm0-5h-2a1 1 0 0 1-1-1v-1a1 1 0 0 1 1-1h2a1 1 0 0 1 1 1v1a1 1 0 0 1-1 1zm0-5h-2a1 1 0 0 1-1-1v-1a1 1 0 0 1 1-1h2a1 1 0 0 1 1 1v1a1 1 0 0 1-1 1zm0-5h-2a1 1 0 0 1-1-1v-1a1 1 0 0 1 1-1h2a1 1 0 0 1 1 1v1a1 1 0 0 1-1 1zm16 7h.888a13.91 13.91 0 0 0-1.28 2.92A1 1 0 0 1 637 418v-1a1 1 0 0 1 1-1zm-1 7v-1a1 1 0 0 1 .067-.334c-.04.44-.067.884-.067 1.334zm21.736-11.665c-.15-.1-.308-.186-.46-.28a.992.992 0 0 1 .46.28zm-15.01-.28c-.154.094-.312.18-.462.28a.992.992 0 0 1 .46-.28z"/><path id="Offdays" class="cls-5" d="M652 404h-2a1 1 0 0 1-1-1v-1a1 1 0 0 1 1-1h2a1 1 0 0 1 1 1v1a1 1 0 0 1-1 1zm-6 0h-2a1 1 0 0 1-1-1v-1a1 1 0 0 1 1-1h2a1 1 0 0 1 1 1v1a1 1 0 0 1-1 1zm-6 0h-2a1 1 0 0 1-1-1v-1a1 1 0 0 1 1-1h2a1 1 0 0 1 1 1v1a1 1 0 0 1-1 1zm-6 25h-2a1 1 0 0 1-1-1v-1a1 1 0 0 1 1-1h2a1 1 0 0 1 1 1v1a1 1 0 0 1-1 1zm0-25h-2a1 1 0 0 1-1-1v-1a1 1 0 0 1 1-1h2a1 1 0 0 1 1 1v1a1 1 0 0 1-1 1zm-6 0h-2a1 1 0 0 1-1-1v-1a1 1 0 0 1 1-1h2a1 1 0 0 1 1 1v1a1 1 0 0 1-1 1zm-6 0h-2a1 1 0 0 1-1-1v-1a1 1 0 0 1 1-1h2a1 1 0 0 1 1 1v1a1 1 0 0 1-1 1zm15.39 22.228a13.89 13.89 0 0 0 .975 2.772H638a1 1 0 0 1-1-1v-1a.983.983 0 0 1 .39-.772z"/></g><g id="Clock-3" data-name="Clock"><path id="Lines-3" data-name="Lines" class="cls-5" d="M650.5 430.5h1v2h-1v-2zm0-17h1v2h-1v-2zm-9 9h2v1h-2v-1zm17 0h2v1h-2v-1zm-13.154 5.453l.707.707-1.413 1.415-.708-.707zm12.014-12.027l.708.706-1.414 1.415-.707-.707zm-12.73.01l1.414 1.413-.707.707-1.415-1.413zm12.033 12.007l1.415 1.413-.708.71-1.414-1.415z"/><path id="Border-14" data-name="Border" class="cls-1" d="M651 435a12 12 0 1 1 12-12 12 12 0 0 1-12 12zm0-22a10 10 0 1 0 10 10 10 10 0 0 0-10-10zm1.926 9.49a1.99 1.99 0 0 1-3.65 1.51H643.5a1 1 0 0 1 0-2h5.777a1.95 1.95 0 0 1 2.235-.926l2.9-2.9a1 1 0 0 1 1.416 1.413z"/></g></g><g id="Events_Calendar" data-name="Events Calendar"><g id="Calendar-2" data-name="Calendar"><path id="Border-15" data-name="Border" class="cls-1" d="M654 321h-30a5 5 0 0 1-5-5v-38a5 5 0 0 1 5-5h3v6a2 2 0 0 0 4 0v-6h16v6a2 2 0 0 0 4 0v-6h3a5 5 0 0 1 5 5v38a5 5 0 0 1-5 5zm3-34a4 4 0 0 0-4-4h-28a4 4 0 0 0-4 4v28a4 4 0 0 0 4 4h28a4 4 0 0 0 4-4v-28zm-8-7a1 1 0 0 1-1-1v-7a1 1 0 0 1 2 0v7a1 1 0 0 1-1 1zm-20 0a1 1 0 0 1-1-1v-7a1 1 0 0 1 2 0v7a1 1 0 0 1-1 1z"/></g><g id="Clock-4" data-name="Clock"><path id="Lines-4" data-name="Lines" class="cls-5" d="M638.5 308.5h1v2h-1v-2zm0-17h1v2h-1v-2zm-9 9h2v1h-2v-1zm17 0h2v1h-2v-1zm-13.154 5.453l.707.707-1.413 1.415-.708-.707zm12.014-12.027l.708.706-1.414 1.415-.707-.707zm-12.73.01l1.414 1.413-.707.707-1.415-1.413zm12.033 12.007l1.415 1.413-.708.71-1.414-1.415z"/><path id="Border-16" data-name="Border" class="cls-1" d="M639 313a12 12 0 1 1 12-12 12 12 0 0 1-12 12zm0-22a10 10 0 1 0 10 10 10 10 0 0 0-10-10zm1.926 9.49a1.99 1.99 0 0 1-3.65 1.51H631.5a1 1 0 0 1 0-2h5.777a1.95 1.95 0 0 1 2.235-.926l2.9-2.9a1 1 0 0 1 1.416 1.413z"/></g></g><g id="Events_Widget" data-name="Events Widget"><path id="Border-17" data-name="Border" class="cls-1" d="M657.818 207H655v-2h2a4 4 0 0 0 4-4v-2h2v2.857a5.162 5.162 0 0 1-5.182 5.143zM661 193h2v4h-2v-4zm0-6h2v4h-2v-4zm0-6h2v4h-2v-4zm0-6h2v4h-2v-4zm0-6h2v4h-2v-4zm0-4a4 4 0 0 0-4-4h-2v-2h2.818a5.162 5.162 0 0 1 5.182 5.143V167h-2v-2zm-8-6v2h-4v-2h4zm0 48h-4v-2h4v2zm-6-46h-4v-2h4v2zm0 46h-4v-2h4v2zm-6-46h-4v-2h4v2zm-10 44h4v2h-4v-2zm0-46h4v2h-4v-2zm-6 46h4v2h-4v-2zm0-46h4v2h-4v-2zm-10 42.857V199h2v2a4 4 0 0 0 4 4h2v2h-2.818a5.162 5.162 0 0 1-5.182-5.143zM617 165v2h-2v-2.857a5.162 5.162 0 0 1 5.182-5.143H623v2h-2a4 4 0 0 0-4 4zm-2 4h2v4h-2v-4zm2 10h-2v-4h2v4zm0 6h-2v-4h2v4zm0 6h-2v-4h2v4zm-2 2h2v4h-2v-4zm26 14h-4v-2h4v2z"/><g id="Clock-5" data-name="Clock"><path id="Lines-5" data-name="Lines" class="cls-5" d="M638.25 194.25h1.5v3h-1.5v-3zm0-25.5h1.5v3h-1.5v-3zm-13.5 13.5h3v1.5h-3v-1.5zm25.5 0h3v1.5h-3v-1.5zm-19.73 8.18l1.06 1.06-2.12 2.122-1.06-1.06zm18.02-18.042l1.06 1.06-2.12 2.123-1.06-1.06zm-19.1.015l2.122 2.12-1.06 1.062-2.123-2.12zm18.06 18.012l2.122 2.12-1.06 1.062-2.123-2.12z"/><path id="Border-18" data-name="Border" class="cls-1" d="M639 201a18 18 0 1 1 18-18 18 18 0 0 1-18 18zm0-33a15 15 0 1 0 15 15 15 15 0 0 0-15-15zm2.89 14.234a2.988 2.988 0 0 1-5.706 1.766H627a1 1 0 0 1 0-2h9.184a2.992 2.992 0 0 1 2.816-2 2.95 2.95 0 0 1 .768.112l4.35-4.356a1.5 1.5 0 1 1 2.123 2.12z"/></g></g><g id="Events"><g id="Clock-6" data-name="Clock"><path id="Lines-6" data-name="Lines" class="cls-5" d="M638 84h2v4h-2v-4zm0-34h2v4h-2v-4zm-18 18h4v2h-4v-2zm34 0h4v2h-4v-2zm-26.308 10.906l1.415 1.413-2.827 2.83-1.415-1.414zM651.72 54.85l1.415 1.414-2.827 2.83-1.415-1.414zm-25.46.02l2.828 2.827-1.415 1.416-2.83-2.826zm24.067 24.016l2.83 2.826-1.416 1.417-2.828-2.83z"/><path id="Border-19" data-name="Border" class="cls-1" d="M639 93a24 24 0 1 1 24-24 24 24 0 0 1-24 24zm0-44a20 20 0 1 0 20 20 20 20 0 0 0-20-20zm3.852 18.978a3.982 3.982 0 0 1-7.3 3.022H624a2 2 0 1 1 0-4h11.555a3.893 3.893 0 0 1 4.47-1.85l5.8-5.81a2 2 0 0 1 2.83 2.828z"/></g><path id="Fire" class="cls-1" d="M674 55c-2.65.53-7.024.716-7 4 .027 3.8 5.167 2.25 6 2 1.79-.537 3.623-2.435 4.967-4.12A21.6 21.6 0 0 1 677 60c-2.17 5.407-8.31 12.8-13.963 18.9A25.993 25.993 0 0 0 639 43c-.474 0-.936.046-1.4.07A64.525 64.525 0 0 1 647 40a46.383 46.383 0 0 1 9.5-.294A5.18 5.18 0 0 0 654 42c-.876 2.727 1.46 3.45 4 2 2.3-1.31 2.49-2.86 2.14-4.056A24.173 24.173 0 0 0 665 40c7.138-1.237 12-9 12-9l.04.18c-.23 3.28-1.03 8.384-3.04 11.82-2.833 4.845-9 7-9 7s7.106 2.677 13-6a4.4 4.4 0 0 0 .633-1.7c.145 1.833.24 3.768.233 5.724C678.553 50.456 677.5 54.3 674 55z"/></g></g><g id="Column_5" data-name="Column 5"><g id="FAQ"><path id="Back" class="cls-1" d="M549 1001l-6.977-2.79a15.966 15.966 0 0 1-21.737-3.524 17.956 17.956 0 0 0 12.824-25.68 15.976 15.976 0 0 1 13.4 24.535z"/><path id="Front" class="cls-1" d="M517 993a15.914 15.914 0 0 1-9.023-2.79l2.31-.924a14.077 14.077 0 1 0-4.666-4.15L504 990l4.582-1.833a13.935 13.935 0 0 0 1.7 1.12L501 993l2.486-7.46A15.99 15.99 0 1 1 517 993z"/><path id="_" data-name="?" class="cls-1" d="M518.1 980.773l.047-.715a3.213 3.213 0 0 1 1.02-2.006l.948-.9a7.782 7.782 0 0 0 1.56-1.965 4.132 4.132 0 0 0 .444-1.883 4.275 4.275 0 0 0-1.372-3.4 6.682 6.682 0 0 0-7.74.064 4.52 4.52 0 0 0-1.447 3.507h3.4a2.1 2.1 0 0 1 .54-1.475 1.853 1.853 0 0 1 1.39-.534 1.688 1.688 0 0 1 1.827 1.984 2.408 2.408 0 0 1-.352 1.25 7.466 7.466 0 0 1-1.412 1.537 5.368 5.368 0 0 0-1.46 1.918 7.04 7.04 0 0 0-.4 2.615h3zm-2.82 4.865a2.136 2.136 0 0 0 2.755 0 1.82 1.82 0 0 0-.01-2.563 2.086 2.086 0 0 0-2.732 0 1.822 1.822 0 0 0-.016 2.563z"/></g><g id="Working_Groups" data-name="Working Groups"><path id="Icon-33" data-name="Icon" class="cls-4" d="M549.027 882.51h-8.29c-.093-4.9-.524-13.5-2.362-16-.023-.033-.046-.056-.07-.088a6.35 6.35 0 0 0 .876-.324c1.47-.684 1.936-1.948 3.283-1.97 1.32-.02 2.77.2 4.6 2.627 2.16 2.874 1.964 15.754 1.964 15.754zm-12.274-17.81a5.26 5.26 0 0 0-3.934-1.436 2.233 2.233 0 0 0-.8.17c-.137-.106-.264-.223-.393-.34a8.973 8.973 0 0 0 .87-11.065A6.274 6.274 0 0 1 535.9 851a6.9 6.9 0 0 1 .853 13.7zm-11.813 1.816c.144-.182.29-.365.428-.52a8.947 8.947 0 0 0 4.837-1.643 2.458 2.458 0 0 1 .287.18 6.728 6.728 0 0 1-1.642 1.168 9.07 9.07 0 0 1-3.91.81z"/><path id="Icon-34" data-name="Icon" class="cls-4" d="M516.006 857.01a8.972 8.972 0 0 0 2.636 6.364c-.125.11-.245.227-.378.328a2.367 2.367 0 0 0-1.322-.443 5.313 5.313 0 0 0-4.088 1.58 6.946 6.946 0 0 1-5.17-6.82 6.858 6.858 0 0 1 6.685-7.02 6.363 6.363 0 0 1 3.225.908 8.955 8.955 0 0 0-1.59 5.102zm-4.98 9.364c.12.055.237.1.355.143-1.906 2.61-2.3 11.8-2.366 16.568H501s-.2-13.116 2-16.042c1.858-2.468 3.334-2.7 4.68-2.674 1.376.02 1.85 1.307 3.347 2.004zm13.855.135a9.122 9.122 0 0 1-3.968-.814 5.738 5.738 0 0 1-1.213-.8 3.044 3.044 0 0 1 .47-.31 8.948 8.948 0 0 0 4.662 1.41c.15.154.3.325.46.51-.254.01-.41.003-.41.003z"/><path id="Icon-35" data-name="Icon" class="cls-1" d="M540 885h-30s-.222-14.716 2.25-18c2.085-2.768 3.74-3.024 5.25-3 1.54.024 2.072 1.468 3.75 2.25a9.75 9.75 0 0 0 7.5 0c1.678-.782 2.21-2.226 3.75-2.25 1.51-.024 3.165.232 5.25 3 2.472 3.284 2.25 18 2.25 18zm-15-20.25a7.884 7.884 0 1 1 7.5-7.875 7.695 7.695 0 0 1-7.5 7.875z"/></g><g id="Member_Directory_Widget" data-name="Member Directory Widget"><path id="Border-20" data-name="Border" class="cls-1" d="M543.818 777H541v-2h2a4 4 0 0 0 4-4v-2h2v2.857a5.162 5.162 0 0 1-5.182 5.143zM547 763h2v4h-2v-4zm0-6h2v4h-2v-4zm0-6h2v4h-2v-4zm0-6h2v4h-2v-4zm0-6h2v4h-2v-4zm0-4a4 4 0 0 0-4-4h-2v-2h2.818a5.162 5.162 0 0 1 5.182 5.143V737h-2v-2zm-8-6v2h-4v-2h4zm0 48h-4v-2h4v2zm-6-46h-4v-2h4v2zm0 46h-4v-2h4v2zm-6-46h-4v-2h4v2zm-10 44h4v2h-4v-2zm0-46h4v2h-4v-2zm-6 46h4v2h-4v-2zm0-46h4v2h-4v-2zm-10 42.857V769h2v2a4 4 0 0 0 4 4h2v2h-2.818a5.162 5.162 0 0 1-5.182-5.143zM503 735v2h-2v-2.857a5.162 5.162 0 0 1 5.182-5.143H509v2h-2a4 4 0 0 0-4 4zm-2 4h2v4h-2v-4zm2 10h-2v-4h2v4zm0 6h-2v-4h2v4zm0 6h-2v-4h2v4zm-2 2h2v4h-2v-4zm26 14h-4v-2h4v2z"/><path id="Icon-36" data-name="Icon" class="cls-1" d="M540 771h-30s-.222-14.716 2.25-18c2.085-2.768 3.74-3.024 5.25-3 1.54.024 2.072 1.468 3.75 2.25a9.75 9.75 0 0 0 7.5 0c1.678-.782 2.21-2.226 3.75-2.25 1.51-.024 3.165.232 5.25 3 2.472 3.284 2.25 18 2.25 18zm-15-20.25a7.884 7.884 0 1 1 7.5-7.875 7.695 7.695 0 0 1-7.5 7.875z"/></g><g id="Member_Directory" data-name="Member Directory"><path id="Icon-37" data-name="Icon" class="cls-1" d="M545 663h-40s-.3-19.622 3-24c2.78-3.69 4.988-4.032 7-4 2.052.033 2.762 1.957 5 3a13 13 0 0 0 10 0c2.238-1.043 2.948-2.967 5-3 2.012-.032 4.22.31 7 4 3.3 4.378 3 24 3 24zm-20-27a10.513 10.513 0 1 1 10-10.5 10.26 10.26 0 0 1-10 10.5z"/></g><g id="Social"><path id="Twitter" class="cls-1" d="M538 523a11 11 0 1 1 11-11 11 11 0 0 1-11 11zm6.613-15.8a5.883 5.883 0 0 1-1.824.674 2.913 2.913 0 0 0-2.1-.877 2.826 2.826 0 0 0-2.874 2.777 2.708 2.708 0 0 0 .075.633 8.25 8.25 0 0 1-5.92-2.9 2.686 2.686 0 0 0-.388 1.4 2.754 2.754 0 0 0 1.277 2.312 2.95 2.95 0 0 1-1.3-.35v.03a2.8 2.8 0 0 0 2.3 2.723 2.945 2.945 0 0 1-.757.1 3.007 3.007 0 0 1-.54-.05 2.866 2.866 0 0 0 2.682 1.93 5.893 5.893 0 0 1-3.567 1.187 5.958 5.958 0 0 1-.685-.04A8.333 8.333 0 0 0 535.4 518a7.976 7.976 0 0 0 8.172-7.9c0-.12 0-.24-.008-.36A5.722 5.722 0 0 0 545 508.3a5.89 5.89 0 0 1-1.65.437 2.8 2.8 0 0 0 1.263-1.537z"/><path id="Google" class="cls-1" d="M525 549a11 11 0 1 1 11-11 11 11 0 0 1-11 11zm-.643-18a8.235 8.235 0 0 0-1.6.17 4.115 4.115 0 0 0-1.66.843 3.33 3.33 0 0 0-1.164 2.458 2.726 2.726 0 0 0 .82 1.965 2.9 2.9 0 0 0 2.282.923 5.153 5.153 0 0 0 .6-.036c-.035.1-.073.2-.114.316a1.022 1.022 0 0 0-.07.406 1.26 1.26 0 0 0 .185.694 3.885 3.885 0 0 0 .362.56 14.416 14.416 0 0 0-1.65.16 5.9 5.9 0 0 0-1.91.68 2.724 2.724 0 0 0-1.122 1.1 2.554 2.554 0 0 0-.318 1.138 2.213 2.213 0 0 0 .98 1.8 4.593 4.593 0 0 0 2.94.824 5.523 5.523 0 0 0 3.6-1.1 3.06 3.06 0 0 0 1.2-2.368 2.634 2.634 0 0 0-.44-1.525 6.32 6.32 0 0 0-1.038-1.05l-.637-.51a3.79 3.79 0 0 1-.283-.314.678.678 0 0 1-.172-.476.85.85 0 0 1 .167-.52 2.606 2.606 0 0 1 .31-.386c.2-.166.38-.33.553-.492a5.046 5.046 0 0 0 .444-.53 2.723 2.723 0 0 0 .444-1.578 3.244 3.244 0 0 0-.124-.942 3.5 3.5 0 0 0-.344-.7 3.325 3.325 0 0 0-.415-.53 2.545 2.545 0 0 0-.4-.313h1.155l1.158-.663h-3.748zm7.624 5.732v-1.974h-1.153v1.974h-1.97v1.127h1.97v1.925h1.154v-1.926H534v-1.128h-2.02zm-6.844-.4a1.767 1.767 0 0 1-1.233.522 1.662 1.662 0 0 1-1.042-.35 2.85 2.85 0 0 1-.742-.855 4.3 4.3 0 0 1-.6-2.077 2.237 2.237 0 0 1 .407-1.366 1.662 1.662 0 0 1 1.267-.6 1.822 1.822 0 0 1 1.02.332 2.46 2.46 0 0 1 .7.862 4.774 4.774 0 0 1 .566 2.193 5.87 5.87 0 0 1-.04.62 1.872 1.872 0 0 1-.302.72zm-.625 3.48a11.22 11.22 0 0 1 1.54 1.212 1.768 1.768 0 0 1 .466 1.22 1.73 1.73 0 0 1-.68 1.41 3.268 3.268 0 0 1-2.023.573 3.94 3.94 0 0 1-2.328-.646 1.887 1.887 0 0 1-.895-1.6 1.64 1.64 0 0 1 .206-.843 1.97 1.97 0 0 1 .44-.556 2.506 2.506 0 0 1 .527-.33c.173-.073.307-.126.4-.162a8.136 8.136 0 0 1 1.19-.26 4.9 4.9 0 0 1 .734-.036c.164.008.304.008.424.025z"/><path id="Facebook" class="cls-1" d="M512 523a11 11 0 1 1 11-11 11 11 0 0 1-11 11zm3-17.9a20.355 20.355 0 0 0-2.11-.1 3.25 3.25 0 0 0-3.518 3.52v1.97H507v2.657h2.37V520h2.83v-6.853h2.35l.35-2.658h-2.7v-1.7a1.115 1.115 0 0 1 1.35-1.3H515v-2.39z"/></g><g id="Twitter-2" data-name="Twitter"><path id="Icon-38" data-name="Icon" class="cls-1" d="M549 395.616a19.7 19.7 0 0 1-5.656 1.55 9.877 9.877 0 0 0 4.33-5.446 19.738 19.738 0 0 1-6.253 2.39 9.857 9.857 0 0 0-16.78 8.98 27.96 27.96 0 0 1-20.3-10.288 9.856 9.856 0 0 0 3.047 13.145 9.818 9.818 0 0 1-4.46-1.232v.124a9.85 9.85 0 0 0 7.9 9.653 9.89 9.89 0 0 1-4.448.17 9.86 9.86 0 0 0 9.2 6.837 19.763 19.763 0 0 1-12.23 4.214 20.23 20.23 0 0 1-2.35-.137A27.88 27.88 0 0 0 516.1 430c18.114 0 28.02-15 28.02-28.013q0-.64-.03-1.274a20 20 0 0 0 4.91-5.097z"/></g><g id="Comments"><path id="Icon-39" data-name="Icon" class="cls-1" d="M541 299c5.006-.09 8.146 5.305 8 8-.167 3.083-3 8-8 8-7.5 0-15.18-7-15-16 .25-12.583 16-20 16-20s-12.958 10.078-13 20c-.036 8.53 6.165.105 12 0zm-25 16c-7.5 0-15.18-7-15-16 .25-12.583 16-20 16-20s-12.958 10.078-13 20c-.036 8.53 6.165.105 12 0 5.006-.09 8.146 5.305 8 8-.167 3.083-3 8-8 8z"/></g><g id="Forum_Widget" data-name="Forum Widget"><path id="Border-21" data-name="Border" class="cls-1" d="M543.818 207H541v-2h2a4 4 0 0 0 4-4v-2h2v2.857a5.163 5.163 0 0 1-5.182 5.143zM547 193h2v4h-2v-4zm0-6h2v4h-2v-4zm0-6h2v4h-2v-4zm0-6h2v4h-2v-4zm0-6h2v4h-2v-4zm0-4a4 4 0 0 0-4-4h-2v-2h2.818a5.162 5.162 0 0 1 5.182 5.143V167h-2v-2zm-8-6v2h-4v-2h4zm0 48h-4v-2h4v2zm-6-46h-4v-2h4v2zm0 46h-4v-2h4v2zm-6-46h-4v-2h4v2zm-10 44h4v2h-4v-2zm0-46h4v2h-4v-2zm-6 46h4v2h-4v-2zm0-46h4v2h-4v-2zm-10 42.857V199h2v2a4 4 0 0 0 4 4h2v2h-2.818a5.163 5.163 0 0 1-5.182-5.143zM503 165v2h-2v-2.857a5.162 5.162 0 0 1 5.182-5.143H509v2h-2a4 4 0 0 0-4 4zm-2 4h2v4h-2v-4zm2 10h-2v-4h2v4zm0 6h-2v-4h2v4zm0 6h-2v-4h2v4zm-2 2h2v4h-2v-4zm26 14h-4v-2h4v2z"/><path id="Icon-40" data-name="Icon" class="cls-1" d="M540 189v-2.278a1.99 1.99 0 0 0 1-1.722v-12a2 2 0 0 0-2-2h-24a1.994 1.994 0 0 0-1.723 1H511v1h25a3 3 0 0 1 3 3v14a3 3 0 0 1-3 3h-3v5l-5-5h-18a3 3 0 0 1-3-3v-14a3 3 0 0 1 3-3h1v-1a3 3 0 0 1 3-3h26a3 3 0 0 1 3 3v14a3 3 0 0 1-3 3z"/></g><g id="Forum"><path id="Icon-41" data-name="Icon" class="cls-1" d="M546 76h-1v-2a2 2 0 0 0 2-2V52a2 2 0 0 0-2-2h-34a2 2 0 0 0-2 2h-2v-1a3 3 0 0 1 3-3h36a3 3 0 0 1 3 3v22a3 3 0 0 1-3 3zm-3-19v22a3 3 0 0 1-3 3h-3v8l-7-8h-26a3 3 0 0 1-3-3V57a3 3 0 0 1 3-3h36a3 3 0 0 1 3 3z"/></g></g><g id="Column_4" data-name="Column 4"><g id="Blog_Navigation" data-name="Blog Navigation"><path id="Border-22" data-name="Border" class="cls-1" d="M430 772a5 5 0 0 1-5 5h-28a5 5 0 0 1-5-5v-31l12-12h21a5 5 0 0 1 5 5v38zm-6-41h-20v5a5 5 0 0 1-5 5h-5v30a4 4 0 0 0 4 4h26a4 4 0 0 0 4-4v-36a4 4 0 0 0-4-4z"/><path id="Icon-42" data-name="Icon" class="cls-1" d="M422.238 750.143l-.982.68-4.13-5.817.982-.68a1.812 1.812 0 0 1 2.5.435l2.065 2.91a1.76 1.76 0 0 1-.435 2.473zm-13.254 9.176l-4.13-5.817 11.29-7.817 4.13 5.817zm-2.6 1.49c-.544.214-6.81 1.734-7.328 1.005-.49-.688 3.12-6.052 3.492-6.477a7.263 7.263 0 0 1 1.322-1.155L408 760a10.786 10.786 0 0 1-1.614.81z"/><path id="Arrow-2" data-name="Arrow" class="cls-1" d="M440 761h-3l7-8-7-8h3l7 8zm-58 0l-7-8 7-8h3l-7 8 7 8h-3z"/></g><g id="Blog_Calendar" data-name="Blog Calendar"><path id="Calendar-3" data-name="Calendar" class="cls-1" d="M433 629.39V629a4 4 0 0 0-4-4h-36a4 4 0 0 0-4 4v28a4 4 0 0 0 4 4h36a4 4 0 0 0 4-4v-9.667l2-1.333v12a5 5 0 0 1-5 5h-38a5 5 0 0 1-5-5v-38a5 5 0 0 1 5-5h2v6a2 2 0 0 0 4 0v-6h6v6a2 2 0 0 0 4 0v-6h6v6a2 2 0 0 0 4 0v-6h6v6a2 2 0 0 0 4 0v-6h2a5 5 0 0 1 5 5v8zm-7-7.39a1 1 0 0 1-1-1v-7a1 1 0 0 1 2 0v7a1 1 0 0 1-1 1zm-10 0a1 1 0 0 1-1-1v-7a1 1 0 0 1 2 0v7a1 1 0 0 1-1 1zm-10 0a1 1 0 0 1-1-1v-7a1 1 0 0 1 2 0v7a1 1 0 0 1-1 1zm-10 0a1 1 0 0 1-1-1v-7a1 1 0 0 1 2 0v7a1 1 0 0 1-1 1z"/><path id="Days-2" data-name="Days" class="cls-1" d="M429.25 632H428a1 1 0 0 1-1-1v-1a1 1 0 0 1 1-1h2a1 1 0 0 1 1 1v.783zm-7.188 5H422a1 1 0 0 1-1-1v-1a1 1 0 0 1 1-1h2a1 1 0 0 1 .992.962zM418 637h-2a1 1 0 0 1-1-1v-1a1 1 0 0 1 1-1h2a1 1 0 0 1 1 1v1a1 1 0 0 1-1 1zm-6 5h-2a1 1 0 0 1-1-1v-1a1 1 0 0 1 1-1h2a1 1 0 0 1 1 1v1a1 1 0 0 1-1 1zm0-5h-2a1 1 0 0 1-1-1v-1a1 1 0 0 1 1-1h2a1 1 0 0 1 1 1v1a1 1 0 0 1-1 1zm-6 15h-2a1 1 0 0 1-1-1v-1a1 1 0 0 1 1-1h2a1 1 0 0 1 1 1v1a1 1 0 0 1-1 1zm0-5h-2a1 1 0 0 1-1-1v-1a1 1 0 0 1 1-1h2a1 1 0 0 1 1 1v1a1 1 0 0 1-1 1zm0-5h-2a1 1 0 0 1-1-1v-1a1 1 0 0 1 1-1h2a1 1 0 0 1 1 1v1a1 1 0 0 1-1 1zm0-5h-2a1 1 0 0 1-1-1v-1a1 1 0 0 1 1-1h2a1 1 0 0 1 1 1v1a1 1 0 0 1-1 1zm-6 20h-2a1 1 0 0 1-1-1v-1a1 1 0 0 1 1-1h2a1 1 0 0 1 1 1v1a1 1 0 0 1-1 1zm0-5h-2a1 1 0 0 1-1-1v-1a1 1 0 0 1 1-1h2a1 1 0 0 1 1 1v1a1 1 0 0 1-1 1zm0-5h-2a1 1 0 0 1-1-1v-1a1 1 0 0 1 1-1h2a1 1 0 0 1 1 1v1a1 1 0 0 1-1 1zm0-5h-2a1 1 0 0 1-1-1v-1a1 1 0 0 1 1-1h2a1 1 0 0 1 1 1v1a1 1 0 0 1-1 1zm0-5h-2a1 1 0 0 1-1-1v-1a1 1 0 0 1 1-1h2a1 1 0 0 1 1 1v1a1 1 0 0 1-1 1zm-6 20h-2a1 1 0 0 1-1-1v-1a1 1 0 0 1 1-1h2a1 1 0 0 1 1 1v1a1 1 0 0 1-1 1zm0-5h-2a1 1 0 0 1-1-1v-1a1 1 0 0 1 1-1h2a1 1 0 0 1 1 1v1a1 1 0 0 1-1 1zm0-5h-2a1 1 0 0 1-1-1v-1a1 1 0 0 1 1-1h2a1 1 0 0 1 1 1v1a1 1 0 0 1-1 1zm0-5h-2a1 1 0 0 1-1-1v-1a1 1 0 0 1 1-1h2a1 1 0 0 1 1 1v1a1 1 0 0 1-1 1zm0-5h-2a1 1 0 0 1-1-1v-1a1 1 0 0 1 1-1h2a1 1 0 0 1 1 1v1a1 1 0 0 1-1 1zm36.383 12.078A1 1 0 0 1 431 650v1a1 1 0 0 1-1 1h-2a.99.99 0 0 1-.94-.706zM416 639h2a.992.992 0 0 1 .726.32l-3.43 2.388A1 1 0 0 1 415 641v-1a1 1 0 0 1 1-1zm-6 5h2l-2 3a1 1 0 0 1-1-1v-1a1 1 0 0 1 1-1z"/><path id="Offdays-2" data-name="Offdays" class="cls-5" d="M424 632h-2a1 1 0 0 1-1-1v-1a1 1 0 0 1 1-1h2a1 1 0 0 1 1 1v1a1 1 0 0 1-1 1zm-6 0h-2a1 1 0 0 1-1-1v-1a1 1 0 0 1 1-1h2a1 1 0 0 1 1 1v1a1 1 0 0 1-1 1zm-6 0h-2a1 1 0 0 1-1-1v-1a1 1 0 0 1 1-1h2a1 1 0 0 1 1 1v1a1 1 0 0 1-1 1zm-6 0h-2a1 1 0 0 1-1-1v-1a1 1 0 0 1 1-1h2a1 1 0 0 1 1 1v1a1 1 0 0 1-1 1zm-6 0h-2a1 1 0 0 1-1-1v-1a1 1 0 0 1 1-1h2a1 1 0 0 1 1 1v1a1 1 0 0 1-1 1zm-6 0h-2a1 1 0 0 1-1-1v-1a1 1 0 0 1 1-1h2a1 1 0 0 1 1 1v1a1 1 0 0 1-1 1zm10 22h2a1 1 0 0 1 1 1v1a1 1 0 0 1-1 1h-2a1 1 0 0 1-1-1v-1a1 1 0 0 1 1-1zm14.962 2.19a.986.986 0 0 1-.962.81h-2a.967.967 0 0 1-.533-.176zM423 654h1a1 1 0 0 1 1 1v1a1 1 0 0 1-1 1h-2a1 1 0 0 1-1-1v-.667zm5 0h2a1 1 0 0 1 1 1v1a1 1 0 0 1-1 1h-2a1 1 0 0 1-1-1v-1a1 1 0 0 1 1-1z"/><path id="Pen" class="cls-1" d="M446.823 636.44l-1.637 1.148-6.89-9.826 1.638-1.148a3 3 0 0 1 4.178.734l3.445 4.913a3 3 0 0 1-.734 4.18zm-22.107 15.5l-6.89-9.826 18.833-13.2 6.888 9.825zm-4.334 2.516c-.907.364-11.36 2.93-12.223 1.7-.816-1.162 5.2-10.222 5.825-10.94a12.2 12.2 0 0 1 2.2-1.953l6.89 9.826a17.893 17.893 0 0 1-2.693 1.367z"/></g><g id="Blog_Archive" data-name="Blog Archive"><path id="Icon-43" data-name="Icon" class="cls-1" d="M425 549h-28a5 5 0 0 1-5-5v-31l12-12h7v2h-2v2h2v2h-2v2h2v2h-2v2h2v2h-2v2h2v2h-2v2h2v2h-2v2h2v2h-2v2h2v2h2v-2h-2v-2h2v-2h-2v-2h2v-2h-2v-2h2v-2h-2v-2h2v-2h-2v-2h2v-2h-2v-2h2v-2h-2v-2h2v-2h12a5 5 0 0 1 5 5v38a5 5 0 0 1-5 5zm3-42a4 4 0 0 0-4-4h-10v29h-6v-29h-4v5a5 5 0 0 1-5 5h-5v30a4 4 0 0 0 4 4h26a4 4 0 0 0 4-4v-36zm-19 26h4v8h-4v-8zm1 3h2v-2h-2v2z"/></g><g id="Blog_Widget" data-name="Blog Widget"><path id="Border-23" data-name="Border" class="cls-1" d="M429.818 435H427v-2h2a4 4 0 0 0 4-4v-2h2v2.857a5.163 5.163 0 0 1-5.182 5.143zM433 421h2v4h-2v-4zm0-6h2v4h-2v-4zm0-6h2v4h-2v-4zm0-6h2v4h-2v-4zm0-6h2v4h-2v-4zm0-4a4 4 0 0 0-4-4h-2v-2h2.818a5.162 5.162 0 0 1 5.182 5.143V395h-2v-2zm-8-6v2h-4v-2h4zm0 48h-4v-2h4v2zm-6-46h-4v-2h4v2zm0 46h-4v-2h4v2zm-6-46h-4v-2h4v2zm-10 44h4v2h-4v-2zm0-46h4v2h-4v-2zm-6 46h4v2h-4v-2zm0-46h4v2h-4v-2zm-10 42.857V427h2v2a4 4 0 0 0 4 4h2v2h-2.818a5.163 5.163 0 0 1-5.182-5.143zM389 393v2h-2v-2.857a5.162 5.162 0 0 1 5.182-5.143H395v2h-2a4 4 0 0 0-4 4zm-2 4h2v4h-2v-4zm2 10h-2v-4h2v4zm0 6h-2v-4h2v4zm0 6h-2v-4h2v4zm-2 2h2v4h-2v-4zm26 14h-4v-2h4v2z"/><path id="Menu" class="cls-1" d="M395 427v-1h32v1h-32zm0-3h32v1h-32v-1zm0-2h32v1h-32v-1zm4-3h28v2h-28v-2zm-4-5h32v1h-32v-1zm0-2h32v1h-32v-1zm0-2h32v1h-32v-1zm4-3h28v2h-28v-2zm-4-5h32v1h-32v-1zm0-2h32v1h-32v-1zm0-2h32v1h-32v-1zm4-3h28v2h-28v-2zm-4 0h2v2h-2v-2zm2 14h-2v-2h2v2zm0 12h-2v-2h2v2z"/></g><g id="Blog_Roll" data-name="Blog Roll"><path id="Border-24" data-name="Border" class="cls-1" d="M425 321h-28a5 5 0 0 1-5-5v-31l12-12h21a5 5 0 0 1 5 5v38a5 5 0 0 1-5 5zm3-42a4 4 0 0 0-4-4h-20v5a5 5 0 0 1-5 5h-5v30a4 4 0 0 0 4 4h26a4 4 0 0 0 4-4v-36z"/><path id="Icon-44" data-name="Icon" class="cls-1" d="M420.887 295.128l-5.632 5.682a5 5 0 0 1-7.07.03 4.93 4.93 0 0 1-.427-.516 1 1 0 1 1 1.124-1.608l.13-.13a2.973 2.973 0 0 0 4.823.816l5.632-5.682a3 3 0 0 0-4.262-4.224l-2.956 2.983-2.266-.557 3.8-3.835a5 5 0 1 1 7.103 7.04zm-7.07.03a4.93 4.93 0 0 1 .425.518 1 1 0 1 1-1.124 1.608l-.13.13a2.97 2.97 0 0 0-4.823-.816l-5.632 5.682a3 3 0 0 0 4.267 4.22l2.956-2.983 2.266.556-3.8 3.835a5 5 0 0 1-7.1-7.04l5.632-5.682a5 5 0 0 1 7.062-.027z"/></g><g id="Blog_Categories" data-name="Blog Categories"><path id="Border-25" data-name="Border" class="cls-1" d="M429.818 207H427v-2h2a4 4 0 0 0 4-4v-2h2v2.857a5.162 5.162 0 0 1-5.182 5.143zM433 193h2v4h-2v-4zm0-6h2v4h-2v-4zm0-6h2v4h-2v-4zm0-6h2v4h-2v-4zm0-6h2v4h-2v-4zm0-4a4 4 0 0 0-4-4h-2v-2h2.818a5.162 5.162 0 0 1 5.182 5.143V167h-2v-2zm-8-6v2h-4v-2h4zm0 48h-4v-2h4v2zm-6-46h-4v-2h4v2zm0 46h-4v-2h4v2zm-6-46h-4v-2h4v2zm-10 44h4v2h-4v-2zm0-46h4v2h-4v-2zm-6 46h4v2h-4v-2zm0-46h4v2h-4v-2zm-10 42.857V199h2v2a4 4 0 0 0 4 4h2v2h-2.818a5.162 5.162 0 0 1-5.182-5.143zM389 165v2h-2v-2.857a5.162 5.162 0 0 1 5.182-5.143H395v2h-2a4 4 0 0 0-4 4zm-2 4h2v4h-2v-4zm2 10h-2v-4h2v4zm0 6h-2v-4h2v4zm0 6h-2v-4h2v4zm-2 2h2v4h-2v-4zm26 14h-4v-2h4v2z"/><path id="Icon-45" data-name="Icon" class="cls-5" d="M395 167h15v15h-15v-15zm17 0h15v15h-15v-15zm-17 17h15v15h-15v-15zm17 0h15v15h-15v-15z"/></g><g id="Blog"><path id="Border-26" data-name="Border" class="cls-1" d="M428 56.718V51a4 4 0 0 0-4-4h-20v5a5 5 0 0 1-5 5h-5v30a4 4 0 0 0 4 4h26a4 4 0 0 0 4-4V75.6l2-1.314V88a5 5 0 0 1-5 5h-28a5 5 0 0 1-5-5V57l12-12h21a5 5 0 0 1 5 5v5.4z"/><path id="Icon-46" data-name="Icon" class="cls-1" d="M442.823 63.44l-1.638 1.147-6.885-9.824 1.638-1.148a3 3 0 0 1 4.178.734l3.445 4.912a3 3 0 0 1-.737 4.177zm-22.107 15.5l-6.89-9.826 18.833-13.2 6.888 9.826zm-4.334 2.515c-.907.364-11.36 2.93-12.223 1.7-.816-1.162 5.2-10.222 5.825-10.94a12.2 12.2 0 0 1 2.2-1.952l6.89 9.825a17.79 17.79 0 0 1-2.693 1.37z"/></g></g><g id="Column_3" data-name="Column 3"><g id="Logo"><path id="Icon-47" data-name="Icon" class="cls-1" d="M325 548.94c-1.074 0-2.148 0-3.286-.063-5.94-.25-8.908-2.314-10.616-3.75A24.74 24.74 0 0 1 297.64 549C282.6 549 273 537.19 273 525.186A24.14 24.14 0 0 1 297.513 501c14.66 0 24.768 11.376 24.768 23.753 0 8.25-3.346 12.56-4.927 14.562 2.023 1.5 4.108 1.938 7.646 2.124v7.5zm-27.486-39.756c-7.2 0-13.078 4.814-14.53 12.314a14.227 14.227 0 0 0 0 3.314 24.812 24.812 0 0 1 7.834-1.44 18.937 18.937 0 0 1 10.93 3.19 61.535 61.535 0 0 1 8.277 6.813 13.387 13.387 0 0 0 2.843-8.624c0-9.378-7.014-15.566-15.29-15.566h-.064zm.127 31.63a13.285 13.285 0 0 0 6.76-1.688 43.306 43.306 0 0 0-4.927-4.562 15.626 15.626 0 0 0-9.6-3.252 15.786 15.786 0 0 0-5.75 1c2.91 6.438 9.417 8.5 13.46 8.5h.063z"/></g><g id="Video"><path id="Icon-48" data-name="Icon" class="cls-1" d="M319 427v-38h-38v-2h40v40h-2zm-2-34v38h-2v-38h-38v-2h40v2zm-4 42h-40v-40h40v40zm-2-38h-36v36h36v-36zm-24 26v-16l12 8z"/></g><g id="Slider"><path id="Icon-49" data-name="Icon" class="cls-1" d="M326 305h-3l7-8-7-8h3l7 8zm-49-28h40v40h-40v-40zm2 38h36v-36h-36v36zm13.063-20.01l10.555 17.185 4.936-8.038 5.446 8.87h-32zm14.945-4a4 4 0 1 1 4-4 4 4 0 0 1-4 4.01zM268 305l-7-8 7-8h3l-7 8 7 8h-3z"/></g><g id="Gallery"><path id="Icon-50" data-name="Icon" class="cls-1" d="M319 199v-38h-38v-2h40v40h-2zm-2-34v38h-2v-38h-38v-2h40v2zm-4 42h-40v-40h40v40zm-2-38h-36v36h36v-36zm-12.382 33.175l4.936-8.04 5.448 8.87H277l11.065-18.015zm4.39-21.18a4 4 0 1 1 4-4 4 4 0 0 1-4 4.005z"/></g><g id="Image-3" data-name="Image"><path id="Icon-51" data-name="Icon" class="cls-1" d="M273 93V45h48v48h-48zm46-46h-44v44h44V47zm-14.978 40.99l6.17-9.823L317 89.007h-40l13.83-22.02zm5.988-27a5 5 0 1 1 5-5 5 5 0 0 1-5 5.004z"/></g></g><g id="Column_2" data-name="Column 2"><g id="Form"><path id="Border-27" data-name="Border" class="cls-1" d="M164 1071h38a5 5 0 0 1 5 5v38a5 5 0 0 1-5 5h-38a5 5 0 0 1-5-5v-38a5 5 0 0 1 5-5zm1 2h36a4 4 0 0 1 4 4v36a4 4 0 0 1-4 4h-36a4 4 0 0 1-4-4v-36a4 4 0 0 1 4-4z"/><path id="Input-3" data-name="Input" class="cls-5" d="M166 1079h34a1 1 0 0 1 1 1v2a1 1 0 0 1-1 1h-34a1 1 0 0 1-1-1v-2a1 1 0 0 1 1-1zm0 6h34a1 1 0 0 1 1 1v2a1 1 0 0 1-1 1h-34a1 1 0 0 1-1-1v-2a1 1 0 0 1 1-1zm0 6h34a1 1 0 0 1 1 1v8a1 1 0 0 1-1 1h-34a1 1 0 0 1-1-1v-8a1 1 0 0 1 1-1z"/><path id="Button-3" data-name="Button" class="cls-5" d="M171 1107h10a1 1 0 0 1 1 1v2a1 1 0 0 1-1 1h-10a1 1 0 0 1-1-1v-2a1 1 0 0 1 1-1zm14 0h10a1 1 0 0 1 1 1v2a1 1 0 0 1-1 1h-10a1 1 0 0 1-1-1v-2a1 1 0 0 1 1-1z"/></g><g id="Breadcrumbs"><path id="Icon-52" data-name="Icon" class="cls-1" d="M206.81 978.9l-2.835 2.833-18.89-18.908a3 3 0 0 0-4.242 0l-18.988 18.97-2.862-2.867 20.407-20.394a5 5 0 0 1 7.07 0l6.53 6.536V958a1 1 0 0 1 1-1h6a1 1 0 0 1 1 1v15.08zm-21.69-12.5L201 982.267V1002a3 3 0 0 1-3 3h-30a3 3 0 0 1-3-3v-19.727l15.88-15.882a3 3 0 0 1 4.24 0zM177 1005h12v-18h-12v18z"/></g><g id="RSS"><path id="Icon-53" data-name="Icon" class="cls-1" d="M190.73 891h-8.95A22.78 22.78 0 0 0 159 868.22v-8.95A31.73 31.73 0 0 1 190.73 891zM159 884.492a6.51 6.51 0 1 1 6.508 6.508 6.51 6.51 0 0 1-6.508-6.508zM207 891h-8.95A39.05 39.05 0 0 0 159 851.95V843a48 48 0 0 1 48 48z"/></g><g id="Language_Swicther" data-name="Language Swicther"><path id="Icon-54" data-name="Icon" class="cls-1" d="M206.767 756.17a25.03 25.03 0 0 1-.215 1.41c-.068.348-.156.69-.24 1.032-.09.377-.18.755-.288 1.125s-.24.76-.37 1.133c-.11.31-.22.618-.338.92a23.288 23.288 0 0 1-.87 1.938c-.215.425-.436.846-.674 1.256-.108.187-.223.37-.336.553a24.63 24.63 0 0 1-.854 1.307c-.083.116-.172.228-.257.343-.346.47-.7.935-1.08 1.378-.416.488-.84.97-1.3 1.422a24.04 24.04 0 0 1-7.62 5.13c-.065.027-.134.046-.2.072-.655.27-1.32.52-2 .73-.18.057-.366.09-.547.142a23.7 23.7 0 0 1-1.75.45c-.357.072-.726.108-1.09.165-.43.068-.852.153-1.29.2a24.305 24.305 0 0 1-4.9 0c-.435-.044-.86-.13-1.29-.2-.362-.057-.73-.093-1.09-.166a23.7 23.7 0 0 1-1.748-.448c-.18-.05-.368-.085-.547-.14a23.23 23.23 0 0 1-2-.733c-.065-.027-.134-.046-.2-.074a24.026 24.026 0 0 1-7.62-5.13 23.96 23.96 0 0 1-2.38-2.8c-.084-.114-.173-.226-.256-.342-.3-.424-.58-.864-.854-1.307-.113-.184-.227-.366-.336-.553-.238-.41-.46-.83-.673-1.256a24.944 24.944 0 0 1-.87-1.937c-.12-.3-.23-.61-.338-.92-.13-.374-.258-.75-.37-1.133s-.2-.748-.29-1.125c-.083-.343-.17-.684-.24-1.033a25.03 25.03 0 0 1-.214-1.41c-.037-.28-.088-.557-.115-.84-.073-.768-.117-1.544-.117-2.33s.044-1.562.118-2.33c.027-.283.078-.56.115-.84.063-.473.126-.946.215-1.41.068-.348.156-.69.24-1.032.09-.377.18-.755.288-1.125s.24-.758.37-1.133c.11-.31.22-.618.338-.92a23.288 23.288 0 0 1 .87-1.938c.215-.425.436-.846.674-1.256.11-.187.223-.37.336-.552.274-.444.553-.884.854-1.308.083-.116.172-.228.257-.343.346-.47.7-.935 1.08-1.378.416-.488.84-.97 1.3-1.422a24.026 24.026 0 0 1 7.62-5.13c.064-.027.133-.045.2-.072.654-.27 1.32-.52 2-.73.178-.057.365-.09.546-.142a23.7 23.7 0 0 1 1.75-.45c.358-.072.727-.11 1.09-.166.43-.067.854-.152 1.29-.2a24.305 24.305 0 0 1 4.9 0c.437.044.86.13 1.29.2.363.057.732.094 1.09.167a23.7 23.7 0 0 1 1.75.448c.18.052.367.085.546.14a23.23 23.23 0 0 1 2 .733c.065.028.134.046.2.074a24.04 24.04 0 0 1 7.62 5.13 23.96 23.96 0 0 1 2.38 2.8c.085.114.174.226.257.342.3.424.58.864.854 1.308.113.183.228.365.336.552.238.41.46.83.673 1.256a24.944 24.944 0 0 1 .87 1.937c.12.3.23.61.338.92.13.375.258.75.37 1.133s.2.748.29 1.125c.083.343.17.684.24 1.033.088.464.15.937.214 1.41.037.28.088.557.115.84.074.768.118 1.544.118 2.33s-.043 1.562-.117 2.33c-.028.283-.083.56-.116.84zM176.8 774.1a20.5 20.5 0 0 1-4.2-6.79 27.958 27.958 0 0 0-4.67 1.69 21.96 21.96 0 0 0 8.87 5.1zm-10.258-6.543a29.354 29.354 0 0 1 5.37-2.08A39.652 39.652 0 0 1 170.02 754h-8.978a21.89 21.89 0 0 0 5.5 13.556zm-5.5-15.557h8.977a39.652 39.652 0 0 1 1.892-11.477 29.426 29.426 0 0 1-5.37-2.078 21.885 21.885 0 0 0-5.5 13.555zm6.89-15a28.048 28.048 0 0 0 4.665 1.692 20.5 20.5 0 0 1 4.2-6.79A21.938 21.938 0 0 0 167.93 737zM182 731.1c-3.037.55-5.712 3.57-7.528 8.044a41.235 41.235 0 0 0 7.528.833V731.1zm0 10.875a41.737 41.737 0 0 1-8.2-.968 38.67 38.67 0 0 0-1.77 11H182v-10.034zM182 754h-9.975a38.656 38.656 0 0 0 1.77 10.994 41.814 41.814 0 0 1 8.2-.967V754zm0 12.025a41.323 41.323 0 0 0-7.528.833c1.816 4.475 4.49 7.5 7.528 8.044v-8.877zM204.958 754h-8.977a39.652 39.652 0 0 1-1.892 11.477 29.354 29.354 0 0 1 5.37 2.08 21.89 21.89 0 0 0 5.5-13.557zm-6.89 15a27.958 27.958 0 0 0-4.665-1.693 20.5 20.5 0 0 1-4.2 6.79A21.96 21.96 0 0 0 198.07 769zM184 774.9c3.037-.55 5.712-3.57 7.528-8.044a41.323 41.323 0 0 0-7.528-.833v8.877zm0-10.875a41.814 41.814 0 0 1 8.2.967A38.656 38.656 0 0 0 193.975 754H184v10.027zM184 752h9.975a38.67 38.67 0 0 0-1.77-11 41.737 41.737 0 0 1-8.2.968V752zm0-12.025a41.235 41.235 0 0 0 7.528-.833c-1.816-4.475-4.49-7.5-7.528-8.044v8.877zm5.2-8.074a20.5 20.5 0 0 1 4.2 6.792 28.048 28.048 0 0 0 4.67-1.692 21.938 21.938 0 0 0-8.87-5.1zm10.258 6.545a29.426 29.426 0 0 1-5.37 2.078A39.652 39.652 0 0 1 195.98 752h8.978a21.885 21.885 0 0 0-5.5-13.555z"/></g><g id="Map"><path id="Icon-55" data-name="Icon" class="cls-1" d="M187 651a37.74 37.74 0 0 0-4 12 37.21 37.21 0 0 0-4-12c-2.666-4.5-11-12.672-11-21a15 15 0 0 1 30 0c0 8.35-8.354 16.5-11 21zm-4-27a6 6 0 1 0 6 6 6 6 0 0 0-6-6z"/></g><g id="Anchor"><path id="Icon-56" data-name="Icon" class="cls-1" d="M202.414 535.97l-2-.693c-.866 1.817-2.592 5.108-4.418 6.723-3.48 3.077-8.595 4.5-10 5a7.055 7.055 0 0 0-3 2 7.055 7.055 0 0 0-3-2c-1.405-.5-6.52-1.923-10-5-1.943-1.72-3.777-5.343-4.578-7.06l-2.058.75a.38.38 0 0 1-.558-.413l1.542-6.13a.483.483 0 0 1 .724-.262c.28.2 4.814 3.47 5.134 3.71a.378.378 0 0 1-.164.663l-1.507.55A28.13 28.13 0 0 0 174 540c1.752 1.27 4.26 2.156 5 2 1.187-.25 1-2 1-2h.094l.625-20h-5.22a1.5 1.5 0 0 1 0-3h5.313l.136-4.383a6 6 0 1 1 4.1 0l.137 4.383h5.313a1.5 1.5 0 0 1 0 3h-5.22l.626 20H186s-.187 1.75 1 2c.74.156 3.248-.73 5-2a27 27 0 0 0 5.217-5.835l-1.9-.66a.377.377 0 0 1-.174-.67c.34-.245 5.154-3.56 5.453-3.762a.52.52 0 0 1 .768.267l1.64 6.212a.4.4 0 0 1-.59.42zM187 507a4 4 0 1 0-4 4 4 4 0 0 0 4-4z"/></g><g id="Content"><path id="Icon-57" data-name="Icon" class="cls-1" d="M201.556 421.246a11.01 11.01 0 0 0 .185 2.594 1.863 1.863 0 0 0 .652.943 1.454 1.454 0 0 0 .86.36q1.6 0 3.023-2.457l.737.546Q205.022 428 200.55 428a5.67 5.67 0 0 1-3.7-1.23 5.43 5.43 0 0 1-1.93-2.74 23.672 23.672 0 0 1-.245-4.57v-12.538h-3v-.87a31.818 31.818 0 0 0 5.27-4.64 28.244 28.244 0 0 0 3.8-5.438h.812v8.49h5.456v2.458h-5.456v14.324zM186.3 398.593a6.75 6.75 0 0 0-2.63-2.2 8.354 8.354 0 0 0-3.268-.447h-2.482v25.967a10.69 10.69 0 0 0 .283 3.228 2.543 2.543 0 0 0 1.106 1.13 4.43 4.43 0 0 0 2.247.484h1.106v.92H165.21v-.92h1.107a4.566 4.566 0 0 0 2.335-.52 2.368 2.368 0 0 0 1.007-1.193 10.32 10.32 0 0 0 .27-3.127V395.95h-2.41q-3.365 0-4.89 1.44a9.56 9.56 0 0 0-2.7 5.734h-.933v-9.11h29.93v9.11h-.883a14.49 14.49 0 0 0-1.744-4.53z"/></g><g id="Registration"><path id="Icon-58" data-name="Icon" class="cls-1" d="M199 321h-30a5 5 0 0 1-5-5v-20a5 5 0 0 1 5-5h30a5 5 0 0 1 5 5v20a5 5 0 0 1-5 5zm-15-23a5 5 0 0 0-2 9.578V312a2 2 0 0 0 4 0v-4.422a5 5 0 0 0-2-9.578zm10.95-9c.03-.33.05-.662.05-1a11 11 0 0 0-22 0c0 .338.02.67.05 1h-4c-.02-.332-.05-.662-.05-1a15 15 0 0 1 30 0c0 .338-.028.668-.05 1h-4z"/></g><g id="Login"><path id="Icon-59" data-name="Icon" class="cls-1" d="M197.818 207h-27.636a5.163 5.163 0 0 1-5.182-5.143V185h-2v-4h2v-16.857a5.162 5.162 0 0 1 5.182-5.143h27.636a5.162 5.162 0 0 1 5.182 5.143v37.714a5.163 5.163 0 0 1-5.182 5.143zM201 164a3 3 0 0 0-3-3h-28a3 3 0 0 0-3 3v12h-2v5h19l-10-10h7l12 12-12 12h-7l10-10h-19v5h2v12a3 3 0 0 0 3 3h28a3 3 0 0 0 3-3v-38z"/></g><g id="Search"><path id="Icon-60" data-name="Icon" class="cls-1" d="M205.828 91.966a4 4 0 0 1-5.657 0l-11.51-11.5a21.094 21.094 0 0 0 5.684-5.63l11.482 11.477a4 4 0 0 1 .002 5.653zM177 81a18 18 0 1 1 18-18 18 18 0 0 1-18 18zm10-27.79V53h-.21A13.993 13.993 0 0 0 167 72.79V73h.21a13.98 13.98 0 0 0 19.58 0h.21v-.21a13.977 13.977 0 0 0 0-19.58zM169 63h-2a10 10 0 0 1 10-10v2a8 8 0 0 0-8 8z"/></g></g><g id="Column_1" data-name="Column 1"><g id="Spoiler"><path id="Background-3" data-name="Background" class="cls-2" d="M47 1315h44v26a4 4 0 0 1-4 4H51a4 4 0 0 1-4-4v-26z"/><path id="Border-28" data-name="Border" class="cls-1" d="M88 1347H50a5 5 0 0 1-5-5v-38a5 5 0 0 1 5-5h38a5 5 0 0 1 5 5v38a5 5 0 0 1-5 5zm-37-2h36a4 4 0 0 0 4-4v-26H47v26a4 4 0 0 0 4 4zm36-44H51a4 4 0 0 0-4 4v8h44v-8a4 4 0 0 0-4-4z"/><path id="Arrow-3" data-name="Arrow" class="cls-1" d="M65 1304l4 4 4-4h2l-6 6-6-6h2z"/></g><g id="Structure"><path id="Border-29" data-name="Border" class="cls-1" d="M45 1203h23v30H50a5 5 0 0 1-5-5v-25zm2 2h19v26H51a4 4 0 0 1-4-4v-22zm-2-15a5 5 0 0 1 5-5h38a5 5 0 0 1 5 5v11H45v-11zm2 1a4 4 0 0 1 4-4h36a4 4 0 0 1 4 4v8H47v-8zm46 12v25a5 5 0 0 1-5 5H70v-30h23zm-2 24a4 4 0 0 1-4 4H72v-26h19v22z"/></g><g id="Flip_Cards" data-name="Flip Cards"><path id="Front-2" data-name="Front" class="cls-1" d="M51.425 1071.35l12.757 4.04a5.636 5.636 0 0 1 3.818 5.04v29.15a5.64 5.64 0 0 1-3.818 5.05l-12.757 4.04c-3.417 1.08-6.425-.37-6.425-3.32v-40.68c0-2.95 3.008-4.4 6.425-3.32z"/><path id="Back-2" data-name="Back" class="cls-1" d="M86.576 1118.63l-12.757-4.03a5.613 5.613 0 0 1-3.82-5.03v-29.12a5.613 5.613 0 0 1 3.82-5.03l12.756-4.04c3.417-1.08 6.424.37 6.424 3.32v40.62c0 2.95-3.008 4.39-6.424 3.31zm3.727-42.22c0-2.29-2.268-3.48-4.89-2.72l-10.768 3.12a4.5 4.5 0 0 0-3.174 4.06v28.28a4.5 4.5 0 0 0 3.175 4.06l10.767 3.12c2.623.76 4.89-.44 4.89-2.72v-37.2z"/></g><g id="Sticky_Block" data-name="Sticky Block"><path id="Borde" class="cls-1" d="M87.818 1005H85v-2h2a4 4 0 0 0 4-4v-2h2v2.857a5.16 5.16 0 0 1-5.182 5.143zM91 991h2v4h-2v-4zm0-6h2v4h-2v-4zm0-6h2v4h-2v-4zm0-6h2v4h-2v-4zm0-6h2v4h-2v-4zm0-4a4 4 0 0 0-4-4h-2v-2h2.818A5.162 5.162 0 0 1 93 962.143V965h-2v-2zm-8-6v2h-4v-2h4zm0 48h-4v-2h4v2zm-6-46h-4v-2h4v2zm0 46h-4v-2h4v2zm-6-46h-4v-2h4v2zm-10 44h4v2h-4v-2zm0-46h4v2h-4v-2zm-6 46h4v2h-4v-2zm0-46h4v2h-4v-2zm-10 42.857V997h2v2a4 4 0 0 0 4 4h2v2h-2.818A5.16 5.16 0 0 1 45 999.857zM47 963v2h-2v-2.857A5.162 5.162 0 0 1 50.182 957H53v2h-2a4 4 0 0 0-4 4zm-2 4h2v4h-2v-4zm2 10h-2v-4h2v4zm0 6h-2v-4h2v4zm0 6h-2v-4h2v4zm-2 2h2v4h-2v-4zm26 14h-4v-2h4v2z"/><path id="Pin" class="cls-1" d="M66.565 984.825l-9.437 9.437a1.112 1.112 0 0 1-1.573-1.572l9.437-9.438-5.5-5.5.786-.786a2.224 2.224 0 0 1 3.146 0l3.932 3.932 1.573 1.573 3.93 3.933a2.225 2.225 0 0 1 0 3.146l-.785.785zm12.583-7.864l-6.29 7.865-7.865-7.864 7.864-6.29zm.786-.785l-6.29-6.292a2.225 2.225 0 0 1 0-3.146l9.436 9.438s-2.28.868-3.145 0z"/></g><g id="Hidden_Tabs" data-name="Hidden Tabs"><path id="Icon-61" data-name="Icon" class="cls-1" d="M87.818 891H50.182A5.163 5.163 0 0 1 45 885.857v-29.714a5.144 5.144 0 0 1 4-5v-3A5.162 5.162 0 0 1 54.182 843h8.636A5.162 5.162 0 0 1 68 848.143V851h2v-2.857A5.162 5.162 0 0 1 75.182 843h8.636A5.162 5.162 0 0 1 89 848.143v3a5.144 5.144 0 0 1 4 5v29.714A5.163 5.163 0 0 1 87.818 891zM87 848a3 3 0 0 0-3-3h-9a3 3 0 0 0-3 3v3h15v-3zm4 9a4 4 0 0 0-4-4H66v-5a3 3 0 0 0-3-3h-9a3 3 0 0 0-3 3v5a4 4 0 0 0-4 4v28a4 4 0 0 0 4 4h36a4 4 0 0 0 4-4v-28z"/><path id="Arrow-4" data-name="Arrow" class="cls-1" d="M77 869l-8 7-8-7v-3l8 7 8-7v3z"/></g><g id="Tabs"><path id="Icon-62" data-name="Icon" class="cls-1" d="M87.818 777H50.182A5.162 5.162 0 0 1 45 771.857v-29.714a5.144 5.144 0 0 1 4-5v-3A5.162 5.162 0 0 1 54.182 729h8.636A5.162 5.162 0 0 1 68 734.143V737h2v-2.857A5.162 5.162 0 0 1 75.182 729h8.636A5.162 5.162 0 0 1 89 734.143v3a5.144 5.144 0 0 1 4 5v29.714A5.162 5.162 0 0 1 87.818 777zM87 734a3 3 0 0 0-3-3h-9a3 3 0 0 0-3 3v3h15v-3zm4 9a4 4 0 0 0-4-4H66v-5a3 3 0 0 0-3-3h-9a3 3 0 0 0-3 3v5a4 4 0 0 0-4 4v28a4 4 0 0 0 4 4h36a4 4 0 0 0 4-4v-28z"/></g><g id="Menu-2" data-name="Menu"><path id="Icon-63" data-name="Icon" class="cls-1" d="M90 652H56a3 3 0 0 1 0-6h34a3 3 0 0 1 0 6zm0-10H56a3 3 0 0 1 0-6h34a3 3 0 0 1 0 6zm0-10H56a3 3 0 0 1 0-6h34a3 3 0 0 1 0 6zm0-10H56a3 3 0 0 1 0-6h34a3 3 0 0 1 0 6zm-42 40a3 3 0 1 1 3-3 3 3 0 0 1-3 3zm0-10a3 3 0 1 1 3-3 3 3 0 0 1-3 3zm0-10a3 3 0 1 1 3-3 3 3 0 0 1-3 3zm0-10a3 3 0 1 1 3-3 3 3 0 0 1-3 3zm0-10a3 3 0 1 1 3-3 3 3 0 0 1-3 3zm8 34h34a3 3 0 0 1 0 6H56a3 3 0 0 1 0-6z"/></g><g id="Spacer"><path id="Icon-64" data-name="Icon" class="cls-1" d="M91 549v-3h2v3h-2zm0-9h2v4h-2v-4zm0-4a4 4 0 0 0-4-4h-2v-2h2.818A5.163 5.163 0 0 1 93 535.143V538h-2v-2zm-3.182-16H85v-2h2a4 4 0 0 0 4-4v-2h2v2.857A5.162 5.162 0 0 1 87.818 520zM91 506h2v4h-2v-4zm0-5h2v3h-2v-3zm-12 17h4v2h-4v-2zm-2 14h-4v-2h4v2zm-4-14h4v2h-4v-2zm-2 14h-4v-2h4v2zm-4-14h4v2h-4v-2zm-6 0h4v2h-4v-2zm4 14h-4v-2h4v2zm-10-14h4v2h-4v-2zm4 14h-4v-2h4v2zm-14-17.143V512h2v2a4 4 0 0 0 4 4h2v2h-2.818A5.162 5.162 0 0 1 45 514.857zM45 510v-4h2v4h-2zm0-6v-3h2v3h-2zm5.182 26H53v2h-2a4 4 0 0 0-4 4v2h-2v-2.857A5.163 5.163 0 0 1 50.182 530zM45 540h2v4h-2v-4zm2 9h-2v-3h2v3zm36-19v2h-4v-2h4z"/></g><g id="Divider"><path id="Icon-65" data-name="Icon" class="cls-1" d="M91 435v-3h2v3h-2zm0-9h2v4h-2v-4zm0-4a4 4 0 0 0-4-4h-2v-2h2.818A5.162 5.162 0 0 1 93 421.143V424h-2v-2zm-3.182-16H85v-2h2a4 4 0 0 0 4-4v-2h2v2.857A5.163 5.163 0 0 1 87.818 406zM91 392h2v4h-2v-4zm0-5h2v3h-2v-3zm-12 17h4v2h-4v-2zm-2 14h-4v-2h4v2zm-4-14h4v2h-4v-2zm-2 14h-4v-2h4v2zm-4-14h4v2h-4v-2zm-6 0h4v2h-4v-2zm4 14h-4v-2h4v2zm-10-14h4v2h-4v-2zm4 14h-4v-2h4v2zm-14-17.143V398h2v2a4 4 0 0 0 4 4h2v2h-2.818A5.163 5.163 0 0 1 45 400.857zM45 396v-4h2v4h-2zm0-6v-3h2v3h-2zm5.182 26H53v2h-2a4 4 0 0 0-4 4v2h-2v-2.857A5.162 5.162 0 0 1 50.182 416zM45 426h2v4h-2v-4zm2 9h-2v-3h2v3zm36-19v2h-4v-2h4zm-38-6h48v2H45v-2z"/></g><g id="Columns"><path id="Icon-66" data-name="Icon" class="cls-1" d="M88 321h-4a5 5 0 0 1-5-5v-38a5 5 0 0 1 5-5h4a5 5 0 0 1 5 5v38a5 5 0 0 1-5 5zm3-43a3 3 0 0 0-3-3h-4a3 3 0 0 0-3 3v38a3 3 0 0 0 3 3h4a3 3 0 0 0 3-3v-38zm-20 43h-4a5 5 0 0 1-5-5v-38a5 5 0 0 1 5-5h4a5 5 0 0 1 5 5v38a5 5 0 0 1-5 5zm3-43a3 3 0 0 0-3-3h-4a3 3 0 0 0-3 3v38a3 3 0 0 0 3 3h4a3 3 0 0 0 3-3v-38zm-20 43h-4a5 5 0 0 1-5-5v-38a5 5 0 0 1 5-5h4a5 5 0 0 1 5 5v38a5 5 0 0 1-5 5zm3-43a3 3 0 0 0-3-3h-4a3 3 0 0 0-3 3v38a3 3 0 0 0 3 3h4a3 3 0 0 0 3-3v-38z"/></g><g id="Area"><path id="Border-30" data-name="Border" class="cls-1" d="M87.818 207H85v-2h2a4 4 0 0 0 4-4v-2h2v2.857A5.162 5.162 0 0 1 87.818 207zM91 193h2v4h-2v-4zm0-6h2v4h-2v-4zm0-6h2v4h-2v-4zm0-6h2v4h-2v-4zm0-6h2v4h-2v-4zm0-4a4 4 0 0 0-4-4h-2v-2h2.818A5.162 5.162 0 0 1 93 164.143V167h-2v-2zm-8-6v2h-4v-2h4zm0 48h-4v-2h4v2zm-6-46h-4v-2h4v2zm0 46h-4v-2h4v2zm-6-46h-4v-2h4v2zm-10 44h4v2h-4v-2zm0-46h4v2h-4v-2zm-6 46h4v2h-4v-2zm0-46h4v2h-4v-2zm-10 42.857V199h2v2a4 4 0 0 0 4 4h2v2h-2.818A5.162 5.162 0 0 1 45 201.857zM47 165v2h-2v-2.857A5.162 5.162 0 0 1 50.182 159H53v2h-2a4 4 0 0 0-4 4zm-2 4h2v4h-2v-4zm2 10h-2v-4h2v4zm0 6h-2v-4h2v4zm0 6h-2v-4h2v4zm-2 2h2v4h-2v-4zm26 14h-4v-2h4v2z"/></g><g id="Default"><path id="big" class="cls-1" d="M78 77v4h-4.173a11.91 11.91 0 0 1-2.06 4.937L74.73 88.9l-2.83 2.827-2.964-2.964A11.93 11.93 0 0 1 64 90.82V95h-4v-4.18a11.932 11.932 0 0 1-4.934-2.055L52.1 91.73l-2.827-2.83 2.962-2.962A11.906 11.906 0 0 1 50.173 81H46v-4h4.173a11.908 11.908 0 0 1 2.06-4.937L49.27 69.1l2.83-2.827 2.964 2.964A11.924 11.924 0 0 1 60 67.18V63h4v4.18a11.93 11.93 0 0 1 4.935 2.055L71.9 66.27l2.827 2.83-2.962 2.962A11.907 11.907 0 0 1 73.827 77H78zm-16-4a6 6 0 1 0 6 6 6 6 0 0 0-6-6z"/><path id="small" class="cls-6" d="M91 54.5v3h-3.136a8.943 8.943 0 0 1-1.542 3.7l2.225 2.224-2.12 2.122L84.2 63.32a8.934 8.934 0 0 1-3.7 1.545V68h-3v-3.135a8.934 8.934 0 0 1-3.7-1.543l-2.224 2.224-2.122-2.122L71.68 61.2a8.945 8.945 0 0 1-1.544-3.7H67v-3h3.136a8.944 8.944 0 0 1 1.542-3.7l-2.225-2.224 2.12-2.122 2.227 2.224a8.933 8.933 0 0 1 3.7-1.543V44h3v3.135a8.932 8.932 0 0 1 3.7 1.542l2.224-2.224 2.12 2.12-2.223 2.227a8.945 8.945 0 0 1 1.544 3.7H91zM79 51a5 5 0 1 0 5 5 5 5 0 0 0-5-5z"/></g></g><g id="_pivots"><path id="Top" class="cls-7" d="M0 0h1v1H0V0z"/><path id="Bottom" class="cls-7" d="M1163 1391h1v1h-1v-1z"/></g></svg>