<svg id="Sprite.svg" xmlns="http://www.w3.org/2000/svg" width="90" height="5241"><defs><style>.cls-1,.cls-2,.cls-3,.cls-4,.cls-6,.cls-7{fill:#707070}.cls-1,.cls-2,.cls-4{fill-rule:evenodd}.cls-2{fill-opacity:.85}.cls-4{opacity:.55}.cls-6{opacity:.4}.cls-7{opacity:0}</style></defs><g id="Hidden_Tabs" data-name="Hidden Tabs"><path id="Icon" class="cls-1" d="M63.818 5199H26.182a5.16 5.16 0 01-5.182-5.14v-29.72a5.14 5.14 0 014-4.99v-3.01a5.16 5.16 0 015.182-5.14h8.636a5.16 5.16 0 015.182 5.14v2.86h2v-2.86a5.16 5.16 0 015.182-5.14h8.636a5.16 5.16 0 015.182 5.14v3.01a5.14 5.14 0 014 4.99v29.72a5.16 5.16 0 01-5.182 5.14zM63 5156a3 3 0 00-3-3h-9a3 3 0 00-3 3v3h15v-3zm4 9a4 4 0 00-4-4H42v-5a3 3 0 00-3-3h-9a3 3 0 00-3 3v5a4 4 0 00-4 4v28a4 4 0 004 4h36a4 4 0 004-4v-28z"/><path id="Arrow" class="cls-1" d="M53 5177l-8 7-8-7v-3l8 7 8-7v3z"/></g><g id="Tabs"><path id="Icon-2" data-name="Icon" class="cls-1" d="M63.818 969H26.182A5.162 5.162 0 0121 963.857v-29.714a5.144 5.144 0 014-5v-3A5.162 5.162 0 0130.182 921h8.636A5.162 5.162 0 0144 926.143V929h2v-2.857A5.162 5.162 0 0151.182 921h8.636A5.162 5.162 0 0165 926.143v3a5.144 5.144 0 014 5v29.714A5.162 5.162 0 0163.818 969zM63 926a3 3 0 00-3-3h-9a3 3 0 00-3 3v3h15v-3zm4 9a4 4 0 00-4-4H42v-5a3 3 0 00-3-3h-9a3 3 0 00-3 3v5a4 4 0 00-4 4v28a4 4 0 004 4h36a4 4 0 004-4v-28z"/></g><g id="Form"><path id="Border" class="cls-1" d="M26 5061h38a5 5 0 015 5v38a5 5 0 01-5 5H26a5 5 0 01-5-5v-38a5 5 0 015-5zm1 2h36a4 4 0 014 4v36a4 4 0 01-4 4H27a4 4 0 01-4-4v-36a4 4 0 014-4z"/><path id="Input" class="cls-2" d="M28 5069h34a1 1 0 011 1v2a1 1 0 01-1 1H28a1 1 0 01-1-1v-2a1 1 0 011-1zm0 6h34a1 1 0 011 1v2a1 1 0 01-1 1H28a1 1 0 01-1-1v-2a1 1 0 011-1zm0 6h34a1 1 0 011 1v8a1 1 0 01-1 1H28a1 1 0 01-1-1v-8a1 1 0 011-1z"/><path id="Button" class="cls-1" d="M33 5097h10a1 1 0 011 1v2a1 1 0 01-1 1H33a1 1 0 01-1-1v-2a1 1 0 011-1zm14 0h10a1 1 0 011 1v2a1 1 0 01-1 1H47a1 1 0 01-1-1v-2a1 1 0 011-1z"/></g><g id="Date_Picker" data-name="Date Picker"><path id="Icon-3" data-name="Icon" class="cls-1" d="M65 5005.9v-2.45a4 4 0 002-3.45v-10a4 4 0 00-4-4H27a4 4 0 00-4 4v10a4 4 0 004 4h12v2H26a5 5 0 01-5-5v-12a5 5 0 015-5h38a5 5 0 015 5v12a5 5 0 01-4 4.9z"/><path id="Text" class="cls-3" d="M27 4989h2v12h-2z"/><path id="Icon-4" data-name="Icon" class="cls-1" d="M61 5016H41v-22h2v3h5v-3h8v3h5v-3h2v22h-2zm0-17H43v15h18v-15zm-14 7h-2v-2h2v2zm0 3h-2v-2h2v2zm0 3h-2v-2h2v2zm3-6h-2v-2h2v2zm0 3h-2v-2h2v2zm0 3h-2v-2h2v2zm3-9h-2v-2h2v2zm0 3h-2v-2h2v2zm0 3h-2v-2h2v2zm0 3h-2v-2h2v2zm3-9h-2v-2h2v2zm0 3h-2v-2h2v2zm0 3h-2v-2h2v2zm0 3h-2v-2h2v2zm3-9h-2v-2h2v2zm0 3h-2v-2h2v2zm0 3h-2v-2h2v2zm-2-15h3v2h-3v-2zm-13 0h3v2h-3v-2z"/></g><g id="Timer_Picker" data-name="Timer Picker"><path id="Icon-5" data-name="Icon" class="cls-1" d="M65 4915.9v-2.45a4 4 0 002-3.45v-10a4 4 0 00-4-4H27a4 4 0 00-4 4v10a4 4 0 004 4h10v2H26a5 5 0 01-5-5v-12a5 5 0 015-5h38a5 5 0 015 5v12a5 5 0 01-4 4.9z"/><path id="Text-2" data-name="Text" class="cls-3" d="M27 4899h2v12h-2z"/><g id="Clock"><path id="Lines" class="cls-4" d="M50.5 4922.5h1v2h-1v-2zm0-17h1v2h-1v-2zm-9 9h2v1h-2v-1zm17 0h2v1h-2v-1zm-13.154 5.45l.708.71-1.413 1.41-.707-.7zm12.014-12.02l.707.7-1.413 1.42-.708-.71zm-12.731.01l1.415 1.41-.708.71-1.415-1.42zm12.034 12l1.415 1.42-.708.7-1.415-1.41z"/><path id="Border-2" data-name="Border" class="cls-1" d="M51 4927a12 12 0 1112-12 12 12 0 01-12 12zm0-22a10 10 0 1010 10 10 10 0 00-10-10zm1.926 9.49a1.936 1.936 0 01.074.51 2 2 0 01-2 2 1.982 1.982 0 01-1.723-1H43.5a1 1 0 010-2h5.777a1.982 1.982 0 011.723-1 2.156 2.156 0 01.512.07l2.9-2.9a1 1 0 011.415 1.41z"/></g></g><g id="Image_Browser" data-name="Image Browser"><g id="Image"><path id="Input-2" data-name="Input" class="cls-1" d="M66.346 4838.39l-1.817-1.7A3.989 3.989 0 0067 4833v-36a4 4 0 00-4-4H27a4 4 0 00-4 4v36a4 4 0 004 4h24v2H26a5 5 0 01-5-5v-38a5 5 0 015-5h38a5 5 0 015 5v38a4.974 4.974 0 01-2.654 4.39z"/><path id="Background" d="M64.53 4836.69L52 4825h-1v12H27a4 4 0 01-4-4v-36a4 4 0 014-4h36a4 4 0 014 4v36a3.989 3.989 0 01-2.47 3.69z" opacity=".4" fill-rule="evenodd" fill="#707070"/><path id="Image-2" data-name="Image" class="cls-1" d="M55.574 4828.34l2.619-4.17L65 4835.01h-2.28zm2.436-21.35a5 5 0 115-5 5 5 0 01-5 5zM51 4835.01H25l13.831-22.02L51 4832.36v2.65z"/></g><path id="Cursor" class="cls-1" d="M53 4828v21.28l4.617-4.3L61.6 4852l4.856-2.49-3.582-6.34H69z"/></g><g id="Captcha"><path id="Icon-6" data-name="Icon" class="cls-1" d="M64 4749h-2v-2h1a4 4 0 004-4v-10a4 4 0 00-4-4H27a4 4 0 00-4 4v10a4 4 0 004 4h29v2H26a5 5 0 01-5-5v-12a5 5 0 015-5h38a5 5 0 015 5v12a5 5 0 01-5 5z"/><path id="Text-3" data-name="Text" class="cls-3" d="M27 4732h2v12h-2z"/><path id="Cursor-2" data-name="Cursor" class="cls-1" d="M64 4740h-4v16h4a1 1 0 010 2H54a1 1 0 010-2h4v-16h-4a1 1 0 010-2h10a1 1 0 010 2z"/><path id="Captcha-2" data-name="Captcha" class="cls-1" d="M26 4701h38a5 5 0 015 5v12a5 5 0 01-5 5H26a5 5 0 01-5-5v-12a5 5 0 015-5zm1 2h36a4 4 0 014 4v10a4 4 0 01-4 4H27a4 4 0 01-4-4v-10a4 4 0 014-4z"/><rect id="Background-2" data-name="Background" class="cls-6" x="23" y="4703" width="44" height="18" rx="4" ry="4"/><path id="ABC" class="cls-1" d="M40.384 4717.09l-3.931-10.04h-.977l-3.951 10.04H32.7l1.23-3.18h4.006l1.244 3.18h1.2zm-6.043-4.23l1.176-3.09a13.282 13.282 0 00.431-1.45c.159.57.314 1.06.465 1.45l1.162 3.09h-3.234zm7.417 4.23h3.486a3.862 3.862 0 002.533-.75 2.576 2.576 0 00.906-2.1c0-1.33-.759-2.13-2.276-2.39v-.07a2.385 2.385 0 001.446-.74 2.2 2.2 0 00.5-1.47 2.1 2.1 0 00-.889-1.88 5.289 5.289 0 00-2.878-.6h-2.828v10zm1.162-8.99h1.709a3.746 3.746 0 011.914.37 1.321 1.321 0 01.6 1.22 1.491 1.491 0 01-.54 1.3 3.1 3.1 0 01-1.77.38H42.92v-3.27zm1.989 4.26a3.276 3.276 0 011.9.44 1.537 1.537 0 01.626 1.36 1.728 1.728 0 01-.612 1.47 2.984 2.984 0 01-1.822.47H42.92v-3.74h1.99zm12.469-3.84l.492-.99a6.1 6.1 0 00-2.748-.58 5.041 5.041 0 00-2.567.63 4.174 4.174 0 00-1.668 1.79 6.037 6.037 0 00-.578 2.71 5.545 5.545 0 001.2 3.81 4.347 4.347 0 003.408 1.34 7.342 7.342 0 002.564-.39v-1.02a8.948 8.948 0 01-2.386.37 3.247 3.247 0 01-2.622-1.07 4.5 4.5 0 01-.919-3.03 4.414 4.414 0 01.954-3 3.274 3.274 0 012.6-1.1 5.373 5.373 0 012.27.53z"/></g><g id="Wysiwyg"><path id="Icon-7" data-name="Icon" class="cls-1" d="M26 4611h38a5 5 0 015 5v38a5 5 0 01-5 5H26a5 5 0 01-5-5v-38a5 5 0 015-5zm1 12h36a4 4 0 014 4v26a4 4 0 01-4 4H27a4 4 0 01-4-4v-26a4 4 0 014-4zm-2-10h4a2 2 0 012 2v4a2 2 0 01-2 2h-4a2 2 0 01-2-2v-4a2 2 0 012-2zm10 0h4a2 2 0 012 2v4a2 2 0 01-2 2h-4a2 2 0 01-2-2v-4a2 2 0 012-2zm10 0h4a2 2 0 012 2v4a2 2 0 01-2 2h-4a2 2 0 01-2-2v-4a2 2 0 012-2z"/><path id="Bold" class="cls-4" d="M29 4619l-1 1h-3v-6h3l1 1v1l-1 1 1 1v1zm-1-1l-2-1 2-1v-1h-2v4h2v-1z"/><path id="Italic" class="cls-4" d="M36 4620l1-6h1l-1 6h-1zm-1-1h3v1h-3v-1zm1-5h3v1h-3v-1z"/><path id="Underline" class="cls-4" d="M45 4614v5l1 1h2l1-1v-5h-1v4l-1 1-1-1v-4h-1z"/><path id="Text-4" data-name="Text" class="cls-3" d="M27 4626h2v12h-2z"/><rect id="Scroll" class="cls-6" x="60" y="4623" width="7" height="34" rx="4" ry="4"/><path id="Arrow_Up" data-name="Arrow Up" class="cls-1" d="M62 4628l1.5-2 1.5 2h-.75l-.75-1-.75 1H62z"/><path id="Arrow_Down" data-name="Arrow Down" class="cls-1" d="M62 4652l1.5 2 1.5-2h-.75l-.75 1-.75-1H62z"/></g><g id="Textarea"><path id="Icon-8" data-name="Icon" class="cls-1" d="M26 4521h38a5 5 0 015 5v38a5 5 0 01-5 5H26a5 5 0 01-5-5v-38a5 5 0 015-5zm1 2h36a4 4 0 014 4v36a4 4 0 01-4 4H27a4 4 0 01-4-4v-36a4 4 0 014-4z"/><path id="Text-5" data-name="Text" class="cls-3" d="M27 4526h2v12h-2z"/><rect id="Scroll-2" data-name="Scroll" class="cls-6" x="60" y="4523" width="7" height="44" rx="4" ry="4"/><path id="Arrow_Up-2" data-name="Arrow Up" class="cls-1" d="M62 4528l1.5-2 1.5 2h-.75l-.75-1-.75 1H62z"/><path id="Arrow_Down-2" data-name="Arrow Down" class="cls-1" d="M62 4562l1.5 2 1.5-2h-.75l-.75 1-.75-1H62z"/></g><g id="Multi_Checkbox" data-name="Multi Checkbox"><path id="Icon-9" data-name="Icon" class="cls-1" d="M39 4457h12a5 5 0 015 5v12a5 5 0 01-5 5H39a5 5 0 01-5-5v-12a5 5 0 015-5zm1 2h10a4 4 0 014 4v10a4 4 0 01-4 4H40a4 4 0 01-4-4v-10a4 4 0 014-4z"/><path id="Icon_Check" data-name="Icon Check" class="cls-1" d="M52.28 4433.72A3.983 3.983 0 0050 4433H40a4 4 0 00-4 4v10a4 4 0 004 4h10a4 4 0 004-4v-4.6l2-1.6v7.2a5 5 0 01-5 5H39a5 5 0 01-5-5v-12a5 5 0 015-5h12a5 5 0 012.988 1.01z"/><path id="Check" class="cls-1" d="M37 4440l8 7 16-13-3-3-13 11-4-4z"/></g><g id="Radiobutton"><path id="Icon-10" data-name="Icon" class="cls-1" d="M32 4376a11 11 0 1111-11 11 11 0 01-11 11zm0-20a9 9 0 109 9 9 9 0 00-9-9z"/><path id="Icon_Check-2" data-name="Icon Check" class="cls-1" d="M59 4376a11 11 0 1111-11 11 11 0 01-11 11zm0-20a9 9 0 109 9 9 9 0 00-9-9zm0 13a4 4 0 114-4 4 4 0 01-4 4z"/></g><g id="Checkbox"><path id="Icon-11" data-name="Icon" class="cls-1" d="M52.28 4266.72A3.983 3.983 0 0050 4266H40a4 4 0 00-4 4v10a4 4 0 004 4h10a4 4 0 004-4v-4.6l2-1.6v7.2a5 5 0 01-5 5H39a5 5 0 01-5-5v-12a5 5 0 015-5h12a5 5 0 012.988 1.01z"/><path id="Check-2" data-name="Check" class="cls-1" d="M37 4273l8 7 16-13-3-3-13 11-4-4z"/></g><g id="Select"><path id="Icon-12" data-name="Icon" class="cls-1" d="M26 4174h38a5 5 0 015 5v12a5 5 0 01-5 5H26a5 5 0 01-5-5v-12a5 5 0 015-5zm1 2h36a4 4 0 014 4v10a4 4 0 01-4 4H27a4 4 0 01-4-4v-10a4 4 0 014-4z"/><rect id="Button-2" data-name="Button" class="cls-6" x="49" y="4176" width="18" height="18" rx="4" ry="4"/><path id="Arrow-2" data-name="Arrow" class="cls-1" d="M54 4183l4 4 4-4h2l-6 6-6-6h2z"/></g><g id="Hidden"><path id="Icon-13" data-name="Icon" class="cls-1" d="M65 4105.9v-2.45a4 4 0 002-3.45v-10a4 4 0 00-4-4H27a4 4 0 00-4 4v10a4 4 0 004 4h4v2h-5a5 5 0 01-5-5v-12a5 5 0 015-5h38a5 5 0 015 5v12a5 5 0 01-4 4.9z"/><path id="Text-6" data-name="Text" class="cls-3" d="M27 4089h2v12h-2z"/><path id="Eye" class="cls-1" d="M58.385 4113.83L38.769 4094l-1.154 1.17L57.231 4115zM48 4101l3.462 3.5A3.483 3.483 0 0048 4101zm0-1.17a4.642 4.642 0 014.615 4.67 4.776 4.776 0 01-.118 1.05l4.635 4.68A16.876 16.876 0 0063 4104.5a17.381 17.381 0 00-15-8.17 18.6 18.6 0 00-4.164.46l3.129 3.16a5.031 5.031 0 011.035-.12zm0 8.17h.07l-3.53-3.57v.07A3.483 3.483 0 0048 4108zm0 1.17a4.642 4.642 0 01-4.615-4.67 4.794 4.794 0 01.132-1.11l-4.6-4.65A16.949 16.949 0 0033 4104.5a17.381 17.381 0 0015 8.17 19.061 19.061 0 004.223-.47l-3.129-3.17a4.4 4.4 0 01-1.094.14z"/></g><g id="Input_Password" data-name="Input Password"><path id="Icon-14" data-name="Icon" class="cls-1" d="M64 4016h-2v-2h1a4 4 0 004-4v-10a4 4 0 00-4-4H27a4 4 0 00-4 4v10a4 4 0 004 4h29v2H26a5 5 0 01-5-5v-12a5 5 0 015-5h38a5 5 0 015 5v12a5 5 0 01-5 5z"/><path id="Text-7" data-name="Text" class="cls-1" d="M30 4002l.989 1.89 2.011.4-1.4 1.57.254 2.14-1.854-.91-1.854.91.254-2.14-1.4-1.57 2.011-.4L30 4002m8 0l.989 1.89 2.011.4-1.4 1.57.254 2.14-1.854-.91-1.854.91.254-2.14-1.4-1.57 2.011-.4L38 4002m8 0l.989 1.89 2.011.4-1.4 1.57.254 2.14-1.854-.91-1.854.91.254-2.14-1.4-1.57 2.011-.4L46 4002"/><path id="Cursor-3" data-name="Cursor" class="cls-1" d="M64 4007h-4v16h4a1 1 0 010 2H54a1 1 0 010-2h4v-16h-4a1 1 0 010-2h10a1 1 0 010 2z"/></g><g id="Input-3" data-name="Input"><path id="Icon-15" data-name="Icon" class="cls-1" d="M64 3926h-2v-2h1a4 4 0 004-4v-10a4 4 0 00-4-4H27a4 4 0 00-4 4v10a4 4 0 004 4h29v2H26a5 5 0 01-5-5v-12a5 5 0 015-5h38a5 5 0 015 5v12a5 5 0 01-5 5z"/><path id="Text-8" data-name="Text" class="cls-3" d="M27 3909h2v12h-2z"/><path id="Cursor-4" data-name="Cursor" class="cls-1" d="M64 3917h-4v16h4a1 1 0 010 2H54a1 1 0 010-2h4v-16h-4a1 1 0 010-2h10a1 1 0 010 2z"/></g><g id="Button-3" data-name="Button"><path id="Icon-16" data-name="Icon" class="cls-1" d="M66.364 3835.41L52 3822h-1v14H26a5 5 0 01-5-5v-12a5 5 0 015-5h38a5 5 0 015 5v12a5.008 5.008 0 01-2.636 4.41z"/><path id="Cursor-5" data-name="Cursor" class="cls-1" d="M53 3825v21.28l4.617-4.3L61.6 3849l4.856-2.49-3.582-6.34H69z"/></g><g id="Breadcrumbs"><path id="Icon-17" data-name="Icon" class="cls-1" d="M68.811 3732.9l-2.836 2.83-18.889-18.91a3 3 0 00-4.243 0l-18.988 18.97-2.862-2.87 20.407-20.39a5 5 0 017.071.01l6.53 6.53V3712a1 1 0 011-1h6a1 1 0 011 1v15.08zm-21.689-12.51L63 3736.27V3756a3 3 0 01-3 3H30a3 3 0 01-3-3v-19.73l15.879-15.88a3 3 0 014.243 0zM39 3759h12v-18H39v18z"/></g><g id="RSS"><path id="Icon-18" data-name="Icon" class="cls-1" d="M52.729 3669H43.78A22.781 22.781 0 0021 3646.22v-8.95A31.732 31.732 0 0152.729 3669zM21 3662.49a6.508 6.508 0 116.509 6.51 6.513 6.513 0 01-6.509-6.51zm48 6.51h-8.949A39.048 39.048 0 0021 3629.95V3621a48 48 0 0148 48z"/></g><g id="D3"><path id="icon-19" data-name="icon" class="cls-1" d="M21 3532.01a43.916 43.916 0 018.6.46 22.926 22.926 0 0117.6 17.65 24.267 24.267 0 01-.056 10.27 23.858 23.858 0 01-2.5 6.19 23.226 23.226 0 01-16.106 11.09A48.834 48.834 0 0121 3578v-10a43.322 43.322 0 006.071-.29 12.981 12.981 0 0010.681-12.2c.072-4.58-1.508-7.02-2.417-8.12-3.752-4.53-6.517-5.73-14.335-5.39v-9.99zM51 3550c3.853.06 6.618.47 7.721-2.72a4.033 4.033 0 000-2.72c-1.769-3.44-3.758-2.18-10.4-2.44a24.126 24.126 0 00-6.971-8.35c-.824-.57-1.649-1.13-2.473-1.7v-.06H51.02c2.778 0 5.721-.13 7.87.51 6.517 1.95 12.288 9.15 9.149 18.56a15.108 15.108 0 01-2.291 3.86c.075.08.15.15.225.23l1.124 1.65a15.375 15.375 0 011.574 4.08 14.166 14.166 0 01-9.95 16.49c-2.037.61-4.86.57-7.477.58-4.085.01-8.16.03-12.245.03.038-.06.064-.24.1-.3 2.4-1.13 6.265-5.24 7.758-7.38l1.574-2.55c6.451-.24 8.453 1.01 10.288-2.44a3.838 3.838 0 000-2.73c-1.219-3.12-3.536-2.6-7.721-2.6a27.147 27.147 0 00.617-4.82A36.842 36.842 0 0051 3550z"/></g><g id="Language_Swicther" data-name="Language Swicther"><path id="Icon-20" data-name="Icon" class="cls-1" d="M68.767 3468.17c-.063.47-.125.95-.215 1.41-.068.35-.156.69-.239 1.03-.091.38-.181.76-.289 1.13s-.24.76-.371 1.13c-.108.31-.217.62-.337.92q-.241.615-.515 1.2c-.114.25-.233.5-.355.74-.214.43-.436.85-.674 1.26-.108.18-.223.37-.336.55-.273.44-.553.88-.854 1.31-.083.11-.172.22-.256.34-.346.47-.7.93-1.08 1.38-.417.49-.841.97-1.3 1.42a24.118 24.118 0 01-7.621 5.13c-.065.03-.134.04-.2.07-.655.27-1.32.52-2 .73-.179.06-.367.09-.547.14-.577.17-1.155.33-1.75.45-.357.08-.727.11-1.09.17-.43.07-.854.15-1.291.2q-1.205.12-2.447.12t-2.452-.12c-.437-.05-.861-.13-1.291-.2-.363-.06-.732-.09-1.09-.17-.594-.12-1.172-.28-1.75-.45-.18-.05-.368-.08-.547-.14-.682-.21-1.348-.46-2-.73-.065-.03-.134-.04-.2-.07a24.118 24.118 0 01-7.621-5.13c-.454-.45-.879-.93-1.3-1.42-.379-.45-.733-.91-1.08-1.38-.085-.12-.174-.23-.256-.34-.3-.43-.58-.87-.854-1.31-.113-.18-.228-.37-.336-.55-.238-.41-.46-.83-.674-1.26-.122-.24-.241-.49-.355-.74q-.273-.585-.515-1.2c-.12-.3-.23-.61-.337-.92-.131-.37-.259-.75-.371-1.13s-.2-.75-.289-1.13c-.083-.34-.171-.68-.239-1.03-.09-.46-.152-.94-.215-1.41-.037-.28-.088-.56-.116-.84-.074-.77-.118-1.54-.118-2.33s.044-1.56.118-2.33c.027-.28.078-.56.116-.84.063-.47.125-.95.215-1.41.068-.35.156-.69.239-1.03.091-.38.181-.76.289-1.13s.24-.76.371-1.13c.107-.31.217-.62.337-.92q.241-.615.515-1.2c.114-.25.233-.5.355-.74.214-.43.436-.85.674-1.26.108-.18.223-.36.336-.55.274-.44.553-.88.854-1.31.083-.11.172-.22.256-.34.346-.47.7-.93 1.08-1.38.417-.49.841-.97 1.3-1.42a24.118 24.118 0 017.621-5.13c.065-.03.134-.04.2-.07.655-.27 1.32-.52 2-.73.179-.06.367-.09.547-.14a20.58 20.58 0 011.75-.45c.357-.08.727-.11 1.09-.17.43-.07.854-.15 1.291-.2q1.21-.12 2.452-.12t2.452.12c.437.05.861.13 1.291.2.363.06.732.09 1.09.17.594.12 1.172.28 1.75.45.18.05.368.08.547.14.682.21 1.348.46 2 .73.065.03.134.04.2.07a24.118 24.118 0 017.621 5.13c.454.45.879.93 1.3 1.42.379.45.733.91 1.08 1.38.085.12.174.23.256.34.3.43.581.87.854 1.31.113.19.228.37.336.55.238.41.46.83.674 1.26.122.24.241.49.355.74q.273.585.515 1.2c.12.3.23.61.337.92.131.37.259.75.371 1.13s.2.75.289 1.13c.083.34.171.68.239 1.03.09.46.152.94.215 1.41.037.28.088.56.116.84.074.77.118 1.54.118 2.33s-.044 1.56-.118 2.33c-.033.28-.088.56-.121.84zM38.8 3486.1a20.514 20.514 0 01-4.2-6.79 28.051 28.051 0 00-4.666 1.69 21.974 21.974 0 008.866 5.1zm-10.258-6.54a28.773 28.773 0 015.371-2.08 39.674 39.674 0 01-1.894-11.48h-8.977a21.905 21.905 0 005.5 13.56zm-5.5-15.56h8.977a39.732 39.732 0 011.893-11.48 28.773 28.773 0 01-5.37-2.08 21.905 21.905 0 00-5.5 13.56zm6.889-15a28.051 28.051 0 004.666 1.69 20.514 20.514 0 014.2-6.79 21.974 21.974 0 00-8.866 5.1zM44 3443.1c-3.036.55-5.712 3.57-7.528 8.04a41.328 41.328 0 007.528.83v-8.87zm0 10.87a41.61 41.61 0 01-8.2-.96 38.584 38.584 0 00-1.77 10.99H44v-10.03zm0 12.03h-9.975a38.584 38.584 0 001.77 10.99 41.61 41.61 0 018.2-.96V3466zm0 12.03a41.328 41.328 0 00-7.528.83c1.816 4.47 4.492 7.49 7.528 8.04v-8.87zM66.958 3466h-8.977a39.674 39.674 0 01-1.893 11.48 28.773 28.773 0 015.371 2.08 21.905 21.905 0 005.499-13.56zm-6.889 15a28.051 28.051 0 00-4.666-1.69 20.514 20.514 0 01-4.2 6.79 21.974 21.974 0 008.866-5.1zM46 3486.9c3.036-.55 5.712-3.57 7.528-8.04a41.328 41.328 0 00-7.528-.83v8.87zm0-10.87a41.61 41.61 0 018.2.96 38.584 38.584 0 001.77-10.99H46v10.03zm0-12.03h9.975a38.584 38.584 0 00-1.77-10.99 41.61 41.61 0 01-8.2.96V3464zm0-12.03a41.328 41.328 0 007.528-.83c-1.816-4.47-4.492-7.49-7.528-8.04v8.87zm5.2-8.07a20.514 20.514 0 014.2 6.79 28.051 28.051 0 004.666-1.69 21.974 21.974 0 00-8.866-5.1zm10.258 6.54a28.773 28.773 0 01-5.37 2.08 39.732 39.732 0 011.893 11.48h8.977a21.905 21.905 0 00-5.499-13.56z"/></g><g id="Flickr"><path id="Icon-21" data-name="Icon" class="cls-1" d="M33 3363a12 12 0 11-12 12 12 12 0 0112-12zm24 0a12 12 0 11-12 12 12 12 0 0112-12zm0 3a9 9 0 11-9 9 9 9 0 019-9z"/></g><g id="Events_Widget" data-name="Events Widget"><path id="Border-3" data-name="Border" class="cls-1" d="M63.818 3309H61v-2h2a4 4 0 004-4v-2h2v2.86a5.16 5.16 0 01-5.182 5.14zM67 3295h2v4h-2v-4zm0-6h2v4h-2v-4zm0-6h2v4h-2v-4zm0-6h2v4h-2v-4zm0-6h2v4h-2v-4zm0-4a4 4 0 00-4-4h-2v-2h2.818a5.16 5.16 0 015.182 5.14v2.86h-2v-2zm-8-6v2h-4v-2h4zm0 48h-4v-2h4v2zm-6-46h-4v-2h4v2zm0 46h-4v-2h4v2zm-6-46h-4v-2h4v2zm-10 44h4v2h-4v-2zm0-46h4v2h-4v-2zm-6 46h4v2h-4v-2zm0-46h4v2h-4v-2zm-10 42.86V3301h2v2a4 4 0 004 4h2v2h-2.818a5.16 5.16 0 01-5.182-5.14zm2-36.86v2h-2v-2.86a5.16 5.16 0 015.182-5.14H29v2h-2a4 4 0 00-4 4zm-2 4h2v4h-2v-4zm2 10h-2v-4h2v4zm0 6h-2v-4h2v4zm0 6h-2v-4h2v4zm-2 2h2v4h-2v-4zm26 14h-4v-2h4v2z"/><g id="Clock-2" data-name="Clock"><path id="Lines-2" data-name="Lines" class="cls-4" d="M44.25 3296.25h1.5v3h-1.5v-3zm0-25.5h1.5v3h-1.5v-3zm-13.5 13.5h3v1.5h-3v-1.5zm25.5 0h3v1.5h-3v-1.5zm-19.731 8.18l1.061 1.06-2.12 2.12-1.061-1.06zm18.021-18.04l1.061 1.06-2.12 2.12-1.061-1.06zm-19.1.01l2.122 2.12-1.061 1.07-2.122-2.12zm18.06 18.01l2.122 2.12-1.061 1.07-2.122-2.12z"/><path id="Border-4" data-name="Border" class="cls-1" d="M45 3303a18 18 0 1118-18 18 18 0 01-18 18zm0-33a15 15 0 1015 15 15 15 0 00-15-15zm2.889 14.23a2.989 2.989 0 01-5.705 1.77H33a1 1 0 010-2h9.184a3 3 0 012.816-2 3.233 3.233 0 01.768.11l4.35-4.35a1.5 1.5 0 112.123 2.12z"/></g></g><g id="Events_Calendar" data-name="Events Calendar"><g id="Calendar"><path id="Border-5" data-name="Border" class="cls-1" d="M67 3185a4 4 0 00-4-4H27a4 4 0 00-4 4v28a4 4 0 004 4h20.211a14.021 14.021 0 002.6 2H26a5 5 0 01-5-5v-38a5 5 0 015-5h2v6a2 2 0 004 0v-6h6v6a2 2 0 004 0v-6h6v6a2 2 0 004 0v-6h6v6a2 2 0 004 0v-6h2a5 5 0 015 5v23.82a13.818 13.818 0 00-2-2.61V3185zm-7-7a1 1 0 01-1-1v-7a1 1 0 012 0v7a1 1 0 01-1 1zm-10 0a1 1 0 01-1-1v-7a1 1 0 012 0v7a1 1 0 01-1 1zm-10 0a1 1 0 01-1-1v-7a1 1 0 012 0v7a1 1 0 01-1 1zm-10 0a1 1 0 01-1-1v-7a1 1 0 012 0v7a1 1 0 01-1 1z"/><path id="Days" class="cls-1" d="M64 3193h-2a1 1 0 01-1-1v-1a1 1 0 011-1h2a1 1 0 011 1v1a1 1 0 01-1 1zm0-5h-2a1 1 0 01-1-1v-1a1 1 0 011-1h2a1 1 0 011 1v1a1 1 0 01-1 1zm-6 5h-2a1 1 0 01-1-1v-1a1 1 0 011-1h2a1 1 0 011 1v1a1 1 0 01-1 1zm-6 0h-2a1 1 0 01-1-1v-1a1 1 0 011-1h2a1 1 0 011 1v1a1 1 0 01-1 1zm-5.653 4.93a1 1 0 01-.347.07h-2a1 1 0 01-1-1v-1a1 1 0 011-1h2a1 1 0 011 1v1a.946.946 0 01-.055.27q-.309.315-.598.66zM46 3193h-2a1 1 0 01-1-1v-1a1 1 0 011-1h2a1 1 0 011 1v1a1 1 0 01-1 1zm-6 15h-2a1 1 0 01-1-1v-1a1 1 0 011-1h2a1 1 0 011 1v1a1 1 0 01-1 1zm0-5h-2a1 1 0 01-1-1v-1a1 1 0 011-1h2a1 1 0 011 1v1a1 1 0 01-1 1zm0-5h-2a1 1 0 01-1-1v-1a1 1 0 011-1h2a1 1 0 011 1v1a1 1 0 01-1 1zm0-5h-2a1 1 0 01-1-1v-1a1 1 0 011-1h2a1 1 0 011 1v1a1 1 0 01-1 1zm-6 20h-2a1 1 0 01-1-1v-1a1 1 0 011-1h2a1 1 0 011 1v1a1 1 0 01-1 1zm0-5h-2a1 1 0 01-1-1v-1a1 1 0 011-1h2a1 1 0 011 1v1a1 1 0 01-1 1zm0-5h-2a1 1 0 01-1-1v-1a1 1 0 011-1h2a1 1 0 011 1v1a1 1 0 01-1 1zm0-5h-2a1 1 0 01-1-1v-1a1 1 0 011-1h2a1 1 0 011 1v1a1 1 0 01-1 1zm0-5h-2a1 1 0 01-1-1v-1a1 1 0 011-1h2a1 1 0 011 1v1a1 1 0 01-1 1zm-6 20h-2a1 1 0 01-1-1v-1a1 1 0 011-1h2a1 1 0 011 1v1a1 1 0 01-1 1zm0-5h-2a1 1 0 01-1-1v-1a1 1 0 011-1h2a1 1 0 011 1v1a1 1 0 01-1 1zm0-5h-2a1 1 0 01-1-1v-1a1 1 0 011-1h2a1 1 0 011 1v1a1 1 0 01-1 1zm0-5h-2a1 1 0 01-1-1v-1a1 1 0 011-1h2a1 1 0 011 1v1a1 1 0 01-1 1zm0-5h-2a1 1 0 01-1-1v-1a1 1 0 011-1h2a1 1 0 011 1v1a1 1 0 01-1 1zm16 7h.888a13.8 13.8 0 00-1.28 2.92A1 1 0 0143 3202v-1a1 1 0 011-1zm-1 7v-1a.931.931 0 01.067-.33c-.041.44-.067.88-.067 1.33zm21.736-11.66c-.15-.1-.307-.19-.461-.28a.928.928 0 01.461.28zm-15.011-.28c-.154.09-.311.18-.461.28a.927.927 0 01.461-.28z"/><path id="Offdays" class="cls-4" d="M58 3188h-2a1 1 0 01-1-1v-1a1 1 0 011-1h2a1 1 0 011 1v1a1 1 0 01-1 1zm-6 0h-2a1 1 0 01-1-1v-1a1 1 0 011-1h2a1 1 0 011 1v1a1 1 0 01-1 1zm-6 0h-2a1 1 0 01-1-1v-1a1 1 0 011-1h2a1 1 0 011 1v1a1 1 0 01-1 1zm-6 25h-2a1 1 0 01-1-1v-1a1 1 0 011-1h2a1 1 0 011 1v1a1 1 0 01-1 1zm0-25h-2a1 1 0 01-1-1v-1a1 1 0 011-1h2a1 1 0 011 1v1a1 1 0 01-1 1zm-6 0h-2a1 1 0 01-1-1v-1a1 1 0 011-1h2a1 1 0 011 1v1a1 1 0 01-1 1zm-6 0h-2a1 1 0 01-1-1v-1a1 1 0 011-1h2a1 1 0 011 1v1a1 1 0 01-1 1zm15.389 22.23a13.839 13.839 0 00.976 2.77H44a1 1 0 01-1-1v-1a.971.971 0 01.389-.77z"/></g><g id="Clock-3" data-name="Clock"><path id="Lines-3" data-name="Lines" class="cls-4" d="M56.5 3214.5h1v2h-1v-2zm0-17h1v2h-1v-2zm-9 9h2v1h-2v-1zm17 0h2v1h-2v-1zm-13.154 5.45l.708.71-1.413 1.41-.707-.7zm12.014-12.02l.707.7-1.413 1.42-.708-.71zm-12.731.01l1.415 1.41-.708.71-1.415-1.42zm12.034 12l1.415 1.42-.708.7-1.415-1.41z"/><path id="Border-6" data-name="Border" class="cls-1" d="M57 3219a12 12 0 1112-12 12 12 0 01-12 12zm0-22a10 10 0 1010 10 10 10 0 00-10-10zm1.926 9.49a1.936 1.936 0 01.074.51 2 2 0 01-2 2 1.982 1.982 0 01-1.723-1H49.5a1 1 0 010-2h5.777a1.982 1.982 0 011.723-1 2.154 2.154 0 01.512.07l2.9-2.9a1 1 0 011.415 1.41z"/></g></g><g id="Events"><g id="Clock-4" data-name="Clock"><path id="Lines-4" data-name="Lines" class="cls-4" d="M44 3120h2v4h-2v-4zm0-34h2v4h-2v-4zm-18 18h4v2h-4v-2zm34 0h4v2h-4v-2zm-26.308 10.91l1.415 1.41-2.827 2.83-1.415-1.41zm24.029-24.06l1.415 1.41-2.827 2.83-1.415-1.41zm-25.461.02l2.829 2.83-1.415 1.41-2.829-2.82zm24.068 24.02l2.829 2.82-1.415 1.42-2.829-2.83z"/><path id="Border-7" data-name="Border" class="cls-1" d="M45 3129a24 24 0 1124-24 24 24 0 01-24 24zm0-44a20 20 0 1020 20 20 20 0 00-20-20zm3.852 18.98A3.937 3.937 0 0149 3105a3.988 3.988 0 01-7.445 2H30a2 2 0 010-4h11.555a3.984 3.984 0 013.445-2 3.858 3.858 0 011.025.15l5.8-5.81a2 2 0 012.83 2.83z"/></g><path id="Fire" class="cls-1" d="M80 3091c-2.651.53-7.024.72-7 4 .027 3.8 5.167 2.25 6 2 1.789-.54 3.623-2.44 4.967-4.12A21.916 21.916 0 0183 3096c-2.169 5.41-8.311 12.8-13.963 18.9A25.99 25.99 0 0045 3079c-.474 0-.936.05-1.4.07A64.531 64.531 0 0153 3076a46.3 46.3 0 019.5-.29A5.127 5.127 0 0060 3078c-.876 2.73 1.459 3.45 4 2 2.3-1.31 2.491-2.86 2.141-4.06A23.507 23.507 0 0071 3076c7.138-1.24 12-9 12-9l.04.18c-.23 3.28-1.03 8.38-3.04 11.82-2.833 4.84-9 7-9 7s7.106 2.68 13-6a4.363 4.363 0 00.633-1.7c.146 1.83.24 3.77.233 5.72-.313 2.44-1.366 6.28-4.866 6.98z"/></g><g id="WebEX"><path id="Border-8" data-name="Border" class="cls-1" d="M47.1 3038.91a24 24 0 1121.806-26.01 24 24 0 01-21.806 26.01zm5.837-43.35a21 21 0 1011.5 27.38 20.992 20.992 0 00-11.498-27.38z"/><path id="Icon-22" data-name="Icon" class="cls-1" d="M47.1 3038.91a24 24 0 1121.806-26.01 24 24 0 01-21.806 26.01zm5.42-44.97c-5.742-3.31-20.164-3.06-27.448 9.57-7.3 12.66-.268 25.24 5.473 28.55s15.315-2.54 21.384-13.06 6.335-21.75.593-25.06z"/></g><g id="File_Grid_List_Widget" data-name="File Grid List Widget"><path id="Border-9" data-name="Border" class="cls-1" d="M63.818 2949H61v-2h2a4 4 0 004-4v-2h2v2.86a5.16 5.16 0 01-5.182 5.14zM67 2935h2v4h-2v-4zm0-6h2v4h-2v-4zm0-6h2v4h-2v-4zm0-6h2v4h-2v-4zm0-6h2v4h-2v-4zm0-4a4 4 0 00-4-4h-2v-2h2.818a5.16 5.16 0 015.182 5.14v2.86h-2v-2zm-8-6v2h-4v-2h4zm0 48h-4v-2h4v2zm-6-46h-4v-2h4v2zm0 46h-4v-2h4v2zm-6-46h-4v-2h4v2zm-10 44h4v2h-4v-2zm0-46h4v2h-4v-2zm-6 46h4v2h-4v-2zm0-46h4v2h-4v-2zm-10 42.86V2941h2v2a4 4 0 004 4h2v2h-2.818a5.16 5.16 0 01-5.182-5.14zm2-36.86v2h-2v-2.86a5.16 5.16 0 015.182-5.14H29v2h-2a4 4 0 00-4 4zm-2 4h2v4h-2v-4zm2 10h-2v-4h2v4zm0 6h-2v-4h2v4zm0 6h-2v-4h2v4zm-2 2h2v4h-2v-4zm26 14h-4v-2h4v2z"/><path id="Icon-23" data-name="Icon" class="cls-1" d="M51 2941l10-10v10H51zm-16.818 0a5.16 5.16 0 01-5.182-5.14v-21.72a5.16 5.16 0 015.182-5.14h21.636a5.16 5.16 0 015.182 5.14V2927l-14 14H34.182zM59 2914a3 3 0 00-3-3H34a3 3 0 00-3 3v22a3 3 0 003 3h11l14-14v-11z"/></g><g id="File_Grid_List" data-name="File Grid List"><path id="Icon-24" data-name="Icon" class="cls-1" d="M54 2859l10-10v10H54zm-22.818 0a5.16 5.16 0 01-5.182-5.14v-37.72a5.16 5.16 0 015.182-5.14h27.636a5.16 5.16 0 015.182 5.14V2845l-14 14H31.182zM62 2816a3 3 0 00-3-3H31a3 3 0 00-3 3v38a3 3 0 003 3h17l14-14v-27z"/></g><g id="Member_Directory_Widget" data-name="Member Directory Widget"><path id="Border-10" data-name="Border" class="cls-1" d="M63.818 2769H61v-2h2a4 4 0 004-4v-2h2v2.86a5.16 5.16 0 01-5.182 5.14zM67 2755h2v4h-2v-4zm0-6h2v4h-2v-4zm0-6h2v4h-2v-4zm0-6h2v4h-2v-4zm0-6h2v4h-2v-4zm0-4a4 4 0 00-4-4h-2v-2h2.818a5.16 5.16 0 015.182 5.14v2.86h-2v-2zm-8-6v2h-4v-2h4zm0 48h-4v-2h4v2zm-6-46h-4v-2h4v2zm0 46h-4v-2h4v2zm-6-46h-4v-2h4v2zm-10 44h4v2h-4v-2zm0-46h4v2h-4v-2zm-6 46h4v2h-4v-2zm0-46h4v2h-4v-2zm-10 42.86V2761h2v2a4 4 0 004 4h2v2h-2.818a5.16 5.16 0 01-5.182-5.14zm2-36.86v2h-2v-2.86a5.16 5.16 0 015.182-5.14H29v2h-2a4 4 0 00-4 4zm-2 4h2v4h-2v-4zm2 10h-2v-4h2v4zm0 6h-2v-4h2v4zm0 6h-2v-4h2v4zm-2 2h2v4h-2v-4zm26 14h-4v-2h4v2z"/><path id="Icon-25" data-name="Icon" class="cls-1" d="M60 2763H30s-.222-14.72 2.25-18c2.085-2.77 3.741-3.02 5.25-3 1.539.02 2.072 1.47 3.75 2.25a9.75 9.75 0 007.5 0c1.678-.78 2.211-2.23 3.75-2.25 1.509-.02 3.165.23 5.25 3 2.472 3.28 2.25 18 2.25 18zm-15-20.25a7.884 7.884 0 117.5-7.87 7.7 7.7 0 01-7.5 7.87z"/></g><g id="Member_Directory" data-name="Member Directory"><path id="Icon-26" data-name="Icon" class="cls-1" d="M65 2679H25s-.3-19.62 3-24c2.78-3.69 4.988-4.03 7-4 2.052.03 2.762 1.96 5 3a11.72 11.72 0 005 1 11.72 11.72 0 005-1c2.238-1.04 2.948-2.97 5-3 2.012-.03 4.22.31 7 4 3.3 4.38 3 24 3 24zm-20-27a10.513 10.513 0 010-21 10.512 10.512 0 010 21z"/></g><g id="Registration"><path id="Icon-27" data-name="Icon" class="cls-1" d="M60 2589H30a5 5 0 01-5-5v-20a5 5 0 015-5h30a5 5 0 015 5v20a5 5 0 01-5 5zm-15-23a5 5 0 00-2 9.58v4.42a2 2 0 004 0v-4.42a5 5 0 00-2-9.58zm10.95-9c.03-.33.05-.66.05-1a11 11 0 00-22 0c0 .34.021.67.05 1h-4c-.022-.33-.05-.66-.05-1a15 15 0 0130 0c0 .34-.029.67-.05 1h-4z"/></g><g id="Login"><path id="Icon-28" data-name="Icon" class="cls-1" d="M58.818 2499H31.182a5.16 5.16 0 01-5.182-5.14V2477h-2v-4h2v-16.86a5.16 5.16 0 015.182-5.14h27.636a5.16 5.16 0 015.182 5.14v37.72a5.16 5.16 0 01-5.182 5.14zM62 2456a3 3 0 00-3-3H31a3 3 0 00-3 3v12h-2v5h19l-10-10h7l12 12-12 12h-7l10-10H26v5h2v12a3 3 0 003 3h28a3 3 0 003-3v-38z"/></g><g id="Social"><path id="Twitter" class="cls-1" d="M58 2383a11 11 0 1111-11 11 11 0 01-11 11zm6.613-15.8a5.977 5.977 0 01-1.824.68 2.916 2.916 0 00-2.1-.88 2.824 2.824 0 00-2.872 2.78 2.7 2.7 0 00.074.63 8.265 8.265 0 01-5.92-2.9 2.7 2.7 0 00-.389 1.39 2.762 2.762 0 001.278 2.32 2.986 2.986 0 01-1.3-.35v.03a2.812 2.812 0 002.3 2.73 3.131 3.131 0 01-.757.09 2.418 2.418 0 01-.54-.05 2.854 2.854 0 002.683 1.93 5.857 5.857 0 01-3.567 1.19 5.176 5.176 0 01-.685-.04 8.317 8.317 0 004.4 1.25 7.975 7.975 0 008.172-7.9q0-.18-.008-.36A5.668 5.668 0 0065 2368.3a6.031 6.031 0 01-1.65.44 2.794 2.794 0 001.263-1.54z"/><path id="Google" class="cls-1" d="M45 2409a11 11 0 1111-11 11 11 0 01-11 11zm-.643-18a8.467 8.467 0 00-1.6.17 4.078 4.078 0 00-1.661.84 3.344 3.344 0 00-1.164 2.46 2.711 2.711 0 00.821 1.96 2.88 2.88 0 002.281.93 4.289 4.289 0 00.6-.04c-.035.1-.073.2-.114.32a1 1 0 00-.071.4 1.274 1.274 0 00.185.7 4.162 4.162 0 00.361.56 13.328 13.328 0 00-1.648.16 5.837 5.837 0 00-1.913.68 2.73 2.73 0 00-1.12 1.1 2.567 2.567 0 00-.319 1.14 2.226 2.226 0 00.98 1.8 4.632 4.632 0 002.94.82 5.51 5.51 0 003.6-1.1 3.067 3.067 0 001.2-2.37 2.646 2.646 0 00-.438-1.53 6.559 6.559 0 00-1.04-1.05l-.636-.51a3.629 3.629 0 01-.284-.31.683.683 0 01-.172-.48.862.862 0 01.167-.52 2.505 2.505 0 01.31-.38c.2-.17.38-.33.553-.5a4.859 4.859 0 00.444-.52 2.736 2.736 0 00.444-1.58 3.169 3.169 0 00-.124-.94 3.294 3.294 0 00-.344-.7 3.169 3.169 0 00-.415-.53 2.4 2.4 0 00-.4-.32h1.156l1.158-.66h-3.737zm7.624 5.73v-1.97h-1.154v1.97h-1.971v1.13h1.971v1.93h1.154v-1.93H54v-1.13h-2.019zm-6.845-.39a1.774 1.774 0 01-1.233.52 1.683 1.683 0 01-1.041-.35 2.9 2.9 0 01-.744-.86 4.294 4.294 0 01-.6-2.07 2.239 2.239 0 01.407-1.37 1.65 1.65 0 011.267-.6 1.8 1.8 0 011.019.33 2.454 2.454 0 01.7.86 4.8 4.8 0 01.567 2.2 5.853 5.853 0 01-.041.62 1.972 1.972 0 01-.301.72zm-.625 3.48a11.313 11.313 0 011.54 1.21 1.815 1.815 0 01-.215 2.63 3.252 3.252 0 01-2.023.57 3.9 3.9 0 01-2.327-.65 1.87 1.87 0 01-.9-1.59 1.675 1.675 0 01.206-.85 1.94 1.94 0 01.439-.55 2 2 0 01.528-.33c.173-.08.307-.13.4-.17a10.98 10.98 0 011.19-.26 5.874 5.874 0 01.734-.03 2.681 2.681 0 01.428.02z"/><path id="Facebook" class="cls-1" d="M32 2383a11 11 0 1111-11 11 11 0 01-11 11zm3-17.9c-.251-.03-1.11-.1-2.111-.1a3.25 3.25 0 00-3.517 3.52v1.97H27v2.66h2.371v6.85H32.2v-6.85h2.348l.353-2.66H32.2v-1.71a1.11 1.11 0 011.348-1.29H35v-2.39z"/></g><g id="Twitter-2" data-name="Twitter"><path id="Icon-29" data-name="Icon" class="cls-1" d="M69 2279.62a19.855 19.855 0 01-5.656 1.55 9.883 9.883 0 004.33-5.45 19.643 19.643 0 01-6.253 2.39 9.856 9.856 0 00-16.781 8.98 27.949 27.949 0 01-20.3-10.29 9.861 9.861 0 003.048 13.15 9.888 9.888 0 01-4.461-1.23v.12a9.844 9.844 0 007.9 9.65 9.663 9.663 0 01-2.595.35 9.44 9.44 0 01-1.853-.18 9.863 9.863 0 009.2 6.84 19.762 19.762 0 01-12.23 4.21 20.245 20.245 0 01-2.349-.13 27.906 27.906 0 0015.1 4.42c18.114 0 28.019-15 28.019-28.01 0-.43-.01-.85-.029-1.28a20.087 20.087 0 004.91-5.09z"/></g><g id="Comments"><path id="Icon-30" data-name="Icon" class="cls-1" d="M61 2207c5.006-.09 8.146 5.3 8 8-.167 3.08-3 8-8 8-7.5 0-15.179-7-15-16 .25-12.58 16-20 16-20s-12.958 10.08-13 20c-.036 8.53 6.165.11 12 0zm-25 16c-7.5 0-15.179-7-15-16 .25-12.58 16-20 16-20s-12.958 10.08-13 20c-.036 8.53 6.165.11 12 0 5.006-.09 8.146 5.3 8 8-.167 3.08-3 8-8 8z"/></g><g id="Forum_Widget" data-name="Forum Widget"><path id="Border-11" data-name="Border" class="cls-1" d="M63.818 2139H61v-2h2a4 4 0 004-4v-2h2v2.86a5.16 5.16 0 01-5.182 5.14zM67 2125h2v4h-2v-4zm0-6h2v4h-2v-4zm0-6h2v4h-2v-4zm0-6h2v4h-2v-4zm0-6h2v4h-2v-4zm0-4a4 4 0 00-4-4h-2v-2h2.818a5.16 5.16 0 015.182 5.14v2.86h-2v-2zm-8-6v2h-4v-2h4zm0 48h-4v-2h4v2zm-6-46h-4v-2h4v2zm0 46h-4v-2h4v2zm-6-46h-4v-2h4v2zm-10 44h4v2h-4v-2zm0-46h4v2h-4v-2zm-6 46h4v2h-4v-2zm0-46h4v2h-4v-2zm-10 42.86V2131h2v2a4 4 0 004 4h2v2h-2.818a5.16 5.16 0 01-5.182-5.14zm2-36.86v2h-2v-2.86a5.16 5.16 0 015.182-5.14H29v2h-2a4 4 0 00-4 4zm-2 4h2v4h-2v-4zm2 10h-2v-4h2v4zm0 6h-2v-4h2v4zm0 6h-2v-4h2v4zm-2 2h2v4h-2v-4zm26 14h-4v-2h4v2z"/><path id="Icon-31" data-name="Icon" class="cls-1" d="M60 2121v-2.28a1.977 1.977 0 001-1.72v-12a2 2 0 00-2-2H35a1.982 1.982 0 00-1.723 1H31v1h25a3 3 0 013 3v14a3 3 0 01-3 3h-3v5l-5-5H30a3 3 0 01-3-3v-14a3 3 0 013-3h1v-1a3 3 0 013-3h26a3 3 0 013 3v14a3 3 0 01-3 3z"/></g><g id="Forum"><path id="Icon-32" data-name="Icon" class="cls-1" d="M66 2032h-1v-2a2 2 0 002-2v-20a2 2 0 00-2-2H31a2 2 0 00-2 2h-2v-1a3 3 0 013-3h36a3 3 0 013 3v22a3 3 0 01-3 3zm-3-19v22a3 3 0 01-3 3h-3v8l-7-8H24a3 3 0 01-3-3v-22a3 3 0 013-3h36a3 3 0 013 3z"/></g><g id="Video"><path id="Icon-33" data-name="Icon" class="cls-1" d="M67 1951v-38H29v-2h40v40h-2zm-2-34v38h-2v-38H25v-2h40v2zm-4 42H21v-40h40v40zm-2-38H23v36h36v-36zm-24 26v-16l12 8z"/></g><g id="Slider"><path id="Icon-34" data-name="Icon" class="cls-1" d="M74 1853h-3l7-8-7-8h3l7 8zm-49-28h40v40H25v-40zm2 38h36v-36H27v36zm13.063-20.01l10.554 17.18 4.937-8.03 5.446 8.87H29zm14.945-4a4 4 0 114-4 4 4 0 01-4 4zM16 1853l-7-8 7-8h3l-7 8 7 8h-3z"/></g><g id="Gallery"><path id="Icon-35" data-name="Icon" class="cls-1" d="M67 1771v-38H29v-2h40v40h-2zm-2-34v38h-2v-38H25v-2h40v2zm-4 42H21v-40h40v40zm-2-38H23v36h36v-36zm-12.382 33.17l4.937-8.03 5.445 8.87H25l11.065-18.02zm4.391-21.18a4 4 0 114-4 4 4 0 01-4.001 4z"/></g><g id="Image-3" data-name="Image"><path id="Icon-36" data-name="Icon" class="cls-1" d="M21 1689v-48h48v48H21zm46-46H23v44h44v-44zm-14.978 40.99l6.171-9.82L65 1685.01H25l13.831-22.02zm5.988-27a5 5 0 115-5 5 5 0 01-5 5z"/></g><g id="Blog_Calendar" data-name="Blog Calendar"><path id="Calendar-2" data-name="Calendar" class="cls-1" d="M67 1565.39v-.39a4 4 0 00-4-4H27a4 4 0 00-4 4v28a4 4 0 004 4h36a4 4 0 004-4v-9.67l2-1.33v12a5 5 0 01-5 5H26a5 5 0 01-5-5v-38a5 5 0 015-5h2v6a2 2 0 004 0v-6h6v6a2 2 0 004 0v-6h6v6a2 2 0 004 0v-6h6v6a2 2 0 004 0v-6h2a5 5 0 015 5v8zm-7-7.39a1 1 0 01-1-1v-7a1 1 0 012 0v7a1 1 0 01-1 1zm-10 0a1 1 0 01-1-1v-7a1 1 0 012 0v7a1 1 0 01-1 1zm-10 0a1 1 0 01-1-1v-7a1 1 0 012 0v7a1 1 0 01-1 1zm-10 0a1 1 0 01-1-1v-7a1 1 0 012 0v7a1 1 0 01-1 1z"/><path id="Days-2" data-name="Days" class="cls-1" d="M63.251 1568H62a1 1 0 01-1-1v-1a1 1 0 011-1h2a1 1 0 011 1v.78zm-7.188 5H56a1 1 0 01-1-1v-1a1 1 0 011-1h2a1 1 0 01.992.96zM52 1573h-2a1 1 0 01-1-1v-1a1 1 0 011-1h2a1 1 0 011 1v1a1 1 0 01-1 1zm-6 5h-2a1 1 0 01-1-1v-1a1 1 0 011-1h2a1 1 0 011 1v1a1 1 0 01-1 1zm0-5h-2a1 1 0 01-1-1v-1a1 1 0 011-1h2a1 1 0 011 1v1a1 1 0 01-1 1zm-6 15h-2a1 1 0 01-1-1v-1a1 1 0 011-1h2a1 1 0 011 1v1a1 1 0 01-1 1zm0-5h-2a1 1 0 01-1-1v-1a1 1 0 011-1h2a1 1 0 011 1v1a1 1 0 01-1 1zm0-5h-2a1 1 0 01-1-1v-1a1 1 0 011-1h2a1 1 0 011 1v1a1 1 0 01-1 1zm0-5h-2a1 1 0 01-1-1v-1a1 1 0 011-1h2a1 1 0 011 1v1a1 1 0 01-1 1zm-6 20h-2a1 1 0 01-1-1v-1a1 1 0 011-1h2a1 1 0 011 1v1a1 1 0 01-1 1zm0-5h-2a1 1 0 01-1-1v-1a1 1 0 011-1h2a1 1 0 011 1v1a1 1 0 01-1 1zm0-5h-2a1 1 0 01-1-1v-1a1 1 0 011-1h2a1 1 0 011 1v1a1 1 0 01-1 1zm0-5h-2a1 1 0 01-1-1v-1a1 1 0 011-1h2a1 1 0 011 1v1a1 1 0 01-1 1zm0-5h-2a1 1 0 01-1-1v-1a1 1 0 011-1h2a1 1 0 011 1v1a1 1 0 01-1 1zm-6 20h-2a1 1 0 01-1-1v-1a1 1 0 011-1h2a1 1 0 011 1v1a1 1 0 01-1 1zm0-5h-2a1 1 0 01-1-1v-1a1 1 0 011-1h2a1 1 0 011 1v1a1 1 0 01-1 1zm0-5h-2a1 1 0 01-1-1v-1a1 1 0 011-1h2a1 1 0 011 1v1a1 1 0 01-1 1zm0-5h-2a1 1 0 01-1-1v-1a1 1 0 011-1h2a1 1 0 011 1v1a1 1 0 01-1 1zm0-5h-2a1 1 0 01-1-1v-1a1 1 0 011-1h2a1 1 0 011 1v1a1 1 0 01-1 1zm36.384 12.08a.991.991 0 01.616.92v1a1 1 0 01-1 1h-2a.987.987 0 01-.941-.71zM50 1575h2a1.009 1.009 0 01.726.32l-3.431 2.39A.993.993 0 0149 1577v-1a1 1 0 011-1zm-6 5h2l-2 3a1 1 0 01-1-1v-1a1 1 0 011-1z"/><path id="Offdays-2" data-name="Offdays" class="cls-4" d="M58 1568h-2a1 1 0 01-1-1v-1a1 1 0 011-1h2a1 1 0 011 1v1a1 1 0 01-1 1zm-6 0h-2a1 1 0 01-1-1v-1a1 1 0 011-1h2a1 1 0 011 1v1a1 1 0 01-1 1zm-6 0h-2a1 1 0 01-1-1v-1a1 1 0 011-1h2a1 1 0 011 1v1a1 1 0 01-1 1zm-6 0h-2a1 1 0 01-1-1v-1a1 1 0 011-1h2a1 1 0 011 1v1a1 1 0 01-1 1zm-6 0h-2a1 1 0 01-1-1v-1a1 1 0 011-1h2a1 1 0 011 1v1a1 1 0 01-1 1zm-6 0h-2a1 1 0 01-1-1v-1a1 1 0 011-1h2a1 1 0 011 1v1a1 1 0 01-1 1zm10 22h2a1 1 0 011 1v1a1 1 0 01-1 1h-2a1 1 0 01-1-1v-1a1 1 0 011-1zm14.962 2.19a.984.984 0 01-.962.81h-2a.915.915 0 01-.533-.18zM57 1590h1a1 1 0 011 1v1a1 1 0 01-1 1h-2a1 1 0 01-1-1v-.67zm5 0h2a1 1 0 011 1v1a1 1 0 01-1 1h-2a1 1 0 01-1-1v-1a1 1 0 011-1z"/><path id="Pen" class="cls-1" d="M80.823 1572.44l-1.638 1.15-6.889-9.83 1.638-1.15a3 3 0 014.179.74l3.445 4.91a3 3 0 01-.735 4.18zm-22.107 15.5l-6.889-9.82 18.832-13.21 6.889 9.83zm-4.334 2.52c-.907.36-11.36 2.93-12.223 1.7-.815-1.17 5.2-10.23 5.825-10.94a12.354 12.354 0 012.2-1.96l6.889 9.83a18.024 18.024 0 01-2.691 1.37z"/></g><g id="Blog_Archive" data-name="Blog Archive"><path id="Icon-37" data-name="Icon" class="cls-1" d="M59 1509H31a5 5 0 01-5-5v-31l12-12h7v2h-2v2h2v2h-2v2h2v2h-2v2h2v2h-2v2h2v2h-2v2h2v2h-2v2h2v2h-2v2h2v2h2v-2h-2v-2h2v-2h-2v-2h2v-2h-2v-2h2v-2h-2v-2h2v-2h-2v-2h2v-2h-2v-2h2v-2h-2v-2h2v-2h12a5 5 0 015 5v38a5 5 0 01-5 5zm3-42a4 4 0 00-4-4H48v29h-6v-29h-4v5a5 5 0 01-5 5h-5v30a4 4 0 004 4h26a4 4 0 004-4v-36zm-19 26h4v8h-4v-8zm1 3h2v-2h-2v2z"/></g><g id="Blog_Widget" data-name="Blog Widget"><path id="Border-12" data-name="Border" class="cls-1" d="M63.818 1419H61v-2h2a4 4 0 004-4v-2h2v2.86a5.16 5.16 0 01-5.182 5.14zM67 1405h2v4h-2v-4zm0-6h2v4h-2v-4zm0-6h2v4h-2v-4zm0-6h2v4h-2v-4zm0-6h2v4h-2v-4zm0-4a4 4 0 00-4-4h-2v-2h2.818a5.16 5.16 0 015.182 5.14v2.86h-2v-2zm-8-6v2h-4v-2h4zm0 48h-4v-2h4v2zm-6-46h-4v-2h4v2zm0 46h-4v-2h4v2zm-6-46h-4v-2h4v2zm-10 44h4v2h-4v-2zm0-46h4v2h-4v-2zm-6 46h4v2h-4v-2zm0-46h4v2h-4v-2zm-10 42.86V1411h2v2a4 4 0 004 4h2v2h-2.818a5.16 5.16 0 01-5.182-5.14zm2-36.86v2h-2v-2.86a5.16 5.16 0 015.182-5.14H29v2h-2a4 4 0 00-4 4zm-2 4h2v4h-2v-4zm2 10h-2v-4h2v4zm0 6h-2v-4h2v4zm0 6h-2v-4h2v4zm-2 2h2v4h-2v-4zm26 14h-4v-2h4v2z"/><path id="Menu" class="cls-1" d="M29 1411v-1h32v1H29zm0-3h32v1H29v-1zm0-2h32v1H29v-1zm4-3h28v2H33v-2zm-4-5h32v1H29v-1zm0-2h32v1H29v-1zm0-2h32v1H29v-1zm4-3h28v2H33v-2zm-4-5h32v1H29v-1zm0-2h32v1H29v-1zm0-2h32v1H29v-1zm4-3h28v2H33v-2zm-4 0h2v2h-2v-2zm2 14h-2v-2h2v2zm0 12h-2v-2h2v2z"/></g><g id="Blog_Roll" data-name="Blog Roll"><path id="Paper" class="cls-1" d="M59 1329H31a5 5 0 01-5-5v-27l16-16h17a5 5 0 015 5v38a5 5 0 01-5 5zm3-42a4 4 0 00-4-4H42v9a5 5 0 01-5 5h-9v26a4 4 0 004 4h26a4 4 0 004-4v-36z"/><path id="Icon-38" data-name="Icon" class="cls-1" d="M54.887 1303.13l-5.632 5.68a5 5 0 01-7.071.03 4.517 4.517 0 01-.426-.52.883.883 0 01-.284-.18 1 1 0 111.408-1.42l.129-.13a2.975 2.975 0 004.824.81l5.632-5.68a3 3 0 10-4.261-4.22l-2.957 2.98-2.265-.56 3.8-3.83a5 5 0 017.103 7.04zm-7.071.03a4.515 4.515 0 01.426.52.884.884 0 01.284.18 1 1 0 11-1.408 1.42l-.129.13a2.975 2.975 0 00-4.824-.81l-5.632 5.68a3 3 0 104.261 4.22l2.957-2.98 2.265.56-3.8 3.83a5 5 0 01-7.1-7.04l5.632-5.68a5 5 0 017.068-.03z"/></g><g id="Blog_Categories" data-name="Blog Categories"><path id="Border-13" data-name="Border" class="cls-1" d="M63.818 1239H61v-2h2a4 4 0 004-4v-2h2v2.86a5.16 5.16 0 01-5.182 5.14zM67 1225h2v4h-2v-4zm0-6h2v4h-2v-4zm0-6h2v4h-2v-4zm0-6h2v4h-2v-4zm0-6h2v4h-2v-4zm0-4a4 4 0 00-4-4h-2v-2h2.818a5.16 5.16 0 015.182 5.14v2.86h-2v-2zm-8-6v2h-4v-2h4zm0 48h-4v-2h4v2zm-6-46h-4v-2h4v2zm0 46h-4v-2h4v2zm-6-46h-4v-2h4v2zm-10 44h4v2h-4v-2zm0-46h4v2h-4v-2zm-6 46h4v2h-4v-2zm0-46h4v2h-4v-2zm-10 42.86V1231h2v2a4 4 0 004 4h2v2h-2.818a5.16 5.16 0 01-5.182-5.14zm2-36.86v2h-2v-2.86a5.16 5.16 0 015.182-5.14H29v2h-2a4 4 0 00-4 4zm-2 4h2v4h-2v-4zm2 10h-2v-4h2v4zm0 6h-2v-4h2v4zm0 6h-2v-4h2v4zm-2 2h2v4h-2v-4zm26 14h-4v-2h4v2z"/><path id="Icon-39" data-name="Icon" class="cls-1" d="M29 1199h15v15H29v-15zm17 0h15v15H46v-15zm-17 17h15v15H29v-15zm17 0h15v15H46v-15z"/></g><g id="Blog"><path id="Icon-40" data-name="Icon" class="cls-1" d="M76.823 1119.44l-1.638 1.15-6.889-9.83 1.638-1.15a3 3 0 014.179.74l3.445 4.91a3 3 0 01-.735 4.18zm-22.107 15.5l-6.889-9.83 18.832-13.2 6.889 9.83zm-16.557 4.22c-.815-1.17 5.2-10.23 5.825-10.95a12.536 12.536 0 012.2-1.95l6.889 9.83a18.024 18.024 0 01-2.7 1.37c-.898.36-11.351 2.93-12.214 1.7zM62 1107a4 4 0 00-4-4H42v9a5 5 0 01-5 5h-9v26a4 4 0 004 4h26a4 4 0 004-4v-10l2-2v13a5 5 0 01-5 5H31a5 5 0 01-5-5v-27l16-16h17a5 5 0 015 5v4l-2 2v-5z"/></g><g id="Search"><path id="Icon-41" data-name="Icon" class="cls-1" d="M67.828 1057.97a4 4 0 01-5.657 0l-11.511-11.51a21.026 21.026 0 005.685-5.63l11.482 11.48a4 4 0 01.001 5.66zM39 1047a18 18 0 1118-18 18 18 0 01-18 18zm10-27.79v-.21h-.211A13.994 13.994 0 0029 1038.79v.21h.211a13.978 13.978 0 0019.578 0H49v-.21a13.981 13.981 0 000-19.58zM31 1029h-2a10 10 0 0110-10v2a8 8 0 00-8 8z"/></g><g id="Map"><path id="Icon-42" data-name="Icon" class="cls-1" d="M49 867a37.734 37.734 0 00-4 12 37.2 37.2 0 00-4-12c-2.666-4.5-11-12.672-11-21a15 15 0 0130 0c0 8.35-8.354 16.5-11 21zm-4-27a6 6 0 106 6 6 6 0 00-6-6z"/></g><g id="Logo"><path id="Icon-43" data-name="Icon" class="cls-1" d="M72 788.94c-1.074 0-2.148 0-3.285-.063-5.94-.251-8.908-2.314-10.616-3.751A24.744 24.744 0 0144.64 789C29.6 789 20 777.189 20 765.185A24.139 24.139 0 0144.513 741c14.66 0 24.768 11.376 24.768 23.753 0 8.251-3.347 12.561-4.928 14.562 2.023 1.5 4.108 1.938 7.646 2.124v7.5zm-27.487-39.756c-7.2 0-13.078 4.814-14.531 12.314a14.306 14.306 0 000 3.314 24.812 24.812 0 017.835-1.439 18.936 18.936 0 0110.931 3.19 61.575 61.575 0 018.276 6.812 13.388 13.388 0 002.844-8.624c0-9.379-7.014-15.567-15.29-15.567h-.065zm.127 31.63a13.286 13.286 0 006.761-1.688 43.321 43.321 0 00-4.929-4.562 15.623 15.623 0 00-9.6-3.252 15.785 15.785 0 00-5.75 1c2.908 6.438 9.416 8.5 13.46 8.5h.058z"/></g><g id="Content"><path id="Icon-44" data-name="Icon" class="cls-1" d="M63.556 685.246a11.029 11.029 0 00.184 2.594 1.866 1.866 0 00.651.943 1.454 1.454 0 00.86.361q1.6 0 3.023-2.458l.737.546Q67.021 692 62.549 692a5.668 5.668 0 01-3.7-1.229 5.422 5.422 0 01-1.929-2.743 23.622 23.622 0 01-.246-4.567v-12.539h-3v-.869a31.8 31.8 0 005.271-4.642 28.261 28.261 0 003.8-5.437h.811v8.49h5.455v2.458h-5.455v14.324zM48.3 662.593a6.748 6.748 0 00-2.629-2.2 8.362 8.362 0 00-3.268-.446h-2.487v25.966a10.713 10.713 0 00.283 3.228 2.548 2.548 0 001.106 1.129 4.432 4.432 0 002.249.484h1.106v.919H27.211v-.919h1.106a4.565 4.565 0 002.335-.521 2.368 2.368 0 001.007-1.192 10.326 10.326 0 00.27-3.128V659.95h-2.408q-3.367 0-4.89 1.44a9.556 9.556 0 00-2.7 5.734h-.937v-9.111h29.931v9.111h-.884a14.482 14.482 0 00-1.741-4.531z"/></g><g id="Area"><path id="Border-14" data-name="Border" class="cls-1" d="M63.818 609H61v-2h2a4 4 0 004-4v-2h2v2.857A5.162 5.162 0 0163.818 609zM67 595h2v4h-2v-4zm0-6h2v4h-2v-4zm0-6h2v4h-2v-4zm0-6h2v4h-2v-4zm0-6h2v4h-2v-4zm0-4a4 4 0 00-4-4h-2v-2h2.818A5.162 5.162 0 0169 566.143V569h-2v-2zm-8-6v2h-4v-2h4zm0 48h-4v-2h4v2zm-6-46h-4v-2h4v2zm0 46h-4v-2h4v2zm-6-46h-4v-2h4v2zm-10 44h4v2h-4v-2zm0-46h4v2h-4v-2zm-6 46h4v2h-4v-2zm0-46h4v2h-4v-2zm-10 42.857V601h2v2a4 4 0 004 4h2v2h-2.818A5.162 5.162 0 0121 603.857zM23 567v2h-2v-2.857A5.162 5.162 0 0126.182 561H29v2h-2a4 4 0 00-4 4zm-2 4h2v4h-2v-4zm2 10h-2v-4h2v4zm0 6h-2v-4h2v4zm0 6h-2v-4h2v4zm-2 2h2v4h-2v-4zm26 14h-4v-2h4v2z"/></g><g id="Spacer"><path id="Icon-45" data-name="Icon" class="cls-1" d="M67 519v-3h2v3h-2zm0-9h2v4h-2v-4zm0-4a4 4 0 00-4-4h-2v-2h2.818A5.162 5.162 0 0169 505.143V508h-2v-2zm-3.182-16H61v-2h2a4 4 0 004-4v-2h2v2.857A5.162 5.162 0 0163.818 490zM67 476h2v4h-2v-4zm0-5h2v3h-2v-3zm-12 17h4v2h-4v-2zm-2 14h-4v-2h4v2zm-4-14h4v2h-4v-2zm-2 14h-4v-2h4v2zm-4-14h4v2h-4v-2zm-6 0h4v2h-4v-2zm4 14h-4v-2h4v2zm-10-14h4v2h-4v-2zm4 14h-4v-2h4v2zm-14-17.143V482h2v2a4 4 0 004 4h2v2h-2.818A5.162 5.162 0 0121 484.857zM21 480v-4h2v4h-2zm0-6v-3h2v3h-2zm5.182 26H29v2h-2a4 4 0 00-4 4v2h-2v-2.857A5.162 5.162 0 0126.182 500zM21 510h2v4h-2v-4zm2 9h-2v-3h2v3zm36-19v2h-4v-2h4z"/></g><g id="Divider"><path id="Icon-46" data-name="Icon" class="cls-1" d="M67 429v-3h2v3h-2zm0-9h2v4h-2v-4zm0-4a4 4 0 00-4-4h-2v-2h2.818A5.162 5.162 0 0169 415.143V418h-2v-2zm-3.182-16H61v-2h2a4 4 0 004-4v-2h2v2.857A5.163 5.163 0 0163.818 400zM67 386h2v4h-2v-4zm0-5h2v3h-2v-3zm-12 17h4v2h-4v-2zm-2 14h-4v-2h4v2zm-4-14h4v2h-4v-2zm-2 14h-4v-2h4v2zm-4-14h4v2h-4v-2zm-6 0h4v2h-4v-2zm4 14h-4v-2h4v2zm-10-14h4v2h-4v-2zm4 14h-4v-2h4v2zm-14-17.143V392h2v2a4 4 0 004 4h2v2h-2.818A5.163 5.163 0 0121 394.857zM21 390v-4h2v4h-2zm0-6v-3h2v3h-2zm5.182 26H29v2h-2a4 4 0 00-4 4v2h-2v-2.857A5.162 5.162 0 0126.182 410zM21 420h2v4h-2v-4zm2 9h-2v-3h2v3zm36-19v2h-4v-2h4zm-38-6h48v2H21v-2z"/></g><g id="Menu-2" data-name="Menu"><path id="Icon-47" data-name="Icon" class="cls-1" d="M66 328H32a3 3 0 010-6h34a3 3 0 010 6zm0-10H32a3 3 0 010-6h34a3 3 0 010 6zm0-10H32a3 3 0 010-6h34a3 3 0 010 6zm0-10H32a3 3 0 010-6h34a3 3 0 010 6zm-42 40a3 3 0 113-3 3 3 0 01-3 3zm0-10a3 3 0 113-3 3 3 0 01-3 3zm0-10a3 3 0 113-3 3 3 0 01-3 3zm0-10a3 3 0 113-3 3 3 0 01-3 3zm0-10a3 3 0 113-3 3 3 0 01-3 3zm8 34h34a3 3 0 010 6H32a3 3 0 010-6z"/></g><g id="Columns"><path id="Icon-48" data-name="Icon" class="cls-1" d="M64 249h-4a5 5 0 01-5-5v-38a5 5 0 015-5h4a5 5 0 015 5v38a5 5 0 01-5 5zm3-43a3 3 0 00-3-3h-4a3 3 0 00-3 3v38a3 3 0 003 3h4a3 3 0 003-3v-38zm-20 43h-4a5 5 0 01-5-5v-38a5 5 0 015-5h4a5 5 0 015 5v38a5 5 0 01-5 5zm3-43a3 3 0 00-3-3h-4a3 3 0 00-3 3v38a3 3 0 003 3h4a3 3 0 003-3v-38zm-20 43h-4a5 5 0 01-5-5v-38a5 5 0 015-5h4a5 5 0 015 5v38a5 5 0 01-5 5zm3-43a3 3 0 00-3-3h-4a3 3 0 00-3 3v38a3 3 0 003 3h4a3 3 0 003-3v-38z"/></g><g id="Anchor"><path id="Icon-49" data-name="Icon" class="cls-1" d="M64.414 145.971l-2-.694c-.862 1.817-2.588 5.108-4.414 6.723-3.479 3.077-8.6 4.5-10 5a7.055 7.055 0 00-3 2 7.055 7.055 0 00-3-2c-1.4-.5-6.521-1.923-10-5-1.943-1.719-3.777-5.343-4.578-7.059l-2.058.749a.381.381 0 01-.558-.413c.066-.27 1.426-5.668 1.542-6.129a.482.482 0 01.723-.263c.281.2 4.814 3.47 5.134 3.71a.378.378 0 01-.164.663l-1.507.549A28.134 28.134 0 0036 150c1.752 1.269 4.26 2.156 5 2 1.188-.25 1-2 1-2h.094l.625-20H37.5a1.5 1.5 0 010-3h5.313l.137-4.383a6 6 0 114.1 0l.138 4.383H52.5a1.5 1.5 0 010 3h-5.219l.625 20H48s-.187 1.75 1 2c.74.156 3.248-.731 5-2a26.992 26.992 0 005.217-5.835l-1.9-.659a.378.378 0 01-.174-.672c.339-.244 5.155-3.559 5.453-3.761a.52.52 0 01.768.267c.124.467 1.568 5.939 1.638 6.212a.4.4 0 01-.588.419zM49 117a4 4 0 10-4 4 4 4 0 004-4z"/></g><g id="Default"><path id="big" class="cls-1" d="M54 53v4h-4.173a11.909 11.909 0 01-2.06 4.937l2.962 2.963-2.829 2.827-2.964-2.964A11.927 11.927 0 0140 66.82V71h-4v-4.18a11.934 11.934 0 01-4.934-2.055L28.1 67.729 25.273 64.9l2.962-2.962A11.906 11.906 0 0126.173 57H22v-4h4.173a11.907 11.907 0 012.06-4.937L25.271 45.1l2.829-2.827 2.964 2.964A11.924 11.924 0 0136 43.18V39h4v4.18a11.934 11.934 0 014.935 2.055l2.965-2.964 2.827 2.829-2.962 2.962A11.906 11.906 0 0149.827 53H54zm-16-4a6 6 0 106 6 6 6 0 00-6-6z"/><path id="small" class="cls-2" d="M67 30.5v3h-3.136a8.941 8.941 0 01-1.542 3.7l2.225 2.224-2.121 2.122-2.226-2.225a8.935 8.935 0 01-3.7 1.544V44h-3v-3.135a8.931 8.931 0 01-3.7-1.543l-2.224 2.225-2.122-2.122 2.225-2.225a8.945 8.945 0 01-1.543-3.7H43v-3h3.136a8.943 8.943 0 011.542-3.7l-2.225-2.224 2.121-2.122 2.226 2.224a8.933 8.933 0 013.7-1.543V20h3v3.135a8.932 8.932 0 013.7 1.542l2.224-2.224 2.121 2.121-2.224 2.226a8.945 8.945 0 011.543 3.7H67zM55 27a5 5 0 105 5 5 5 0 00-5-5z"/></g><g id="_helpers"><path id="Top" class="cls-7" d="M0 0h1v1H0z"/><path id="Bottom" class="cls-7" d="M89 5240h1v1h-1z"/></g></svg>