<svg xmlns="http://www.w3.org/2000/svg" preserveAspectRatio="xMidYMid" width="90" height="5130" viewBox="0 0 90 5130"><defs><style>.cls-1,.cls-2,.cls-3,.cls-4,.cls-5,.cls-6,.cls-7{fill:#707070}.cls-1,.cls-2,.cls-4,.cls-5{fill-rule:evenodd}.cls-2{fill-opacity:.85}.cls-4{opacity:.55}.cls-5,.cls-6{opacity:.4}.cls-7{opacity:0}</style></defs><path d="M64 5109H26a5 5 0 0 1-5-5v-38a5 5 0 0 1 5-5h38a5 5 0 0 1 5 5v38a5 5 0 0 1-5 5zm3-42a4 4 0 0 0-4-4H27a4 4 0 0 0-4 4v36a4 4 0 0 0 4 4h36a4 4 0 0 0 4-4v-36z" class="cls-1"/><path d="M62 5091H28a1 1 0 0 1-1-1v-8a1 1 0 0 1 1-1h34a1 1 0 0 1 1 1v8a1 1 0 0 1-1 1zm0-12H28a1 1 0 0 1-1-1v-2a1 1 0 0 1 1-1h34a1 1 0 0 1 1 1v2a1 1 0 0 1-1 1zm0-6H28a1 1 0 0 1-1-1v-2a1 1 0 0 1 1-1h34a1 1 0 0 1 1 1v2a1 1 0 0 1-1 1z" class="cls-2"/><path d="M57 5101H47a1 1 0 0 1-1-1v-2a1 1 0 0 1 1-1h10a1 1 0 0 1 1 1v2a1 1 0 0 1-1 1zm-14 0H33a1 1 0 0 1-1-1v-2a1 1 0 0 1 1-1h10a1 1 0 0 1 1 1v2a1 1 0 0 1-1 1zM65 5005.9v-2.455c1.19-.693 2-1.968 2-3.445v-10a4 4 0 0 0-4-4H27a4 4 0 0 0-4 4v10a4 4 0 0 0 4 4h12v2H26a5 5 0 0 1-5-5v-12a5 5 0 0 1 5-5h38a5 5 0 0 1 5 5v12a5.003 5.003 0 0 1-4 4.9z" class="cls-1"/><path class="cls-3" d="M27 4989h2v12h-2z"/><path d="M61 5016H41v-22h2v3h5v-3h8v3h5v-3h2v22h-2zm0-17H43v15h18v-15zm-14 7h-2v-2h2v2zm0 3h-2v-2h2v2zm0 3h-2v-2h2v2zm3-6h-2v-2h2v2zm0 3h-2v-2h2v2zm0 3h-2v-2h2v2zm3-9h-2v-2h2v2zm0 3h-2v-2h2v2zm0 3h-2v-2h2v2zm0 3h-2v-2h2v2zm3-9h-2v-2h2v2zm0 3h-2v-2h2v2zm0 3h-2v-2h2v2zm0 3h-2v-2h2v2zm3-9h-2v-2h2v2zm0 3h-2v-2h2v2zm0 3h-2v-2h2v2zm-2-15h3v2h-3v-2zm-13 0h3v2h-3v-2zM65 4915.9v-2.455c1.19-.693 2-1.968 2-3.445v-10a4 4 0 0 0-4-4H27a4 4 0 0 0-4 4v10a4 4 0 0 0 4 4h10v2H26a5 5 0 0 1-5-5v-12a5 5 0 0 1 5-5h38a5 5 0 0 1 5 5v12a5.003 5.003 0 0 1-4 4.9z" class="cls-1"/><path class="cls-3" d="M27 4899h2v12h-2z"/><path d="M58.5 4915.5v-1h2v1h-2zm-2.544 5.152l.707-.71 1.415 1.414-.707.71-1.414-1.414zm-.01-11.312l1.414-1.415.708.707-1.414 1.415-.707-.707zM50.5 4922.5h1v2h-1v-2zm0-17h1v2h-1v-2zm-6.568 15.868l1.414-1.415.707.706-1.413 1.415-.708-.707zm-.01-12.724l.707-.708 1.414 1.413-.707.707-1.415-1.413zM41.5 4914.5h2v1h-2v-1z" class="cls-4"/><path d="M51 4927c-6.627 0-12-5.373-12-12s5.373-12 12-12 12 5.373 12 12-5.373 12-12 12zm0-22c-5.523 0-10 4.477-10 10s4.477 10 10 10 10-4.477 10-10-4.477-10-10-10zm1.926 9.49c.043.163.074.332.074.51a1.994 1.994 0 0 1-3.723 1H43.5a1 1 0 0 1 0-2h5.777c.347-.595.985-1 1.723-1 .178 0 .348.03.512.074l2.9-2.903a1 1 0 0 1 1.416 1.414l-2.902 2.905zM66.346 4838.39l-1.817-1.696A3.998 3.998 0 0 0 67 4833v-36a4 4 0 0 0-4-4H27a4 4 0 0 0-4 4v36a4 4 0 0 0 4 4h24v2H26a5 5 0 0 1-5-5v-38a5 5 0 0 1 5-5h38a5 5 0 0 1 5 5v38c0 1.908-1.082 3.547-2.654 4.39z" class="cls-1"/><path d="M64.53 4836.694L52 4825h-1v12H27a4 4 0 0 1-4-4v-36a4 4 0 0 1 4-4h36a4 4 0 0 1 4 4v36a3.998 3.998 0 0 1-2.47 3.694z" class="cls-5"/><path d="M55.574 4828.336l2.62-4.17 6.808 10.84h-2.28l-7.148-6.67zm2.436-21.342c-2.76 0-5-2.24-5-5.003a5.002 5.002 0 0 1 5-5.003 5 5 0 0 1 5 5.004 5 5 0 0 1-5 5.004zM51 4835.007H24.998l13.83-22.02L51 4832.365v2.643zM53 4828v21.283l4.617-4.302 3.98 7.02 4.856-2.49-3.582-6.34H69L53 4828zM64 4749h-2v-2h1a4 4 0 0 0 4-4v-10a4 4 0 0 0-4-4H27a4 4 0 0 0-4 4v10a4 4 0 0 0 4 4h29v2H26a5 5 0 0 1-5-5v-12a5 5 0 0 1 5-5h38a5 5 0 0 1 5 5v12a5 5 0 0 1-5 5z" class="cls-1"/><path class="cls-3" d="M27 4732h2v12h-2z"/><path d="M64 4740h-4v16h4a1 1 0 0 1 0 2H54a1 1 0 0 1 0-2h4v-16h-4a1 1 0 0 1 0-2h10a1 1 0 0 1 0 2zM64 4723H26a5 5 0 0 1-5-5v-12a5 5 0 0 1 5-5h38a5 5 0 0 1 5 5v12a5 5 0 0 1-5 5zm3-16a4 4 0 0 0-4-4H27a4 4 0 0 0-4 4v10a4 4 0 0 0 4 4h36a4 4 0 0 0 4-4v-10z" class="cls-1"/><rect x="23" y="4703" width="44" height="18" rx="4" ry="4" class="cls-6"/><path d="M57.378 4708.523c-.756-.355-1.513-.533-2.27-.533-1.097 0-1.964.366-2.6 1.097-.636.73-.954 1.733-.954 3.005 0 1.308.307 2.318.92 3.03.613.714 1.486 1.07 2.62 1.07.698 0 1.494-.124 2.387-.375v1.02c-.692.26-1.546.388-2.563.388-1.472 0-2.607-.446-3.407-1.34-.8-.893-1.2-2.162-1.2-3.807 0-1.03.193-1.932.578-2.707a4.143 4.143 0 0 1 1.668-1.79c.727-.42 1.582-.63 2.567-.63 1.048 0 1.964.192 2.748.575l-.492.998zm-8.695 5.722c0 .893-.302 1.59-.906 2.092-.604.5-1.448.752-2.532.752h-3.487v-9.995h2.824c1.326 0 2.285.198 2.877.594.592.396.888 1.022.888 1.88 0 .59-.165 1.08-.495 1.465-.33.386-.813.635-1.446.75v.067c1.517.26 2.276 1.058 2.276 2.393zm-2.078-3.257c.36-.258.54-.692.54-1.303 0-.56-.2-.965-.602-1.213-.4-.248-1.04-.373-1.914-.373h-1.71v3.274h1.914c.82 0 1.41-.13 1.77-.386zm-1.695 1.37h-1.99v3.74h2.085c.807 0 1.414-.157 1.822-.47.408-.31.612-.8.612-1.465 0-.62-.21-1.076-.627-1.368-.417-.29-1.05-.437-1.903-.437zm-6.973 1.552H33.93l-1.23 3.18h-1.175l3.95-10.037h.98l3.93 10.036H39.18l-1.243-3.18zm-1.524-4.143c-.15-.392-.306-.872-.465-1.442-.1.438-.244.918-.43 1.442l-1.177 3.097h3.235l-1.162-3.097zM64 4659H26a5 5 0 0 1-5-5v-38a5 5 0 0 1 5-5h38a5 5 0 0 1 5 5v38a5 5 0 0 1-5 5zm-33-44a2 2 0 0 0-2-2h-4a2 2 0 0 0-2 2v4a2 2 0 0 0 2 2h4a2 2 0 0 0 2-2v-4zm10 0a2 2 0 0 0-2-2h-4a2 2 0 0 0-2 2v4a2 2 0 0 0 2 2h4a2 2 0 0 0 2-2v-4zm10 0a2 2 0 0 0-2-2h-4a2 2 0 0 0-2 2v4a2 2 0 0 0 2 2h4a2 2 0 0 0 2-2v-4zm16 12a4 4 0 0 0-4-4H27a4 4 0 0 0-4 4v26a4 4 0 0 0 4 4h36a4 4 0 0 0 4-4v-26z" class="cls-1"/><path d="M29 4619l-1 1h-3v-6h3l1 1v1l-1 1 1 1v1zm-1-1l-2-1 2-1v-1h-2v4h2v-1zM37.833 4615l-.666 4H38v1h-3v-1h1.167l.666-4H36v-1h3v1h-1.167zM45 4614v5l1 1h2l1-1v-5h-1v4l-1 1-1-1v-4h-1z" class="cls-4"/><path class="cls-3" d="M27 4626h2v12h-2z"/><path d="M63 4623a4 4 0 0 1 4 4v26a4 4 0 0 1-4 4h-3v-34h3z" class="cls-5"/><path d="M62 4628l1.5-2 1.5 2h-.75l-.75-1-.75 1H62zM62 4652l1.5 2 1.5-2h-.75l-.75 1-.75-1H62zM64 4569H26a5 5 0 0 1-5-5v-38a5 5 0 0 1 5-5h38a5 5 0 0 1 5 5v38a5 5 0 0 1-5 5zm3-42a4 4 0 0 0-4-4H27a4 4 0 0 0-4 4v36a4 4 0 0 0 4 4h36a4 4 0 0 0 4-4v-36z" class="cls-1"/><path class="cls-3" d="M27 4526h2v12h-2z"/><path d="M63 4523a4 4 0 0 1 4 4v36a4 4 0 0 1-4 4h-3v-44h3z" class="cls-5"/><path d="M62 4528l1.5-2 1.5 2h-.75l-.75-1-.75 1H62zM62 4562l1.5 2 1.5-2h-.75l-.75 1-.75-1H62zM51 4479H39a5 5 0 0 1-5-5v-12a5 5 0 0 1 5-5h12a5 5 0 0 1 5 5v12a5 5 0 0 1-5 5zm3-16a4 4 0 0 0-4-4H40a4 4 0 0 0-4 4v10a4 4 0 0 0 4 4h10a4 4 0 0 0 4-4v-10zM52.28 4433.72A3.972 3.972 0 0 0 50 4433H40a4 4 0 0 0-4 4v10a4 4 0 0 0 4 4h10a4 4 0 0 0 4-4v-4.6l2-1.6v7.2a5 5 0 0 1-5 5H39a5 5 0 0 1-5-5v-12a5 5 0 0 1 5-5h12a4.96 4.96 0 0 1 2.988 1.012l-1.708 1.707z" class="cls-1"/><path d="M37 4440l8 7 16-13-3-3-13 11-4-4-4 2zM32 4376c-6.075 0-11-4.925-11-11s4.925-11 11-11 11 4.925 11 11-4.925 11-11 11zm0-20a9 9 0 0 0-9 9 9 9 0 0 0 9 9 9 9 0 0 0 9-9 9 9 0 0 0-9-9zM59 4376c-6.075 0-11-4.925-11-11s4.925-11 11-11 11 4.925 11 11-4.925 11-11 11zm0-20a9 9 0 0 0-9 9 9 9 0 0 0 9 9 9 9 0 0 0 9-9 9 9 0 0 0-9-9zm0 13a4 4 0 1 1 0-8 4 4 0 0 1 0 8zM52.28 4266.72A3.972 3.972 0 0 0 50 4266H40a4 4 0 0 0-4 4v10a4 4 0 0 0 4 4h10a4 4 0 0 0 4-4v-4.6l2-1.6v7.2a5 5 0 0 1-5 5H39a5 5 0 0 1-5-5v-12a5 5 0 0 1 5-5h12a4.96 4.96 0 0 1 2.988 1.012l-1.708 1.707z" class="cls-1"/><path d="M37 4273l8 7 16-13-3-3-13 11-4-4-4 2zM64 4196H26a5 5 0 0 1-5-5v-12a5 5 0 0 1 5-5h38a5 5 0 0 1 5 5v12a5 5 0 0 1-5 5zm3-16a4 4 0 0 0-4-4H27a4 4 0 0 0-4 4v10a4 4 0 0 0 4 4h36a4 4 0 0 0 4-4v-10z" class="cls-1"/><path d="M63 4176a4 4 0 0 1 4 4v10a4 4 0 0 1-4 4H49v-18h14z" class="cls-5"/><path d="M54.002 4182.996L58 4187l4-4h2l-6 6-6-6 2.002-.004zM65 4105.9v-2.455c1.19-.693 2-1.968 2-3.445v-10a4 4 0 0 0-4-4H27a4 4 0 0 0-4 4v10a4 4 0 0 0 4 4h4v2h-5a5 5 0 0 1-5-5v-12a5 5 0 0 1 5-5h38a5 5 0 0 1 5 5v12a5 5 0 0 1-4 4.9z" class="cls-1"/><path class="cls-3" d="M27 4089h2v12h-2z"/><path d="M58.385 4113.833L38.77 4094l-1.155 1.167L57.23 4115l1.155-1.167zM48 4101l3.462 3.5c0-1.933-1.55-3.5-3.462-3.5zm0-1.167c2.55 0 4.615 2.09 4.615 4.667 0 .36-.04.71-.118 1.047l4.635 4.686c4.054-2.406 5.868-5.733 5.868-5.733s-4.45-8.167-15-8.167c-1.512 0-2.898.17-4.165.456l3.13 3.163a4.54 4.54 0 0 1 1.035-.12zm0 8.167c.024 0 .047 0 .07-.002l-3.53-3.57-.002.072c0 1.933 1.55 3.5 3.462 3.5zm0 1.167c-2.55 0-4.615-2.09-4.615-4.667 0-.382.046-.752.13-1.106l-4.602-4.655c-4.086 2.408-5.913 5.76-5.913 5.76s4.45 8.167 15 8.167c1.535 0 2.94-.174 4.223-.47l-3.13-3.163a4.59 4.59 0 0 1-1.093.133zM64 4016h-2v-2h1a4 4 0 0 0 4-4v-10a4 4 0 0 0-4-4H27a4 4 0 0 0-4 4v10a4 4 0 0 0 4 4h29v2H26a5 5 0 0 1-5-5v-12a5 5 0 0 1 5-5h38a5 5 0 0 1 5 5v12a5 5 0 0 1-5 5z" class="cls-1"/><path d="M47.6 4005.863l.254 2.137-1.854-.915-1.854.915.254-2.137-1.4-1.57 2.01-.407L46 4002l.99 1.886 2.01.406-1.4 1.57zM39.854 4008l-1.854-.915-1.854.915.254-2.137-1.4-1.57 2.01-.407L38 4002l.99 1.886 2.01.406-1.4 1.57.254 2.138zm-8 0l-1.854-.915-1.854.915.254-2.137-1.4-1.57 2.01-.407L30 4002l.99 1.886 2.01.406-1.4 1.57.254 2.138zM64 4007h-4v16h4a1 1 0 0 1 0 2H54a1 1 0 0 1 0-2h4v-16h-4a1 1 0 0 1 0-2h10a1 1 0 0 1 0 2zM64 3926h-2v-2h1a4 4 0 0 0 4-4v-10a4 4 0 0 0-4-4H27a4 4 0 0 0-4 4v10a4 4 0 0 0 4 4h29v2H26a5 5 0 0 1-5-5v-12a5 5 0 0 1 5-5h38a5 5 0 0 1 5 5v12a5 5 0 0 1-5 5z" class="cls-1"/><path class="cls-3" d="M27 3909h2v12h-2z"/><path d="M64 3917h-4v16h4a1 1 0 0 1 0 2H54a1 1 0 0 1 0-2h4v-16h-4a1 1 0 0 1 0-2h10a1 1 0 0 1 0 2zM66.364 3835.406L52 3822h-1v14H26a5 5 0 0 1-5-5v-12a5 5 0 0 1 5-5h38a5 5 0 0 1 5 5v12a4.998 4.998 0 0 1-2.636 4.406z" class="cls-1"/><path d="M53 3825v21.283l4.617-4.302 3.98 7.02 4.856-2.49-3.582-6.34H69L53 3825zM68.81 3732.896l-2.835 2.833-18.89-18.91a3 3 0 0 0-4.242 0l-18.988 18.968-2.862-2.866 20.406-20.388a5 5 0 0 1 7.07.003l6.53 6.536V3712a1 1 0 0 1 1-1h6a1 1 0 0 1 1 1v15.08l5.81 5.816zm-21.69-12.505L63 3736.268V3756a3 3 0 0 1-3 3H30a3 3 0 0 1-3-3v-19.727l15.88-15.882a3 3 0 0 1 4.24 0zM39 3759h12v-18H39v18zM52.73 3669h-8.95c0-12.58-10.2-22.78-22.78-22.78v-8.95c17.523 0 31.73 14.207 31.73 31.73zM21 3662.492a6.51 6.51 0 1 1 13.017 0 6.51 6.51 0 0 1-13.017 0zM69 3669h-8.95c0-21.567-17.483-39.05-39.05-39.05V3621c26.51 0 48 21.49 48 48zM21 3532.012c2.994-.037 6.57-.026 8.6.455 9.018 2.135 15.476 8.536 17.597 17.65.704 3.027.705 7.273-.056 10.274-.57 2.248-1.438 4.39-2.5 6.187-3.37 5.7-9.083 9.863-16.107 11.096-2.106.37-5.007.325-7.533.327v-10c1.947.022 4.625-.045 6.07-.288 6.076-1.02 10.593-6.517 10.682-12.202.073-4.583-1.507-7.016-2.417-8.117-3.75-4.536-6.517-5.734-14.335-5.393v-9.988zM51 3550c3.853.06 6.618.47 7.72-2.72.256-.737.377-1.995 0-2.724-1.768-3.44-3.757-2.174-10.4-2.44-1.585-3.273-4.203-6.237-6.97-8.344-.824-.568-1.65-1.135-2.473-1.703v-.058H51.02c2.777 0 5.72-.13 7.87.51 6.517 1.947 12.287 9.15 9.15 18.56-.322.963-1.505 2.988-2.292 3.86l.225.227c.375.547.75 1.096 1.124 1.645.696 1.18 1.205 2.61 1.574 4.086.88 3.52-.15 7.477-1.46 9.707-1.958 3.334-4.496 5.576-8.49 6.782-2.036.614-4.86.572-7.476.578-4.084.01-8.16.034-12.244.032.037-.057.064-.242.102-.3 2.404-1.13 6.265-5.236 7.758-7.377l1.574-2.554c6.45-.237 8.452 1.012 10.287-2.442.385-.722.287-1.992 0-2.724-1.218-3.125-3.535-2.6-7.72-2.604.265-1.802.617-2.805.617-4.82s-.467-3.97-.617-5.18zM68.767 3468.17a25.03 25.03 0 0 1-.215 1.41c-.068.348-.156.69-.24 1.032-.09.377-.18.755-.288 1.125-.113.383-.24.76-.37 1.133-.11.31-.22.618-.338.92a24.135 24.135 0 0 1-.87 1.94 24.38 24.38 0 0 1-.674 1.256c-.11.187-.223.37-.336.553a24.63 24.63 0 0 1-.854 1.306c-.083.116-.172.228-.257.343-.346.47-.7.934-1.08 1.377-.416.488-.84.97-1.295 1.422a24.042 24.042 0 0 1-7.62 5.128c-.065.028-.134.047-.2.073-.654.27-1.32.52-2.002.733-.18.056-.366.09-.547.14a23.7 23.7 0 0 1-1.748.45c-.358.073-.727.11-1.09.166-.43.067-.853.152-1.29.196a24.22 24.22 0 0 1-4.904 0c-.437-.044-.86-.13-1.29-.197-.363-.058-.732-.094-1.09-.167a23.7 23.7 0 0 1-1.75-.45c-.18-.05-.367-.084-.546-.14a23.666 23.666 0 0 1-2.003-.732c-.066-.025-.135-.044-.2-.072a24.042 24.042 0 0 1-7.62-5.13 24.24 24.24 0 0 1-1.296-1.42 23.96 23.96 0 0 1-1.08-1.38c-.084-.114-.173-.226-.256-.342-.3-.424-.58-.864-.854-1.307-.113-.185-.227-.367-.336-.554a24.38 24.38 0 0 1-1.028-1.993 24.135 24.135 0 0 1-.516-1.202c-.12-.302-.23-.61-.337-.92-.13-.374-.258-.75-.37-1.133-.11-.37-.2-.748-.29-1.125-.083-.343-.17-.684-.24-1.033a25.03 25.03 0 0 1-.214-1.41c-.037-.28-.088-.557-.115-.84A24.226 24.226 0 0 1 21 3465c0-.786.044-1.562.118-2.33.027-.283.078-.56.115-.84.063-.473.126-.946.215-1.41.068-.348.156-.69.24-1.032.09-.377.18-.755.288-1.125.113-.383.24-.758.37-1.133.11-.31.22-.618.338-.92a24.135 24.135 0 0 1 .87-1.94c.215-.425.436-.846.674-1.256.11-.187.223-.37.336-.552.274-.444.553-.884.854-1.308.083-.116.172-.228.257-.343.346-.47.7-.934 1.08-1.377.416-.488.84-.97 1.295-1.422a24.026 24.026 0 0 1 7.62-5.128c.065-.028.134-.046.2-.073.654-.27 1.32-.52 2.002-.733.18-.056.366-.09.547-.14a23.7 23.7 0 0 1 1.748-.45c.358-.073.727-.11 1.09-.167.43-.067.853-.152 1.29-.196a24.22 24.22 0 0 1 4.904 0c.437.044.86.13 1.29.196.363.058.732.094 1.09.167a23.7 23.7 0 0 1 1.75.45c.18.05.367.084.546.14.683.212 1.348.462 2.003.732.066.026.135.044.2.072a24.026 24.026 0 0 1 7.62 5.13c.454.452.88.933 1.296 1.42.38.444.733.91 1.08 1.38.084.114.173.226.256.342.3.424.58.864.854 1.308.113.183.227.365.336.552.238.41.46.83.673 1.256a23.79 23.79 0 0 1 .87 1.94c.12.302.23.61.338.92.13.375.258.75.37 1.133.11.37.2.748.29 1.125.083.343.17.684.24 1.033.088.464.15.937.214 1.41.037.28.088.557.115.84.074.768.118 1.544.118 2.33s-.044 1.562-.118 2.33c-.027.283-.078.56-.115.84zM38.8 3486.1c-1.66-1.668-3.08-4.012-4.203-6.792A28.048 28.048 0 0 0 29.93 3481a21.95 21.95 0 0 0 8.87 5.1zm-10.26-6.544c1.602-.82 3.403-1.522 5.372-2.08-1.114-3.37-1.8-7.28-1.893-11.476H23.04a21.89 21.89 0 0 0 5.5 13.556zM23.043 3464h8.977c.092-4.197.778-8.105 1.892-11.477-1.97-.557-3.77-1.26-5.37-2.078a21.885 21.885 0 0 0-5.5 13.555zm6.89-15c1.398.66 2.958 1.233 4.665 1.692 1.122-2.78 2.542-5.124 4.202-6.79a21.938 21.938 0 0 0-8.87 5.098zM44 3443.098c-3.037.55-5.712 3.57-7.528 8.044 2.33.49 4.87.773 7.528.833v-8.877zm0 10.875c-2.895-.065-5.663-.395-8.204-.968-1.04 3.19-1.68 6.947-1.77 10.995H44v-10.027zM44 3466h-9.975c.09 4.048.732 7.805 1.77 10.994 2.542-.572 5.31-.902 8.205-.967V3466zm0 12.025c-2.657.06-5.198.343-7.528.833 1.816 4.475 4.49 7.495 7.528 8.044v-8.877zM66.958 3466H57.98c-.092 4.197-.778 8.105-1.892 11.477 1.97.557 3.77 1.26 5.37 2.08a21.89 21.89 0 0 0 5.5-13.557zm-6.89 15c-1.398-.66-2.958-1.233-4.665-1.692-1.122 2.78-2.542 5.124-4.202 6.79a21.95 21.95 0 0 0 8.87-5.098zM46 3486.902c3.037-.55 5.712-3.57 7.528-8.044-2.33-.49-4.87-.773-7.528-.833v8.877zm0-10.875c2.895.065 5.663.395 8.204.967 1.04-3.19 1.68-6.946 1.77-10.994H46v10.027zM46 3464h9.975c-.09-4.048-.732-7.805-1.77-10.995-2.542.573-5.31.903-8.205.968V3464zm0-12.025c2.657-.06 5.198-.342 7.528-.833-1.816-4.475-4.49-7.495-7.528-8.044v8.877zm5.2-8.074c1.66 1.668 3.08 4.012 4.203 6.792A28.048 28.048 0 0 0 60.07 3449a21.938 21.938 0 0 0-8.87-5.1zm10.26 6.545c-1.602.818-3.403 1.52-5.372 2.078 1.114 3.372 1.8 7.28 1.893 11.477h8.978a21.885 21.885 0 0 0-5.5-13.555zM57 3387c-6.627 0-12-5.373-12-12s5.373-12 12-12 12 5.373 12 12-5.373 12-12 12zm0-21a9 9 0 1 0 0 18 9 9 0 0 0 0-18zm-24 21c-6.627 0-12-5.373-12-12s5.373-12 12-12 12 5.373 12 12-5.373 12-12 12zM63.818 3309H61v-2h2a4 4 0 0 0 4-4v-2h2v2.857c0 2.84-2.32 5.143-5.182 5.143zM67 3295h2v4h-2v-4zm0-6h2v4h-2v-4zm0-6h2v4h-2v-4zm0-6h2v4h-2v-4zm0-6h2v4h-2v-4zm0-4a4 4 0 0 0-4-4h-2v-2h2.818c2.862 0 5.182 2.302 5.182 5.143V3269h-2v-2zm-8-6v2h-4v-2h4zm0 48h-4v-2h4v2zm-6-46h-4v-2h4v2zm0 46h-4v-2h4v2zm-6-46h-4v-2h4v2zm-10 44h4v2h-4v-2zm0-46h4v2h-4v-2zm-6 46h4v2h-4v-2zm0-46h4v2h-4v-2zm-10 42.857V3301h2v2a4 4 0 0 0 4 4h2v2h-2.818c-2.862 0-5.182-2.302-5.182-5.143zM23 3267v2h-2v-2.857c0-2.84 2.32-5.143 5.182-5.143H29v2h-2a4 4 0 0 0-4 4zm-2 4h2v4h-2v-4zm2 10h-2v-4h2v4zm0 6h-2v-4h2v4zm0 6h-2v-4h2v4zm-2 2h2v4h-2v-4zm26 14h-4v-2h4v2z" class="cls-1"/><path d="M56.25 3285.75v-1.5h3v1.5h-3zm-3.816 7.727l1.06-1.062 2.123 2.12-1.06 1.062-2.123-2.12zm-.014-16.966l2.12-2.122 1.06 1.06-2.12 2.123-1.06-1.06zm-8.17 19.74h1.5v3h-1.5v-3zm0-25.5h1.5v3h-1.5v-3zm-9.85 23.802l2.12-2.123 1.06 1.06-2.12 2.122-1.06-1.06zm-.017-19.086l1.06-1.063 2.123 2.12-1.06 1.062-2.123-2.12zm-3.633 8.784h3v1.5h-3v-1.5z" class="cls-4"/><path d="M45 3303c-9.94 0-18-8.06-18-18s8.06-18 18-18 18 8.06 18 18-8.06 18-18 18zm0-33c-8.284 0-15 6.716-15 15 0 8.284 6.716 15 15 15 8.284 0 15-6.716 15-15 0-8.284-6.716-15-15-15zm2.89 14.234c.064.246.11.5.11.766a3 3 0 0 1-3 3 2.99 2.99 0 0 1-2.816-2H33a1 1 0 0 1 0-2h9.184a2.99 2.99 0 0 1 2.816-2c.267 0 .522.046.768.112l4.35-4.356a1.5 1.5 0 1 1 2.123 2.12l-4.35 4.358zM67 3185a4 4 0 0 0-4-4H27a4 4 0 0 0-4 4v28a4 4 0 0 0 4 4h20.21c.784.766 1.66 1.433 2.606 2H26a5 5 0 0 1-5-5v-38a5 5 0 0 1 5-5h2v6a2 2 0 0 0 4 0v-6h6v6a2 2 0 0 0 4 0v-6h6v6a2 2 0 0 0 4 0v-6h6v6a2 2 0 0 0 4 0v-6h2a5 5 0 0 1 5 5v23.816a14.065 14.065 0 0 0-2-2.605V3185zm-7-7a1 1 0 0 1-1-1v-7a1 1 0 0 1 2 0v7a1 1 0 0 1-1 1zm-10 0a1 1 0 0 1-1-1v-7a1 1 0 0 1 2 0v7a1 1 0 0 1-1 1zm-10 0a1 1 0 0 1-1-1v-7a1 1 0 0 1 2 0v7a1 1 0 0 1-1 1zm-10 0a1 1 0 0 1-1-1v-7a1 1 0 0 1 2 0v7a1 1 0 0 1-1 1z" class="cls-1"/><path d="M64 3193h-2a1 1 0 0 1-1-1v-1a1 1 0 0 1 1-1h2a1 1 0 0 1 1 1v1a1 1 0 0 1-1 1zm0-5h-2a1 1 0 0 1-1-1v-1a1 1 0 0 1 1-1h2a1 1 0 0 1 1 1v1a1 1 0 0 1-1 1zm-6 5h-2a1 1 0 0 1-1-1v-1a1 1 0 0 1 1-1h2a1 1 0 0 1 1 1v1a1 1 0 0 1-1 1zm-6 0h-2a1 1 0 0 1-1-1v-1a1 1 0 0 1 1-1h2a1 1 0 0 1 1 1v1a1 1 0 0 1-1 1zm-5.653 4.93c-.11.04-.224.07-.347.07h-2a1 1 0 0 1-1-1v-1a1 1 0 0 1 1-1h2a1 1 0 0 1 1 1v1c0 .096-.03.183-.055.272-.206.213-.406.432-.598.658zM46 3193h-2a1 1 0 0 1-1-1v-1a1 1 0 0 1 1-1h2a1 1 0 0 1 1 1v1a1 1 0 0 1-1 1zm-6 15h-2a1 1 0 0 1-1-1v-1a1 1 0 0 1 1-1h2a1 1 0 0 1 1 1v1a1 1 0 0 1-1 1zm0-5h-2a1 1 0 0 1-1-1v-1a1 1 0 0 1 1-1h2a1 1 0 0 1 1 1v1a1 1 0 0 1-1 1zm0-5h-2a1 1 0 0 1-1-1v-1a1 1 0 0 1 1-1h2a1 1 0 0 1 1 1v1a1 1 0 0 1-1 1zm0-5h-2a1 1 0 0 1-1-1v-1a1 1 0 0 1 1-1h2a1 1 0 0 1 1 1v1a1 1 0 0 1-1 1zm-6 20h-2a1 1 0 0 1-1-1v-1a1 1 0 0 1 1-1h2a1 1 0 0 1 1 1v1a1 1 0 0 1-1 1zm0-5h-2a1 1 0 0 1-1-1v-1a1 1 0 0 1 1-1h2a1 1 0 0 1 1 1v1a1 1 0 0 1-1 1zm0-5h-2a1 1 0 0 1-1-1v-1a1 1 0 0 1 1-1h2a1 1 0 0 1 1 1v1a1 1 0 0 1-1 1zm0-5h-2a1 1 0 0 1-1-1v-1a1 1 0 0 1 1-1h2a1 1 0 0 1 1 1v1a1 1 0 0 1-1 1zm0-5h-2a1 1 0 0 1-1-1v-1a1 1 0 0 1 1-1h2a1 1 0 0 1 1 1v1a1 1 0 0 1-1 1zm-6 20h-2a1 1 0 0 1-1-1v-1a1 1 0 0 1 1-1h2a1 1 0 0 1 1 1v1a1 1 0 0 1-1 1zm0-5h-2a1 1 0 0 1-1-1v-1a1 1 0 0 1 1-1h2a1 1 0 0 1 1 1v1a1 1 0 0 1-1 1zm0-5h-2a1 1 0 0 1-1-1v-1a1 1 0 0 1 1-1h2a1 1 0 0 1 1 1v1a1 1 0 0 1-1 1zm0-5h-2a1 1 0 0 1-1-1v-1a1 1 0 0 1 1-1h2a1 1 0 0 1 1 1v1a1 1 0 0 1-1 1zm0-5h-2a1 1 0 0 1-1-1v-1a1 1 0 0 1 1-1h2a1 1 0 0 1 1 1v1a1 1 0 0 1-1 1zm16 7h.888a13.91 13.91 0 0 0-1.28 2.92A1 1 0 0 1 43 3202v-1a1 1 0 0 1 1-1zm-1 7v-1c0-.12.03-.228.067-.334-.04.44-.067.884-.067 1.334zm21.736-11.665c-.15-.1-.308-.186-.46-.28.18.053.337.145.46.28zm-15.01-.28c-.154.094-.312.18-.462.28a.992.992 0 0 1 .46-.28z" class="cls-1"/><path d="M58 3188h-2a1 1 0 0 1-1-1v-1a1 1 0 0 1 1-1h2a1 1 0 0 1 1 1v1a1 1 0 0 1-1 1zm-6 0h-2a1 1 0 0 1-1-1v-1a1 1 0 0 1 1-1h2a1 1 0 0 1 1 1v1a1 1 0 0 1-1 1zm-6 0h-2a1 1 0 0 1-1-1v-1a1 1 0 0 1 1-1h2a1 1 0 0 1 1 1v1a1 1 0 0 1-1 1zm-6 25h-2a1 1 0 0 1-1-1v-1a1 1 0 0 1 1-1h2a1 1 0 0 1 1 1v1a1 1 0 0 1-1 1zm0-25h-2a1 1 0 0 1-1-1v-1a1 1 0 0 1 1-1h2a1 1 0 0 1 1 1v1a1 1 0 0 1-1 1zm-6 0h-2a1 1 0 0 1-1-1v-1a1 1 0 0 1 1-1h2a1 1 0 0 1 1 1v1a1 1 0 0 1-1 1zm-6 0h-2a1 1 0 0 1-1-1v-1a1 1 0 0 1 1-1h2a1 1 0 0 1 1 1v1a1 1 0 0 1-1 1zm15.39 22.228c.228.968.557 1.894.975 2.772H44a1 1 0 0 1-1-1v-1c0-.318.158-.59.39-.772zM64.5 3207.5v-1h2v1h-2zm-2.544 5.15l.707-.707 1.415 1.413-.707.71-1.414-1.415zm-.01-11.31l1.414-1.415.708.707-1.414 1.415-.707-.707zM56.5 3214.5h1v2h-1v-2zm0-17h1v2h-1v-2zm-6.568 15.868l1.414-1.415.707.707-1.413 1.415-.708-.707zm-.01-12.724l.707-.71 1.414 1.415-.707.707-1.415-1.413zM47.5 3206.5h2v1h-2v-1z" class="cls-4"/><path d="M57 3219c-6.627 0-12-5.373-12-12 0-6.628 5.373-12 12-12s12 5.372 12 12c0 6.627-5.373 12-12 12zm0-22c-5.523 0-10 4.477-10 10s4.477 10 10 10 10-4.477 10-10-4.477-10-10-10zm1.926 9.49c.043.163.074.332.074.51a2 2 0 0 1-2 2c-.74 0-1.376-.405-1.723-1H49.5a1 1 0 0 1 0-2h5.777c.347-.595.985-1 1.723-1 .178 0 .348.03.512.074l2.9-2.903a1 1 0 0 1 1.416 1.414l-2.902 2.905z" class="cls-1"/><path d="M60 3106v-2h4v2h-4zm-5.088 10.303l1.415-1.417 2.83 2.826-1.416 1.417-2.828-2.827zm-.02-22.622l2.828-2.83 1.415 1.414-2.827 2.83-1.415-1.413zM44 3120h2v4h-2v-4zm0-34h2v4h-2v-4zm-13.135 31.736l2.827-2.83 1.415 1.413-2.827 2.83-1.415-1.414zm-.02-25.448l1.414-1.417 2.828 2.827-1.415 1.416-2.83-2.825zM26 3104h4v2h-4v-2z" class="cls-4"/><path d="M45 3129c-13.255 0-24-10.745-24-24s10.745-24 24-24 24 10.745 24 24-10.745 24-24 24zm0-44c-11.046 0-20 8.954-20 20s8.954 20 20 20 20-8.954 20-20-8.954-20-20-20zm3.852 18.978c.087.328.148.666.148 1.022a4 4 0 0 1-4 4c-1.477 0-2.752-.81-3.445-2H30a2 2 0 0 1 0-4h11.555c.693-1.19 1.968-2 3.445-2 .356 0 .696.06 1.025.15l5.8-5.81a2 2 0 1 1 2.83 2.828l-5.803 5.81z" class="cls-1"/><path d="M80 3091c-2.65.53-7.024.716-7 4 .027 3.798 5.167 2.25 6 2 1.79-.537 3.623-2.436 4.967-4.12A21.653 21.653 0 0 1 83 3096c-2.17 5.407-8.31 12.805-13.963 18.902A25.91 25.91 0 0 0 71 3105c0-14.36-11.64-26-26-26-.474 0-.936.046-1.404.07 3.984-1.517 7.678-2.802 9.404-3.07 3.217-.5 6.54-.454 9.5-.295-1.007.548-2.202 1.368-2.5 2.295-.876 2.726 1.46 3.45 4 2 2.298-1.31 2.49-2.86 2.14-4.056 2.082.144 3.79.24 4.86.056 7.138-1.237 12-9 12-9l.04.18c-.23 3.28-1.03 8.383-3.04 11.82-2.833 4.844-9 7-9 7s7.106 2.676 13-6c.314-.463.514-1.043.633-1.7.145 1.833.24 3.767.233 5.724-.313 2.432-1.362 6.277-4.866 6.976zM47.102 3038.908c-13.204 1.16-24.85-8.602-26.01-21.806-1.16-13.204 8.602-24.85 21.806-26.01 13.204-1.16 24.85 8.602 26.01 21.806 1.16 13.204-8.602 24.85-21.806 26.01zm5.837-43.35c-10.74-4.384-22.997.766-27.382 11.503-4.384 10.738.766 22.997 11.503 27.382 10.74 4.384 22.997-.766 27.382-11.503 4.384-10.74-.766-22.997-11.503-27.382z" class="cls-1"/><path d="M47.102 3038.908c-13.204 1.16-24.85-8.602-26.01-21.806-1.16-13.204 8.602-24.85 21.806-26.01 13.204-1.16 24.85 8.602 26.01 21.806 1.16 13.204-8.602 24.85-21.806 26.01zm5.42-44.965c-5.742-3.31-20.164-3.066-27.448 9.57-7.3 12.66-.268 25.24 5.473 28.55 5.742 3.31 15.316-2.54 21.384-13.068 6.07-10.526 6.334-21.743.592-25.052zM63.818 2949H61v-2h2a4 4 0 0 0 4-4v-2h2v2.857c0 2.84-2.32 5.143-5.182 5.143zM67 2935h2v4h-2v-4zm0-6h2v4h-2v-4zm0-6h2v4h-2v-4zm0-6h2v4h-2v-4zm0-6h2v4h-2v-4zm0-4a4 4 0 0 0-4-4h-2v-2h2.818c2.862 0 5.182 2.302 5.182 5.143V2909h-2v-2zm-8-6v2h-4v-2h4zm0 48h-4v-2h4v2zm-6-46h-4v-2h4v2zm0 46h-4v-2h4v2zm-6-46h-4v-2h4v2zm-10 44h4v2h-4v-2zm0-46h4v2h-4v-2zm-6 46h4v2h-4v-2zm0-46h4v2h-4v-2zm-10 42.857V2941h2v2a4 4 0 0 0 4 4h2v2h-2.818c-2.862 0-5.182-2.302-5.182-5.143zM23 2907v2h-2v-2.857c0-2.84 2.32-5.143 5.182-5.143H29v2h-2a4 4 0 0 0-4 4zm-2 4h2v4h-2v-4zm2 10h-2v-4h2v4zm0 6h-2v-4h2v4zm0 6h-2v-4h2v4zm-2 2h2v4h-2v-4zm26 14h-4v-2h4v2zM51 2941l10-10v10H51zm-16.818 0c-2.862 0-5.182-2.302-5.182-5.143v-21.714c0-2.84 2.32-5.143 5.182-5.143h21.636c2.862 0 5.182 2.303 5.182 5.143V2927l-14 14H34.182zM59 2914a3 3 0 0 0-3-3H34a3 3 0 0 0-3 3v22a3 3 0 0 0 3 3h11l14-14v-11zM54 2859l10-10v10H54zm-22.818 0c-2.862 0-5.182-2.302-5.182-5.143v-37.714c0-2.84 2.32-5.143 5.182-5.143h27.636c2.862 0 5.182 2.303 5.182 5.143V2845l-14 14H31.182zM62 2816a3 3 0 0 0-3-3H31a3 3 0 0 0-3 3v38a3 3 0 0 0 3 3h17l14-14v-27zM63.818 2769H61v-2h2a4 4 0 0 0 4-4v-2h2v2.857c0 2.84-2.32 5.143-5.182 5.143zM67 2755h2v4h-2v-4zm0-6h2v4h-2v-4zm0-6h2v4h-2v-4zm0-6h2v4h-2v-4zm0-6h2v4h-2v-4zm0-4a4 4 0 0 0-4-4h-2v-2h2.818c2.862 0 5.182 2.302 5.182 5.143V2729h-2v-2zm-8-6v2h-4v-2h4zm0 48h-4v-2h4v2zm-6-46h-4v-2h4v2zm0 46h-4v-2h4v2zm-6-46h-4v-2h4v2zm-10 44h4v2h-4v-2zm0-46h4v2h-4v-2zm-6 46h4v2h-4v-2zm0-46h4v2h-4v-2zm-10 42.857V2761h2v2a4 4 0 0 0 4 4h2v2h-2.818c-2.862 0-5.182-2.302-5.182-5.143zM23 2727v2h-2v-2.857c0-2.84 2.32-5.143 5.182-5.143H29v2h-2a4 4 0 0 0-4 4zm-2 4h2v4h-2v-4zm2 10h-2v-4h2v4zm0 6h-2v-4h2v4zm0 6h-2v-4h2v4zm-2 2h2v4h-2v-4zm26 14h-4v-2h4v2zM60 2763H30s-.222-14.716 2.25-18c2.085-2.768 3.74-3.024 5.25-3 1.54.024 2.072 1.468 3.75 2.25 1.834.855 3.75.75 3.75.75s1.916.105 3.75-.75c1.678-.782 2.21-2.226 3.75-2.25 1.51-.024 3.165.232 5.25 3 2.472 3.284 2.25 18 2.25 18zm-15-20.25c-4.142 0-7.5-3.526-7.5-7.875 0-4.35 3.358-7.875 7.5-7.875 4.142 0 7.5 3.526 7.5 7.875 0 4.35-3.358 7.875-7.5 7.875zM65 2679H25s-.296-19.622 3-24c2.78-3.692 4.988-4.032 7-4 2.052.033 2.762 1.957 5 3 2.445 1.14 5 1 5 1s2.555.14 5-1c2.238-1.043 2.948-2.967 5-3 2.012-.032 4.22.308 7 4 3.296 4.378 3 24 3 24zm-20-27c-5.523 0-10-4.7-10-10.5s4.477-10.5 10-10.5 10 4.7 10 10.5-4.477 10.5-10 10.5zM60 2589H30a5 5 0 0 1-5-5v-20a5 5 0 0 1 5-5h30a5 5 0 0 1 5 5v20a5 5 0 0 1-5 5zm-15-23a4.998 4.998 0 0 0-2 9.578V2580a2 2 0 0 0 4 0v-4.422a4.998 4.998 0 0 0-2-9.578zm10.95-9c.03-.33.05-.662.05-1 0-6.075-4.925-11-11-11s-11 4.925-11 11c0 .338.02.67.05 1h-4c-.02-.332-.05-.662-.05-1 0-8.284 6.716-15 15-15 8.284 0 15 6.716 15 15 0 .338-.03.668-.05 1h-4zM58.818 2499H31.182c-2.862 0-5.182-2.303-5.182-5.143V2477h-2v-4h2v-16.857c0-2.84 2.32-5.143 5.182-5.143h27.636c2.862 0 5.182 2.302 5.182 5.143v37.714c0 2.84-2.32 5.143-5.182 5.143zM62 2456a3 3 0 0 0-3-3H31a3 3 0 0 0-3 3v12h-2v5h19l-10-10h7l12 12-12 12h-7l10-10H26v5h2v12a3 3 0 0 0 3 3h28a3 3 0 0 0 3-3v-38zM58 2383c-6.075 0-11-4.925-11-11s4.925-11 11-11 11 4.925 11 11-4.925 11-11 11zm6.613-15.797c-.555.318-1.17.55-1.824.674a2.913 2.913 0 0 0-2.097-.877c-1.587 0-2.873 1.243-2.873 2.777 0 .217.026.43.075.633a8.25 8.25 0 0 1-5.92-2.902c-.248.41-.39.887-.39 1.396 0 .964.508 1.814 1.278 2.312a2.95 2.95 0 0 1-1.3-.348v.035c0 1.346.99 2.468 2.303 2.723a2.94 2.94 0 0 1-1.297.048c.365 1.103 1.425 1.906 2.682 1.93a5.893 5.893 0 0 1-3.567 1.187c-.232 0-.46-.012-.685-.038a8.333 8.333 0 0 0 4.403 1.248c5.283 0 8.172-4.23 8.172-7.9 0-.122-.003-.24-.008-.36.56-.392 1.048-.88 1.433-1.438a5.89 5.89 0 0 1-1.65.437 2.8 2.8 0 0 0 1.263-1.537zM45 2409c-6.075 0-11-4.925-11-11s4.925-11 11-11 11 4.925 11 11-4.925 11-11 11zm-.643-18c-.497 0-1.03.057-1.6.17-.573.132-1.127.413-1.66.843-.775.736-1.163 1.555-1.163 2.458 0 .748.273 1.403.82 1.965.524.603 1.285.912 2.282.923.19 0 .39-.01.602-.036l-.114.316c-.047.108-.07.244-.07.406 0 .27.06.502.184.694.106.2.226.385.362.56-.438.01-.987.065-1.65.16a5.902 5.902 0 0 0-1.91.68c-.542.317-.915.684-1.122 1.102-.212.418-.318.797-.318 1.137 0 .698.326 1.298.98 1.8.647.536 1.627.81 2.94.823 1.568-.024 2.768-.39 3.6-1.103.802-.688 1.202-1.477 1.202-2.368-.01-.63-.157-1.137-.438-1.526a6.32 6.32 0 0 0-1.04-1.05l-.635-.51a3.79 3.79 0 0 1-.284-.314.678.678 0 0 1-.172-.476.85.85 0 0 1 .167-.52c.096-.143.2-.272.31-.386.196-.167.38-.33.554-.493.156-.16.304-.338.444-.53.285-.394.433-.92.444-1.578 0-.36-.042-.672-.124-.942a3.502 3.502 0 0 0-.76-1.23 2.545 2.545 0 0 0-.396-.312h1.155l1.158-.663h-3.748zm7.624 5.732v-1.974h-1.153v1.974h-1.97v1.127h1.97v1.925h1.154v-1.926H54v-1.128h-2.02zm-6.844-.396c-.33.33-.74.504-1.233.522-.39 0-.738-.117-1.042-.35a2.85 2.85 0 0 1-.742-.855c-.397-.72-.595-1.41-.595-2.076a2.23 2.23 0 0 1 .407-1.366c.337-.388.76-.59 1.267-.6.384.01.724.122 1.02.33.288.223.522.51.7.864.377.737.566 1.468.566 2.193 0 .168-.014.375-.04.62a1.872 1.872 0 0 1-.307.72zm-.625 3.48c.7.48 1.212.883 1.54 1.212.31.347.466.753.466 1.22 0 .574-.227 1.043-.68 1.41-.466.37-1.14.56-2.023.573-.985-.012-1.76-.227-2.328-.645-.596-.42-.895-.95-.895-1.597 0-.33.07-.61.206-.844.12-.22.266-.406.44-.556.178-.143.354-.254.527-.332.173-.072.307-.125.403-.16.405-.12.802-.207 1.19-.26.394-.037.64-.05.734-.037.16 0 .3.005.42.017zM32 2383c-6.075 0-11-4.925-11-11s4.925-11 11-11 11 4.925 11 11-4.925 11-11 11zm3-17.9c-.25-.034-1.11-.1-2.11-.1-2.09 0-3.518 1.237-3.518 3.52v1.968H27v2.66h2.37V2380h2.833v-6.853h2.35l.35-2.66h-2.7v-1.703c0-.772.213-1.298 1.348-1.298H35v-2.387zM69 2279.616a19.695 19.695 0 0 1-5.656 1.55 9.877 9.877 0 0 0 4.33-5.446 19.738 19.738 0 0 1-6.253 2.39 9.837 9.837 0 0 0-7.188-3.11c-5.438 0-9.848 4.408-9.848 9.845 0 .772.087 1.523.255 2.244-8.185-.412-15.442-4.33-20.3-10.288a9.803 9.803 0 0 0-1.332 4.95c0 3.415 1.74 6.43 4.38 8.195a9.806 9.806 0 0 1-4.46-1.232v.124c0 4.77 3.394 8.75 7.9 9.653a9.86 9.86 0 0 1-4.448.17 9.858 9.858 0 0 0 9.2 6.837 19.763 19.763 0 0 1-12.23 4.214c-.796 0-1.58-.047-2.35-.137A27.88 27.88 0 0 0 36.096 2314c18.114 0 28.02-15.003 28.02-28.013 0-.427-.01-.852-.03-1.274a19.997 19.997 0 0 0 4.914-5.097zM61 2207c5.006-.09 8.146 5.305 8 8-.167 3.083-3 8-8 8-7.5 0-15.18-7-15-16 .25-12.583 16-20 16-20s-12.958 10.078-13 20c-.036 8.53 6.165.105 12 0zm-25 16c-7.5 0-15.18-7-15-16 .25-12.583 16-20 16-20s-12.958 10.078-13 20c-.036 8.53 6.165.105 12 0 5.006-.09 8.146 5.305 8 8-.167 3.083-3 8-8 8zM63.818 2139H61v-2h2a4 4 0 0 0 4-4v-2h2v2.857c0 2.84-2.32 5.143-5.182 5.143zM67 2125h2v4h-2v-4zm0-6h2v4h-2v-4zm0-6h2v4h-2v-4zm0-6h2v4h-2v-4zm0-6h2v4h-2v-4zm0-4a4 4 0 0 0-4-4h-2v-2h2.818c2.862 0 5.182 2.302 5.182 5.143V2099h-2v-2zm-8-6v2h-4v-2h4zm0 48h-4v-2h4v2zm-6-46h-4v-2h4v2zm0 46h-4v-2h4v2zm-6-46h-4v-2h4v2zm-10 44h4v2h-4v-2zm0-46h4v2h-4v-2zm-6 46h4v2h-4v-2zm0-46h4v2h-4v-2zm-10 42.857V2131h2v2a4 4 0 0 0 4 4h2v2h-2.818c-2.862 0-5.182-2.303-5.182-5.143zM23 2097v2h-2v-2.857c0-2.84 2.32-5.143 5.182-5.143H29v2h-2a4 4 0 0 0-4 4zm-2 4h2v4h-2v-4zm2 10h-2v-4h2v4zm0 6h-2v-4h2v4zm0 6h-2v-4h2v4zm-2 2h2v4h-2v-4zm26 14h-4v-2h4v2zM60 2121v-2.278a1.99 1.99 0 0 0 1-1.722v-12a2 2 0 0 0-2-2H35c-.738 0-1.376.405-1.723 1H31v1h25a3 3 0 0 1 3 3v14a3 3 0 0 1-3 3h-3v5l-5-5H30a3 3 0 0 1-3-3v-14a3 3 0 0 1 3-3h1v-1a3 3 0 0 1 3-3h26a3 3 0 0 1 3 3v14a3 3 0 0 1-3 3zM66 2032h-1v-2a2 2 0 0 0 2-2v-20a2 2 0 0 0-2-2H31a2 2 0 0 0-2 2h-2v-1a3 3 0 0 1 3-3h36a3 3 0 0 1 3 3v22a3 3 0 0 1-3 3zm-3-19v22a3 3 0 0 1-3 3h-3v8l-7-8H24a3 3 0 0 1-3-3v-22a3 3 0 0 1 3-3h36a3 3 0 0 1 3 3zM67 1951v-38H29v-2h40v40h-2zm-2-34v38h-2v-38H25v-2h40v2zm-4 42H21v-40h40v40zm-2-38H23v36h36v-36zm-24 26v-16l12 8-12 8zM74 1853h-3l7-8-7-8h3l7 8-7 8zm-49-28h40v40H25v-40zm2 38h36v-36H27v36zm13.063-20.01l10.555 17.185 4.936-8.038 5.448 8.87H28.998l11.065-18.017zm14.945-3.995a4 4 0 0 1-4-4.003 4 4 0 0 1 8 0 4 4 0 0 1-4 4.003zM16 1853l-7-8 7-8h3l-7 8 7 8h-3zM67 1771v-38H29v-2h40v40h-2zm-2-34v38h-2v-38H25v-2h40v2zm-4 42H21v-40h40v40zm-2-38H23v36h36v-36zm-12.382 33.174l4.936-8.037 5.448 8.87H24.998l11.065-18.017 10.555 17.184zm4.39-21.18a4 4 0 0 1-4-4 4 4 0 0 1 4-4.004 4 4 0 0 1 4 4.003 4 4 0 0 1-4 4.002zM21 1689v-48h48v48H21zm46-46H23v44h44v-44zm-14.978 40.99l6.17-9.823 6.81 10.84H24.998l13.83-22.02 13.194 21.004zm5.988-26.996c-2.76 0-5-2.24-5-5.004a5 5 0 0 1 10 0 5 5 0 0 1-5 5.004zM67 1565.39v-.39a4 4 0 0 0-4-4H27a4 4 0 0 0-4 4v28a4 4 0 0 0 4 4h36a4 4 0 0 0 4-4v-9.667l2-1.333v12a5 5 0 0 1-5 5H26a5 5 0 0 1-5-5v-38a5 5 0 0 1 5-5h2v6a2 2 0 0 0 4 0v-6h6v6a2 2 0 0 0 4 0v-6h6v6a2 2 0 0 0 4 0v-6h6v6a2 2 0 0 0 4 0v-6h2a5 5 0 0 1 5 5v8l-2 1.39zm-7-7.39a1 1 0 0 1-1-1v-7a1 1 0 0 1 2 0v7a1 1 0 0 1-1 1zm-10 0a1 1 0 0 1-1-1v-7a1 1 0 0 1 2 0v7a1 1 0 0 1-1 1zm-10 0a1 1 0 0 1-1-1v-7a1 1 0 0 1 2 0v7a1 1 0 0 1-1 1zm-10 0a1 1 0 0 1-1-1v-7a1 1 0 0 1 2 0v7a1 1 0 0 1-1 1z" class="cls-1"/><path d="M63.25 1568H62a1 1 0 0 1-1-1v-1a1 1 0 0 1 1-1h2a1 1 0 0 1 1 1v.783L63.25 1568zm-7.188 5H56a1 1 0 0 1-1-1v-1a1 1 0 0 1 1-1h2c.54 0 .97.428.992.962l-2.93 2.038zM52 1573h-2a1 1 0 0 1-1-1v-1a1 1 0 0 1 1-1h2a1 1 0 0 1 1 1v1a1 1 0 0 1-1 1zm-6 5h-2a1 1 0 0 1-1-1v-1a1 1 0 0 1 1-1h2a1 1 0 0 1 1 1v1a1 1 0 0 1-1 1zm0-5h-2a1 1 0 0 1-1-1v-1a1 1 0 0 1 1-1h2a1 1 0 0 1 1 1v1a1 1 0 0 1-1 1zm-6 15h-2a1 1 0 0 1-1-1v-1a1 1 0 0 1 1-1h2a1 1 0 0 1 1 1v1a1 1 0 0 1-1 1zm0-5h-2a1 1 0 0 1-1-1v-1a1 1 0 0 1 1-1h2a1 1 0 0 1 1 1v1a1 1 0 0 1-1 1zm0-5h-2a1 1 0 0 1-1-1v-1a1 1 0 0 1 1-1h2a1 1 0 0 1 1 1v1a1 1 0 0 1-1 1zm0-5h-2a1 1 0 0 1-1-1v-1a1 1 0 0 1 1-1h2a1 1 0 0 1 1 1v1a1 1 0 0 1-1 1zm-6 20h-2a1 1 0 0 1-1-1v-1a1 1 0 0 1 1-1h2a1 1 0 0 1 1 1v1a1 1 0 0 1-1 1zm0-5h-2a1 1 0 0 1-1-1v-1a1 1 0 0 1 1-1h2a1 1 0 0 1 1 1v1a1 1 0 0 1-1 1zm0-5h-2a1 1 0 0 1-1-1v-1a1 1 0 0 1 1-1h2a1 1 0 0 1 1 1v1a1 1 0 0 1-1 1zm0-5h-2a1 1 0 0 1-1-1v-1a1 1 0 0 1 1-1h2a1 1 0 0 1 1 1v1a1 1 0 0 1-1 1zm0-5h-2a1 1 0 0 1-1-1v-1a1 1 0 0 1 1-1h2a1 1 0 0 1 1 1v1a1 1 0 0 1-1 1zm-6 20h-2a1 1 0 0 1-1-1v-1a1 1 0 0 1 1-1h2a1 1 0 0 1 1 1v1a1 1 0 0 1-1 1zm0-5h-2a1 1 0 0 1-1-1v-1a1 1 0 0 1 1-1h2a1 1 0 0 1 1 1v1a1 1 0 0 1-1 1zm0-5h-2a1 1 0 0 1-1-1v-1a1 1 0 0 1 1-1h2a1 1 0 0 1 1 1v1a1 1 0 0 1-1 1zm0-5h-2a1 1 0 0 1-1-1v-1a1 1 0 0 1 1-1h2a1 1 0 0 1 1 1v1a1 1 0 0 1-1 1zm0-5h-2a1 1 0 0 1-1-1v-1a1 1 0 0 1 1-1h2a1 1 0 0 1 1 1v1a1 1 0 0 1-1 1zm36.383 12.078c.362.15.617.506.617.922v1a1 1 0 0 1-1 1h-2a.99.99 0 0 1-.94-.706l3.323-2.216zM50 1575h2c.288 0 .543.126.726.32l-3.43 2.388A.995.995 0 0 1 49 1577v-1a1 1 0 0 1 1-1zm-6 5h2l-2 3a1 1 0 0 1-1-1v-1a1 1 0 0 1 1-1z" class="cls-1"/><path d="M58 1568h-2a1 1 0 0 1-1-1v-1a1 1 0 0 1 1-1h2a1 1 0 0 1 1 1v1a1 1 0 0 1-1 1zm-6 0h-2a1 1 0 0 1-1-1v-1a1 1 0 0 1 1-1h2a1 1 0 0 1 1 1v1a1 1 0 0 1-1 1zm-6 0h-2a1 1 0 0 1-1-1v-1a1 1 0 0 1 1-1h2a1 1 0 0 1 1 1v1a1 1 0 0 1-1 1zm-6 0h-2a1 1 0 0 1-1-1v-1a1 1 0 0 1 1-1h2a1 1 0 0 1 1 1v1a1 1 0 0 1-1 1zm-6 0h-2a1 1 0 0 1-1-1v-1a1 1 0 0 1 1-1h2a1 1 0 0 1 1 1v1a1 1 0 0 1-1 1zm-6 0h-2a1 1 0 0 1-1-1v-1a1 1 0 0 1 1-1h2a1 1 0 0 1 1 1v1a1 1 0 0 1-1 1zm10 22h2a1 1 0 0 1 1 1v1a1 1 0 0 1-1 1h-2a1 1 0 0 1-1-1v-1a1 1 0 0 1 1-1zm14.962 2.19a.986.986 0 0 1-.962.81h-2a.967.967 0 0 1-.533-.176l3.495-.635zM57 1590h1a1 1 0 0 1 1 1v1a1 1 0 0 1-1 1h-2a1 1 0 0 1-1-1v-.667l2-1.333zm5 0h2a1 1 0 0 1 1 1v1a1 1 0 0 1-1 1h-2a1 1 0 0 1-1-1v-1a1 1 0 0 1 1-1z" class="cls-4"/><path d="M80.823 1572.44l-1.637 1.148-6.89-9.826 1.638-1.148a3 3 0 0 1 4.178.734l3.445 4.913a3 3 0 0 1-.734 4.18zm-22.107 15.5l-6.89-9.825 18.833-13.204 6.888 9.826-18.832 13.204zm-4.334 2.517c-.907.364-11.36 2.93-12.223 1.7-.816-1.163 5.203-10.223 5.825-10.942.99-1.148 2.204-1.952 2.204-1.952l6.888 9.826s-1.182.76-2.696 1.367zM59 1509H31a5 5 0 0 1-5-5v-31l12-12h7v2h-2v2h2v2h-2v2h2v2h-2v2h2v2h-2v2h2v2h-2v2h2v2h-2v2h2v2h-2v2h2v2h2v-2h-2v-2h2v-2h-2v-2h2v-2h-2v-2h2v-2h-2v-2h2v-2h-2v-2h2v-2h-2v-2h2v-2h-2v-2h2v-2h12a5 5 0 0 1 5 5v38a5 5 0 0 1-5 5zm3-42a4 4 0 0 0-4-4H48v29h-6v-29h-4v5a5 5 0 0 1-5 5h-5v30a4 4 0 0 0 4 4h26a4 4 0 0 0 4-4v-36zm-19 26h4v8h-4v-8zm1 3h2v-2h-2v2zM63.818 1419H61v-2h2a4 4 0 0 0 4-4v-2h2v2.857c0 2.84-2.32 5.143-5.182 5.143zM67 1405h2v4h-2v-4zm0-6h2v4h-2v-4zm0-6h2v4h-2v-4zm0-6h2v4h-2v-4zm0-6h2v4h-2v-4zm0-4a4 4 0 0 0-4-4h-2v-2h2.818c2.862 0 5.182 2.302 5.182 5.143V1379h-2v-2zm-8-6v2h-4v-2h4zm0 48h-4v-2h4v2zm-6-46h-4v-2h4v2zm0 46h-4v-2h4v2zm-6-46h-4v-2h4v2zm-10 44h4v2h-4v-2zm0-46h4v2h-4v-2zm-6 46h4v2h-4v-2zm0-46h4v2h-4v-2zm-10 42.857V1411h2v2a4 4 0 0 0 4 4h2v2h-2.818c-2.862 0-5.182-2.303-5.182-5.143zM23 1377v2h-2v-2.857c0-2.84 2.32-5.143 5.182-5.143H29v2h-2a4 4 0 0 0-4 4zm-2 4h2v4h-2v-4zm2 10h-2v-4h2v4zm0 6h-2v-4h2v4zm0 6h-2v-4h2v4zm-2 2h2v4h-2v-4zm26 14h-4v-2h4v2zM29 1411v-1h32v1H29zm0-3h32v1H29v-1zm0-2h32v1H29v-1zm4-3h28v2H33v-2zm-4-5h32v1H29v-1zm0-2h32v1H29v-1zm0-2h32v1H29v-1zm4-3h28v2H33v-2zm-4-5h32v1H29v-1zm0-2h32v1H29v-1zm0-2h32v1H29v-1zm4-3h28v2H33v-2zm-4 0h2v2h-2v-2zm2 14h-2v-2h2v2zm0 12h-2v-2h2v2zM59 1329H31a5 5 0 0 1-5-5v-27l16-16h17a5 5 0 0 1 5 5v38a5 5 0 0 1-5 5zm3-42a4 4 0 0 0-4-4H42v9a5 5 0 0 1-5 5h-9v26a4 4 0 0 0 4 4h26a4 4 0 0 0 4-4v-36z" class="cls-1"/><path d="M54.887 1303.128l-5.632 5.682a5 5 0 0 1-7.07.03c-.163-.16-.292-.34-.427-.516-.1-.048-.2-.104-.284-.187a1 1 0 1 1 1.408-1.42l.13-.13c.144.3.33.585.58.833a3 3 0 0 0 4.243-.018l5.632-5.682a3 3 0 0 0-4.262-4.224l-2.956 2.983-2.267-.557 3.802-3.835a5 5 0 0 1 7.102 7.04zm-7.07.03c.16.162.29.342.425.518.1.048.2.104.284.187a1 1 0 1 1-1.408 1.42l-.13.13c-.144-.3-.33-.585-.58-.834a3.002 3.002 0 0 0-4.243.018l-5.632 5.682a3 3 0 1 0 4.262 4.224l2.956-2.983 2.267.557-3.802 3.835a5 5 0 0 1-7.102-7.04l5.632-5.682a5 5 0 0 1 7.07-.03zM63.818 1239H61v-2h2a4 4 0 0 0 4-4v-2h2v2.857c0 2.84-2.32 5.143-5.182 5.143zM67 1225h2v4h-2v-4zm0-6h2v4h-2v-4zm0-6h2v4h-2v-4zm0-6h2v4h-2v-4zm0-6h2v4h-2v-4zm0-4a4 4 0 0 0-4-4h-2v-2h2.818c2.862 0 5.182 2.302 5.182 5.143V1199h-2v-2zm-8-6v2h-4v-2h4zm0 48h-4v-2h4v2zm-6-46h-4v-2h4v2zm0 46h-4v-2h4v2zm-6-46h-4v-2h4v2zm-10 44h4v2h-4v-2zm0-46h4v2h-4v-2zm-6 46h4v2h-4v-2zm0-46h4v2h-4v-2zm-10 42.857V1231h2v2a4 4 0 0 0 4 4h2v2h-2.818c-2.862 0-5.182-2.302-5.182-5.143zM23 1197v2h-2v-2.857c0-2.84 2.32-5.143 5.182-5.143H29v2h-2a4 4 0 0 0-4 4zm-2 4h2v4h-2v-4zm2 10h-2v-4h2v4zm0 6h-2v-4h2v4zm0 6h-2v-4h2v4zm-2 2h2v4h-2v-4zm26 14h-4v-2h4v2zM46 1231v-15h15v15H46zm0-32h15v15H46v-15zm-17 17h15v15H29v-15zm0-17h15v15H29v-15zM76.823 1119.44l-1.637 1.148-6.89-9.826 1.638-1.148a3 3 0 0 1 4.178.734l3.445 4.913a3 3 0 0 1-.734 4.18zm-22.107 15.5l-6.89-9.825 18.833-13.205 6.888 9.826-18.832 13.204zm-16.557 4.216c-.816-1.162 5.203-10.222 5.825-10.94.99-1.15 2.204-1.953 2.204-1.953l6.888 9.826s-1.182.76-2.696 1.367c-.907.364-11.36 2.93-12.223 1.7zM62 1107a4 4 0 0 0-4-4H42v9a5 5 0 0 1-5 5h-9v26a4 4 0 0 0 4 4h26a4 4 0 0 0 4-4v-10l2-2v13a5 5 0 0 1-5 5H31a5 5 0 0 1-5-5v-27l16-16h17a5 5 0 0 1 5 5v4l-2 2v-5zM67.828 1057.966a4 4 0 0 1-5.657 0l-11.51-11.503a21.097 21.097 0 0 0 5.684-5.63l11.482 11.476a4 4 0 0 1 .002 5.656zM39 1047c-9.94 0-18-8.06-18-18s8.06-18 18-18 18 8.06 18 18-8.06 18-18 18zm10-27.79v-.21h-.21a13.948 13.948 0 0 0-9.79-4c-7.732 0-14 6.268-14 14 0 3.812 1.528 7.264 4 9.79v.21h.21c2.526 2.472 5.978 4 9.79 4 3.812 0 7.264-1.528 9.79-4H49v-.21c2.472-2.526 4-5.978 4-9.79 0-3.812-1.528-7.264-4-9.79zM31 1029h-2c0-5.523 4.477-10 10-10v2a8 8 0 0 0-8 8zM63.818 969H26.182C23.32 969 21 966.698 21 963.857v-29.714c0-2.435 1.71-4.464 4-4.996v-3.004c0-2.84 2.32-5.143 5.182-5.143h8.636c2.862 0 5.182 2.302 5.182 5.143V929h2v-2.857c0-2.84 2.32-5.143 5.182-5.143h8.636c2.862 0 5.182 2.302 5.182 5.143v3.004c2.29.532 4 2.56 4 4.996v29.714c0 2.84-2.32 5.143-5.182 5.143zM63 926a3 3 0 0 0-3-3h-9a3 3 0 0 0-3 3v3h15v-3zm4 9a4 4 0 0 0-4-4H42v-5a3 3 0 0 0-3-3h-9a3 3 0 0 0-3 3v5a4 4 0 0 0-4 4v28a4 4 0 0 0 4 4h36a4 4 0 0 0 4-4v-28zM49 867c-3.048 5.188-4 12-4 12s-.94-6.838-4-12c-2.666-4.497-11-12.672-11-21 0-8.284 6.716-15 15-15 8.284 0 15 6.716 15 15 0 8.35-8.354 16.496-11 21zm-4-27a6 6 0 1 0 0 12 6 6 0 0 0 0-12zM72 788.94c-1.075 0-2.15 0-3.287-.063-5.94-.25-8.908-2.314-10.616-3.75-4.61 2.938-9.35 3.876-13.457 3.876-15.038 0-24.64-11.814-24.64-23.818 0-12.56 9.855-24.187 24.513-24.187 14.66 0 24.768 11.376 24.768 23.753 0 8.252-3.346 12.562-4.927 14.563 2.023 1.5 4.108 1.938 7.646 2.124v7.503zm-27.487-39.756c-7.202 0-13.078 4.814-14.53 12.314-.128 1.44-.128 2.438 0 3.314 1.64-.5 4.296-1.44 7.834-1.44 3.855 0 7.266.815 10.93 3.19 2.844 1.876 4.424 3.313 8.277 6.813 1.832-2.188 2.843-5.25 2.843-8.624 0-9.378-7.014-15.566-15.29-15.566h-.064zm.127 31.63c2.843 0 5.434-.812 6.76-1.688-1.39-1.626-3.98-3.813-4.928-4.562-3.033-2.312-6.382-3.252-9.605-3.252-2.653 0-4.357.5-5.75 1 2.91 6.44 9.417 8.502 13.46 8.502h.063zM63.556 685.246c0 1.34.062 2.205.185 2.594.124.39.34.704.652.943.31.24.598.36.86.36 1.065 0 2.072-.82 3.023-2.457l.737.546c-1.327 3.178-3.482 4.766-6.463 4.766-1.46 0-2.692-.41-3.7-1.23-1.007-.818-1.65-1.732-1.93-2.742-.163-.562-.244-2.085-.244-4.567V670.92h-2.998v-.87c2.064-1.472 3.82-3.02 5.27-4.64a28.244 28.244 0 0 0 3.797-5.438h.81v8.49h5.457v2.458h-5.456v14.324zm-15.26-22.653c-.64-.918-1.516-1.65-2.63-2.197-.622-.297-1.712-.446-3.268-.446h-2.482v25.966c0 1.722.094 2.797.283 3.228.187.43.555.806 1.105 1.13.548.322 1.298.483 2.248.483h1.106v.92H27.21v-.92h1.107c.967 0 1.745-.173 2.335-.52.426-.233.762-.63 1.007-1.193.18-.397.27-1.44.27-3.128V659.95h-2.41c-2.243 0-3.873.48-4.89 1.44-1.424 1.34-2.325 3.25-2.702 5.734h-.934v-9.11h29.93v9.11h-.883c-.524-2.102-1.105-3.612-1.744-4.53zM63.818 609H61v-2h2a4 4 0 0 0 4-4v-2h2v2.857c0 2.84-2.32 5.143-5.182 5.143zM67 595h2v4h-2v-4zm0-6h2v4h-2v-4zm0-6h2v4h-2v-4zm0-6h2v4h-2v-4zm0-6h2v4h-2v-4zm0-4a4 4 0 0 0-4-4h-2v-2h2.818c2.862 0 5.182 2.302 5.182 5.143V569h-2v-2zm-8-6v2h-4v-2h4zm0 48h-4v-2h4v2zm-6-46h-4v-2h4v2zm0 46h-4v-2h4v2zm-6-46h-4v-2h4v2zm-10 44h4v2h-4v-2zm0-46h4v2h-4v-2zm-6 46h4v2h-4v-2zm0-46h4v2h-4v-2zm-10 42.857V601h2v2a4 4 0 0 0 4 4h2v2h-2.818C23.32 609 21 606.698 21 603.857zM23 567v2h-2v-2.857c0-2.84 2.32-5.143 5.182-5.143H29v2h-2a4 4 0 0 0-4 4zm-2 4h2v4h-2v-4zm2 10h-2v-4h2v4zm0 6h-2v-4h2v4zm0 6h-2v-4h2v4zm-2 2h2v4h-2v-4zm26 14h-4v-2h4v2zM67 519v-3h2v3h-2zm0-9h2v4h-2v-4zm0-4a4 4 0 0 0-4-4h-2v-2h2.818c2.862 0 5.182 2.302 5.182 5.143V508h-2v-2zm-3.182-16H61v-2h2a4 4 0 0 0 4-4v-2h2v2.857c0 2.84-2.32 5.143-5.182 5.143zM67 476h2v4h-2v-4zm0-5h2v3h-2v-3zm-12 17h4v2h-4v-2zm-2 14h-4v-2h4v2zm-4-14h4v2h-4v-2zm-2 14h-4v-2h4v2zm-4-14h4v2h-4v-2zm-6 0h4v2h-4v-2zm4 14h-4v-2h4v2zm-10-14h4v2h-4v-2zm4 14h-4v-2h4v2zm-14-17.143V482h2v2a4 4 0 0 0 4 4h2v2h-2.818C23.32 490 21 487.698 21 484.857zM21 480v-4h2v4h-2zm0-6v-3h2v3h-2zm5.182 26H29v2h-2a4 4 0 0 0-4 4v2h-2v-2.857c0-2.84 2.32-5.143 5.182-5.143zM21 510h2v4h-2v-4zm2 9h-2v-3h2v3zm36-19v2h-4v-2h4zM21 406v-2h48v2H21zm42.818-6H61v-2h2a4 4 0 0 0 4-4v-2h2v2.857c0 2.84-2.32 5.143-5.182 5.143zM67 386h2v4h-2v-4zm0-5h2v3h-2v-3zm-12 17h4v2h-4v-2zm-6 0h4v2h-4v-2zm-6 0h4v2h-4v-2zm-6 0h4v2h-4v-2zm-6 0h4v2h-4v-2zm-10-3.143V392h2v2a4 4 0 0 0 4 4h2v2h-2.818C23.32 400 21 397.697 21 394.857zM21 390v-4h2v4h-2zm0-6v-3h2v3h-2zm5.182 26H29v2h-2a4 4 0 0 0-4 4v2h-2v-2.857c0-2.84 2.32-5.143 5.182-5.143zM23 420v4h-2v-4h2zm0 9h-2v-3h2v3zm12-17h-4v-2h4v2zm6 0h-4v-2h4v2zm6 0h-4v-2h4v2zm6 0h-4v-2h4v2zm6 0h-4v-2h4v2zm10 3.143V418h-2v-2a4 4 0 0 0-4-4h-2v-2h2.818c2.862 0 5.182 2.302 5.182 5.143zM69 424h-2v-4h2v4zm0 5h-2v-3h2v3zM66 328H32a3 3 0 0 1 0-6h34a3 3 0 0 1 0 6zm0-10H32a3 3 0 0 1 0-6h34a3 3 0 0 1 0 6zm0-10H32a3 3 0 0 1 0-6h34a3 3 0 0 1 0 6zm0-10H32a3 3 0 0 1 0-6h34a3 3 0 0 1 0 6zm-42 40a3 3 0 1 1 0-6 3 3 0 0 1 0 6zm0-10a3 3 0 1 1 0-6 3 3 0 0 1 0 6zm0-10a3 3 0 1 1 0-6 3 3 0 0 1 0 6zm0-10a3 3 0 1 1 0-6 3 3 0 0 1 0 6zm0-10a3 3 0 1 1 0-6 3 3 0 0 1 0 6zm8 34h34a3 3 0 0 1 0 6H32a3 3 0 0 1 0-6zM64 249h-4a5 5 0 0 1-5-5v-38a5 5 0 0 1 5-5h4a5 5 0 0 1 5 5v38a5 5 0 0 1-5 5zm3-43a3 3 0 0 0-3-3h-4a3 3 0 0 0-3 3v38a3 3 0 0 0 3 3h4a3 3 0 0 0 3-3v-38zm-20 43h-4a5 5 0 0 1-5-5v-38a5 5 0 0 1 5-5h4a5 5 0 0 1 5 5v38a5 5 0 0 1-5 5zm3-43a3 3 0 0 0-3-3h-4a3 3 0 0 0-3 3v38a3 3 0 0 0 3 3h4a3 3 0 0 0 3-3v-38zm-20 43h-4a5 5 0 0 1-5-5v-38a5 5 0 0 1 5-5h4a5 5 0 0 1 5 5v38a5 5 0 0 1-5 5zm3-43a3 3 0 0 0-3-3h-4a3 3 0 0 0-3 3v38a3 3 0 0 0 3 3h4a3 3 0 0 0 3-3v-38zM64.414 145.97l-1.996-.693c-.866 1.817-2.592 5.108-4.418 6.723-3.48 3.077-8.595 4.495-10 5-2 .72-3 2-3 2s-1-1.28-3-2c-1.405-.505-6.52-1.923-10-5-1.943-1.72-3.777-5.343-4.578-7.06l-2.058.75c-.31.113-.64-.076-.558-.413l1.543-6.13c.075-.3.47-.44.722-.262.28.2 4.814 3.47 5.134 3.71.234.176.178.538-.164.663l-1.507.55c1.01 1.478 3.295 4.62 5.465 6.192 1.752 1.27 4.26 2.156 5 2 1.187-.25 1-2 1-2h.094l.625-20H37.5a1.5 1.5 0 0 1 0-3h5.313l.136-4.383c-2.3-.84-3.95-3.027-3.95-5.617a6 6 0 0 1 12 0c0 2.59-1.65 4.777-3.95 5.617L47.19 127H52.5a1.5 1.5 0 0 1 0 3h-5.22l.626 20H48s-.187 1.75 1 2c.74.156 3.248-.73 5-2 2.008-1.455 4.113-4.253 5.217-5.835-.997-.347-1.776-.617-1.896-.66-.363-.126-.422-.493-.173-.67.34-.245 5.154-3.56 5.453-3.762.268-.18.687-.04.768.267l1.64 6.212c.087.34-.264.533-.594.42zM49 117a4 4 0 1 0-8 0 4 4 0 0 0 8 0zM54 53v4h-4.173a11.906 11.906 0 0 1-2.06 4.937l2.962 2.96-2.83 2.83-2.964-2.964A11.924 11.924 0 0 1 40 66.82V71h-4v-4.18a11.94 11.94 0 0 1-4.934-2.055l-2.964 2.964-2.83-2.83 2.963-2.962A11.895 11.895 0 0 1 26.173 57H22v-4h4.173a11.9 11.9 0 0 1 2.06-4.937l-2.962-2.96 2.83-2.83 2.964 2.964A11.924 11.924 0 0 1 36 43.18V39h4v4.18a11.94 11.94 0 0 1 4.934 2.055l2.964-2.964 2.83 2.83-2.963 2.962A11.895 11.895 0 0 1 49.827 53H54zm-16-4a6 6 0 1 0 0 12 6 6 0 0 0 0-12z" class="cls-1"/><path d="M67 30.5v3h-3.136a8.94 8.94 0 0 1-1.542 3.7l2.225 2.224-2.12 2.12-2.226-2.223a8.934 8.934 0 0 1-3.7 1.545V44h-3v-3.135a8.92 8.92 0 0 1-3.7-1.543l-2.224 2.225-2.12-2.122 2.223-2.224a8.938 8.938 0 0 1-1.544-3.7H43v-3h3.136a8.94 8.94 0 0 1 1.542-3.7l-2.225-2.224 2.12-2.12 2.226 2.222a8.932 8.932 0 0 1 3.7-1.543V20h3v3.135c1.365.23 2.62.773 3.7 1.542l2.224-2.224 2.12 2.12-2.223 2.226a8.938 8.938 0 0 1 1.544 3.7H67zM55 27a5 5 0 1 0 0 10 5 5 0 0 0 0-10z" class="cls-2"/><path class="cls-7" d="M0 0h1v1H0zM89 5129h1v1h-1z"/></svg>